# MagicaVoxel @ Ephtracy

# group
o 

# material
mtllib espada.mtl
usemtl palette

# normals
vn -1 0 0
vn 1 0 0
vn 0 0 1
vn 0 0 -1
vn 0 -1 0
vn 0 1 0

# texcoords
vt 0.0371094 0.5
vt 0.0683594 0.5
vt 0.0917969 0.5
vt 0.115234 0.5
vt 0.138672 0.5
vt 0.306641 0.5
vt 0.845703 0.5
vt 0.861328 0.5
vt 0.994141 0.5

# verts
v -0.4 1.6 -0.7
v -0.4 1.6 -0.8
v -0.4 1.6 -0.9
v -0.4 1.6 -1
v -0.4 1.8 -0.7
v -0.4 1.8 -0.8
v -0.4 1.8 -0.9
v -0.4 1.8 -1
v -0.2 1.4 -0.7
v -0.2 1.4 -0.8
v -0.2 1.4 -0.9
v -0.2 1.4 -1
v -0.2 1.6 -0.7
v -0.2 1.6 -0.8
v -0.2 1.6 -0.9
v -0.2 1.6 -1
v -0.2 2 -0.7
v -0.2 2 -0.8
v -0.2 2 -0.9
v -0.2 2 -1
v -0.2 2.2 -0.7
v -0.2 2.2 -0.8
v -0.2 2.2 -0.9
v -0.2 2.2 -1
v -0.2 2.6 -0.7
v -0.2 2.6 -0.8
v -0.2 2.6 -0.9
v -0.2 2.6 -1
v -0.2 2.8 -0.7
v -0.2 2.8 -0.8
v -0.2 2.8 -0.9
v -0.2 2.8 -1
v -0.1 0.7 -0.7
v -0.1 0.7 -0.8
v -0.1 0.7 -0.9
v -0.1 0.7 -1
v -0.1 0.8 -0.7
v -0.1 0.8 -0.8
v -0.1 0.8 -0.9
v -0.1 0.8 -1
v -0.1 1.8 -0.7
v -0.1 1.8 -0.8
v -0.1 1.8 -0.9
v -0.1 1.8 -1
v -0.1 1.9 -0.7
v -0.1 1.9 -0.8
v -0.1 1.9 -0.9
v -0.1 1.9 -1
v -0.1 2 -0.7
v -0.1 2 -0.8
v -0.1 2 -0.9
v -0.1 2 -1
v -0.1 2.2 -0.7
v -0.1 2.2 -0.8
v -0.1 2.2 -0.9
v -0.1 2.2 -1
v -0.1 2.3 -0.7
v -0.1 2.3 -0.8
v -0.1 2.3 -0.9
v -0.1 2.3 -1
v -0.1 2.5 -0.7
v -0.1 2.5 -0.8
v -0.1 2.5 -0.9
v -0.1 2.5 -1
v -0.1 2.6 -0.7
v -0.1 2.6 -0.8
v -0.1 2.6 -0.9
v -0.1 2.6 -1
v -0.1 2.8 -0.7
v -0.1 2.8 -0.8
v -0.1 2.8 -0.9
v -0.1 2.8 -1
v -0.1 2.9 -0.7
v -0.1 2.9 -0.8
v -0.1 2.9 -0.9
v -0.1 2.9 -1
v 0 0.6 -0.7
v 0 0.6 -0.8
v 0 0.6 -0.9
v 0 0.6 -1
v 0 0.7 -0.7
v 0 0.7 -0.8
v 0 0.7 -0.9
v 0 0.7 -1
v 0 0.8 -0.7
v 0 0.8 -0.8
v 0 0.8 -0.9
v 0 0.8 -1
v 0 1.4 -0.7
v 0 1.4 -0.8
v 0 1.4 -0.9
v 0 1.4 -1
v 0 2.9 -0.7
v 0 2.9 -0.8
v 0 2.9 -0.9
v 0 2.9 -1
v 0 3 -0.7
v 0 3 -0.8
v 0 3 -0.9
v 0 3 -1
v 0.1 0.6 -0.7
v 0.1 0.6 -0.8
v 0.1 0.6 -0.9
v 0.1 0.6 -1
v 0.1 0.7 -0.7
v 0.1 0.7 -0.8
v 0.1 0.7 -0.9
v 0.1 0.7 -1
v 0.1 0.8 -0.7
v 0.1 0.8 -0.8
v 0.1 0.8 -0.9
v 0.1 0.8 -1
v 0.1 1.4 -0.7
v 0.1 1.4 -0.8
v 0.1 1.4 -0.9
v 0.1 1.4 -1
v 0.1 2.9 -0.7
v 0.1 2.9 -0.8
v 0.1 2.9 -0.9
v 0.1 2.9 -1
v 0.1 3 -0.7
v 0.1 3 -0.8
v 0.1 3 -0.9
v 0.1 3 -1
v 0.2 0.7 -0.7
v 0.2 0.7 -0.8
v 0.2 0.7 -0.9
v 0.2 0.7 -1
v 0.2 0.8 -0.7
v 0.2 0.8 -0.8
v 0.2 0.8 -0.9
v 0.2 0.8 -1
v 0.2 1.8 -0.7
v 0.2 1.8 -0.8
v 0.2 1.8 -0.9
v 0.2 1.8 -1
v 0.2 1.9 -0.7
v 0.2 1.9 -0.8
v 0.2 1.9 -0.9
v 0.2 1.9 -1
v 0.2 2 -0.7
v 0.2 2 -0.8
v 0.2 2 -0.9
v 0.2 2 -1
v 0.2 2.2 -0.7
v 0.2 2.2 -0.8
v 0.2 2.2 -0.9
v 0.2 2.2 -1
v 0.2 2.3 -0.7
v 0.2 2.3 -0.8
v 0.2 2.3 -0.9
v 0.2 2.3 -1
v 0.2 2.5 -0.7
v 0.2 2.5 -0.8
v 0.2 2.5 -0.9
v 0.2 2.5 -1
v 0.2 2.6 -0.7
v 0.2 2.6 -0.8
v 0.2 2.6 -0.9
v 0.2 2.6 -1
v 0.2 2.8 -0.7
v 0.2 2.8 -0.8
v 0.2 2.8 -0.9
v 0.2 2.8 -1
v 0.2 2.9 -0.7
v 0.2 2.9 -0.8
v 0.2 2.9 -0.9
v 0.2 2.9 -1
v 0.3 1.4 -0.7
v 0.3 1.4 -0.8
v 0.3 1.4 -0.9
v 0.3 1.4 -1
v 0.3 1.6 -0.7
v 0.3 1.6 -0.8
v 0.3 1.6 -0.9
v 0.3 1.6 -1
v 0.3 2 -0.7
v 0.3 2 -0.8
v 0.3 2 -0.9
v 0.3 2 -1
v 0.3 2.2 -0.7
v 0.3 2.2 -0.8
v 0.3 2.2 -0.9
v 0.3 2.2 -1
v 0.3 2.6 -0.7
v 0.3 2.6 -0.8
v 0.3 2.6 -0.9
v 0.3 2.6 -1
v 0.3 2.8 -0.7
v 0.3 2.8 -0.8
v 0.3 2.8 -0.9
v 0.3 2.8 -1
v 0.5 1.6 -0.7
v 0.5 1.6 -0.8
v 0.5 1.6 -0.9
v 0.5 1.6 -1
v 0.5 1.8 -0.7
v 0.5 1.8 -0.8
v 0.5 1.8 -0.9
v 0.5 1.8 -1
v -0.4 1.6 -0.7
v -0.4 1.8 -0.7
v -0.2 1.4 -0.7
v -0.2 1.6 -0.7
v -0.2 2 -0.7
v -0.2 2.2 -0.7
v -0.2 2.6 -0.7
v -0.2 2.8 -0.7
v -0.1 0.7 -0.7
v -0.1 0.8 -0.7
v -0.1 1.5 -0.7
v -0.1 1.7 -0.7
v -0.1 1.8 -0.7
v -0.1 1.9 -0.7
v -0.1 2 -0.7
v -0.1 2.1 -0.7
v -0.1 2.2 -0.7
v -0.1 2.3 -0.7
v -0.1 2.5 -0.7
v -0.1 2.6 -0.7
v -0.1 2.7 -0.7
v -0.1 2.8 -0.7
v -0.1 2.9 -0.7
v 0 0.6 -0.7
v 0 0.7 -0.7
v 0 0.8 -0.7
v 0 1.4 -0.7
v 0 1.9 -0.7
v 0 2 -0.7
v 0 2.1 -0.7
v 0 2.2 -0.7
v 0 2.3 -0.7
v 0 2.4 -0.7
v 0 2.5 -0.7
v 0 2.6 -0.7
v 0 2.7 -0.7
v 0 2.8 -0.7
v 0 2.9 -0.7
v 0 3 -0.7
v 0.1 0.6 -0.7
v 0.1 0.7 -0.7
v 0.1 0.8 -0.7
v 0.1 1.4 -0.7
v 0.1 1.9 -0.7
v 0.1 2 -0.7
v 0.1 2.1 -0.7
v 0.1 2.2 -0.7
v 0.1 2.3 -0.7
v 0.1 2.4 -0.7
v 0.1 2.5 -0.7
v 0.1 2.6 -0.7
v 0.1 2.7 -0.7
v 0.1 2.8 -0.7
v 0.1 2.9 -0.7
v 0.1 3 -0.7
v 0.2 0.7 -0.7
v 0.2 0.8 -0.7
v 0.2 1.5 -0.7
v 0.2 1.7 -0.7
v 0.2 1.8 -0.7
v 0.2 1.9 -0.7
v 0.2 2 -0.7
v 0.2 2.1 -0.7
v 0.2 2.2 -0.7
v 0.2 2.3 -0.7
v 0.2 2.5 -0.7
v 0.2 2.6 -0.7
v 0.2 2.7 -0.7
v 0.2 2.8 -0.7
v 0.2 2.9 -0.7
v 0.3 1.4 -0.7
v 0.3 1.6 -0.7
v 0.3 2 -0.7
v 0.3 2.2 -0.7
v 0.3 2.6 -0.7
v 0.3 2.8 -0.7
v 0.5 1.6 -0.7
v 0.5 1.8 -0.7
v -0.4 1.6 -1
v -0.4 1.8 -1
v -0.2 1.4 -1
v -0.2 1.6 -1
v -0.2 2 -1
v -0.2 2.2 -1
v -0.2 2.6 -1
v -0.2 2.8 -1
v -0.1 0.7 -1
v -0.1 0.8 -1
v -0.1 1.5 -1
v -0.1 1.7 -1
v -0.1 1.8 -1
v -0.1 1.9 -1
v -0.1 2 -1
v -0.1 2.1 -1
v -0.1 2.2 -1
v -0.1 2.3 -1
v -0.1 2.5 -1
v -0.1 2.6 -1
v -0.1 2.7 -1
v -0.1 2.8 -1
v -0.1 2.9 -1
v 0 0.6 -1
v 0 0.7 -1
v 0 0.8 -1
v 0 1.4 -1
v 0 1.9 -1
v 0 2 -1
v 0 2.1 -1
v 0 2.2 -1
v 0 2.3 -1
v 0 2.4 -1
v 0 2.5 -1
v 0 2.6 -1
v 0 2.7 -1
v 0 2.8 -1
v 0 2.9 -1
v 0 3 -1
v 0.1 0.6 -1
v 0.1 0.7 -1
v 0.1 0.8 -1
v 0.1 1.4 -1
v 0.1 1.9 -1
v 0.1 2 -1
v 0.1 2.1 -1
v 0.1 2.2 -1
v 0.1 2.3 -1
v 0.1 2.4 -1
v 0.1 2.5 -1
v 0.1 2.6 -1
v 0.1 2.7 -1
v 0.1 2.8 -1
v 0.1 2.9 -1
v 0.1 3 -1
v 0.2 0.7 -1
v 0.2 0.8 -1
v 0.2 1.5 -1
v 0.2 1.7 -1
v 0.2 1.8 -1
v 0.2 1.9 -1
v 0.2 2 -1
v 0.2 2.1 -1
v 0.2 2.2 -1
v 0.2 2.3 -1
v 0.2 2.5 -1
v 0.2 2.6 -1
v 0.2 2.7 -1
v 0.2 2.8 -1
v 0.2 2.9 -1
v 0.3 1.4 -1
v 0.3 1.6 -1
v 0.3 2 -1
v 0.3 2.2 -1
v 0.3 2.6 -1
v 0.3 2.8 -1
v 0.5 1.6 -1
v 0.5 1.8 -1
v 0 0.6 -0.7
v 0.1 0.6 -0.7
v 0 0.6 -0.8
v 0.1 0.6 -0.8
v 0 0.6 -0.9
v 0.1 0.6 -0.9
v 0 0.6 -1
v 0.1 0.6 -1
v -0.1 0.7 -0.7
v 0 0.7 -0.7
v 0.1 0.7 -0.7
v 0.2 0.7 -0.7
v -0.1 0.7 -0.8
v 0 0.7 -0.8
v 0.1 0.7 -0.8
v 0.2 0.7 -0.8
v -0.1 0.7 -0.9
v 0 0.7 -0.9
v 0.1 0.7 -0.9
v 0.2 0.7 -0.9
v -0.1 0.7 -1
v 0 0.7 -1
v 0.1 0.7 -1
v 0.2 0.7 -1
v -0.2 1.4 -0.7
v 0 1.4 -0.7
v 0.1 1.4 -0.7
v 0.3 1.4 -0.7
v -0.2 1.4 -0.8
v 0 1.4 -0.8
v 0.1 1.4 -0.8
v 0.3 1.4 -0.8
v -0.2 1.4 -0.9
v 0 1.4 -0.9
v 0.1 1.4 -0.9
v 0.3 1.4 -0.9
v -0.2 1.4 -1
v 0 1.4 -1
v 0.1 1.4 -1
v 0.3 1.4 -1
v -0.4 1.6 -0.7
v -0.2 1.6 -0.7
v 0.3 1.6 -0.7
v 0.5 1.6 -0.7
v -0.4 1.6 -0.8
v -0.2 1.6 -0.8
v 0.3 1.6 -0.8
v 0.5 1.6 -0.8
v -0.4 1.6 -0.9
v -0.2 1.6 -0.9
v 0.3 1.6 -0.9
v 0.5 1.6 -0.9
v -0.4 1.6 -1
v -0.2 1.6 -1
v 0.3 1.6 -1
v 0.5 1.6 -1
v -0.2 2 -0.7
v -0.1 2 -0.7
v 0.2 2 -0.7
v 0.3 2 -0.7
v -0.2 2 -0.8
v -0.1 2 -0.8
v 0.2 2 -0.8
v 0.3 2 -0.8
v -0.2 2 -0.9
v -0.1 2 -0.9
v 0.2 2 -0.9
v 0.3 2 -0.9
v -0.2 2 -1
v -0.1 2 -1
v 0.2 2 -1
v 0.3 2 -1
v -0.2 2.6 -0.7
v -0.1 2.6 -0.7
v 0.2 2.6 -0.7
v 0.3 2.6 -0.7
v -0.2 2.6 -0.8
v -0.1 2.6 -0.8
v 0.2 2.6 -0.8
v 0.3 2.6 -0.8
v -0.2 2.6 -0.9
v -0.1 2.6 -0.9
v 0.2 2.6 -0.9
v 0.3 2.6 -0.9
v -0.2 2.6 -1
v -0.1 2.6 -1
v 0.2 2.6 -1
v 0.3 2.6 -1
v -0.1 0.8 -0.7
v 0 0.8 -0.7
v 0.1 0.8 -0.7
v 0.2 0.8 -0.7
v -0.1 0.8 -0.8
v 0 0.8 -0.8
v 0.1 0.8 -0.8
v 0.2 0.8 -0.8
v -0.1 0.8 -0.9
v 0 0.8 -0.9
v 0.1 0.8 -0.9
v 0.2 0.8 -0.9
v -0.1 0.8 -1
v 0 0.8 -1
v 0.1 0.8 -1
v 0.2 0.8 -1
v -0.4 1.8 -0.7
v -0.1 1.8 -0.7
v 0.2 1.8 -0.7
v 0.5 1.8 -0.7
v -0.4 1.8 -0.8
v -0.1 1.8 -0.8
v 0.2 1.8 -0.8
v 0.5 1.8 -0.8
v -0.4 1.8 -0.9
v -0.1 1.8 -0.9
v 0.2 1.8 -0.9
v 0.5 1.8 -0.9
v -0.4 1.8 -1
v -0.1 1.8 -1
v 0.2 1.8 -1
v 0.5 1.8 -1
v -0.2 2.2 -0.7
v -0.1 2.2 -0.7
v 0.2 2.2 -0.7
v 0.3 2.2 -0.7
v -0.2 2.2 -0.8
v -0.1 2.2 -0.8
v 0.2 2.2 -0.8
v 0.3 2.2 -0.8
v -0.2 2.2 -0.9
v -0.1 2.2 -0.9
v 0.2 2.2 -0.9
v 0.3 2.2 -0.9
v -0.2 2.2 -1
v -0.1 2.2 -1
v 0.2 2.2 -1
v 0.3 2.2 -1
v -0.2 2.8 -0.7
v -0.1 2.8 -0.7
v 0.2 2.8 -0.7
v 0.3 2.8 -0.7
v -0.2 2.8 -0.8
v -0.1 2.8 -0.8
v 0.2 2.8 -0.8
v 0.3 2.8 -0.8
v -0.2 2.8 -0.9
v -0.1 2.8 -0.9
v 0.2 2.8 -0.9
v 0.3 2.8 -0.9
v -0.2 2.8 -1
v -0.1 2.8 -1
v 0.2 2.8 -1
v 0.3 2.8 -1
v -0.1 2.9 -0.7
v 0 2.9 -0.7
v 0.1 2.9 -0.7
v 0.2 2.9 -0.7
v -0.1 2.9 -0.8
v 0 2.9 -0.8
v 0.1 2.9 -0.8
v 0.2 2.9 -0.8
v -0.1 2.9 -0.9
v 0 2.9 -0.9
v 0.1 2.9 -0.9
v 0.2 2.9 -0.9
v -0.1 2.9 -1
v 0 2.9 -1
v 0.1 2.9 -1
v 0.2 2.9 -1
v 0 3 -0.7
v 0.1 3 -0.7
v 0 3 -0.8
v 0.1 3 -0.8
v 0 3 -0.9
v 0.1 3 -0.9
v 0 3 -1
v 0.1 3 -1

# faces
f 5/9/1 2/9/1 1/9/1
f 6/7/1 3/7/1 2/7/1
f 6/9/1 2/9/1 5/9/1
f 7/9/1 4/9/1 3/9/1
f 7/7/1 3/7/1 6/7/1
f 8/9/1 4/9/1 7/9/1
f 13/9/1 10/9/1 9/9/1
f 14/7/1 11/7/1 10/7/1
f 14/9/1 10/9/1 13/9/1
f 15/9/1 12/9/1 11/9/1
f 15/7/1 11/7/1 14/7/1
f 16/9/1 12/9/1 15/9/1
f 21/9/1 18/9/1 17/9/1
f 22/7/1 19/7/1 18/7/1
f 22/9/1 18/9/1 21/9/1
f 23/9/1 20/9/1 19/9/1
f 23/7/1 19/7/1 22/7/1
f 24/9/1 20/9/1 23/9/1
f 29/9/1 26/9/1 25/9/1
f 30/7/1 27/7/1 26/7/1
f 30/9/1 26/9/1 29/9/1
f 31/9/1 28/9/1 27/9/1
f 31/7/1 27/7/1 30/7/1
f 32/9/1 28/9/1 31/9/1
f 37/9/1 34/9/1 33/9/1
f 38/7/1 35/7/1 34/7/1
f 38/9/1 34/9/1 37/9/1
f 39/9/1 36/9/1 35/9/1
f 39/7/1 35/7/1 38/7/1
f 40/9/1 36/9/1 39/9/1
f 45/1/1 42/1/1 41/1/1
f 46/7/1 43/7/1 42/7/1
f 46/1/1 42/1/1 45/1/1
f 47/1/1 44/1/1 43/1/1
f 47/7/1 43/7/1 46/7/1
f 48/1/1 44/1/1 47/1/1
f 49/2/1 46/2/1 45/2/1
f 50/7/1 47/7/1 46/7/1
f 50/2/1 46/2/1 49/2/1
f 51/2/1 48/2/1 47/2/1
f 51/7/1 47/7/1 50/7/1
f 52/2/1 48/2/1 51/2/1
f 57/3/1 54/3/1 53/3/1
f 58/7/1 55/7/1 54/7/1
f 58/3/1 54/3/1 57/3/1
f 59/3/1 56/3/1 55/3/1
f 59/7/1 55/7/1 58/7/1
f 60/3/1 56/3/1 59/3/1
f 61/4/1 58/4/1 57/4/1
f 62/7/1 59/7/1 58/7/1
f 62/4/1 58/4/1 61/4/1
f 63/4/1 60/4/1 59/4/1
f 63/7/1 59/7/1 62/7/1
f 64/4/1 60/4/1 63/4/1
f 65/5/1 62/5/1 61/5/1
f 66/7/1 63/7/1 62/7/1
f 66/5/1 62/5/1 65/5/1
f 67/5/1 64/5/1 63/5/1
f 67/7/1 63/7/1 66/7/1
f 68/5/1 64/5/1 67/5/1
f 73/9/1 70/9/1 69/9/1
f 74/7/1 71/7/1 70/7/1
f 74/9/1 70/9/1 73/9/1
f 75/9/1 72/9/1 71/9/1
f 75/7/1 71/7/1 74/7/1
f 76/9/1 72/9/1 75/9/1
f 81/9/1 78/9/1 77/9/1
f 82/7/1 79/7/1 78/7/1
f 82/9/1 78/9/1 81/9/1
f 83/9/1 80/9/1 79/9/1
f 83/7/1 79/7/1 82/7/1
f 84/9/1 80/9/1 83/9/1
f 89/9/1 86/9/1 85/9/1
f 90/7/1 87/7/1 86/7/1
f 90/9/1 86/9/1 89/9/1
f 91/9/1 88/9/1 87/9/1
f 91/7/1 87/7/1 90/7/1
f 92/9/1 88/9/1 91/9/1
f 97/9/1 94/9/1 93/9/1
f 98/7/1 95/7/1 94/7/1
f 98/9/1 94/9/1 97/9/1
f 99/9/1 96/9/1 95/9/1
f 99/7/1 95/7/1 98/7/1
f 100/9/1 96/9/1 99/9/1
f 101/9/2 102/9/2 105/9/2
f 102/7/2 103/7/2 106/7/2
f 105/9/2 102/9/2 106/9/2
f 103/9/2 104/9/2 107/9/2
f 106/7/2 103/7/2 107/7/2
f 107/9/2 104/9/2 108/9/2
f 109/9/2 110/9/2 113/9/2
f 110/7/2 111/7/2 114/7/2
f 113/9/2 110/9/2 114/9/2
f 111/9/2 112/9/2 115/9/2
f 114/7/2 111/7/2 115/7/2
f 115/9/2 112/9/2 116/9/2
f 117/9/2 118/9/2 121/9/2
f 118/7/2 119/7/2 122/7/2
f 121/9/2 118/9/2 122/9/2
f 119/9/2 120/9/2 123/9/2
f 122/7/2 119/7/2 123/7/2
f 123/9/2 120/9/2 124/9/2
f 125/9/2 126/9/2 129/9/2
f 126/7/2 127/7/2 130/7/2
f 129/9/2 126/9/2 130/9/2
f 127/9/2 128/9/2 131/9/2
f 130/7/2 127/7/2 131/7/2
f 131/9/2 128/9/2 132/9/2
f 133/1/2 134/1/2 137/1/2
f 134/7/2 135/7/2 138/7/2
f 137/1/2 134/1/2 138/1/2
f 135/1/2 136/1/2 139/1/2
f 138/7/2 135/7/2 139/7/2
f 139/1/2 136/1/2 140/1/2
f 137/2/2 138/2/2 141/2/2
f 138/7/2 139/7/2 142/7/2
f 141/2/2 138/2/2 142/2/2
f 139/2/2 140/2/2 143/2/2
f 142/7/2 139/7/2 143/7/2
f 143/2/2 140/2/2 144/2/2
f 145/3/2 146/3/2 149/3/2
f 146/7/2 147/7/2 150/7/2
f 149/3/2 146/3/2 150/3/2
f 147/3/2 148/3/2 151/3/2
f 150/7/2 147/7/2 151/7/2
f 151/3/2 148/3/2 152/3/2
f 149/4/2 150/4/2 153/4/2
f 150/7/2 151/7/2 154/7/2
f 153/4/2 150/4/2 154/4/2
f 151/4/2 152/4/2 155/4/2
f 154/7/2 151/7/2 155/7/2
f 155/4/2 152/4/2 156/4/2
f 153/5/2 154/5/2 157/5/2
f 154/7/2 155/7/2 158/7/2
f 157/5/2 154/5/2 158/5/2
f 155/5/2 156/5/2 159/5/2
f 158/7/2 155/7/2 159/7/2
f 159/5/2 156/5/2 160/5/2
f 161/9/2 162/9/2 165/9/2
f 162/7/2 163/7/2 166/7/2
f 165/9/2 162/9/2 166/9/2
f 163/9/2 164/9/2 167/9/2
f 166/7/2 163/7/2 167/7/2
f 167/9/2 164/9/2 168/9/2
f 169/9/2 170/9/2 173/9/2
f 170/7/2 171/7/2 174/7/2
f 173/9/2 170/9/2 174/9/2
f 171/9/2 172/9/2 175/9/2
f 174/7/2 171/7/2 175/7/2
f 175/9/2 172/9/2 176/9/2
f 177/9/2 178/9/2 181/9/2
f 178/7/2 179/7/2 182/7/2
f 181/9/2 178/9/2 182/9/2
f 179/9/2 180/9/2 183/9/2
f 182/7/2 179/7/2 183/7/2
f 183/9/2 180/9/2 184/9/2
f 185/9/2 186/9/2 189/9/2
f 186/7/2 187/7/2 190/7/2
f 189/9/2 186/9/2 190/9/2
f 187/9/2 188/9/2 191/9/2
f 190/7/2 187/7/2 191/7/2
f 191/9/2 188/9/2 192/9/2
f 193/9/2 194/9/2 197/9/2
f 194/7/2 195/7/2 198/7/2
f 197/9/2 194/9/2 198/9/2
f 195/9/2 196/9/2 199/9/2
f 198/7/2 195/7/2 199/7/2
f 199/9/2 196/9/2 200/9/2
f 204/9/3 202/9/3 201/9/3
f 211/9/3 204/9/3 203/9/3
f 212/9/3 202/9/3 204/9/3
f 212/9/3 204/9/3 211/9/3
f 213/9/3 202/9/3 212/9/3
f 215/9/3 206/9/3 205/9/3
f 216/9/3 206/9/3 215/9/3
f 217/9/3 206/9/3 216/9/3
f 220/9/3 208/9/3 207/9/3
f 221/9/3 208/9/3 220/9/3
f 222/9/3 208/9/3 221/9/3
f 225/9/3 210/9/3 209/9/3
f 226/9/3 210/9/3 225/9/3
f 227/9/3 211/9/3 203/9/3
f 228/1/3 214/1/3 213/1/3
f 228/2/3 215/2/3 214/2/3
f 228/2/3 216/2/3 215/2/3
f 229/2/3 216/2/3 228/2/3
f 230/3/3 217/3/3 216/3/3
f 230/2/3 216/2/3 229/2/3
f 230/3/3 218/3/3 217/3/3
f 231/3/3 218/3/3 230/3/3
f 232/4/3 219/4/3 218/4/3
f 232/3/3 218/3/3 231/3/3
f 233/4/3 219/4/3 232/4/3
f 234/5/3 220/5/3 219/5/3
f 234/4/3 219/4/3 233/4/3
f 234/5/3 221/5/3 220/5/3
f 235/5/3 221/5/3 234/5/3
f 236/8/3 222/8/3 221/8/3
f 236/5/3 221/5/3 235/5/3
f 237/9/3 223/9/3 222/9/3
f 237/8/3 222/8/3 236/8/3
f 238/9/3 223/9/3 237/9/3
f 240/9/3 226/9/3 225/9/3
f 240/9/3 227/9/3 226/9/3
f 240/9/3 225/9/3 224/9/3
f 241/9/3 227/9/3 240/9/3
f 242/9/3 227/9/3 241/9/3
f 243/9/3 211/9/3 227/9/3
f 243/9/3 227/9/3 242/9/3
f 244/1/3 229/1/3 228/1/3
f 244/1/3 228/1/3 213/1/3
f 245/2/3 231/2/3 230/2/3
f 245/1/3 229/1/3 244/1/3
f 245/2/3 230/2/3 229/2/3
f 246/2/3 231/2/3 245/2/3
f 247/3/3 233/3/3 232/3/3
f 247/2/3 231/2/3 246/2/3
f 247/3/3 232/3/3 231/3/3
f 248/3/3 233/3/3 247/3/3
f 249/4/3 235/4/3 234/4/3
f 249/3/3 233/3/3 248/3/3
f 249/4/3 234/4/3 233/4/3
f 250/4/3 235/4/3 249/4/3
f 251/5/3 236/5/3 235/5/3
f 251/4/3 235/4/3 250/4/3
f 251/5/3 237/5/3 236/5/3
f 252/5/3 237/5/3 251/5/3
f 253/8/3 238/8/3 237/8/3
f 253/5/3 237/5/3 252/5/3
f 254/9/3 239/9/3 238/9/3
f 254/8/3 238/8/3 253/8/3
f 255/9/3 239/9/3 254/9/3
f 256/9/3 242/9/3 241/9/3
f 257/9/3 242/9/3 256/9/3
f 258/7/3 212/7/3 211/7/3
f 258/9/3 211/9/3 243/9/3
f 259/9/3 213/9/3 212/9/3
f 259/7/3 212/7/3 258/7/3
f 260/1/3 244/1/3 213/1/3
f 260/9/3 213/9/3 259/9/3
f 261/2/3 246/2/3 245/2/3
f 261/1/3 244/1/3 260/1/3
f 261/2/3 245/2/3 244/2/3
f 262/2/3 246/2/3 261/2/3
f 263/3/3 248/3/3 247/3/3
f 263/2/3 246/2/3 262/2/3
f 263/3/3 247/3/3 246/3/3
f 264/3/3 248/3/3 263/3/3
f 265/4/3 250/4/3 249/4/3
f 265/3/3 248/3/3 264/3/3
f 265/4/3 249/4/3 248/4/3
f 266/5/3 252/5/3 251/5/3
f 266/4/3 250/4/3 265/4/3
f 266/5/3 251/5/3 250/5/3
f 267/5/3 252/5/3 266/5/3
f 268/8/3 253/8/3 252/8/3
f 268/5/3 252/5/3 267/5/3
f 269/9/3 254/9/3 253/9/3
f 269/8/3 253/8/3 268/8/3
f 270/9/3 254/9/3 269/9/3
f 271/9/3 259/9/3 258/9/3
f 271/9/3 258/9/3 243/9/3
f 271/9/3 260/9/3 259/9/3
f 272/9/3 260/9/3 271/9/3
f 273/9/3 264/9/3 263/9/3
f 273/9/3 263/9/3 262/9/3
f 274/9/3 264/9/3 273/9/3
f 275/9/3 269/9/3 268/9/3
f 275/9/3 268/9/3 267/9/3
f 276/9/3 269/9/3 275/9/3
f 277/9/3 260/9/3 272/9/3
f 278/9/3 260/9/3 277/9/3
f 279/9/4 280/9/4 282/9/4
f 281/9/4 282/9/4 289/9/4
f 282/9/4 280/9/4 290/9/4
f 289/9/4 282/9/4 290/9/4
f 290/9/4 280/9/4 291/9/4
f 283/9/4 284/9/4 293/9/4
f 293/9/4 284/9/4 294/9/4
f 294/9/4 284/9/4 295/9/4
f 285/9/4 286/9/4 298/9/4
f 298/9/4 286/9/4 299/9/4
f 299/9/4 286/9/4 300/9/4
f 287/9/4 288/9/4 303/9/4
f 303/9/4 288/9/4 304/9/4
f 281/9/4 289/9/4 305/9/4
f 291/1/4 292/1/4 306/1/4
f 292/2/4 293/2/4 306/2/4
f 293/2/4 294/2/4 306/2/4
f 306/2/4 294/2/4 307/2/4
f 294/3/4 295/3/4 308/3/4
f 307/2/4 294/2/4 308/2/4
f 295/3/4 296/3/4 308/3/4
f 308/3/4 296/3/4 309/3/4
f 296/4/4 297/4/4 310/4/4
f 309/3/4 296/3/4 310/3/4
f 310/4/4 297/4/4 311/4/4
f 297/5/4 298/5/4 312/5/4
f 311/4/4 297/4/4 312/4/4
f 298/5/4 299/5/4 312/5/4
f 312/5/4 299/5/4 313/5/4
f 299/8/4 300/8/4 314/8/4
f 313/5/4 299/5/4 314/5/4
f 300/9/4 301/9/4 315/9/4
f 314/8/4 300/8/4 315/8/4
f 315/9/4 301/9/4 316/9/4
f 303/9/4 304/9/4 318/9/4
f 304/9/4 305/9/4 318/9/4
f 302/9/4 303/9/4 318/9/4
f 318/9/4 305/9/4 319/9/4
f 319/9/4 305/9/4 320/9/4
f 305/9/4 289/9/4 321/9/4
f 320/9/4 305/9/4 321/9/4
f 306/1/4 307/1/4 322/1/4
f 291/1/4 306/1/4 322/1/4
f 308/2/4 309/2/4 323/2/4
f 322/1/4 307/1/4 323/1/4
f 307/2/4 308/2/4 323/2/4
f 323/2/4 309/2/4 324/2/4
f 310/3/4 311/3/4 325/3/4
f 324/2/4 309/2/4 325/2/4
f 309/3/4 310/3/4 325/3/4
f 325/3/4 311/3/4 326/3/4
f 312/4/4 313/4/4 327/4/4
f 326/3/4 311/3/4 327/3/4
f 311/4/4 312/4/4 327/4/4
f 327/4/4 313/4/4 328/4/4
f 313/5/4 314/5/4 329/5/4
f 328/4/4 313/4/4 329/4/4
f 314/5/4 315/5/4 329/5/4
f 329/5/4 315/5/4 330/5/4
f 315/8/4 316/8/4 331/8/4
f 330/5/4 315/5/4 331/5/4
f 316/9/4 317/9/4 332/9/4
f 331/8/4 316/8/4 332/8/4
f 332/9/4 317/9/4 333/9/4
f 319/9/4 320/9/4 334/9/4
f 334/9/4 320/9/4 335/9/4
f 289/7/4 290/7/4 336/7/4
f 321/9/4 289/9/4 336/9/4
f 290/9/4 291/9/4 337/9/4
f 336/7/4 290/7/4 337/7/4
f 291/1/4 322/1/4 338/1/4
f 337/9/4 291/9/4 338/9/4
f 323/2/4 324/2/4 339/2/4
f 338/1/4 322/1/4 339/1/4
f 322/2/4 323/2/4 339/2/4
f 339/2/4 324/2/4 340/2/4
f 325/3/4 326/3/4 341/3/4
f 340/2/4 324/2/4 341/2/4
f 324/3/4 325/3/4 341/3/4
f 341/3/4 326/3/4 342/3/4
f 327/4/4 328/4/4 343/4/4
f 342/3/4 326/3/4 343/3/4
f 326/4/4 327/4/4 343/4/4
f 329/5/4 330/5/4 344/5/4
f 343/4/4 328/4/4 344/4/4
f 328/5/4 329/5/4 344/5/4
f 344/5/4 330/5/4 345/5/4
f 330/8/4 331/8/4 346/8/4
f 345/5/4 330/5/4 346/5/4
f 331/9/4 332/9/4 347/9/4
f 346/8/4 331/8/4 347/8/4
f 347/9/4 332/9/4 348/9/4
f 336/9/4 337/9/4 349/9/4
f 321/9/4 336/9/4 349/9/4
f 337/9/4 338/9/4 349/9/4
f 349/9/4 338/9/4 350/9/4
f 341/9/4 342/9/4 351/9/4
f 340/9/4 341/9/4 351/9/4
f 351/9/4 342/9/4 352/9/4
f 346/9/4 347/9/4 353/9/4
f 345/9/4 346/9/4 353/9/4
f 353/9/4 347/9/4 354/9/4
f 350/9/4 338/9/4 355/9/4
f 355/9/4 338/9/4 356/9/4
f 359/9/5 358/9/5 357/9/5
f 360/9/5 358/9/5 359/9/5
f 361/7/5 360/7/5 359/7/5
f 362/7/5 360/7/5 361/7/5
f 363/9/5 362/9/5 361/9/5
f 364/9/5 362/9/5 363/9/5
f 369/9/5 366/9/5 365/9/5
f 370/9/5 366/9/5 369/9/5
f 371/9/5 368/9/5 367/9/5
f 372/9/5 368/9/5 371/9/5
f 373/7/5 370/7/5 369/7/5
f 374/7/5 370/7/5 373/7/5
f 375/7/5 372/7/5 371/7/5
f 376/7/5 372/7/5 375/7/5
f 377/9/5 374/9/5 373/9/5
f 378/9/5 374/9/5 377/9/5
f 379/9/5 376/9/5 375/9/5
f 380/9/5 376/9/5 379/9/5
f 385/9/5 382/9/5 381/9/5
f 386/9/5 382/9/5 385/9/5
f 387/9/5 384/9/5 383/9/5
f 388/9/5 384/9/5 387/9/5
f 389/7/5 386/7/5 385/7/5
f 390/7/5 386/7/5 389/7/5
f 391/7/5 388/7/5 387/7/5
f 392/7/5 388/7/5 391/7/5
f 393/9/5 390/9/5 389/9/5
f 394/9/5 390/9/5 393/9/5
f 395/9/5 392/9/5 391/9/5
f 396/9/5 392/9/5 395/9/5
f 401/9/5 398/9/5 397/9/5
f 402/9/5 398/9/5 401/9/5
f 403/9/5 400/9/5 399/9/5
f 404/9/5 400/9/5 403/9/5
f 405/7/5 402/7/5 401/7/5
f 406/7/5 402/7/5 405/7/5
f 407/7/5 404/7/5 403/7/5
f 408/7/5 404/7/5 407/7/5
f 409/9/5 406/9/5 405/9/5
f 410/9/5 406/9/5 409/9/5
f 411/9/5 408/9/5 407/9/5
f 412/9/5 408/9/5 411/9/5
f 417/9/5 414/9/5 413/9/5
f 418/9/5 414/9/5 417/9/5
f 419/9/5 416/9/5 415/9/5
f 420/9/5 416/9/5 419/9/5
f 421/7/5 418/7/5 417/7/5
f 422/7/5 418/7/5 421/7/5
f 423/7/5 420/7/5 419/7/5
f 424/7/5 420/7/5 423/7/5
f 425/9/5 422/9/5 421/9/5
f 426/9/5 422/9/5 425/9/5
f 427/9/5 424/9/5 423/9/5
f 428/9/5 424/9/5 427/9/5
f 433/9/5 430/9/5 429/9/5
f 434/9/5 430/9/5 433/9/5
f 435/9/5 432/9/5 431/9/5
f 436/9/5 432/9/5 435/9/5
f 437/7/5 434/7/5 433/7/5
f 438/7/5 434/7/5 437/7/5
f 439/7/5 436/7/5 435/7/5
f 440/7/5 436/7/5 439/7/5
f 441/9/5 438/9/5 437/9/5
f 442/9/5 438/9/5 441/9/5
f 443/9/5 440/9/5 439/9/5
f 444/9/5 440/9/5 443/9/5
f 445/9/6 446/9/6 449/9/6
f 449/9/6 446/9/6 450/9/6
f 447/9/6 448/9/6 451/9/6
f 451/9/6 448/9/6 452/9/6
f 449/7/6 450/7/6 453/7/6
f 453/7/6 450/7/6 454/7/6
f 451/7/6 452/7/6 455/7/6
f 455/7/6 452/7/6 456/7/6
f 453/9/6 454/9/6 457/9/6
f 457/9/6 454/9/6 458/9/6
f 455/9/6 456/9/6 459/9/6
f 459/9/6 456/9/6 460/9/6
f 461/9/6 462/9/6 465/9/6
f 465/9/6 462/9/6 466/9/6
f 463/9/6 464/9/6 467/9/6
f 467/9/6 464/9/6 468/9/6
f 465/7/6 466/7/6 469/7/6
f 469/7/6 466/7/6 470/7/6
f 467/7/6 468/7/6 471/7/6
f 471/7/6 468/7/6 472/7/6
f 469/9/6 470/9/6 473/9/6
f 473/9/6 470/9/6 474/9/6
f 471/9/6 472/9/6 475/9/6
f 475/9/6 472/9/6 476/9/6
f 477/9/6 478/9/6 481/9/6
f 481/9/6 478/9/6 482/9/6
f 479/9/6 480/9/6 483/9/6
f 483/9/6 480/9/6 484/9/6
f 481/7/6 482/7/6 485/7/6
f 485/7/6 482/7/6 486/7/6
f 483/7/6 484/7/6 487/7/6
f 487/7/6 484/7/6 488/7/6
f 485/9/6 486/9/6 489/9/6
f 489/9/6 486/9/6 490/9/6
f 487/9/6 488/9/6 491/9/6
f 491/9/6 488/9/6 492/9/6
f 493/9/6 494/9/6 497/9/6
f 497/9/6 494/9/6 498/9/6
f 495/9/6 496/9/6 499/9/6
f 499/9/6 496/9/6 500/9/6
f 497/7/6 498/7/6 501/7/6
f 501/7/6 498/7/6 502/7/6
f 499/7/6 500/7/6 503/7/6
f 503/7/6 500/7/6 504/7/6
f 501/9/6 502/9/6 505/9/6
f 505/9/6 502/9/6 506/9/6
f 503/9/6 504/9/6 507/9/6
f 507/9/6 504/9/6 508/9/6
f 509/9/6 510/9/6 513/9/6
f 513/9/6 510/9/6 514/9/6
f 511/9/6 512/9/6 515/9/6
f 515/9/6 512/9/6 516/9/6
f 513/7/6 514/7/6 517/7/6
f 517/7/6 514/7/6 518/7/6
f 515/7/6 516/7/6 519/7/6
f 519/7/6 516/7/6 520/7/6
f 517/9/6 518/9/6 521/9/6
f 521/9/6 518/9/6 522/9/6
f 519/9/6 520/9/6 523/9/6
f 523/9/6 520/9/6 524/9/6
f 525/9/6 526/9/6 527/9/6
f 527/9/6 526/9/6 528/9/6
f 527/7/6 528/7/6 529/7/6
f 529/7/6 528/7/6 530/7/6
f 529/9/6 530/9/6 531/9/6
f 531/9/6 530/9/6 532/9/6
