# MagicaVoxel @ Ephtracy

# group
o 

# material
mtllib granada.mtl
usemtl palette

# normals
vn -1 0 0
vn 1 0 0
vn 0 0 1
vn 0 0 -1
vn 0 -1 0
vn 0 1 0

# texcoords
vt 0.908203 0.5
vt 0.970703 0.5
vt 0.974609 0.5
vt 0.994141 0.5

# verts
v -0.6 0.6 0.3
v -0.6 0.6 -0.9
v -0.6 0.7 0.2
v -0.6 0.7 0
v -0.6 0.7 -0.1
v -0.6 0.7 -0.5
v -0.6 0.7 -0.6
v -0.6 0.7 -0.8
v -0.6 0.9 0.2
v -0.6 0.9 0
v -0.6 0.9 -0.1
v -0.6 0.9 -0.5
v -0.6 0.9 -0.6
v -0.6 0.9 -0.8
v -0.6 1 0.3
v -0.6 1 -0.9
v -0.4 0.2 0.1
v -0.4 0.2 -0.7
v -0.4 0.3 0
v -0.4 0.3 -0.1
v -0.4 0.3 -0.2
v -0.4 0.3 -0.4
v -0.4 0.3 -0.5
v -0.4 0.3 -0.6
v -0.4 0.5 0
v -0.4 0.5 -0.1
v -0.4 0.5 -0.2
v -0.4 0.5 -0.4
v -0.4 0.5 -0.5
v -0.4 0.5 -0.6
v -0.4 0.6 0.1
v -0.4 0.6 -0.1
v -0.4 0.6 -0.2
v -0.4 0.6 -0.4
v -0.4 0.6 -0.5
v -0.4 0.6 -0.7
v -0.4 1 0.1
v -0.4 1 -0.1
v -0.4 1 -0.2
v -0.4 1 -0.4
v -0.4 1 -0.5
v -0.4 1 -0.7
v -0.4 1.1 0
v -0.4 1.1 -0.1
v -0.4 1.1 -0.2
v -0.4 1.1 -0.4
v -0.4 1.1 -0.5
v -0.4 1.1 -0.6
v -0.4 1.3 0
v -0.4 1.3 -0.1
v -0.4 1.3 -0.2
v -0.4 1.3 -0.4
v -0.4 1.3 -0.5
v -0.4 1.3 -0.6
v -0.4 1.4 0.1
v -0.4 1.4 -0.7
v -0.2 0 -0.1
v -0.2 0 -0.5
v -0.2 0.2 -0.1
v -0.2 0.2 -0.5
v -0.2 1.2 -0.8
v -0.2 1.2 -1
v -0.2 1.4 -0.8
v -0.2 1.4 -1
v -0.1 1.1 -0.8
v -0.1 1.1 -1
v -0.1 1.2 -0.7
v -0.1 1.2 -0.8
v -0.1 1.2 -1
v -0.1 1.2 -1.1
v -0.1 1.4 -0.2
v -0.1 1.4 -0.4
v -0.1 1.4 -0.7
v -0.1 1.4 -0.8
v -0.1 1.4 -1
v -0.1 1.4 -1.1
v -0.1 1.6 -0.4
v -0.1 1.6 -0.8
v -0.1 1.7 -0.2
v -0.1 1.7 -0.3
v -0.1 1.8 -0.3
v -0.1 1.8 -1
v 0.1 1.1 -0.8
v 0.1 1.1 -1
v 0.1 1.2 -0.7
v 0.1 1.2 -0.8
v 0.1 1.2 -1
v 0.1 1.2 -1.1
v 0.1 1.4 -0.2
v 0.1 1.4 -0.4
v 0.1 1.4 -0.7
v 0.1 1.4 -0.8
v 0.1 1.4 -1
v 0.1 1.4 -1.1
v 0.1 1.6 -0.4
v 0.1 1.6 -0.8
v 0.1 1.7 -0.2
v 0.1 1.7 -0.3
v 0.1 1.8 -0.3
v 0.1 1.8 -1
v 0.2 0 -0.1
v 0.2 0 -0.5
v 0.2 0.2 -0.1
v 0.2 0.2 -0.5
v 0.2 1.2 -0.8
v 0.2 1.2 -1
v 0.2 1.4 -0.8
v 0.2 1.4 -1
v 0.4 0.2 0.1
v 0.4 0.2 -0.7
v 0.4 0.3 0
v 0.4 0.3 -0.1
v 0.4 0.3 -0.2
v 0.4 0.3 -0.4
v 0.4 0.3 -0.5
v 0.4 0.3 -0.6
v 0.4 0.5 0
v 0.4 0.5 -0.1
v 0.4 0.5 -0.2
v 0.4 0.5 -0.4
v 0.4 0.5 -0.5
v 0.4 0.5 -0.6
v 0.4 0.6 0.1
v 0.4 0.6 -0.1
v 0.4 0.6 -0.2
v 0.4 0.6 -0.4
v 0.4 0.6 -0.5
v 0.4 0.6 -0.7
v 0.4 1 0.1
v 0.4 1 -0.1
v 0.4 1 -0.2
v 0.4 1 -0.4
v 0.4 1 -0.5
v 0.4 1 -0.7
v 0.4 1.1 0
v 0.4 1.1 -0.1
v 0.4 1.1 -0.2
v 0.4 1.1 -0.4
v 0.4 1.1 -0.5
v 0.4 1.1 -0.6
v 0.4 1.3 0
v 0.4 1.3 -0.1
v 0.4 1.3 -0.2
v 0.4 1.3 -0.4
v 0.4 1.3 -0.5
v 0.4 1.3 -0.6
v 0.4 1.4 0.1
v 0.4 1.4 -0.7
v 0.6 0.6 0.3
v 0.6 0.6 -0.9
v 0.6 0.7 0.2
v 0.6 0.7 0
v 0.6 0.7 -0.1
v 0.6 0.7 -0.5
v 0.6 0.7 -0.6
v 0.6 0.7 -0.8
v 0.6 0.9 0.2
v 0.6 0.9 0
v 0.6 0.9 -0.1
v 0.6 0.9 -0.5
v 0.6 0.9 -0.6
v 0.6 0.9 -0.8
v 0.6 1 0.3
v 0.6 1 -0.9
v -0.6 0.6 0.3
v -0.6 1 0.3
v -0.5 0.7 0.3
v -0.5 0.9 0.3
v -0.2 0.7 0.3
v -0.2 0.9 0.3
v -0.1 0.7 0.3
v -0.1 0.9 0.3
v 0.2 0.7 0.3
v 0.2 0.9 0.3
v 0.3 0.7 0.3
v 0.3 0.9 0.3
v 0.5 0.7 0.3
v 0.5 0.9 0.3
v 0.6 0.6 0.3
v 0.6 1 0.3
v -0.4 0.2 0.1
v -0.4 0.6 0.1
v -0.4 1 0.1
v -0.4 1.4 0.1
v -0.3 0.3 0.1
v -0.3 0.5 0.1
v -0.3 1.1 0.1
v -0.3 1.3 0.1
v -0.2 0.3 0.1
v -0.2 0.5 0.1
v -0.2 0.6 0.1
v -0.2 1 0.1
v -0.2 1.1 0.1
v -0.2 1.3 0.1
v -0.1 0.3 0.1
v -0.1 0.5 0.1
v -0.1 0.6 0.1
v -0.1 1 0.1
v -0.1 1.1 0.1
v -0.1 1.3 0.1
v 0.1 0.3 0.1
v 0.1 0.5 0.1
v 0.1 0.6 0.1
v 0.1 1 0.1
v 0.1 1.1 0.1
v 0.1 1.3 0.1
v 0.2 0.3 0.1
v 0.2 0.5 0.1
v 0.2 0.6 0.1
v 0.2 1 0.1
v 0.2 1.1 0.1
v 0.2 1.3 0.1
v 0.3 0.3 0.1
v 0.3 0.5 0.1
v 0.3 1.1 0.1
v 0.3 1.3 0.1
v 0.4 0.2 0.1
v 0.4 0.6 0.1
v 0.4 1 0.1
v 0.4 1.4 0.1
v -0.2 0 -0.1
v -0.2 0.2 -0.1
v 0.2 0 -0.1
v 0.2 0.2 -0.1
v -0.1 1.4 -0.2
v -0.1 1.7 -0.2
v 0.1 1.4 -0.2
v 0.1 1.7 -0.2
v -0.1 1.7 -0.3
v -0.1 1.8 -0.3
v 0.1 1.7 -0.3
v 0.1 1.8 -0.3
v -0.2 1.2 -0.8
v -0.2 1.4 -0.8
v -0.1 1.1 -0.8
v -0.1 1.2 -0.8
v -0.1 1.4 -0.8
v -0.1 1.6 -0.8
v 0.1 1.1 -0.8
v 0.1 1.2 -0.8
v 0.1 1.4 -0.8
v 0.1 1.6 -0.8
v 0.2 1.2 -0.8
v 0.2 1.4 -0.8
v -0.1 1.4 -0.4
v -0.1 1.6 -0.4
v 0.1 1.4 -0.4
v 0.1 1.6 -0.4
v -0.2 0 -0.5
v -0.2 0.2 -0.5
v 0.2 0 -0.5
v 0.2 0.2 -0.5
v -0.4 0.2 -0.7
v -0.4 0.6 -0.7
v -0.4 1 -0.7
v -0.4 1.4 -0.7
v -0.3 0.3 -0.7
v -0.3 0.5 -0.7
v -0.3 1.1 -0.7
v -0.3 1.3 -0.7
v -0.2 0.3 -0.7
v -0.2 0.5 -0.7
v -0.2 0.6 -0.7
v -0.2 1 -0.7
v -0.2 1.1 -0.7
v -0.2 1.3 -0.7
v -0.1 0.3 -0.7
v -0.1 0.5 -0.7
v -0.1 0.6 -0.7
v -0.1 1 -0.7
v -0.1 1.1 -0.7
v -0.1 1.2 -0.7
v -0.1 1.4 -0.7
v 0.1 0.3 -0.7
v 0.1 0.5 -0.7
v 0.1 0.6 -0.7
v 0.1 1 -0.7
v 0.1 1.1 -0.7
v 0.1 1.2 -0.7
v 0.1 1.4 -0.7
v 0.2 0.3 -0.7
v 0.2 0.5 -0.7
v 0.2 0.6 -0.7
v 0.2 1 -0.7
v 0.2 1.1 -0.7
v 0.2 1.3 -0.7
v 0.3 0.3 -0.7
v 0.3 0.5 -0.7
v 0.3 1.1 -0.7
v 0.3 1.3 -0.7
v 0.4 0.2 -0.7
v 0.4 0.6 -0.7
v 0.4 1 -0.7
v 0.4 1.4 -0.7
v -0.6 0.6 -0.9
v -0.6 1 -0.9
v -0.5 0.7 -0.9
v -0.5 0.9 -0.9
v -0.3 0.7 -0.9
v -0.3 0.9 -0.9
v -0.2 0.7 -0.9
v -0.2 0.9 -0.9
v 0.2 0.7 -0.9
v 0.2 0.9 -0.9
v 0.3 0.7 -0.9
v 0.3 0.9 -0.9
v 0.5 0.7 -0.9
v 0.5 0.9 -0.9
v 0.6 0.6 -0.9
v 0.6 1 -0.9
v -0.2 1.2 -1
v -0.2 1.4 -1
v -0.1 1.1 -1
v -0.1 1.2 -1
v -0.1 1.4 -1
v -0.1 1.8 -1
v 0.1 1.1 -1
v 0.1 1.2 -1
v 0.1 1.4 -1
v 0.1 1.8 -1
v 0.2 1.2 -1
v 0.2 1.4 -1
v -0.1 1.2 -1.1
v -0.1 1.4 -1.1
v 0.1 1.2 -1.1
v 0.1 1.4 -1.1
v -0.2 0 -0.1
v 0.2 0 -0.1
v -0.2 0 -0.5
v 0.2 0 -0.5
v -0.4 0.2 0.1
v 0.4 0.2 0.1
v -0.2 0.2 0
v 0.2 0.2 0
v -0.3 0.2 -0.1
v -0.2 0.2 -0.1
v 0.2 0.2 -0.1
v 0.3 0.2 -0.1
v -0.3 0.2 -0.5
v -0.2 0.2 -0.5
v 0.2 0.2 -0.5
v 0.3 0.2 -0.5
v -0.2 0.2 -0.6
v 0.2 0.2 -0.6
v -0.4 0.2 -0.7
v 0.4 0.2 -0.7
v -0.6 0.6 0.3
v 0.6 0.6 0.3
v -0.4 0.6 0.2
v -0.2 0.6 0.2
v -0.1 0.6 0.2
v 0.1 0.6 0.2
v 0.2 0.6 0.2
v 0.4 0.6 0.2
v -0.5 0.6 0.1
v -0.4 0.6 0.1
v -0.2 0.6 0.1
v -0.1 0.6 0.1
v 0.1 0.6 0.1
v 0.2 0.6 0.1
v 0.4 0.6 0.1
v 0.5 0.6 0.1
v -0.5 0.6 -0.1
v -0.4 0.6 -0.1
v 0.4 0.6 -0.1
v 0.5 0.6 -0.1
v -0.5 0.6 -0.2
v -0.4 0.6 -0.2
v 0.4 0.6 -0.2
v 0.5 0.6 -0.2
v -0.5 0.6 -0.4
v -0.4 0.6 -0.4
v 0.4 0.6 -0.4
v 0.5 0.6 -0.4
v -0.5 0.6 -0.5
v -0.4 0.6 -0.5
v 0.4 0.6 -0.5
v 0.5 0.6 -0.5
v -0.5 0.6 -0.7
v -0.4 0.6 -0.7
v -0.2 0.6 -0.7
v -0.1 0.6 -0.7
v 0.1 0.6 -0.7
v 0.2 0.6 -0.7
v 0.4 0.6 -0.7
v 0.5 0.6 -0.7
v -0.4 0.6 -0.8
v -0.2 0.6 -0.8
v -0.1 0.6 -0.8
v 0.1 0.6 -0.8
v 0.2 0.6 -0.8
v 0.4 0.6 -0.8
v -0.6 0.6 -0.9
v 0.6 0.6 -0.9
v -0.1 1.1 -0.8
v 0.1 1.1 -0.8
v -0.1 1.1 -1
v 0.1 1.1 -1
v -0.1 1.2 -0.7
v 0.1 1.2 -0.7
v -0.2 1.2 -0.8
v -0.1 1.2 -0.8
v 0.1 1.2 -0.8
v 0.2 1.2 -0.8
v -0.2 1.2 -1
v -0.1 1.2 -1
v 0.1 1.2 -1
v 0.2 1.2 -1
v -0.1 1.2 -1.1
v 0.1 1.2 -1.1
v -0.1 1.6 -0.4
v 0.1 1.6 -0.4
v -0.1 1.6 -0.8
v 0.1 1.6 -0.8
v -0.6 1 0.3
v 0.6 1 0.3
v -0.4 1 0.2
v -0.2 1 0.2
v -0.1 1 0.2
v 0.1 1 0.2
v 0.2 1 0.2
v 0.4 1 0.2
v -0.5 1 0.1
v -0.4 1 0.1
v -0.2 1 0.1
v -0.1 1 0.1
v 0.1 1 0.1
v 0.2 1 0.1
v 0.4 1 0.1
v 0.5 1 0.1
v -0.5 1 -0.1
v -0.4 1 -0.1
v 0.4 1 -0.1
v 0.5 1 -0.1
v -0.5 1 -0.2
v -0.4 1 -0.2
v 0.4 1 -0.2
v 0.5 1 -0.2
v -0.5 1 -0.4
v -0.4 1 -0.4
v 0.4 1 -0.4
v 0.5 1 -0.4
v -0.5 1 -0.5
v -0.4 1 -0.5
v 0.4 1 -0.5
v 0.5 1 -0.5
v -0.5 1 -0.7
v -0.4 1 -0.7
v -0.2 1 -0.7
v -0.1 1 -0.7
v 0.1 1 -0.7
v 0.2 1 -0.7
v 0.4 1 -0.7
v 0.5 1 -0.7
v -0.4 1 -0.8
v -0.2 1 -0.8
v -0.1 1 -0.8
v 0.1 1 -0.8
v 0.2 1 -0.8
v 0.4 1 -0.8
v -0.6 1 -0.9
v 0.6 1 -0.9
v -0.4 1.4 0.1
v 0.4 1.4 0.1
v -0.1 1.4 -0.2
v 0.1 1.4 -0.2
v -0.1 1.4 -0.4
v 0.1 1.4 -0.4
v -0.4 1.4 -0.7
v -0.1 1.4 -0.7
v 0.1 1.4 -0.7
v 0.4 1.4 -0.7
v -0.2 1.4 -0.8
v -0.1 1.4 -0.8
v 0.1 1.4 -0.8
v 0.2 1.4 -0.8
v -0.2 1.4 -1
v -0.1 1.4 -1
v 0.1 1.4 -1
v 0.2 1.4 -1
v -0.1 1.4 -1.1
v 0.1 1.4 -1.1
v -0.1 1.7 -0.2
v 0.1 1.7 -0.2
v -0.1 1.7 -0.3
v 0.1 1.7 -0.3
v -0.1 1.8 -0.3
v 0.1 1.8 -0.3
v -0.1 1.8 -1
v 0.1 1.8 -1

# faces
f 3/4/1 2/4/1 1/4/1
f 4/4/1 2/4/1 3/4/1
f 5/4/1 2/4/1 4/4/1
f 6/4/1 2/4/1 5/4/1
f 7/4/1 2/4/1 6/4/1
f 8/4/1 2/4/1 7/4/1
f 9/4/1 3/4/1 1/4/1
f 9/1/1 4/1/1 3/1/1
f 10/4/1 5/4/1 4/4/1
f 10/1/1 4/1/1 9/1/1
f 11/1/1 6/1/1 5/1/1
f 11/4/1 5/4/1 10/4/1
f 12/4/1 7/4/1 6/4/1
f 12/1/1 6/1/1 11/1/1
f 13/1/1 8/1/1 7/1/1
f 13/4/1 7/4/1 12/4/1
f 14/4/1 2/4/1 8/4/1
f 14/1/1 8/1/1 13/1/1
f 15/4/1 13/4/1 12/4/1
f 15/4/1 12/4/1 11/4/1
f 15/4/1 14/4/1 13/4/1
f 15/4/1 11/4/1 10/4/1
f 15/4/1 10/4/1 9/4/1
f 15/4/1 9/4/1 1/4/1
f 16/4/1 2/4/1 14/4/1
f 16/4/1 14/4/1 15/4/1
f 19/4/1 18/4/1 17/4/1
f 20/4/1 18/4/1 19/4/1
f 21/4/1 18/4/1 20/4/1
f 22/4/1 18/4/1 21/4/1
f 23/4/1 18/4/1 22/4/1
f 24/4/1 18/4/1 23/4/1
f 25/4/1 19/4/1 17/4/1
f 25/1/1 20/1/1 19/1/1
f 26/4/1 21/4/1 20/4/1
f 26/1/1 20/1/1 25/1/1
f 27/1/1 22/1/1 21/1/1
f 27/4/1 21/4/1 26/4/1
f 28/4/1 23/4/1 22/4/1
f 28/1/1 22/1/1 27/1/1
f 29/1/1 24/1/1 23/1/1
f 29/4/1 23/4/1 28/4/1
f 30/4/1 18/4/1 24/4/1
f 30/1/1 24/1/1 29/1/1
f 31/4/1 29/4/1 28/4/1
f 31/4/1 28/4/1 27/4/1
f 31/4/1 30/4/1 29/4/1
f 31/4/1 27/4/1 26/4/1
f 31/4/1 26/4/1 25/4/1
f 31/4/1 25/4/1 17/4/1
f 32/4/1 30/4/1 31/4/1
f 33/4/1 30/4/1 32/4/1
f 34/4/1 30/4/1 33/4/1
f 35/4/1 30/4/1 34/4/1
f 36/4/1 18/4/1 30/4/1
f 36/4/1 30/4/1 35/4/1
f 43/4/1 38/4/1 37/4/1
f 43/4/1 42/4/1 41/4/1
f 43/4/1 41/4/1 40/4/1
f 43/4/1 40/4/1 39/4/1
f 43/4/1 39/4/1 38/4/1
f 44/4/1 42/4/1 43/4/1
f 45/4/1 42/4/1 44/4/1
f 46/4/1 42/4/1 45/4/1
f 47/4/1 42/4/1 46/4/1
f 48/4/1 42/4/1 47/4/1
f 49/4/1 43/4/1 37/4/1
f 49/1/1 44/1/1 43/1/1
f 50/4/1 45/4/1 44/4/1
f 50/1/1 44/1/1 49/1/1
f 51/1/1 46/1/1 45/1/1
f 51/4/1 45/4/1 50/4/1
f 52/4/1 47/4/1 46/4/1
f 52/1/1 46/1/1 51/1/1
f 53/1/1 48/1/1 47/1/1
f 53/4/1 47/4/1 52/4/1
f 54/4/1 42/4/1 48/4/1
f 54/1/1 48/1/1 53/1/1
f 55/4/1 53/4/1 52/4/1
f 55/4/1 52/4/1 51/4/1
f 55/4/1 54/4/1 53/4/1
f 55/4/1 51/4/1 50/4/1
f 55/4/1 50/4/1 49/4/1
f 55/4/1 49/4/1 37/4/1
f 56/4/1 42/4/1 54/4/1
f 56/4/1 54/4/1 55/4/1
f 59/4/1 58/4/1 57/4/1
f 60/4/1 58/4/1 59/4/1
f 63/2/1 62/2/1 61/2/1
f 64/2/1 62/2/1 63/2/1
f 68/2/1 66/2/1 65/2/1
f 69/2/1 66/2/1 68/2/1
f 73/2/1 68/2/1 67/2/1
f 74/2/1 68/2/1 73/2/1
f 75/2/1 70/2/1 69/2/1
f 76/2/1 70/2/1 75/2/1
f 77/2/1 72/2/1 71/2/1
f 78/2/1 75/2/1 74/2/1
f 79/2/1 77/2/1 71/2/1
f 79/2/1 78/2/1 77/2/1
f 80/2/1 78/2/1 79/2/1
f 81/2/1 78/2/1 80/2/1
f 82/2/1 75/2/1 78/2/1
f 82/2/1 78/2/1 81/2/1
f 83/2/2 84/2/2 86/2/2
f 86/2/2 84/2/2 87/2/2
f 85/2/2 86/2/2 91/2/2
f 91/2/2 86/2/2 92/2/2
f 87/2/2 88/2/2 93/2/2
f 93/2/2 88/2/2 94/2/2
f 89/2/2 90/2/2 95/2/2
f 92/2/2 93/2/2 96/2/2
f 89/2/2 95/2/2 97/2/2
f 95/2/2 96/2/2 97/2/2
f 97/2/2 96/2/2 98/2/2
f 98/2/2 96/2/2 99/2/2
f 96/2/2 93/2/2 100/2/2
f 99/2/2 96/2/2 100/2/2
f 101/4/2 102/4/2 103/4/2
f 103/4/2 102/4/2 104/4/2
f 105/2/2 106/2/2 107/2/2
f 107/2/2 106/2/2 108/2/2
f 109/4/2 110/4/2 111/4/2
f 111/4/2 110/4/2 112/4/2
f 112/4/2 110/4/2 113/4/2
f 113/4/2 110/4/2 114/4/2
f 114/4/2 110/4/2 115/4/2
f 115/4/2 110/4/2 116/4/2
f 109/4/2 111/4/2 117/4/2
f 111/1/2 112/1/2 117/1/2
f 112/4/2 113/4/2 118/4/2
f 117/1/2 112/1/2 118/1/2
f 113/1/2 114/1/2 119/1/2
f 118/4/2 113/4/2 119/4/2
f 114/4/2 115/4/2 120/4/2
f 119/1/2 114/1/2 120/1/2
f 115/1/2 116/1/2 121/1/2
f 120/4/2 115/4/2 121/4/2
f 116/4/2 110/4/2 122/4/2
f 121/1/2 116/1/2 122/1/2
f 120/4/2 121/4/2 123/4/2
f 119/4/2 120/4/2 123/4/2
f 121/4/2 122/4/2 123/4/2
f 118/4/2 119/4/2 123/4/2
f 117/4/2 118/4/2 123/4/2
f 109/4/2 117/4/2 123/4/2
f 123/4/2 122/4/2 124/4/2
f 124/4/2 122/4/2 125/4/2
f 125/4/2 122/4/2 126/4/2
f 126/4/2 122/4/2 127/4/2
f 122/4/2 110/4/2 128/4/2
f 127/4/2 122/4/2 128/4/2
f 129/4/2 130/4/2 135/4/2
f 133/4/2 134/4/2 135/4/2
f 132/4/2 133/4/2 135/4/2
f 131/4/2 132/4/2 135/4/2
f 130/4/2 131/4/2 135/4/2
f 135/4/2 134/4/2 136/4/2
f 136/4/2 134/4/2 137/4/2
f 137/4/2 134/4/2 138/4/2
f 138/4/2 134/4/2 139/4/2
f 139/4/2 134/4/2 140/4/2
f 129/4/2 135/4/2 141/4/2
f 135/1/2 136/1/2 141/1/2
f 136/4/2 137/4/2 142/4/2
f 141/1/2 136/1/2 142/1/2
f 137/1/2 138/1/2 143/1/2
f 142/4/2 137/4/2 143/4/2
f 138/4/2 139/4/2 144/4/2
f 143/1/2 138/1/2 144/1/2
f 139/1/2 140/1/2 145/1/2
f 144/4/2 139/4/2 145/4/2
f 140/4/2 134/4/2 146/4/2
f 145/1/2 140/1/2 146/1/2
f 144/4/2 145/4/2 147/4/2
f 143/4/2 144/4/2 147/4/2
f 145/4/2 146/4/2 147/4/2
f 142/4/2 143/4/2 147/4/2
f 141/4/2 142/4/2 147/4/2
f 129/4/2 141/4/2 147/4/2
f 146/4/2 134/4/2 148/4/2
f 147/4/2 146/4/2 148/4/2
f 149/4/2 150/4/2 151/4/2
f 151/4/2 150/4/2 152/4/2
f 152/4/2 150/4/2 153/4/2
f 153/4/2 150/4/2 154/4/2
f 154/4/2 150/4/2 155/4/2
f 155/4/2 150/4/2 156/4/2
f 149/4/2 151/4/2 157/4/2
f 151/1/2 152/1/2 157/1/2
f 152/4/2 153/4/2 158/4/2
f 157/1/2 152/1/2 158/1/2
f 153/1/2 154/1/2 159/1/2
f 158/4/2 153/4/2 159/4/2
f 154/4/2 155/4/2 160/4/2
f 159/1/2 154/1/2 160/1/2
f 155/1/2 156/1/2 161/1/2
f 160/4/2 155/4/2 161/4/2
f 156/4/2 150/4/2 162/4/2
f 161/1/2 156/1/2 162/1/2
f 160/4/2 161/4/2 163/4/2
f 159/4/2 160/4/2 163/4/2
f 161/4/2 162/4/2 163/4/2
f 158/4/2 159/4/2 163/4/2
f 157/4/2 158/4/2 163/4/2
f 149/4/2 157/4/2 163/4/2
f 162/4/2 150/4/2 164/4/2
f 163/4/2 162/4/2 164/4/2
f 167/4/3 166/4/3 165/4/3
f 168/4/3 166/4/3 167/4/3
f 169/4/3 167/4/3 165/4/3
f 169/1/3 168/1/3 167/1/3
f 170/4/3 166/4/3 168/4/3
f 170/1/3 168/1/3 169/1/3
f 171/4/3 169/4/3 165/4/3
f 171/4/3 170/4/3 169/4/3
f 172/4/3 166/4/3 170/4/3
f 172/4/3 170/4/3 171/4/3
f 173/4/3 171/4/3 165/4/3
f 173/1/3 172/1/3 171/1/3
f 174/4/3 166/4/3 172/4/3
f 174/1/3 172/1/3 173/1/3
f 175/4/3 173/4/3 165/4/3
f 175/4/3 174/4/3 173/4/3
f 176/4/3 166/4/3 174/4/3
f 176/4/3 174/4/3 175/4/3
f 177/4/3 175/4/3 165/4/3
f 177/1/3 176/1/3 175/1/3
f 178/4/3 166/4/3 176/4/3
f 178/1/3 176/1/3 177/1/3
f 179/4/3 177/4/3 165/4/3
f 179/4/3 178/4/3 177/4/3
f 180/4/3 166/4/3 178/4/3
f 180/4/3 178/4/3 179/4/3
f 185/4/3 182/4/3 181/4/3
f 186/4/3 182/4/3 185/4/3
f 187/4/3 184/4/3 183/4/3
f 188/4/3 184/4/3 187/4/3
f 189/4/3 185/4/3 181/4/3
f 189/1/3 186/1/3 185/1/3
f 190/4/3 182/4/3 186/4/3
f 190/1/3 186/1/3 189/1/3
f 191/4/3 182/4/3 190/4/3
f 192/4/3 187/4/3 183/4/3
f 193/1/3 188/1/3 187/1/3
f 193/4/3 187/4/3 192/4/3
f 194/4/3 184/4/3 188/4/3
f 194/1/3 188/1/3 193/1/3
f 195/4/3 189/4/3 181/4/3
f 195/4/3 191/4/3 190/4/3
f 195/4/3 190/4/3 189/4/3
f 196/4/3 191/4/3 195/4/3
f 197/4/3 191/4/3 196/4/3
f 198/4/3 193/4/3 192/4/3
f 198/4/3 194/4/3 193/4/3
f 199/4/3 194/4/3 198/4/3
f 200/4/3 184/4/3 194/4/3
f 200/4/3 194/4/3 199/4/3
f 201/1/3 196/1/3 195/1/3
f 201/4/3 195/4/3 181/4/3
f 202/4/3 197/4/3 196/4/3
f 202/1/3 196/1/3 201/1/3
f 203/4/3 197/4/3 202/4/3
f 204/4/3 199/4/3 198/4/3
f 205/1/3 200/1/3 199/1/3
f 205/4/3 199/4/3 204/4/3
f 206/4/3 184/4/3 200/4/3
f 206/1/3 200/1/3 205/1/3
f 207/4/3 203/4/3 202/4/3
f 207/4/3 201/4/3 181/4/3
f 207/4/3 202/4/3 201/4/3
f 208/4/3 203/4/3 207/4/3
f 209/4/3 203/4/3 208/4/3
f 210/4/3 206/4/3 205/4/3
f 210/4/3 205/4/3 204/4/3
f 211/4/3 206/4/3 210/4/3
f 212/4/3 184/4/3 206/4/3
f 212/4/3 206/4/3 211/4/3
f 213/1/3 208/1/3 207/1/3
f 213/4/3 207/4/3 181/4/3
f 214/4/3 209/4/3 208/4/3
f 214/1/3 208/1/3 213/1/3
f 215/4/3 211/4/3 210/4/3
f 215/1/3 212/1/3 211/1/3
f 216/4/3 184/4/3 212/4/3
f 216/1/3 212/1/3 215/1/3
f 217/4/3 213/4/3 181/4/3
f 217/4/3 214/4/3 213/4/3
f 218/4/3 209/4/3 214/4/3
f 218/4/3 214/4/3 217/4/3
f 219/4/3 215/4/3 210/4/3
f 219/4/3 216/4/3 215/4/3
f 220/4/3 184/4/3 216/4/3
f 220/4/3 216/4/3 219/4/3
f 223/4/3 222/4/3 221/4/3
f 224/4/3 222/4/3 223/4/3
f 227/2/3 226/2/3 225/2/3
f 228/2/3 226/2/3 227/2/3
f 231/2/3 230/2/3 229/2/3
f 232/2/3 230/2/3 231/2/3
f 236/2/3 234/2/3 233/2/3
f 237/2/3 234/2/3 236/2/3
f 239/2/3 236/2/3 235/2/3
f 240/2/3 236/2/3 239/2/3
f 241/2/3 238/2/3 237/2/3
f 242/2/3 238/2/3 241/2/3
f 243/2/3 241/2/3 240/2/3
f 244/2/3 241/2/3 243/2/3
f 245/2/4 246/2/4 247/2/4
f 247/2/4 246/2/4 248/2/4
f 249/4/4 250/4/4 251/4/4
f 251/4/4 250/4/4 252/4/4
f 253/4/4 254/4/4 257/4/4
f 257/4/4 254/4/4 258/4/4
f 255/4/4 256/4/4 259/4/4
f 259/4/4 256/4/4 260/4/4
f 253/4/4 257/4/4 261/4/4
f 257/1/4 258/1/4 261/1/4
f 258/4/4 254/4/4 262/4/4
f 261/1/4 258/1/4 262/1/4
f 262/4/4 254/4/4 263/4/4
f 255/4/4 259/4/4 264/4/4
f 259/1/4 260/1/4 265/1/4
f 264/4/4 259/4/4 265/4/4
f 260/4/4 256/4/4 266/4/4
f 265/1/4 260/1/4 266/1/4
f 253/4/4 261/4/4 267/4/4
f 262/4/4 263/4/4 267/4/4
f 261/4/4 262/4/4 267/4/4
f 267/4/4 263/4/4 268/4/4
f 268/4/4 263/4/4 269/4/4
f 264/4/4 265/4/4 270/4/4
f 265/4/4 266/4/4 270/4/4
f 270/4/4 266/4/4 271/4/4
f 271/4/4 266/4/4 272/4/4
f 266/4/4 256/4/4 273/4/4
f 272/4/4 266/4/4 273/4/4
f 267/1/4 268/1/4 274/1/4
f 253/4/4 267/4/4 274/4/4
f 268/4/4 269/4/4 275/4/4
f 274/1/4 268/1/4 275/1/4
f 275/4/4 269/4/4 276/4/4
f 270/4/4 271/4/4 277/4/4
f 271/1/4 272/1/4 278/1/4
f 277/4/4 271/4/4 278/4/4
f 278/1/4 272/1/4 279/1/4
f 253/4/4 274/4/4 281/4/4
f 275/4/4 276/4/4 281/4/4
f 274/4/4 275/4/4 281/4/4
f 281/4/4 276/4/4 282/4/4
f 282/4/4 276/4/4 283/4/4
f 279/4/4 280/4/4 284/4/4
f 278/4/4 279/4/4 284/4/4
f 277/4/4 278/4/4 284/4/4
f 284/4/4 280/4/4 285/4/4
f 285/4/4 280/4/4 286/4/4
f 281/1/4 282/1/4 287/1/4
f 253/4/4 281/4/4 287/4/4
f 282/4/4 283/4/4 288/4/4
f 287/1/4 282/1/4 288/1/4
f 285/1/4 286/1/4 289/1/4
f 284/4/4 285/4/4 289/4/4
f 286/4/4 280/4/4 290/4/4
f 289/1/4 286/1/4 290/1/4
f 253/4/4 287/4/4 291/4/4
f 287/4/4 288/4/4 291/4/4
f 288/4/4 283/4/4 292/4/4
f 291/4/4 288/4/4 292/4/4
f 284/4/4 289/4/4 293/4/4
f 289/4/4 290/4/4 293/4/4
f 290/4/4 280/4/4 294/4/4
f 293/4/4 290/4/4 294/4/4
f 295/4/4 296/4/4 297/4/4
f 297/4/4 296/4/4 298/4/4
f 295/4/4 297/4/4 299/4/4
f 297/1/4 298/1/4 299/1/4
f 298/4/4 296/4/4 300/4/4
f 299/1/4 298/1/4 300/1/4
f 295/4/4 299/4/4 301/4/4
f 299/4/4 300/4/4 301/4/4
f 300/4/4 296/4/4 302/4/4
f 301/4/4 300/4/4 302/4/4
f 295/4/4 301/4/4 303/4/4
f 301/1/4 302/1/4 303/1/4
f 302/4/4 296/4/4 304/4/4
f 303/1/4 302/1/4 304/1/4
f 295/4/4 303/4/4 305/4/4
f 303/4/4 304/4/4 305/4/4
f 304/4/4 296/4/4 306/4/4
f 305/4/4 304/4/4 306/4/4
f 295/4/4 305/4/4 307/4/4
f 305/1/4 306/1/4 307/1/4
f 306/4/4 296/4/4 308/4/4
f 307/1/4 306/1/4 308/1/4
f 295/4/4 307/4/4 309/4/4
f 307/4/4 308/4/4 309/4/4
f 308/4/4 296/4/4 310/4/4
f 309/4/4 308/4/4 310/4/4
f 311/2/4 312/2/4 314/2/4
f 314/2/4 312/2/4 315/2/4
f 313/2/4 314/2/4 317/2/4
f 317/2/4 314/2/4 318/2/4
f 315/2/4 316/2/4 319/2/4
f 319/2/4 316/2/4 320/2/4
f 318/2/4 319/2/4 321/2/4
f 321/2/4 319/2/4 322/2/4
f 323/2/4 324/2/4 325/2/4
f 325/2/4 324/2/4 326/2/4
f 329/4/5 328/4/5 327/4/5
f 330/4/5 328/4/5 329/4/5
f 333/4/5 332/4/5 331/4/5
f 334/4/5 332/4/5 333/4/5
f 335/4/5 333/4/5 331/4/5
f 336/1/5 334/1/5 333/1/5
f 336/4/5 333/4/5 335/4/5
f 337/4/5 332/4/5 334/4/5
f 337/1/5 334/1/5 336/1/5
f 338/4/5 332/4/5 337/4/5
f 339/1/5 336/1/5 335/1/5
f 339/4/5 335/4/5 331/4/5
f 340/1/5 336/1/5 339/1/5
f 341/1/5 338/1/5 337/1/5
f 342/4/5 332/4/5 338/4/5
f 342/1/5 338/1/5 341/1/5
f 343/1/5 341/1/5 340/1/5
f 343/4/5 340/4/5 339/4/5
f 344/4/5 342/4/5 341/4/5
f 344/1/5 341/1/5 343/1/5
f 345/4/5 343/4/5 339/4/5
f 345/4/5 339/4/5 331/4/5
f 345/4/5 344/4/5 343/4/5
f 346/4/5 332/4/5 342/4/5
f 346/4/5 344/4/5 345/4/5
f 346/4/5 342/4/5 344/4/5
f 349/4/5 348/4/5 347/4/5
f 350/4/5 348/4/5 349/4/5
f 351/4/5 348/4/5 350/4/5
f 352/4/5 348/4/5 351/4/5
f 353/4/5 348/4/5 352/4/5
f 354/4/5 348/4/5 353/4/5
f 355/4/5 349/4/5 347/4/5
f 356/1/5 350/1/5 349/1/5
f 356/4/5 349/4/5 355/4/5
f 357/4/5 351/4/5 350/4/5
f 357/1/5 350/1/5 356/1/5
f 358/1/5 352/1/5 351/1/5
f 358/4/5 351/4/5 357/4/5
f 359/4/5 353/4/5 352/4/5
f 359/1/5 352/1/5 358/1/5
f 360/1/5 354/1/5 353/1/5
f 360/4/5 353/4/5 359/4/5
f 361/4/5 348/4/5 354/4/5
f 361/1/5 354/1/5 360/1/5
f 362/4/5 348/4/5 361/4/5
f 363/4/5 355/4/5 347/4/5
f 363/1/5 356/1/5 355/1/5
f 364/1/5 356/1/5 363/1/5
f 365/1/5 362/1/5 361/1/5
f 366/4/5 348/4/5 362/4/5
f 366/1/5 362/1/5 365/1/5
f 367/4/5 364/4/5 363/4/5
f 367/4/5 363/4/5 347/4/5
f 368/4/5 364/4/5 367/4/5
f 369/4/5 366/4/5 365/4/5
f 370/4/5 348/4/5 366/4/5
f 370/4/5 366/4/5 369/4/5
f 371/1/5 368/1/5 367/1/5
f 371/4/5 367/4/5 347/4/5
f 372/1/5 368/1/5 371/1/5
f 373/1/5 370/1/5 369/1/5
f 374/4/5 348/4/5 370/4/5
f 374/1/5 370/1/5 373/1/5
f 375/4/5 372/4/5 371/4/5
f 375/4/5 371/4/5 347/4/5
f 376/4/5 372/4/5 375/4/5
f 377/4/5 374/4/5 373/4/5
f 378/4/5 348/4/5 374/4/5
f 378/4/5 374/4/5 377/4/5
f 379/1/5 376/1/5 375/1/5
f 379/4/5 375/4/5 347/4/5
f 380/1/5 376/1/5 379/1/5
f 385/1/5 378/1/5 377/1/5
f 386/4/5 348/4/5 378/4/5
f 386/1/5 378/1/5 385/1/5
f 387/4/5 380/4/5 379/4/5
f 387/1/5 381/1/5 380/1/5
f 388/4/5 382/4/5 381/4/5
f 388/1/5 381/1/5 387/1/5
f 389/1/5 383/1/5 382/1/5
f 389/4/5 382/4/5 388/4/5
f 390/4/5 384/4/5 383/4/5
f 390/1/5 383/1/5 389/1/5
f 391/1/5 385/1/5 384/1/5
f 391/4/5 384/4/5 390/4/5
f 392/4/5 386/4/5 385/4/5
f 392/1/5 385/1/5 391/1/5
f 393/4/5 390/4/5 389/4/5
f 393/4/5 389/4/5 388/4/5
f 393/4/5 392/4/5 391/4/5
f 393/4/5 379/4/5 347/4/5
f 393/4/5 388/4/5 387/4/5
f 393/4/5 387/4/5 379/4/5
f 393/4/5 391/4/5 390/4/5
f 394/4/5 386/4/5 392/4/5
f 394/4/5 392/4/5 393/4/5
f 394/4/5 348/4/5 386/4/5
f 397/2/5 396/2/5 395/2/5
f 398/2/5 396/2/5 397/2/5
f 402/2/5 400/2/5 399/2/5
f 403/2/5 400/2/5 402/2/5
f 405/2/5 402/2/5 401/2/5
f 406/2/5 402/2/5 405/2/5
f 407/2/5 404/2/5 403/2/5
f 408/2/5 404/2/5 407/2/5
f 409/2/5 407/2/5 406/2/5
f 410/2/5 407/2/5 409/2/5
f 413/2/5 412/2/5 411/2/5
f 414/2/5 412/2/5 413/2/5
f 415/4/6 416/4/6 417/4/6
f 417/4/6 416/4/6 418/4/6
f 418/4/6 416/4/6 419/4/6
f 419/4/6 416/4/6 420/4/6
f 420/4/6 416/4/6 421/4/6
f 421/4/6 416/4/6 422/4/6
f 415/4/6 417/4/6 423/4/6
f 417/1/6 418/1/6 424/1/6
f 423/4/6 417/4/6 424/4/6
f 418/4/6 419/4/6 425/4/6
f 424/1/6 418/1/6 425/1/6
f 419/1/6 420/1/6 426/1/6
f 425/4/6 419/4/6 426/4/6
f 420/4/6 421/4/6 427/4/6
f 426/1/6 420/1/6 427/1/6
f 421/1/6 422/1/6 428/1/6
f 427/4/6 421/4/6 428/4/6
f 422/4/6 416/4/6 429/4/6
f 428/1/6 422/1/6 429/1/6
f 429/4/6 416/4/6 430/4/6
f 415/4/6 423/4/6 431/4/6
f 423/1/6 424/1/6 431/1/6
f 431/1/6 424/1/6 432/1/6
f 429/1/6 430/1/6 433/1/6
f 430/4/6 416/4/6 434/4/6
f 433/1/6 430/1/6 434/1/6
f 431/4/6 432/4/6 435/4/6
f 415/4/6 431/4/6 435/4/6
f 435/4/6 432/4/6 436/4/6
f 433/4/6 434/4/6 437/4/6
f 434/4/6 416/4/6 438/4/6
f 437/4/6 434/4/6 438/4/6
f 435/1/6 436/1/6 439/1/6
f 415/4/6 435/4/6 439/4/6
f 439/1/6 436/1/6 440/1/6
f 437/1/6 438/1/6 441/1/6
f 438/4/6 416/4/6 442/4/6
f 441/1/6 438/1/6 442/1/6
f 439/4/6 440/4/6 443/4/6
f 415/4/6 439/4/6 443/4/6
f 443/4/6 440/4/6 444/4/6
f 441/4/6 442/4/6 445/4/6
f 442/4/6 416/4/6 446/4/6
f 445/4/6 442/4/6 446/4/6
f 443/1/6 444/1/6 447/1/6
f 415/4/6 443/4/6 447/4/6
f 447/1/6 444/1/6 448/1/6
f 445/1/6 446/1/6 453/1/6
f 446/4/6 416/4/6 454/4/6
f 453/1/6 446/1/6 454/1/6
f 447/4/6 448/4/6 455/4/6
f 448/1/6 449/1/6 455/1/6
f 449/4/6 450/4/6 456/4/6
f 455/1/6 449/1/6 456/1/6
f 450/1/6 451/1/6 457/1/6
f 456/4/6 450/4/6 457/4/6
f 451/4/6 452/4/6 458/4/6
f 457/1/6 451/1/6 458/1/6
f 452/1/6 453/1/6 459/1/6
f 458/4/6 452/4/6 459/4/6
f 453/4/6 454/4/6 460/4/6
f 459/1/6 453/1/6 460/1/6
f 457/4/6 458/4/6 461/4/6
f 456/4/6 457/4/6 461/4/6
f 459/4/6 460/4/6 461/4/6
f 415/4/6 447/4/6 461/4/6
f 455/4/6 456/4/6 461/4/6
f 447/4/6 455/4/6 461/4/6
f 458/4/6 459/4/6 461/4/6
f 460/4/6 454/4/6 462/4/6
f 461/4/6 460/4/6 462/4/6
f 454/4/6 416/4/6 462/4/6
f 463/4/6 464/4/6 465/4/6
f 465/4/6 464/4/6 466/4/6
f 463/4/6 465/4/6 467/4/6
f 466/4/6 464/4/6 468/4/6
f 463/4/6 467/4/6 469/4/6
f 467/4/6 468/4/6 469/4/6
f 469/4/6 468/4/6 470/4/6
f 468/4/6 464/4/6 471/4/6
f 470/4/6 468/4/6 471/4/6
f 471/4/6 464/4/6 472/4/6
f 470/2/6 471/2/6 474/2/6
f 474/2/6 471/2/6 475/2/6
f 473/2/6 474/2/6 477/2/6
f 477/2/6 474/2/6 478/2/6
f 475/2/6 476/2/6 479/2/6
f 479/2/6 476/2/6 480/2/6
f 478/2/6 479/2/6 481/2/6
f 481/2/6 479/2/6 482/2/6
f 483/2/6 484/2/6 485/2/6
f 485/2/6 484/2/6 486/2/6
f 487/2/6 488/2/6 489/2/6
f 489/2/6 488/2/6 490/2/6
