# MagicaVoxel @ Ephtracy

# group
o 

# material
mtllib Linfocito T-2.mtl
usemtl palette

# normals
vn -1 0 0
vn 1 0 0
vn 0 0 1
vn 0 0 -1
vn 0 -1 0
vn 0 1 0

# texcoords
vt 0.314453 0.5
vt 0.337891 0.5
vt 0.501953 0.5
vt 0.818359 0.5

# verts
v -0.7 0.9 0.3
v -0.7 0.9 0.2
v -0.7 0.9 0.1
v -0.7 0.9 5.96046e-08
v -0.7 0.9 -0.1
v -0.7 1 0.3
v -0.7 1 0.2
v -0.7 1 0.1
v -0.7 1 5.96046e-08
v -0.7 1 -0.1
v -0.7 1.1 0.2
v -0.7 1.1 5.96046e-08
v -0.7 1.5 0.2
v -0.7 1.5 5.96046e-08
v -0.7 1.6 0.3
v -0.7 1.6 0.2
v -0.7 1.6 0.1
v -0.7 1.6 5.96046e-08
v -0.7 1.6 -0.1
v -0.7 1.7 0.2
v -0.7 1.7 0.1
v -0.7 1.7 5.96046e-08
v -0.7 1.8 0.3
v -0.7 1.8 0.2
v -0.7 1.8 0.1
v -0.7 1.8 5.96046e-08
v -0.7 1.8 -0.1
v -0.7 1.9 0.2
v -0.7 1.9 5.96046e-08
v -0.6 0.9 -0.2
v -0.6 0.9 -0.3
v -0.6 1 0.3
v -0.6 1 0.2
v -0.6 1 5.96046e-08
v -0.6 1 -0.1
v -0.6 1.1 0.2
v -0.6 1.1 5.96046e-08
v -0.6 1.1 -0.2
v -0.6 1.1 -0.3
v -0.6 1.5 0.2
v -0.6 1.5 5.96046e-08
v -0.6 1.6 0.3
v -0.6 1.6 0.2
v -0.6 1.6 5.96046e-08
v -0.6 1.6 -0.1
v -0.6 1.8 0.3
v -0.6 1.8 0.2
v -0.6 1.8 5.96046e-08
v -0.6 1.8 -0.1
v -0.6 1.9 0.3
v -0.6 1.9 0.2
v -0.6 1.9 5.96046e-08
v -0.6 1.9 -0.1
v -0.6 2 0.2
v -0.6 2 5.96046e-08
v -0.5 0.9 0.4
v -0.5 0.9 0.3
v -0.5 0.9 -0.1
v -0.5 0.9 -0.2
v -0.5 1.1 -0.2
v -0.5 1.1 -0.3
v -0.5 1.2 -0.2
v -0.5 1.2 -0.3
v -0.5 1.7 0.4
v -0.5 1.7 0.3
v -0.5 1.7 -0.1
v -0.5 1.7 -0.2
v -0.5 1.8 0.4
v -0.5 1.8 0.3
v -0.5 1.8 -0.1
v -0.5 1.8 -0.2
v -0.4 1.7 0.5
v -0.4 1.7 0.4
v -0.4 1.7 -0.2
v -0.4 1.7 -0.3
v -0.4 1.8 0.5
v -0.4 1.8 0.4
v -0.4 1.8 0.3
v -0.4 1.8 -0.1
v -0.4 1.8 -0.2
v -0.4 1.8 -0.3
v -0.4 1.9 0.4
v -0.4 1.9 0.3
v -0.4 1.9 0.2
v -0.4 1.9 5.96046e-08
v -0.4 1.9 -0.1
v -0.4 1.9 -0.2
v -0.4 2 0.3
v -0.4 2 0.2
v -0.4 2 5.96046e-08
v -0.4 2 -0.1
v -0.3 1.6 0.5
v -0.3 1.6 0.4
v -0.3 1.6 -0.2
v -0.3 1.6 -0.3
v -0.3 1.7 0.5
v -0.3 1.7 0.4
v -0.3 1.7 -0.2
v -0.3 1.7 -0.3
v -0.2 1.5 0.5
v -0.2 1.5 0.4
v -0.2 1.5 -0.2
v -0.2 1.5 -0.3
v -0.2 1.6 0.6
v -0.2 1.6 0.5
v -0.2 1.6 0.4
v -0.2 1.6 -0.2
v -0.2 1.6 -0.3
v -0.2 1.6 -0.4
v -0.2 1.7 0.6
v -0.2 1.7 0.5
v -0.2 1.7 -0.3
v -0.2 1.7 -0.4
v -0.2 1.8 0.5
v -0.2 1.8 0.4
v -0.2 1.8 -0.2
v -0.2 1.8 -0.3
v -0.2 1.9 0.5
v -0.2 1.9 0.4
v -0.2 1.9 0.3
v -0.2 1.9 -0.1
v -0.2 1.9 -0.2
v -0.2 1.9 -0.3
v -0.2 2 0.4
v -0.2 2 0.3
v -0.2 2 -0.1
v -0.2 2 -0.2
v -0.1 1.4 0.5
v -0.1 1.4 0.3
v -0.1 1.4 -0.1
v -0.1 1.4 -0.3
v -0.1 1.5 0.6
v -0.1 1.5 0.5
v -0.1 1.5 0.4
v -0.1 1.5 0.3
v -0.1 1.5 -0.1
v -0.1 1.5 -0.2
v -0.1 1.5 -0.3
v -0.1 1.5 -0.4
v -0.1 1.6 0.6
v -0.1 1.6 0.5
v -0.1 1.6 -0.3
v -0.1 1.6 -0.4
v -0.1 1.7 0.6
v -0.1 1.7 0.5
v -0.1 1.7 -0.3
v -0.1 1.7 -0.4
v -0.1 1.9 0.5
v -0.1 1.9 0.4
v -0.1 1.9 -0.2
v -0.1 1.9 -0.3
v -0.1 2 0.6
v -0.1 2 0.5
v -0.1 2 0.4
v -0.1 2 -0.2
v -0.1 2 -0.3
v -0.1 2 -0.4
v -0.2 0.9 0.4
v -0.2 0.9 0.3
v -0.2 0.9 -0.1
v -0.2 0.9 -0.2
v -0.2 1.1 -0.2
v -0.2 1.1 -0.3
v -0.2 1.2 -0.2
v -0.2 1.2 -0.3
v -0.2 1.5 0.4
v -0.2 1.5 0.3
v -0.2 1.5 -0.1
v -0.2 1.5 -0.2
v -0.1 0.9 -0.2
v -0.1 0.9 -0.3
v -0.1 1 0.3
v -0.1 1 0.2
v -0.1 1 5.96046e-08
v -0.1 1 -0.1
v -0.1 1.1 0.2
v -0.1 1.1 5.96046e-08
v -0.1 1.1 -0.2
v -0.1 1.1 -0.3
v -0.1 1.4 0.3
v -0.1 1.4 -0.1
v 0 0.9 0.3
v 0 0.9 0.2
v 0 0.9 0.1
v 0 0.9 5.96046e-08
v 0 0.9 -0.1
v 0 1 0.3
v 0 1 0.2
v 0 1 0.1
v 0 1 5.96046e-08
v 0 1 -0.1
v 0 1.1 0.2
v 0 1.1 5.96046e-08
v 0.1 1.4 0.5
v 0.1 1.4 -0.3
v 0.1 1.5 0.6
v 0.1 1.5 0.5
v 0.1 1.5 -0.3
v 0.1 1.5 -0.4
v 0.1 1.9 0.5
v 0.1 1.9 -0.3
v 0.1 2 0.6
v 0.1 2 0.5
v 0.1 2 -0.3
v 0.1 2 -0.4
v -0.2 1.6 0.6
v -0.2 1.7 0.6
v -0.1 1.5 0.6
v -0.1 1.6 0.6
v -0.1 1.7 0.6
v -0.1 2 0.6
v 0 1.5 0.6
v 0 1.6 0.6
v 0.1 1.5 0.6
v 0.1 2 0.6
v -0.4 1.7 0.5
v -0.4 1.8 0.5
v -0.3 1.6 0.5
v -0.3 1.7 0.5
v -0.3 1.8 0.5
v -0.2 1.5 0.5
v -0.2 1.6 0.5
v -0.2 1.7 0.5
v -0.2 1.8 0.5
v -0.2 1.9 0.5
v -0.1 1.4 0.5
v -0.1 1.5 0.5
v -0.1 1.6 0.5
v -0.1 1.7 0.5
v -0.1 1.9 0.5
v 0 1.4 0.5
v 0 1.5 0.5
v 0.1 1.4 0.5
v 0.1 1.5 0.5
v -0.5 0.9 0.4
v -0.5 1.7 0.4
v -0.5 1.8 0.4
v -0.4 1.7 0.4
v -0.4 1.8 0.4
v -0.4 1.9 0.4
v -0.3 1.6 0.4
v -0.3 1.7 0.4
v -0.3 1.8 0.4
v -0.2 0.9 0.4
v -0.2 1.5 0.4
v -0.2 1.6 0.4
v -0.2 1.8 0.4
v -0.2 1.9 0.4
v -0.2 2 0.4
v -0.1 1.9 0.4
v -0.1 2 0.4
v -0.7 0.9 0.3
v -0.7 1 0.3
v -0.7 1.6 0.3
v -0.7 1.8 0.3
v -0.6 0.9 0.3
v -0.6 1 0.3
v -0.6 1.6 0.3
v -0.6 1.8 0.3
v -0.6 1.9 0.3
v -0.5 0.9 0.3
v -0.5 1.7 0.3
v -0.5 1.8 0.3
v -0.5 1.9 0.3
v -0.4 1.8 0.3
v -0.4 1.9 0.3
v -0.4 2 0.3
v -0.2 0.9 0.3
v -0.2 1.5 0.3
v -0.2 1.9 0.3
v -0.2 2 0.3
v -0.1 0.9 0.3
v -0.1 1 0.3
v -0.1 1.4 0.3
v -0.1 1.5 0.3
v 0 0.9 0.3
v 0 1 0.3
v -0.7 1 0.2
v -0.7 1.1 0.2
v -0.7 1.5 0.2
v -0.7 1.6 0.2
v -0.7 1.8 0.2
v -0.7 1.9 0.2
v -0.6 1 0.2
v -0.6 1.1 0.2
v -0.6 1.5 0.2
v -0.6 1.6 0.2
v -0.6 1.8 0.2
v -0.6 1.9 0.2
v -0.6 2 0.2
v -0.5 1.9 0.2
v -0.4 1.9 0.2
v -0.4 2 0.2
v -0.1 1 0.2
v -0.1 1.1 0.2
v 0 1 0.2
v 0 1.1 0.2
v -0.6 0.9 -0.2
v -0.6 1.1 -0.2
v -0.5 0.9 -0.2
v -0.5 1.1 -0.2
v -0.2 0.9 -0.2
v -0.2 1.1 -0.2
v -0.1 0.9 -0.2
v -0.1 1.1 -0.2
v -0.7 1 5.96046e-08
v -0.7 1.1 5.96046e-08
v -0.7 1.5 5.96046e-08
v -0.7 1.6 5.96046e-08
v -0.7 1.8 5.96046e-08
v -0.7 1.9 5.96046e-08
v -0.6 1 5.96046e-08
v -0.6 1.1 5.96046e-08
v -0.6 1.5 5.96046e-08
v -0.6 1.6 5.96046e-08
v -0.6 1.8 5.96046e-08
v -0.6 1.9 5.96046e-08
v -0.6 2 5.96046e-08
v -0.5 1.9 5.96046e-08
v -0.4 1.9 5.96046e-08
v -0.4 2 5.96046e-08
v -0.1 1 5.96046e-08
v -0.1 1.1 5.96046e-08
v 0 1 5.96046e-08
v 0 1.1 5.96046e-08
v -0.7 0.9 -0.1
v -0.7 1 -0.1
v -0.7 1.6 -0.1
v -0.7 1.8 -0.1
v -0.6 0.9 -0.1
v -0.6 1 -0.1
v -0.6 1.6 -0.1
v -0.6 1.8 -0.1
v -0.6 1.9 -0.1
v -0.5 0.9 -0.1
v -0.5 1.7 -0.1
v -0.5 1.8 -0.1
v -0.5 1.9 -0.1
v -0.4 1.8 -0.1
v -0.4 1.9 -0.1
v -0.4 2 -0.1
v -0.2 0.9 -0.1
v -0.2 1.5 -0.1
v -0.2 1.9 -0.1
v -0.2 2 -0.1
v -0.1 0.9 -0.1
v -0.1 1 -0.1
v -0.1 1.4 -0.1
v -0.1 1.5 -0.1
v 0 0.9 -0.1
v 0 1 -0.1
v -0.5 1.2 -0.2
v -0.5 1.7 -0.2
v -0.5 1.8 -0.2
v -0.4 1.7 -0.2
v -0.4 1.8 -0.2
v -0.4 1.9 -0.2
v -0.3 1.6 -0.2
v -0.3 1.7 -0.2
v -0.3 1.8 -0.2
v -0.2 1.2 -0.2
v -0.2 1.5 -0.2
v -0.2 1.6 -0.2
v -0.2 1.8 -0.2
v -0.2 1.9 -0.2
v -0.2 2 -0.2
v -0.1 1.9 -0.2
v -0.1 2 -0.2
v -0.6 0.9 -0.3
v -0.6 1.1 -0.3
v -0.5 0.9 -0.3
v -0.5 1 -0.3
v -0.5 1.1 -0.3
v -0.5 1.2 -0.3
v -0.4 1 -0.3
v -0.4 1.1 -0.3
v -0.4 1.7 -0.3
v -0.4 1.8 -0.3
v -0.3 1 -0.3
v -0.3 1.1 -0.3
v -0.3 1.6 -0.3
v -0.3 1.7 -0.3
v -0.3 1.8 -0.3
v -0.2 0.9 -0.3
v -0.2 1 -0.3
v -0.2 1.1 -0.3
v -0.2 1.2 -0.3
v -0.2 1.5 -0.3
v -0.2 1.6 -0.3
v -0.2 1.7 -0.3
v -0.2 1.8 -0.3
v -0.2 1.9 -0.3
v -0.1 0.9 -0.3
v -0.1 1.1 -0.3
v -0.1 1.4 -0.3
v -0.1 1.5 -0.3
v -0.1 1.6 -0.3
v -0.1 1.7 -0.3
v -0.1 1.9 -0.3
v 0 1.4 -0.3
v 0 1.5 -0.3
v 0.1 1.4 -0.3
v 0.1 1.5 -0.3
v -0.2 1.6 -0.4
v -0.2 1.7 -0.4
v -0.1 1.5 -0.4
v -0.1 1.6 -0.4
v -0.1 1.7 -0.4
v -0.1 2 -0.4
v 0 1.5 -0.4
v 0 1.6 -0.4
v 0.1 1.5 -0.4
v 0.1 2 -0.4
v -0.5 0.9 0.4
v -0.2 0.9 0.4
v -0.7 0.9 0.3
v -0.6 0.9 0.3
v -0.5 0.9 0.3
v -0.2 0.9 0.3
v -0.1 0.9 0.3
v 0 0.9 0.3
v -0.7 0.9 0.2
v -0.6 0.9 0.2
v -0.1 0.9 0.2
v 0 0.9 0.2
v -0.7 0.9 0.1
v -0.6 0.9 0.1
v -0.1 0.9 0.1
v 0 0.9 0.1
v -0.7 0.9 5.96046e-08
v -0.6 0.9 5.96046e-08
v -0.1 0.9 5.96046e-08
v 0 0.9 5.96046e-08
v -0.7 0.9 -0.1
v -0.6 0.9 -0.1
v -0.5 0.9 -0.1
v -0.2 0.9 -0.1
v -0.1 0.9 -0.1
v 0 0.9 -0.1
v -0.6 0.9 -0.2
v -0.5 0.9 -0.2
v -0.2 0.9 -0.2
v -0.1 0.9 -0.2
v -0.6 0.9 -0.3
v -0.5 0.9 -0.3
v -0.2 0.9 -0.3
v -0.1 0.9 -0.3
v -0.1 1.4 0.5
v 0 1.4 0.5
v 0.1 1.4 0.5
v -0.1 1.4 0.3
v -0.1 1.4 -0.1
v -0.1 1.4 -0.3
v 0 1.4 -0.3
v 0.1 1.4 -0.3
v -0.1 1.5 0.6
v 0 1.5 0.6
v 0.1 1.5 0.6
v -0.2 1.5 0.5
v -0.1 1.5 0.5
v 0 1.5 0.5
v 0.1 1.5 0.5
v -0.2 1.5 0.4
v -0.1 1.5 0.4
v -0.2 1.5 0.3
v -0.1 1.5 0.3
v -0.7 1.5 0.2
v -0.6 1.5 0.2
v -0.7 1.5 5.96046e-08
v -0.6 1.5 5.96046e-08
v -0.2 1.5 -0.1
v -0.1 1.5 -0.1
v -0.2 1.5 -0.2
v -0.1 1.5 -0.2
v -0.2 1.5 -0.3
v -0.1 1.5 -0.3
v 0 1.5 -0.3
v 0.1 1.5 -0.3
v -0.1 1.5 -0.4
v 0 1.5 -0.4
v 0.1 1.5 -0.4
v -0.2 1.6 0.6
v -0.1 1.6 0.6
v -0.3 1.6 0.5
v -0.2 1.6 0.5
v -0.1 1.6 0.5
v -0.3 1.6 0.4
v -0.2 1.6 0.4
v -0.7 1.6 0.3
v -0.6 1.6 0.3
v -0.7 1.6 0.2
v -0.6 1.6 0.2
v -0.7 1.6 5.96046e-08
v -0.6 1.6 5.96046e-08
v -0.7 1.6 -0.1
v -0.6 1.6 -0.1
v -0.3 1.6 -0.2
v -0.2 1.6 -0.2
v -0.3 1.6 -0.3
v -0.2 1.6 -0.3
v -0.1 1.6 -0.3
v -0.2 1.6 -0.4
v -0.1 1.6 -0.4
v -0.4 1.7 0.5
v -0.3 1.7 0.5
v -0.4 1.7 0.4
v -0.3 1.7 0.4
v -0.4 1.7 -0.2
v -0.3 1.7 -0.2
v -0.4 1.7 -0.3
v -0.3 1.7 -0.3
v -0.7 1 0.3
v -0.6 1 0.3
v -0.1 1 0.3
v 0 1 0.3
v -0.7 1 0.2
v -0.6 1 0.2
v -0.1 1 0.2
v 0 1 0.2
v -0.7 1 5.96046e-08
v -0.6 1 5.96046e-08
v -0.1 1 5.96046e-08
v 0 1 5.96046e-08
v -0.7 1 -0.1
v -0.6 1 -0.1
v -0.1 1 -0.1
v 0 1 -0.1
v -0.7 1.1 0.2
v -0.6 1.1 0.2
v -0.1 1.1 0.2
v 0 1.1 0.2
v -0.7 1.1 5.96046e-08
v -0.6 1.1 5.96046e-08
v -0.1 1.1 5.96046e-08
v 0 1.1 5.96046e-08
v -0.6 1.1 -0.2
v -0.5 1.1 -0.2
v -0.2 1.1 -0.2
v -0.1 1.1 -0.2
v -0.6 1.1 -0.3
v -0.5 1.1 -0.3
v -0.2 1.1 -0.3
v -0.1 1.1 -0.3
v -0.5 1.2 -0.2
v -0.2 1.2 -0.2
v -0.5 1.2 -0.3
v -0.2 1.2 -0.3
v -0.2 1.7 0.6
v -0.1 1.7 0.6
v -0.2 1.7 0.5
v -0.1 1.7 0.5
v -0.2 1.7 -0.3
v -0.1 1.7 -0.3
v -0.2 1.7 -0.4
v -0.1 1.7 -0.4
v -0.4 1.8 0.5
v -0.3 1.8 0.5
v -0.2 1.8 0.5
v -0.5 1.8 0.4
v -0.4 1.8 0.4
v -0.3 1.8 0.4
v -0.2 1.8 0.4
v -0.7 1.8 0.3
v -0.6 1.8 0.3
v -0.5 1.8 0.3
v -0.4 1.8 0.3
v -0.7 1.8 0.2
v -0.6 1.8 0.2
v -0.7 1.8 5.96046e-08
v -0.6 1.8 5.96046e-08
v -0.7 1.8 -0.1
v -0.6 1.8 -0.1
v -0.5 1.8 -0.1
v -0.4 1.8 -0.1
v -0.5 1.8 -0.2
v -0.4 1.8 -0.2
v -0.3 1.8 -0.2
v -0.2 1.8 -0.2
v -0.4 1.8 -0.3
v -0.3 1.8 -0.3
v -0.2 1.8 -0.3
v -0.2 1.9 0.5
v -0.1 1.9 0.5
v -0.4 1.9 0.4
v -0.2 1.9 0.4
v -0.1 1.9 0.4
v -0.6 1.9 0.3
v -0.5 1.9 0.3
v -0.4 1.9 0.3
v -0.2 1.9 0.3
v -0.7 1.9 0.2
v -0.6 1.9 0.2
v -0.5 1.9 0.2
v -0.4 1.9 0.2
v -0.7 1.9 5.96046e-08
v -0.6 1.9 5.96046e-08
v -0.5 1.9 5.96046e-08
v -0.4 1.9 5.96046e-08
v -0.6 1.9 -0.1
v -0.5 1.9 -0.1
v -0.4 1.9 -0.1
v -0.2 1.9 -0.1
v -0.4 1.9 -0.2
v -0.2 1.9 -0.2
v -0.1 1.9 -0.2
v -0.2 1.9 -0.3
v -0.1 1.9 -0.3
v -0.1 2 0.6
v 0.1 2 0.6
v -0.1 2 0.5
v 0.1 2 0.5
v -0.2 2 0.4
v -0.1 2 0.4
v -0.4 2 0.3
v -0.2 2 0.3
v -0.6 2 0.2
v -0.4 2 0.2
v -0.6 2 5.96046e-08
v -0.4 2 5.96046e-08
v -0.4 2 -0.1
v -0.2 2 -0.1
v -0.2 2 -0.2
v -0.1 2 -0.2
v -0.1 2 -0.3
v 0.1 2 -0.3
v -0.1 2 -0.4
v 0.1 2 -0.4

# faces
f 6/2/1 2/2/1 1/2/1
f 7/4/1 3/4/1 2/4/1
f 7/2/1 2/2/1 6/2/1
f 8/1/1 4/1/1 3/1/1
f 8/4/1 3/4/1 7/4/1
f 9/2/1 5/2/1 4/2/1
f 9/1/1 4/1/1 8/1/1
f 10/2/1 5/2/1 9/2/1
f 11/2/1 8/2/1 7/2/1
f 11/2/1 9/2/1 8/2/1
f 12/2/1 9/2/1 11/2/1
f 16/2/1 14/2/1 13/2/1
f 17/2/1 14/2/1 16/2/1
f 18/2/1 14/2/1 17/2/1
f 20/2/1 16/2/1 15/2/1
f 20/4/1 17/4/1 16/4/1
f 21/1/1 18/1/1 17/1/1
f 21/4/1 17/4/1 20/4/1
f 22/2/1 19/2/1 18/2/1
f 22/1/1 18/1/1 21/1/1
f 23/2/1 20/2/1 15/2/1
f 24/1/1 21/1/1 20/1/1
f 24/2/1 20/2/1 23/2/1
f 25/4/1 22/4/1 21/4/1
f 25/1/1 21/1/1 24/1/1
f 26/2/1 19/2/1 22/2/1
f 26/4/1 22/4/1 25/4/1
f 27/2/1 19/2/1 26/2/1
f 28/2/1 25/2/1 24/2/1
f 28/2/1 26/2/1 25/2/1
f 29/2/1 26/2/1 28/2/1
f 36/3/1 33/3/1 32/3/1
f 37/3/1 35/3/1 34/3/1
f 38/2/1 31/2/1 30/2/1
f 39/2/1 31/2/1 38/2/1
f 40/3/1 37/3/1 36/3/1
f 40/3/1 36/3/1 32/3/1
f 41/3/1 35/3/1 37/3/1
f 41/3/1 37/3/1 40/3/1
f 42/3/1 40/3/1 32/3/1
f 43/3/1 40/3/1 42/3/1
f 44/3/1 35/3/1 41/3/1
f 45/3/1 35/3/1 44/3/1
f 50/2/1 47/2/1 46/2/1
f 51/2/1 47/2/1 50/2/1
f 52/2/1 49/2/1 48/2/1
f 53/2/1 49/2/1 52/2/1
f 54/3/1 52/3/1 51/3/1
f 55/3/1 52/3/1 54/3/1
f 60/3/1 59/3/1 58/3/1
f 62/3/1 60/3/1 58/3/1
f 62/2/1 61/2/1 60/2/1
f 63/2/1 61/2/1 62/2/1
f 64/3/1 57/3/1 56/3/1
f 65/3/1 57/3/1 64/3/1
f 66/3/1 62/3/1 58/3/1
f 67/3/1 62/3/1 66/3/1
f 68/2/1 65/2/1 64/2/1
f 69/2/1 65/2/1 68/2/1
f 70/2/1 67/2/1 66/2/1
f 71/2/1 67/2/1 70/2/1
f 76/2/1 73/2/1 72/2/1
f 77/2/1 73/2/1 76/2/1
f 80/2/1 75/2/1 74/2/1
f 81/2/1 75/2/1 80/2/1
f 82/3/1 78/3/1 77/3/1
f 83/3/1 78/3/1 82/3/1
f 86/3/1 80/3/1 79/3/1
f 87/3/1 80/3/1 86/3/1
f 88/3/1 84/3/1 83/3/1
f 89/3/1 84/3/1 88/3/1
f 90/3/1 86/3/1 85/3/1
f 91/3/1 86/3/1 90/3/1
f 96/2/1 93/2/1 92/2/1
f 97/2/1 93/2/1 96/2/1
f 98/2/1 95/2/1 94/2/1
f 99/2/1 95/2/1 98/2/1
f 105/2/1 101/2/1 100/2/1
f 106/2/1 101/2/1 105/2/1
f 107/2/1 103/2/1 102/2/1
f 108/2/1 103/2/1 107/2/1
f 110/2/1 105/2/1 104/2/1
f 111/2/1 105/2/1 110/2/1
f 112/2/1 109/2/1 108/2/1
f 113/2/1 109/2/1 112/2/1
f 118/3/1 115/3/1 114/3/1
f 119/3/1 115/3/1 118/3/1
f 122/3/1 117/3/1 116/3/1
f 123/3/1 117/3/1 122/3/1
f 124/2/1 120/2/1 119/2/1
f 125/2/1 120/2/1 124/2/1
f 126/2/1 122/2/1 121/2/1
f 127/2/1 122/2/1 126/2/1
f 133/2/1 129/2/1 128/2/1
f 134/2/1 129/2/1 133/2/1
f 135/2/1 129/2/1 134/2/1
f 136/2/1 131/2/1 130/2/1
f 137/2/1 131/2/1 136/2/1
f 138/2/1 131/2/1 137/2/1
f 140/2/1 133/2/1 132/2/1
f 141/2/1 133/2/1 140/2/1
f 142/2/1 139/2/1 138/2/1
f 143/2/1 139/2/1 142/2/1
f 148/3/1 145/3/1 144/3/1
f 151/3/1 147/3/1 146/3/1
f 152/3/1 148/3/1 144/3/1
f 153/2/1 149/2/1 148/2/1
f 153/3/1 148/3/1 152/3/1
f 154/2/1 149/2/1 153/2/1
f 155/2/1 151/2/1 150/2/1
f 156/3/1 147/3/1 151/3/1
f 156/2/1 151/2/1 155/2/1
f 157/3/1 147/3/1 156/3/1
f 160/3/2 161/3/2 162/3/2
f 160/3/2 162/3/2 164/3/2
f 162/2/2 163/2/2 164/2/2
f 164/2/2 163/2/2 165/2/2
f 158/3/2 159/3/2 166/3/2
f 166/3/2 159/3/2 167/3/2
f 160/3/2 164/3/2 168/3/2
f 168/3/2 164/3/2 169/3/2
f 172/3/2 173/3/2 176/3/2
f 174/3/2 175/3/2 177/3/2
f 170/2/2 171/2/2 178/2/2
f 178/2/2 171/2/2 179/2/2
f 176/3/2 177/3/2 180/3/2
f 172/3/2 176/3/2 180/3/2
f 177/3/2 175/3/2 181/3/2
f 180/3/2 177/3/2 181/3/2
f 182/2/2 183/2/2 187/2/2
f 183/4/2 184/4/2 188/4/2
f 187/2/2 183/2/2 188/2/2
f 184/1/2 185/1/2 189/1/2
f 188/4/2 184/4/2 189/4/2
f 185/2/2 186/2/2 190/2/2
f 189/1/2 185/1/2 190/1/2
f 190/2/2 186/2/2 191/2/2
f 188/2/2 189/2/2 192/2/2
f 189/2/2 190/2/2 192/2/2
f 192/2/2 190/2/2 193/2/2
f 194/3/2 195/3/2 197/3/2
f 197/3/2 195/3/2 198/3/2
f 196/3/2 197/3/2 200/3/2
f 198/3/2 199/3/2 200/3/2
f 197/3/2 198/3/2 200/3/2
f 200/3/2 199/3/2 201/3/2
f 196/3/2 200/3/2 202/3/2
f 200/2/2 201/2/2 203/2/2
f 202/3/2 200/3/2 203/3/2
f 201/3/2 199/3/2 204/3/2
f 203/2/2 201/2/2 204/2/2
f 204/3/2 199/3/2 205/3/2
f 209/2/3 207/2/3 206/2/3
f 210/2/3 207/2/3 209/2/3
f 212/2/3 209/2/3 208/2/3
f 213/3/3 211/3/3 210/3/3
f 213/2/3 209/2/3 212/2/3
f 213/3/3 210/3/3 209/3/3
f 214/3/3 213/3/3 212/3/3
f 215/3/3 211/3/3 213/3/3
f 215/3/3 213/3/3 214/3/3
f 219/2/3 217/2/3 216/2/3
f 220/2/3 217/2/3 219/2/3
f 222/2/3 219/2/3 218/2/3
f 223/3/3 220/3/3 219/3/3
f 223/2/3 219/2/3 222/2/3
f 224/3/3 220/3/3 223/3/3
f 227/2/3 222/2/3 221/2/3
f 228/2/3 222/2/3 227/2/3
f 229/3/3 224/3/3 223/3/3
f 229/3/3 225/3/3 224/3/3
f 230/3/3 225/3/3 229/3/3
f 231/2/3 227/2/3 226/2/3
f 232/2/3 227/2/3 231/2/3
f 233/3/3 232/3/3 231/3/3
f 234/3/3 232/3/3 233/3/3
f 238/3/3 236/3/3 235/3/3
f 238/2/3 237/2/3 236/2/3
f 239/2/3 237/2/3 238/2/3
f 241/3/3 238/3/3 235/3/3
f 242/3/3 238/3/3 241/3/3
f 243/3/3 240/3/3 239/3/3
f 244/3/3 241/3/3 235/3/3
f 245/3/3 241/3/3 244/3/3
f 246/3/3 241/3/3 245/3/3
f 247/3/3 240/3/3 243/3/3
f 248/3/3 240/3/3 247/3/3
f 250/2/3 249/2/3 248/2/3
f 251/2/3 249/2/3 250/2/3
f 256/2/3 253/2/3 252/2/3
f 257/2/3 253/2/3 256/2/3
f 258/2/3 255/2/3 254/2/3
f 259/2/3 255/2/3 258/2/3
f 261/3/3 257/3/3 256/3/3
f 261/3/3 258/3/3 257/3/3
f 261/3/3 259/3/3 258/3/3
f 262/3/3 259/3/3 261/3/3
f 263/2/3 260/2/3 259/2/3
f 263/3/3 259/3/3 262/3/3
f 264/2/3 260/2/3 263/2/3
f 265/3/3 264/3/3 263/3/3
f 266/3/3 264/3/3 265/3/3
f 270/3/3 267/3/3 266/3/3
f 271/3/3 267/3/3 270/3/3
f 272/3/3 269/3/3 268/3/3
f 273/3/3 269/3/3 272/3/3
f 274/3/3 269/3/3 273/3/3
f 275/3/3 269/3/3 274/3/3
f 276/2/3 273/2/3 272/2/3
f 277/2/3 273/2/3 276/2/3
f 284/2/3 279/2/3 278/2/3
f 285/2/3 279/2/3 284/2/3
f 286/2/3 281/2/3 280/2/3
f 287/2/3 281/2/3 286/2/3
f 288/2/3 283/2/3 282/2/3
f 289/2/3 283/2/3 288/2/3
f 291/3/3 290/3/3 289/3/3
f 292/3/3 290/3/3 291/3/3
f 293/3/3 290/3/3 292/3/3
f 296/2/3 295/2/3 294/2/3
f 297/2/3 295/2/3 296/2/3
f 300/2/3 299/2/3 298/2/3
f 301/2/3 299/2/3 300/2/3
f 304/2/3 303/2/3 302/2/3
f 305/2/3 303/2/3 304/2/3
f 306/2/4 307/2/4 312/2/4
f 312/2/4 307/2/4 313/2/4
f 308/2/4 309/2/4 314/2/4
f 314/2/4 309/2/4 315/2/4
f 310/2/4 311/2/4 316/2/4
f 316/2/4 311/2/4 317/2/4
f 317/3/4 318/3/4 319/3/4
f 319/3/4 318/3/4 320/3/4
f 320/3/4 318/3/4 321/3/4
f 322/2/4 323/2/4 324/2/4
f 324/2/4 323/2/4 325/2/4
f 326/2/4 327/2/4 330/2/4
f 330/2/4 327/2/4 331/2/4
f 328/2/4 329/2/4 332/2/4
f 332/2/4 329/2/4 333/2/4
f 330/3/4 331/3/4 335/3/4
f 331/3/4 332/3/4 335/3/4
f 332/3/4 333/3/4 335/3/4
f 335/3/4 333/3/4 336/3/4
f 333/2/4 334/2/4 337/2/4
f 336/3/4 333/3/4 337/3/4
f 337/2/4 334/2/4 338/2/4
f 337/3/4 338/3/4 339/3/4
f 339/3/4 338/3/4 340/3/4
f 340/3/4 341/3/4 344/3/4
f 344/3/4 341/3/4 345/3/4
f 342/3/4 343/3/4 346/3/4
f 346/3/4 343/3/4 347/3/4
f 347/3/4 343/3/4 348/3/4
f 348/3/4 343/3/4 349/3/4
f 346/2/4 347/2/4 350/2/4
f 350/2/4 347/2/4 351/2/4
f 352/3/4 353/3/4 355/3/4
f 353/2/4 354/2/4 355/2/4
f 355/2/4 354/2/4 356/2/4
f 352/3/4 355/3/4 358/3/4
f 358/3/4 355/3/4 359/3/4
f 356/3/4 357/3/4 360/3/4
f 352/3/4 358/3/4 361/3/4
f 361/3/4 358/3/4 362/3/4
f 362/3/4 358/3/4 363/3/4
f 360/3/4 357/3/4 364/3/4
f 364/3/4 357/3/4 365/3/4
f 365/2/4 366/2/4 367/2/4
f 367/2/4 366/2/4 368/2/4
f 369/2/4 370/2/4 371/2/4
f 371/2/4 370/2/4 372/2/4
f 372/2/4 370/2/4 373/2/4
f 371/1/4 372/1/4 375/1/4
f 372/4/4 373/4/4 375/4/4
f 373/2/4 374/2/4 376/2/4
f 375/4/4 373/4/4 376/4/4
f 371/1/4 375/1/4 379/1/4
f 375/1/4 376/1/4 379/1/4
f 376/2/4 374/2/4 380/2/4
f 379/1/4 376/1/4 380/1/4
f 377/2/4 378/2/4 382/2/4
f 382/2/4 378/2/4 383/2/4
f 371/1/4 379/1/4 384/1/4
f 379/4/4 380/4/4 385/4/4
f 384/1/4 379/1/4 385/1/4
f 380/2/4 374/2/4 386/2/4
f 385/4/4 380/4/4 386/4/4
f 386/2/4 374/2/4 387/2/4
f 381/2/4 382/2/4 389/2/4
f 382/3/4 383/3/4 390/3/4
f 389/2/4 382/2/4 390/2/4
f 390/3/4 383/3/4 391/3/4
f 384/2/4 385/2/4 393/2/4
f 385/2/4 386/2/4 393/2/4
f 393/2/4 386/2/4 394/2/4
f 388/2/4 389/2/4 396/2/4
f 396/2/4 389/2/4 397/2/4
f 391/3/4 392/3/4 398/3/4
f 390/3/4 391/3/4 398/3/4
f 398/3/4 392/3/4 399/3/4
f 395/2/4 396/2/4 400/2/4
f 400/2/4 396/2/4 401/2/4
f 400/3/4 401/3/4 402/3/4
f 402/3/4 401/3/4 403/3/4
f 404/2/4 405/2/4 407/2/4
f 407/2/4 405/2/4 408/2/4
f 406/2/4 407/2/4 410/2/4
f 408/3/4 409/3/4 411/3/4
f 410/2/4 407/2/4 411/2/4
f 407/3/4 408/3/4 411/3/4
f 410/3/4 411/3/4 412/3/4
f 411/3/4 409/3/4 413/3/4
f 412/3/4 411/3/4 413/3/4
f 418/3/5 415/3/5 414/3/5
f 419/3/5 415/3/5 418/3/5
f 422/2/5 417/2/5 416/2/5
f 423/3/5 418/3/5 417/3/5
f 423/2/5 417/2/5 422/2/5
f 423/3/5 419/3/5 418/3/5
f 423/3/5 420/3/5 419/3/5
f 424/2/5 421/2/5 420/2/5
f 424/3/5 420/3/5 423/3/5
f 425/2/5 421/2/5 424/2/5
f 426/4/5 423/4/5 422/4/5
f 427/3/5 424/3/5 423/3/5
f 427/4/5 423/4/5 426/4/5
f 428/4/5 425/4/5 424/4/5
f 428/3/5 424/3/5 427/3/5
f 429/4/5 425/4/5 428/4/5
f 430/1/5 427/1/5 426/1/5
f 431/3/5 428/3/5 427/3/5
f 431/1/5 427/1/5 430/1/5
f 432/1/5 429/1/5 428/1/5
f 432/3/5 428/3/5 431/3/5
f 433/1/5 429/1/5 432/1/5
f 434/2/5 431/2/5 430/2/5
f 435/3/5 432/3/5 431/3/5
f 435/2/5 431/2/5 434/2/5
f 436/3/5 432/3/5 435/3/5
f 437/3/5 432/3/5 436/3/5
f 438/2/5 433/2/5 432/2/5
f 438/3/5 432/3/5 437/3/5
f 439/2/5 433/2/5 438/2/5
f 441/3/5 437/3/5 436/3/5
f 442/3/5 437/3/5 441/3/5
f 444/2/5 441/2/5 440/2/5
f 445/1/5 442/1/5 441/1/5
f 445/2/5 441/2/5 444/2/5
f 446/2/5 443/2/5 442/2/5
f 446/1/5 442/1/5 445/1/5
f 447/2/5 443/2/5 446/2/5
f 451/2/5 449/2/5 448/2/5
f 452/2/5 449/2/5 451/2/5
f 453/2/5 449/2/5 452/2/5
f 454/3/5 450/3/5 449/3/5
f 454/2/5 449/2/5 453/2/5
f 455/3/5 450/3/5 454/3/5
f 460/2/5 457/2/5 456/2/5
f 461/3/5 458/3/5 457/3/5
f 461/2/5 457/2/5 460/2/5
f 462/3/5 458/3/5 461/3/5
f 463/2/5 460/2/5 459/2/5
f 464/2/5 460/2/5 463/2/5
f 465/3/5 464/3/5 463/3/5
f 466/3/5 464/3/5 465/3/5
f 469/2/5 468/2/5 467/2/5
f 470/2/5 468/2/5 469/2/5
f 473/3/5 472/3/5 471/3/5
f 474/3/5 472/3/5 473/3/5
f 475/2/5 474/2/5 473/2/5
f 476/2/5 474/2/5 475/2/5
f 479/2/5 477/2/5 476/2/5
f 480/3/5 478/3/5 477/3/5
f 480/2/5 477/2/5 479/2/5
f 481/3/5 478/3/5 480/3/5
f 485/2/5 483/2/5 482/2/5
f 486/2/5 483/2/5 485/2/5
f 487/2/5 485/2/5 484/2/5
f 488/2/5 485/2/5 487/2/5
f 491/2/5 490/2/5 489/2/5
f 492/2/5 490/2/5 491/2/5
f 495/2/5 494/2/5 493/2/5
f 496/2/5 494/2/5 495/2/5
f 499/2/5 498/2/5 497/2/5
f 500/2/5 498/2/5 499/2/5
f 502/2/5 501/2/5 500/2/5
f 503/2/5 501/2/5 502/2/5
f 506/2/5 505/2/5 504/2/5
f 507/2/5 505/2/5 506/2/5
f 510/2/5 509/2/5 508/2/5
f 511/2/5 509/2/5 510/2/5
f 512/2/6 513/2/6 516/2/6
f 516/2/6 513/2/6 517/2/6
f 514/2/6 515/2/6 518/2/6
f 518/2/6 515/2/6 519/2/6
f 520/2/6 521/2/6 524/2/6
f 524/2/6 521/2/6 525/2/6
f 522/2/6 523/2/6 526/2/6
f 526/2/6 523/2/6 527/2/6
f 528/2/6 529/2/6 532/2/6
f 532/2/6 529/2/6 533/2/6
f 530/2/6 531/2/6 534/2/6
f 534/2/6 531/2/6 535/2/6
f 536/2/6 537/2/6 540/2/6
f 540/2/6 537/2/6 541/2/6
f 538/2/6 539/2/6 542/2/6
f 542/2/6 539/2/6 543/2/6
f 544/2/6 545/2/6 546/2/6
f 546/2/6 545/2/6 547/2/6
f 548/2/6 549/2/6 550/2/6
f 550/2/6 549/2/6 551/2/6
f 552/2/6 553/2/6 554/2/6
f 554/2/6 553/2/6 555/2/6
f 556/2/6 557/2/6 560/2/6
f 557/3/6 558/3/6 561/3/6
f 560/2/6 557/2/6 561/2/6
f 561/3/6 558/3/6 562/3/6
f 559/2/6 560/2/6 565/2/6
f 565/2/6 560/2/6 566/2/6
f 563/2/6 564/2/6 567/2/6
f 567/2/6 564/2/6 568/2/6
f 569/2/6 570/2/6 571/2/6
f 571/2/6 570/2/6 572/2/6
f 573/2/6 574/2/6 575/2/6
f 575/2/6 574/2/6 576/2/6
f 576/2/6 577/2/6 579/2/6
f 577/3/6 578/3/6 580/3/6
f 579/2/6 577/2/6 580/2/6
f 580/3/6 578/3/6 581/3/6
f 582/3/6 583/3/6 585/3/6
f 585/3/6 583/3/6 586/3/6
f 584/3/6 585/3/6 589/3/6
f 589/3/6 585/3/6 590/3/6
f 587/2/6 588/2/6 592/2/6
f 588/3/6 589/3/6 593/3/6
f 592/2/6 588/2/6 593/2/6
f 593/3/6 589/3/6 594/3/6
f 591/2/6 592/2/6 595/2/6
f 595/2/6 592/2/6 596/2/6
f 596/2/6 597/2/6 599/2/6
f 597/3/6 598/3/6 600/3/6
f 599/2/6 597/2/6 600/2/6
f 600/3/6 598/3/6 601/3/6
f 601/3/6 602/3/6 603/3/6
f 603/3/6 602/3/6 604/3/6
f 604/3/6 605/3/6 606/3/6
f 606/3/6 605/3/6 607/3/6
f 608/3/6 609/3/6 610/3/6
f 610/3/6 609/3/6 611/3/6
f 610/2/6 611/2/6 613/2/6
f 612/2/6 613/2/6 615/2/6
f 614/3/6 615/3/6 617/3/6
f 616/3/6 617/3/6 618/3/6
f 617/3/6 615/3/6 619/3/6
f 618/3/6 617/3/6 619/3/6
f 619/3/6 615/3/6 620/3/6
f 615/2/6 613/2/6 621/2/6
f 620/3/6 615/3/6 621/3/6
f 621/2/6 613/2/6 622/2/6
f 613/2/6 611/2/6 623/2/6
f 622/2/6 613/2/6 623/2/6
f 623/2/6 611/2/6 624/2/6
f 624/2/6 611/2/6 625/2/6
f 624/3/6 625/3/6 626/3/6
f 626/3/6 625/3/6 627/3/6
