# MagicaVoxel @ Ephtracy

# group
o 

# material
mtllib Linfocito T-6.mtl
usemtl palette

# normals
vn -1 0 0
vn 1 0 0
vn 0 0 1
vn 0 0 -1
vn 0 -1 0
vn 0 1 0

# texcoords
vt 0.314453 0.5
vt 0.337891 0.5
vt 0.501953 0.5
vt 0.783203 0.5
vt 0.818359 0.5

# verts
v 0.7 2.7 0.3
v 0.7 2.7 -0.1
v 0.7 2.8 0.4
v 0.7 2.8 0.3
v 0.7 2.8 -0.1
v 0.7 2.8 -0.2
v 0.7 3.2 0.4
v 0.7 3.2 0.3
v 0.7 3.2 -0.1
v 0.7 3.2 -0.2
v 0.7 3.3 0.3
v 0.7 3.3 -0.1
v 0.8 2.7 0.4
v 0.8 2.7 0.3
v 0.8 2.7 -0.1
v 0.8 2.7 -0.2
v 0.8 2.8 0.4
v 0.8 2.8 0.3
v 0.8 2.8 -0.1
v 0.8 2.8 -0.2
v 0.8 3.2 0.4
v 0.8 3.2 0.3
v 0.8 3.2 -0.1
v 0.8 3.2 -0.2
v 0.8 3.3 0.4
v 0.8 3.3 0.3
v 0.8 3.3 -0.1
v 0.8 3.3 -0.2
v 1.1 2.7 0.4
v 1.1 2.7 0.3
v 1.1 2.7 -0.1
v 1.1 2.7 -0.2
v 1.1 2.8 0.4
v 1.1 2.8 0.3
v 1.1 2.8 -0.1
v 1.1 2.8 -0.2
v 1.1 3.2 0.4
v 1.1 3.2 0.3
v 1.1 3.2 -0.1
v 1.1 3.2 -0.2
v 1.1 3.3 0.4
v 1.1 3.3 0.3
v 1.1 3.3 -0.1
v 1.1 3.3 -0.2
v 1.2 2.7 0.3
v 1.2 2.7 -0.1
v 1.2 2.8 0.4
v 1.2 2.8 0.3
v 1.2 2.8 -0.1
v 1.2 2.8 -0.2
v 1.2 3.2 0.4
v 1.2 3.2 0.3
v 1.2 3.2 -0.1
v 1.2 3.2 -0.2
v 1.2 3.3 0.3
v 1.2 3.3 -0.1
v 1.6 2.8 0.3
v 1.6 2.8 -0.1
v 1.6 3.2 0.3
v 1.6 3.2 -0.1
v 0.7 2.8 0.4
v 0.7 3.2 0.4
v 0.8 2.7 0.4
v 0.8 2.8 0.4
v 0.8 2.9 0.4
v 0.8 3.1 0.4
v 0.8 3.2 0.4
v 0.8 3.3 0.4
v 0.9 2.8 0.4
v 0.9 2.9 0.4
v 0.9 3.1 0.4
v 0.9 3.2 0.4
v 1 2.8 0.4
v 1 2.9 0.4
v 1 3.1 0.4
v 1 3.2 0.4
v 1.1 2.7 0.4
v 1.1 2.8 0.4
v 1.1 2.9 0.4
v 1.1 3.1 0.4
v 1.1 3.2 0.4
v 1.1 3.3 0.4
v 1.2 2.8 0.4
v 1.2 3.2 0.4
v 0.7 2.7 0.3
v 0.7 2.8 0.3
v 0.7 3.2 0.3
v 0.7 3.3 0.3
v 0.8 2.7 0.3
v 0.8 2.8 0.3
v 0.8 3.2 0.3
v 0.8 3.3 0.3
v 1.1 2.7 0.3
v 1.1 2.8 0.3
v 1.1 3.2 0.3
v 1.1 3.3 0.3
v 1.2 2.7 0.3
v 1.2 2.8 0.3
v 1.2 3.2 0.3
v 1.2 3.3 0.3
v 1.6 2.8 0.3
v 1.6 3.2 0.3
v 0.7 2.7 -0.1
v 0.7 2.8 -0.1
v 0.7 3.2 -0.1
v 0.7 3.3 -0.1
v 0.8 2.7 -0.1
v 0.8 2.8 -0.1
v 0.8 3.2 -0.1
v 0.8 3.3 -0.1
v 1.1 2.7 -0.1
v 1.1 2.8 -0.1
v 1.1 3.2 -0.1
v 1.1 3.3 -0.1
v 1.2 2.7 -0.1
v 1.2 2.8 -0.1
v 1.2 3.2 -0.1
v 1.2 3.3 -0.1
v 1.6 2.8 -0.1
v 1.6 3.2 -0.1
v 0.7 2.8 -0.2
v 0.7 3.2 -0.2
v 0.8 2.7 -0.2
v 0.8 2.8 -0.2
v 0.8 2.9 -0.2
v 0.8 3.1 -0.2
v 0.8 3.2 -0.2
v 0.8 3.3 -0.2
v 0.9 2.8 -0.2
v 0.9 2.9 -0.2
v 0.9 3.1 -0.2
v 0.9 3.2 -0.2
v 1 2.8 -0.2
v 1 2.9 -0.2
v 1 3.1 -0.2
v 1 3.2 -0.2
v 1.1 2.7 -0.2
v 1.1 2.8 -0.2
v 1.1 2.9 -0.2
v 1.1 3.1 -0.2
v 1.1 3.2 -0.2
v 1.1 3.3 -0.2
v 1.2 2.8 -0.2
v 1.2 3.2 -0.2
v 0.8 2.7 0.4
v 1.1 2.7 0.4
v 0.7 2.7 0.3
v 0.8 2.7 0.3
v 1.1 2.7 0.3
v 1.2 2.7 0.3
v 0.7 2.7 -0.1
v 0.8 2.7 -0.1
v 1.1 2.7 -0.1
v 1.2 2.7 -0.1
v 0.8 2.7 -0.2
v 1.1 2.7 -0.2
v 0.7 2.8 0.4
v 0.8 2.8 0.4
v 1.1 2.8 0.4
v 1.2 2.8 0.4
v 0.7 2.8 0.3
v 0.8 2.8 0.3
v 1.1 2.8 0.3
v 1.2 2.8 0.3
v 1.6 2.8 0.3
v 0.7 2.8 -0.1
v 0.8 2.8 -0.1
v 1.1 2.8 -0.1
v 1.2 2.8 -0.1
v 1.6 2.8 -0.1
v 0.7 2.8 -0.2
v 0.8 2.8 -0.2
v 1.1 2.8 -0.2
v 1.2 2.8 -0.2
v 0.7 3.2 0.4
v 0.8 3.2 0.4
v 1.1 3.2 0.4
v 1.2 3.2 0.4
v 0.7 3.2 0.3
v 0.8 3.2 0.3
v 1.1 3.2 0.3
v 1.2 3.2 0.3
v 1.6 3.2 0.3
v 0.7 3.2 -0.1
v 0.8 3.2 -0.1
v 1.1 3.2 -0.1
v 1.2 3.2 -0.1
v 1.6 3.2 -0.1
v 0.7 3.2 -0.2
v 0.8 3.2 -0.2
v 1.1 3.2 -0.2
v 1.2 3.2 -0.2
v 0.8 3.3 0.4
v 1.1 3.3 0.4
v 0.7 3.3 0.3
v 0.8 3.3 0.3
v 0.9 3.3 0.3
v 1 3.3 0.3
v 1.1 3.3 0.3
v 1.2 3.3 0.3
v 0.8 3.3 0.2
v 0.9 3.3 0.2
v 1 3.3 0.2
v 1.1 3.3 0.2
v 0.8 3.3 0
v 0.9 3.3 0
v 1 3.3 0
v 1.1 3.3 0
v 0.7 3.3 -0.1
v 0.8 3.3 -0.1
v 0.9 3.3 -0.1
v 1 3.3 -0.1
v 1.1 3.3 -0.1
v 1.2 3.3 -0.1
v 0.8 3.3 -0.2
v 1.1 3.3 -0.2

# faces
f 4/2/1 2/2/1 1/2/1
f 5/2/1 2/2/1 4/2/1
f 7/2/1 4/2/1 3/2/1
f 7/2/1 6/2/1 5/2/1
f 7/2/1 5/2/1 4/2/1
f 8/2/1 6/2/1 7/2/1
f 9/2/1 6/2/1 8/2/1
f 10/2/1 6/2/1 9/2/1
f 11/2/1 9/2/1 8/2/1
f 12/2/1 9/2/1 11/2/1
f 17/2/1 14/2/1 13/2/1
f 18/2/1 14/2/1 17/2/1
f 19/2/1 16/2/1 15/2/1
f 20/2/1 16/2/1 19/2/1
f 25/2/1 22/2/1 21/2/1
f 26/2/1 22/2/1 25/2/1
f 27/2/1 24/2/1 23/2/1
f 28/2/1 24/2/1 27/2/1
f 29/2/2 30/2/2 33/2/2
f 33/2/2 30/2/2 34/2/2
f 31/2/2 32/2/2 35/2/2
f 35/2/2 32/2/2 36/2/2
f 37/2/2 38/2/2 41/2/2
f 41/2/2 38/2/2 42/2/2
f 39/2/2 40/2/2 43/2/2
f 43/2/2 40/2/2 44/2/2
f 45/2/2 46/2/2 48/2/2
f 48/2/2 46/2/2 49/2/2
f 47/2/2 48/2/2 51/2/2
f 51/2/2 48/2/2 52/2/2
f 49/2/2 50/2/2 53/2/2
f 53/2/2 50/2/2 54/2/2
f 52/2/2 53/2/2 55/2/2
f 55/2/2 53/2/2 56/2/2
f 57/3/2 58/3/2 59/3/2
f 59/3/2 58/3/2 60/3/2
f 64/2/3 62/2/3 61/2/3
f 65/2/3 62/2/3 64/2/3
f 66/2/3 62/2/3 65/2/3
f 67/2/3 62/2/3 66/2/3
f 69/2/3 64/2/3 63/2/3
f 69/5/3 65/5/3 64/5/3
f 70/1/3 66/1/3 65/1/3
f 70/5/3 65/5/3 69/5/3
f 71/5/3 67/5/3 66/5/3
f 71/1/3 66/1/3 70/1/3
f 72/2/3 68/2/3 67/2/3
f 72/5/3 67/5/3 71/5/3
f 73/1/3 70/1/3 69/1/3
f 73/2/3 69/2/3 63/2/3
f 74/4/3 71/4/3 70/4/3
f 74/1/3 70/1/3 73/1/3
f 75/1/3 72/1/3 71/1/3
f 75/4/3 71/4/3 74/4/3
f 76/2/3 68/2/3 72/2/3
f 76/1/3 72/1/3 75/1/3
f 77/2/3 73/2/3 63/2/3
f 78/5/3 74/5/3 73/5/3
f 78/2/3 73/2/3 77/2/3
f 79/1/3 75/1/3 74/1/3
f 79/5/3 74/5/3 78/5/3
f 80/5/3 76/5/3 75/5/3
f 80/1/3 75/1/3 79/1/3
f 81/2/3 68/2/3 76/2/3
f 81/5/3 76/5/3 80/5/3
f 82/2/3 68/2/3 81/2/3
f 83/2/3 80/2/3 79/2/3
f 83/2/3 81/2/3 80/2/3
f 83/2/3 79/2/3 78/2/3
f 84/2/3 81/2/3 83/2/3
f 89/2/3 86/2/3 85/2/3
f 90/2/3 86/2/3 89/2/3
f 91/2/3 88/2/3 87/2/3
f 92/2/3 88/2/3 91/2/3
f 97/2/3 94/2/3 93/2/3
f 98/2/3 94/2/3 97/2/3
f 99/2/3 96/2/3 95/2/3
f 100/2/3 96/2/3 99/2/3
f 101/3/3 99/3/3 98/3/3
f 102/3/3 99/3/3 101/3/3
f 103/2/4 104/2/4 107/2/4
f 107/2/4 104/2/4 108/2/4
f 105/2/4 106/2/4 109/2/4
f 109/2/4 106/2/4 110/2/4
f 111/2/4 112/2/4 115/2/4
f 115/2/4 112/2/4 116/2/4
f 113/2/4 114/2/4 117/2/4
f 117/2/4 114/2/4 118/2/4
f 116/3/4 117/3/4 119/3/4
f 119/3/4 117/3/4 120/3/4
f 121/2/4 122/2/4 124/2/4
f 124/2/4 122/2/4 125/2/4
f 125/2/4 122/2/4 126/2/4
f 126/2/4 122/2/4 127/2/4
f 123/2/4 124/2/4 129/2/4
f 124/5/4 125/5/4 129/5/4
f 125/1/4 126/1/4 130/1/4
f 129/5/4 125/5/4 130/5/4
f 126/5/4 127/5/4 131/5/4
f 130/1/4 126/1/4 131/1/4
f 127/2/4 128/2/4 132/2/4
f 131/5/4 127/5/4 132/5/4
f 129/1/4 130/1/4 133/1/4
f 123/2/4 129/2/4 133/2/4
f 130/4/4 131/4/4 134/4/4
f 133/1/4 130/1/4 134/1/4
f 131/1/4 132/1/4 135/1/4
f 134/4/4 131/4/4 135/4/4
f 132/2/4 128/2/4 136/2/4
f 135/1/4 132/1/4 136/1/4
f 123/2/4 133/2/4 137/2/4
f 133/5/4 134/5/4 138/5/4
f 137/2/4 133/2/4 138/2/4
f 134/1/4 135/1/4 139/1/4
f 138/5/4 134/5/4 139/5/4
f 135/5/4 136/5/4 140/5/4
f 139/1/4 135/1/4 140/1/4
f 136/2/4 128/2/4 141/2/4
f 140/5/4 136/5/4 141/5/4
f 141/2/4 128/2/4 142/2/4
f 139/2/4 140/2/4 143/2/4
f 140/2/4 141/2/4 143/2/4
f 138/2/4 139/2/4 143/2/4
f 143/2/4 141/2/4 144/2/4
f 148/2/5 146/2/5 145/2/5
f 149/2/5 146/2/5 148/2/5
f 151/2/5 148/2/5 147/2/5
f 152/1/5 149/1/5 148/1/5
f 152/2/5 148/2/5 151/2/5
f 153/2/5 150/2/5 149/2/5
f 153/1/5 149/1/5 152/1/5
f 154/2/5 150/2/5 153/2/5
f 155/2/5 153/2/5 152/2/5
f 156/2/5 153/2/5 155/2/5
f 161/2/5 158/2/5 157/2/5
f 162/2/5 158/2/5 161/2/5
f 163/2/5 160/2/5 159/2/5
f 164/2/5 160/2/5 163/2/5
f 169/3/5 165/3/5 164/3/5
f 170/3/5 165/3/5 169/3/5
f 171/2/5 167/2/5 166/2/5
f 172/2/5 167/2/5 171/2/5
f 173/2/5 169/2/5 168/2/5
f 174/2/5 169/2/5 173/2/5
f 175/2/6 176/2/6 179/2/6
f 179/2/6 176/2/6 180/2/6
f 177/2/6 178/2/6 181/2/6
f 181/2/6 178/2/6 182/2/6
f 182/3/6 183/3/6 187/3/6
f 187/3/6 183/3/6 188/3/6
f 184/2/6 185/2/6 189/2/6
f 189/2/6 185/2/6 190/2/6
f 186/2/6 187/2/6 191/2/6
f 191/2/6 187/2/6 192/2/6
f 193/2/6 194/2/6 196/2/6
f 196/2/6 194/2/6 197/2/6
f 197/2/6 194/2/6 198/2/6
f 198/2/6 194/2/6 199/2/6
f 195/2/6 196/2/6 201/2/6
f 196/5/6 197/5/6 201/5/6
f 197/1/6 198/1/6 202/1/6
f 201/5/6 197/5/6 202/5/6
f 198/5/6 199/5/6 203/5/6
f 202/1/6 198/1/6 203/1/6
f 199/2/6 200/2/6 204/2/6
f 203/5/6 199/5/6 204/5/6
f 201/1/6 202/1/6 205/1/6
f 195/2/6 201/2/6 205/2/6
f 202/4/6 203/4/6 206/4/6
f 205/1/6 202/1/6 206/1/6
f 203/1/6 204/1/6 207/1/6
f 206/4/6 203/4/6 207/4/6
f 204/2/6 200/2/6 208/2/6
f 207/1/6 204/1/6 208/1/6
f 195/2/6 205/2/6 209/2/6
f 205/5/6 206/5/6 210/5/6
f 209/2/6 205/2/6 210/2/6
f 206/1/6 207/1/6 211/1/6
f 210/5/6 206/5/6 211/5/6
f 207/5/6 208/5/6 212/5/6
f 211/1/6 207/1/6 212/1/6
f 208/2/6 200/2/6 213/2/6
f 212/5/6 208/5/6 213/5/6
f 213/2/6 200/2/6 214/2/6
f 211/2/6 212/2/6 215/2/6
f 212/2/6 213/2/6 215/2/6
f 210/2/6 211/2/6 215/2/6
f 215/2/6 213/2/6 216/2/6
