# MagicaVoxel @ Ephtracy

# group
o 

# material
mtllib Linfocito T-5.mtl
usemtl palette

# normals
vn -1 0 0
vn 1 0 0
vn 0 0 1
vn 0 0 -1
vn 0 -1 0
vn 0 1 0

# texcoords
vt 0.314453 0.5
vt 0.337891 0.5
vt 0.501953 0.5
vt 0.818359 0.5

# verts
v 0.2 0.7 0.2
v 0.2 0.7 0
v 0.2 0.8 0.3
v 0.2 0.8 0.2
v 0.2 0.8 0.1
v 0.2 0.8 0
v 0.2 0.8 -0.1
v 0.2 0.9 0.3
v 0.2 0.9 0.2
v 0.2 0.9 0.1
v 0.2 0.9 0
v 0.2 0.9 -0.1
v 0.3 0 0.4
v 0.3 0 -0.3
v 0.3 0.1 0.4
v 0.3 0.1 0.3
v 0.3 0.1 -0.1
v 0.3 0.1 -0.2
v 0.3 0.1 -0.3
v 0.3 0.2 -0.1
v 0.3 0.2 -0.2
v 0.3 0.7 0.2
v 0.3 0.7 0
v 0.3 0.8 0.3
v 0.3 0.8 0.2
v 0.3 0.8 0
v 0.3 0.8 -0.1
v 0.3 0.8 -0.2
v 0.3 0.8 -0.3
v 0.3 0.9 -0.2
v 0.3 0.9 -0.3
v 0.4 0 -0.3
v 0.4 0 -0.4
v 0.4 0.1 0.4
v 0.4 0.1 0.3
v 0.4 0.1 -0.2
v 0.4 0.1 -0.3
v 0.4 0.1 -0.4
v 0.4 0.2 -0.1
v 0.4 0.2 -0.2
v 0.4 0.2 -0.3
v 0.4 0.7 -0.2
v 0.4 0.7 -0.3
v 0.4 0.8 -0.2
v 0.4 0.8 -0.3
v 0.4 0.9 0.4
v 0.4 0.9 0.3
v 0.4 0.9 -0.1
v 0.4 0.9 -0.2
v 0.7 0 -0.3
v 0.7 0 -0.4
v 0.7 0.1 0.4
v 0.7 0.1 0.3
v 0.7 0.1 -0.2
v 0.7 0.1 -0.3
v 0.7 0.1 -0.4
v 0.7 0.2 -0.1
v 0.7 0.2 -0.2
v 0.7 0.2 -0.3
v 0.7 0.7 -0.2
v 0.7 0.7 -0.3
v 0.7 0.8 -0.2
v 0.7 0.8 -0.3
v 0.7 0.9 0.4
v 0.7 0.9 0.3
v 0.7 0.9 -0.1
v 0.7 0.9 -0.2
v 0.8 0 0.4
v 0.8 0 -0.3
v 0.8 0.1 0.4
v 0.8 0.1 0.3
v 0.8 0.1 -0.1
v 0.8 0.1 -0.2
v 0.8 0.1 -0.3
v 0.8 0.2 -0.1
v 0.8 0.2 -0.2
v 0.8 0.7 0.2
v 0.8 0.7 0
v 0.8 0.8 0.3
v 0.8 0.8 0.2
v 0.8 0.8 0
v 0.8 0.8 -0.1
v 0.8 0.8 -0.2
v 0.8 0.8 -0.3
v 0.8 0.9 -0.2
v 0.8 0.9 -0.3
v 0.9 0.7 0.2
v 0.9 0.7 0
v 0.9 0.8 0.3
v 0.9 0.8 0.2
v 0.9 0.8 0.1
v 0.9 0.8 0
v 0.9 0.8 -0.1
v 0.9 0.9 0.3
v 0.9 0.9 0.2
v 0.9 0.9 0.1
v 0.9 0.9 0
v 0.9 0.9 -0.1
v 0.3 0 0.4
v 0.3 0.1 0.4
v 0.4 0.1 0.4
v 0.4 0.9 0.4
v 0.7 0.1 0.4
v 0.7 0.9 0.4
v 0.8 0 0.4
v 0.8 0.1 0.4
v 0.2 0.8 0.3
v 0.2 0.9 0.3
v 0.3 0.1 0.3
v 0.3 0.8 0.3
v 0.3 0.9 0.3
v 0.4 0.1 0.3
v 0.4 0.9 0.3
v 0.7 0.1 0.3
v 0.7 0.9 0.3
v 0.8 0.1 0.3
v 0.8 0.8 0.3
v 0.8 0.9 0.3
v 0.9 0.8 0.3
v 0.9 0.9 0.3
v 0.2 0.7 0.2
v 0.2 0.8 0.2
v 0.3 0.7 0.2
v 0.3 0.8 0.2
v 0.8 0.7 0.2
v 0.8 0.8 0.2
v 0.9 0.7 0.2
v 0.9 0.8 0.2
v 0.3 0.8 -0.2
v 0.3 0.9 -0.2
v 0.4 0.8 -0.2
v 0.4 0.9 -0.2
v 0.7 0.8 -0.2
v 0.7 0.9 -0.2
v 0.8 0.8 -0.2
v 0.8 0.9 -0.2
v 0.2 0.7 0
v 0.2 0.8 0
v 0.3 0.7 0
v 0.3 0.8 0
v 0.8 0.7 0
v 0.8 0.8 0
v 0.9 0.7 0
v 0.9 0.8 0
v 0.2 0.8 -0.1
v 0.2 0.9 -0.1
v 0.3 0.2 -0.1
v 0.3 0.8 -0.1
v 0.3 0.9 -0.1
v 0.4 0.2 -0.1
v 0.4 0.9 -0.1
v 0.7 0.2 -0.1
v 0.7 0.9 -0.1
v 0.8 0.2 -0.1
v 0.8 0.8 -0.1
v 0.8 0.9 -0.1
v 0.9 0.8 -0.1
v 0.9 0.9 -0.1
v 0.3 0.1 -0.2
v 0.3 0.2 -0.2
v 0.4 0.1 -0.2
v 0.4 0.2 -0.2
v 0.4 0.7 -0.2
v 0.7 0.1 -0.2
v 0.7 0.2 -0.2
v 0.7 0.7 -0.2
v 0.8 0.1 -0.2
v 0.8 0.2 -0.2
v 0.3 0 -0.3
v 0.3 0.1 -0.3
v 0.3 0.8 -0.3
v 0.3 0.9 -0.3
v 0.4 0 -0.3
v 0.4 0.1 -0.3
v 0.4 0.2 -0.3
v 0.4 0.7 -0.3
v 0.4 0.8 -0.3
v 0.4 0.9 -0.3
v 0.5 0.8 -0.3
v 0.5 0.9 -0.3
v 0.6 0.8 -0.3
v 0.6 0.9 -0.3
v 0.7 0 -0.3
v 0.7 0.1 -0.3
v 0.7 0.2 -0.3
v 0.7 0.7 -0.3
v 0.7 0.8 -0.3
v 0.7 0.9 -0.3
v 0.8 0 -0.3
v 0.8 0.1 -0.3
v 0.8 0.8 -0.3
v 0.8 0.9 -0.3
v 0.4 0 -0.4
v 0.4 0.1 -0.4
v 0.7 0 -0.4
v 0.7 0.1 -0.4
v 0.3 0 0.4
v 0.8 0 0.4
v 0.3 0 -0.3
v 0.4 0 -0.3
v 0.7 0 -0.3
v 0.8 0 -0.3
v 0.4 0 -0.4
v 0.7 0 -0.4
v 0.2 0.7 0.2
v 0.3 0.7 0.2
v 0.8 0.7 0.2
v 0.9 0.7 0.2
v 0.2 0.7 0
v 0.3 0.7 0
v 0.8 0.7 0
v 0.9 0.7 0
v 0.4 0.7 -0.2
v 0.7 0.7 -0.2
v 0.4 0.7 -0.3
v 0.7 0.7 -0.3
v 0.2 0.8 0.3
v 0.3 0.8 0.3
v 0.8 0.8 0.3
v 0.9 0.8 0.3
v 0.2 0.8 0.2
v 0.3 0.8 0.2
v 0.8 0.8 0.2
v 0.9 0.8 0.2
v 0.2 0.8 0
v 0.3 0.8 0
v 0.8 0.8 0
v 0.9 0.8 0
v 0.2 0.8 -0.1
v 0.3 0.8 -0.1
v 0.8 0.8 -0.1
v 0.9 0.8 -0.1
v 0.3 0.8 -0.2
v 0.4 0.8 -0.2
v 0.7 0.8 -0.2
v 0.8 0.8 -0.2
v 0.3 0.8 -0.3
v 0.4 0.8 -0.3
v 0.7 0.8 -0.3
v 0.8 0.8 -0.3
v 0.3 0.1 0.4
v 0.4 0.1 0.4
v 0.7 0.1 0.4
v 0.8 0.1 0.4
v 0.3 0.1 0.3
v 0.4 0.1 0.3
v 0.7 0.1 0.3
v 0.8 0.1 0.3
v 0.3 0.1 -0.2
v 0.4 0.1 -0.2
v 0.7 0.1 -0.2
v 0.8 0.1 -0.2
v 0.3 0.1 -0.3
v 0.4 0.1 -0.3
v 0.7 0.1 -0.3
v 0.8 0.1 -0.3
v 0.4 0.1 -0.4
v 0.7 0.1 -0.4
v 0.3 0.2 -0.1
v 0.4 0.2 -0.1
v 0.7 0.2 -0.1
v 0.8 0.2 -0.1
v 0.3 0.2 -0.2
v 0.4 0.2 -0.2
v 0.7 0.2 -0.2
v 0.8 0.2 -0.2
v 0.4 0.2 -0.3
v 0.7 0.2 -0.3
v 0.4 0.9 0.4
v 0.7 0.9 0.4
v 0.2 0.9 0.3
v 0.3 0.9 0.3
v 0.4 0.9 0.3
v 0.7 0.9 0.3
v 0.8 0.9 0.3
v 0.9 0.9 0.3
v 0.2 0.9 0.2
v 0.3 0.9 0.2
v 0.8 0.9 0.2
v 0.9 0.9 0.2
v 0.2 0.9 0.1
v 0.3 0.9 0.1
v 0.8 0.9 0.1
v 0.9 0.9 0.1
v 0.2 0.9 0
v 0.3 0.9 0
v 0.8 0.9 0
v 0.9 0.9 0
v 0.2 0.9 -0.1
v 0.3 0.9 -0.1
v 0.4 0.9 -0.1
v 0.7 0.9 -0.1
v 0.8 0.9 -0.1
v 0.9 0.9 -0.1
v 0.3 0.9 -0.2
v 0.4 0.9 -0.2
v 0.5 0.9 -0.2
v 0.6 0.9 -0.2
v 0.7 0.9 -0.2
v 0.8 0.9 -0.2
v 0.3 0.9 -0.3
v 0.4 0.9 -0.3
v 0.5 0.9 -0.3
v 0.6 0.9 -0.3
v 0.7 0.9 -0.3
v 0.8 0.9 -0.3

# faces
f 4/2/1 2/2/1 1/2/1
f 5/2/1 2/2/1 4/2/1
f 6/2/1 2/2/1 5/2/1
f 8/2/1 4/2/1 3/2/1
f 9/1/1 5/1/1 4/1/1
f 9/2/1 4/2/1 8/2/1
f 10/4/1 6/4/1 5/4/1
f 10/1/1 5/1/1 9/1/1
f 11/2/1 7/2/1 6/2/1
f 11/4/1 6/4/1 10/4/1
f 12/2/1 7/2/1 11/2/1
f 15/2/1 14/2/1 13/2/1
f 16/2/1 14/2/1 15/2/1
f 17/2/1 14/2/1 16/2/1
f 18/2/1 14/2/1 17/2/1
f 19/2/1 14/2/1 18/2/1
f 20/3/1 17/3/1 16/3/1
f 20/4/1 18/4/1 17/4/1
f 21/4/1 18/4/1 20/4/1
f 22/3/1 20/3/1 16/3/1
f 23/3/1 20/3/1 22/3/1
f 24/3/1 22/3/1 16/3/1
f 25/3/1 22/3/1 24/3/1
f 26/3/1 20/3/1 23/3/1
f 27/3/1 20/3/1 26/3/1
f 30/2/1 29/2/1 28/2/1
f 31/2/1 29/2/1 30/2/1
f 37/2/1 33/2/1 32/2/1
f 38/2/1 33/2/1 37/2/1
f 40/1/1 37/1/1 36/1/1
f 41/1/1 37/1/1 40/1/1
f 42/3/1 40/3/1 39/3/1
f 44/3/1 42/3/1 39/3/1
f 44/2/1 43/2/1 42/2/1
f 45/2/1 43/2/1 44/2/1
f 46/3/1 35/3/1 34/3/1
f 47/3/1 35/3/1 46/3/1
f 48/3/1 44/3/1 39/3/1
f 49/3/1 44/3/1 48/3/1
f 50/2/2 51/2/2 55/2/2
f 55/2/2 51/2/2 56/2/2
f 54/1/2 55/1/2 58/1/2
f 58/1/2 55/1/2 59/1/2
f 57/3/2 58/3/2 60/3/2
f 57/3/2 60/3/2 62/3/2
f 60/2/2 61/2/2 62/2/2
f 62/2/2 61/2/2 63/2/2
f 52/3/2 53/3/2 64/3/2
f 64/3/2 53/3/2 65/3/2
f 57/3/2 62/3/2 66/3/2
f 66/3/2 62/3/2 67/3/2
f 68/2/2 69/2/2 70/2/2
f 70/2/2 69/2/2 71/2/2
f 71/2/2 69/2/2 72/2/2
f 72/2/2 69/2/2 73/2/2
f 73/2/2 69/2/2 74/2/2
f 71/3/2 72/3/2 75/3/2
f 72/4/2 73/4/2 75/4/2
f 75/4/2 73/4/2 76/4/2
f 71/3/2 75/3/2 77/3/2
f 77/3/2 75/3/2 78/3/2
f 71/3/2 77/3/2 79/3/2
f 79/3/2 77/3/2 80/3/2
f 78/3/2 75/3/2 81/3/2
f 81/3/2 75/3/2 82/3/2
f 83/2/2 84/2/2 85/2/2
f 85/2/2 84/2/2 86/2/2
f 87/2/2 88/2/2 90/2/2
f 90/2/2 88/2/2 91/2/2
f 91/2/2 88/2/2 92/2/2
f 89/2/2 90/2/2 94/2/2
f 90/1/2 91/1/2 95/1/2
f 94/2/2 90/2/2 95/2/2
f 91/4/2 92/4/2 96/4/2
f 95/1/2 91/1/2 96/1/2
f 92/2/2 93/2/2 97/2/2
f 96/4/2 92/4/2 97/4/2
f 97/2/2 93/2/2 98/2/2
f 101/2/3 100/2/3 99/2/3
f 103/2/3 101/2/3 99/2/3
f 103/3/3 102/3/3 101/3/3
f 104/3/3 102/3/3 103/3/3
f 105/2/3 103/2/3 99/2/3
f 106/2/3 103/2/3 105/2/3
f 110/2/3 108/2/3 107/2/3
f 111/2/3 108/2/3 110/2/3
f 112/3/3 110/3/3 109/3/3
f 112/3/3 111/3/3 110/3/3
f 113/3/3 111/3/3 112/3/3
f 116/3/3 115/3/3 114/3/3
f 117/3/3 115/3/3 116/3/3
f 118/3/3 115/3/3 117/3/3
f 119/2/3 118/2/3 117/2/3
f 120/2/3 118/2/3 119/2/3
f 123/2/3 122/2/3 121/2/3
f 124/2/3 122/2/3 123/2/3
f 127/2/3 126/2/3 125/2/3
f 128/2/3 126/2/3 127/2/3
f 131/2/3 130/2/3 129/2/3
f 132/2/3 130/2/3 131/2/3
f 135/2/3 134/2/3 133/2/3
f 136/2/3 134/2/3 135/2/3
f 137/2/4 138/2/4 139/2/4
f 139/2/4 138/2/4 140/2/4
f 141/2/4 142/2/4 143/2/4
f 143/2/4 142/2/4 144/2/4
f 145/2/4 146/2/4 148/2/4
f 148/2/4 146/2/4 149/2/4
f 147/3/4 148/3/4 150/3/4
f 148/3/4 149/3/4 150/3/4
f 150/3/4 149/3/4 151/3/4
f 152/3/4 153/3/4 154/3/4
f 154/3/4 153/3/4 155/3/4
f 155/3/4 153/3/4 156/3/4
f 155/2/4 156/2/4 157/2/4
f 157/2/4 156/2/4 158/2/4
f 159/4/4 160/4/4 161/4/4
f 161/4/4 160/4/4 162/4/4
f 162/3/4 163/3/4 165/3/4
f 165/3/4 163/3/4 166/3/4
f 164/4/4 165/4/4 167/4/4
f 167/4/4 165/4/4 168/4/4
f 169/2/4 170/2/4 173/2/4
f 173/2/4 170/2/4 174/2/4
f 171/2/4 172/2/4 177/2/4
f 177/2/4 172/2/4 178/2/4
f 176/2/4 177/2/4 179/2/4
f 177/4/4 178/4/4 179/4/4
f 179/4/4 178/4/4 180/4/4
f 176/2/4 179/2/4 181/2/4
f 179/1/4 180/1/4 181/1/4
f 181/1/4 180/1/4 182/1/4
f 174/1/4 175/1/4 184/1/4
f 184/1/4 175/1/4 185/1/4
f 176/2/4 181/2/4 186/2/4
f 181/4/4 182/4/4 187/4/4
f 186/2/4 181/2/4 187/2/4
f 187/4/4 182/4/4 188/4/4
f 183/2/4 184/2/4 189/2/4
f 189/2/4 184/2/4 190/2/4
f 187/2/4 188/2/4 191/2/4
f 191/2/4 188/2/4 192/2/4
f 193/2/4 194/2/4 195/2/4
f 195/2/4 194/2/4 196/2/4
f 199/2/5 198/2/5 197/2/5
f 200/2/5 198/2/5 199/2/5
f 201/2/5 198/2/5 200/2/5
f 202/2/5 198/2/5 201/2/5
f 203/2/5 201/2/5 200/2/5
f 204/2/5 201/2/5 203/2/5
f 209/2/5 206/2/5 205/2/5
f 210/2/5 206/2/5 209/2/5
f 211/2/5 208/2/5 207/2/5
f 212/2/5 208/2/5 211/2/5
f 215/2/5 214/2/5 213/2/5
f 216/2/5 214/2/5 215/2/5
f 221/2/5 218/2/5 217/2/5
f 222/2/5 218/2/5 221/2/5
f 223/2/5 220/2/5 219/2/5
f 224/2/5 220/2/5 223/2/5
f 229/2/5 226/2/5 225/2/5
f 230/2/5 226/2/5 229/2/5
f 231/2/5 228/2/5 227/2/5
f 232/2/5 228/2/5 231/2/5
f 237/2/5 234/2/5 233/2/5
f 238/2/5 234/2/5 237/2/5
f 239/2/5 236/2/5 235/2/5
f 240/2/5 236/2/5 239/2/5
f 241/2/6 242/2/6 245/2/6
f 245/2/6 242/2/6 246/2/6
f 243/2/6 244/2/6 247/2/6
f 247/2/6 244/2/6 248/2/6
f 249/2/6 250/2/6 253/2/6
f 253/2/6 250/2/6 254/2/6
f 251/2/6 252/2/6 255/2/6
f 255/2/6 252/2/6 256/2/6
f 254/2/6 255/2/6 257/2/6
f 257/2/6 255/2/6 258/2/6
f 259/4/6 260/4/6 263/4/6
f 263/4/6 260/4/6 264/4/6
f 261/4/6 262/4/6 265/4/6
f 265/4/6 262/4/6 266/4/6
f 264/1/6 265/1/6 267/1/6
f 267/1/6 265/1/6 268/1/6
f 269/3/6 270/3/6 273/3/6
f 273/3/6 270/3/6 274/3/6
f 271/2/6 272/2/6 277/2/6
f 272/3/6 273/3/6 278/3/6
f 277/2/6 272/2/6 278/2/6
f 273/3/6 274/3/6 278/3/6
f 274/3/6 275/3/6 278/3/6
f 275/2/6 276/2/6 279/2/6
f 278/3/6 275/3/6 279/3/6
f 279/2/6 276/2/6 280/2/6
f 277/1/6 278/1/6 281/1/6
f 278/3/6 279/3/6 282/3/6
f 281/1/6 278/1/6 282/1/6
f 279/1/6 280/1/6 283/1/6
f 282/3/6 279/3/6 283/3/6
f 283/1/6 280/1/6 284/1/6
f 281/4/6 282/4/6 285/4/6
f 282/3/6 283/3/6 286/3/6
f 285/4/6 282/4/6 286/4/6
f 283/4/6 284/4/6 287/4/6
f 286/3/6 283/3/6 287/3/6
f 287/4/6 284/4/6 288/4/6
f 285/2/6 286/2/6 289/2/6
f 286/3/6 287/3/6 290/3/6
f 289/2/6 286/2/6 290/2/6
f 290/3/6 287/3/6 291/3/6
f 291/3/6 287/3/6 292/3/6
f 287/2/6 288/2/6 293/2/6
f 292/3/6 287/3/6 293/3/6
f 293/2/6 288/2/6 294/2/6
f 291/3/6 292/3/6 296/3/6
f 296/3/6 292/3/6 297/3/6
f 297/3/6 292/3/6 298/3/6
f 298/3/6 292/3/6 299/3/6
f 295/2/6 296/2/6 301/2/6
f 296/4/6 297/4/6 302/4/6
f 301/2/6 296/2/6 302/2/6
f 297/1/6 298/1/6 303/1/6
f 302/4/6 297/4/6 303/4/6
f 298/4/6 299/4/6 304/4/6
f 303/1/6 298/1/6 304/1/6
f 299/2/6 300/2/6 305/2/6
f 304/4/6 299/4/6 305/4/6
f 305/2/6 300/2/6 306/2/6
