# MagicaVoxel @ Ephtracy

# group
o 

# material
mtllib Linfocito T-7.mtl
usemtl palette

# normals
vn -1 0 0
vn 1 0 0
vn 0 0 1
vn 0 0 -1
vn 0 -1 0
vn 0 1 0

# texcoords
vt 0.314453 0.5
vt 0.337891 0.5
vt 0.501953 0.5
vt 0.818359 0.5

# verts
v 1.6 2.7 0.3
v 1.6 2.7 -0.1
v 1.6 2.8 0.4
v 1.6 2.8 0.3
v 1.6 2.8 -0.1
v 1.6 2.8 -0.2
v 1.6 3.1 0.3
v 1.6 3.1 -0.1
v 1.6 3.2 0.4
v 1.6 3.2 0.3
v 1.6 3.2 -0.1
v 1.6 3.2 -0.2
v 1.6 3.3 0.3
v 1.6 3.3 -0.1
v 2.1 2.7 0.4
v 2.1 2.7 -0.2
v 2.1 2.8 0.3
v 2.1 2.8 -0.1
v 2.1 3.2 0.3
v 2.1 3.2 -0.1
v 2.1 3.3 0.4
v 2.1 3.3 -0.2
v 1.7 2.7 0.3
v 1.7 2.7 -0.1
v 1.7 2.8 0.4
v 1.7 2.8 0.3
v 1.7 2.8 -0.1
v 1.7 2.8 -0.2
v 1.7 3.2 0.4
v 1.7 3.2 0.3
v 1.7 3.2 -0.1
v 1.7 3.2 -0.2
v 1.7 3.3 0.3
v 1.7 3.3 -0.1
v 2.2 2.7 0.4
v 2.2 2.7 -0.2
v 2.2 2.8 0
v 2.2 2.8 -0.2
v 2.2 2.9 0.3
v 2.2 2.9 0
v 2.2 3 -0.1
v 2.2 3 -0.2
v 2.2 3.2 0.3
v 2.2 3.2 -0.1
v 2.2 3.3 0.4
v 2.2 3.3 -0.2
v 2.4 2.8 0
v 2.4 2.8 -0.2
v 2.4 2.9 0
v 2.4 2.9 -0.1
v 2.4 3 -0.1
v 2.4 3 -0.2
v 2.5 2.9 0.3
v 2.5 2.9 -0.1
v 2.5 3 0.3
v 2.5 3 -0.1
v 2.7 3 0.3
v 2.7 3 -0.1
v 2.7 3.2 0.3
v 2.7 3.2 -0.1
v 1.6 2.8 0.4
v 1.6 3.2 0.4
v 1.7 2.8 0.4
v 1.7 3.2 0.4
v 2.1 2.7 0.4
v 2.1 3.3 0.4
v 2.2 2.7 0.4
v 2.2 3.3 0.4
v 1.6 2.7 0.3
v 1.6 2.8 0.3
v 1.6 3.2 0.3
v 1.6 3.3 0.3
v 1.7 2.7 0.3
v 1.7 2.8 0.3
v 1.7 3.2 0.3
v 1.7 3.3 0.3
v 2.1 2.8 0.3
v 2.1 3.2 0.3
v 2.2 2.9 0.3
v 2.2 3.2 0.3
v 2.3 2.9 0.3
v 2.3 3.1 0.3
v 2.4 3 0.3
v 2.4 3.1 0.3
v 2.4 3.2 0.3
v 2.5 2.9 0.3
v 2.5 3 0.3
v 2.6 3 0.3
v 2.6 3.2 0.3
v 2.7 3 0.3
v 2.7 3.2 0.3
v 2.2 2.8 0
v 2.2 2.9 0
v 2.3 2.9 0
v 2.4 2.8 0
v 2.4 2.9 0
v 1.6 2.7 -0.1
v 1.6 2.8 -0.1
v 1.6 3.2 -0.1
v 1.6 3.3 -0.1
v 1.7 2.7 -0.1
v 1.7 2.8 -0.1
v 1.7 3.2 -0.1
v 1.7 3.3 -0.1
v 2.1 2.8 -0.1
v 2.1 3.2 -0.1
v 2.2 3 -0.1
v 2.2 3.2 -0.1
v 2.3 3 -0.1
v 2.3 3.1 -0.1
v 2.4 2.9 -0.1
v 2.4 3 -0.1
v 2.4 3.1 -0.1
v 2.4 3.2 -0.1
v 2.5 2.9 -0.1
v 2.5 3 -0.1
v 2.6 3 -0.1
v 2.6 3.2 -0.1
v 2.7 3 -0.1
v 2.7 3.2 -0.1
v 1.6 2.8 -0.2
v 1.6 3.2 -0.2
v 1.7 2.8 -0.2
v 1.7 3.2 -0.2
v 2.1 2.7 -0.2
v 2.1 3.3 -0.2
v 2.2 2.7 -0.2
v 2.2 2.8 -0.2
v 2.2 3 -0.2
v 2.2 3.3 -0.2
v 2.4 2.8 -0.2
v 2.4 3 -0.2
v 2.1 2.7 0.4
v 2.2 2.7 0.4
v 1.6 2.7 0.3
v 1.7 2.7 0.3
v 1.6 2.7 -0.1
v 1.7 2.7 -0.1
v 2.1 2.7 -0.2
v 2.2 2.7 -0.2
v 1.6 2.8 0.4
v 1.7 2.8 0.4
v 1.6 2.8 0.3
v 1.7 2.8 0.3
v 2.1 2.8 0.3
v 2.2 2.8 0
v 2.4 2.8 0
v 1.6 2.8 -0.1
v 1.7 2.8 -0.1
v 2.1 2.8 -0.1
v 1.6 2.8 -0.2
v 1.7 2.8 -0.2
v 2.2 2.8 -0.2
v 2.4 2.8 -0.2
v 2.2 2.9 0.3
v 2.3 2.9 0.3
v 2.5 2.9 0.3
v 2.2 2.9 0
v 2.3 2.9 0
v 2.4 2.9 0
v 2.4 2.9 -0.1
v 2.5 2.9 -0.1
v 2.5 3 0.3
v 2.6 3 0.3
v 2.7 3 0.3
v 2.5 3 -0.1
v 2.6 3 -0.1
v 2.7 3 -0.1
v 2.2 3 -0.1
v 2.3 3 -0.1
v 2.4 3 -0.1
v 2.2 3 -0.2
v 2.4 3 -0.2
v 1.6 3.2 0.4
v 1.7 3.2 0.4
v 1.6 3.2 0.3
v 1.7 3.2 0.3
v 2.1 3.2 0.3
v 2.2 3.2 0.3
v 2.4 3.2 0.3
v 2.6 3.2 0.3
v 2.7 3.2 0.3
v 2.3 3.2 0.2
v 2.4 3.2 0.2
v 2.3 3.2 0
v 2.4 3.2 0
v 1.6 3.2 -0.1
v 1.7 3.2 -0.1
v 2.1 3.2 -0.1
v 2.2 3.2 -0.1
v 2.4 3.2 -0.1
v 2.6 3.2 -0.1
v 2.7 3.2 -0.1
v 1.6 3.2 -0.2
v 1.7 3.2 -0.2
v 2.1 3.3 0.4
v 2.2 3.3 0.4
v 1.6 3.3 0.3
v 1.7 3.3 0.3
v 1.6 3.3 -0.1
v 1.7 3.3 -0.1
v 2.1 3.3 -0.2
v 2.2 3.3 -0.2

# faces
f 4/2/1 2/2/1 1/2/1
f 5/2/1 2/2/1 4/2/1
f 7/2/1 4/2/1 3/2/1
f 7/3/1 5/3/1 4/3/1
f 8/2/1 6/2/1 5/2/1
f 8/3/1 5/3/1 7/3/1
f 9/2/1 7/2/1 3/2/1
f 9/2/1 8/2/1 7/2/1
f 10/2/1 8/2/1 9/2/1
f 11/2/1 6/2/1 8/2/1
f 11/2/1 8/2/1 10/2/1
f 12/2/1 6/2/1 11/2/1
f 13/2/1 11/2/1 10/2/1
f 14/2/1 11/2/1 13/2/1
f 17/2/1 16/2/1 15/2/1
f 18/2/1 16/2/1 17/2/1
f 19/2/1 17/2/1 15/2/1
f 20/2/1 16/2/1 18/2/1
f 21/2/1 19/2/1 15/2/1
f 21/2/1 20/2/1 19/2/1
f 22/2/1 16/2/1 20/2/1
f 22/2/1 20/2/1 21/2/1
f 23/2/2 24/2/2 26/2/2
f 26/2/2 24/2/2 27/2/2
f 25/2/2 26/2/2 29/2/2
f 29/2/2 26/2/2 30/2/2
f 27/2/2 28/2/2 31/2/2
f 31/2/2 28/2/2 32/2/2
f 30/2/2 31/2/2 33/2/2
f 33/2/2 31/2/2 34/2/2
f 35/2/2 36/2/2 37/2/2
f 37/2/2 36/2/2 38/2/2
f 35/2/2 37/2/2 39/2/2
f 39/2/2 37/2/2 40/2/2
f 35/2/2 39/2/2 43/2/2
f 41/2/2 42/2/2 44/2/2
f 35/2/2 43/2/2 45/2/2
f 43/2/2 44/2/2 45/2/2
f 44/2/2 42/2/2 46/2/2
f 45/2/2 44/2/2 46/2/2
f 47/3/2 48/3/2 49/3/2
f 49/3/2 48/3/2 50/3/2
f 50/3/2 48/3/2 51/3/2
f 51/3/2 48/3/2 52/3/2
f 53/4/2 54/4/2 55/4/2
f 55/4/2 54/4/2 56/4/2
f 57/2/2 58/2/2 59/2/2
f 59/2/2 58/2/2 60/2/2
f 63/2/3 62/2/3 61/2/3
f 64/2/3 62/2/3 63/2/3
f 67/2/3 66/2/3 65/2/3
f 68/2/3 66/2/3 67/2/3
f 73/2/3 70/2/3 69/2/3
f 74/2/3 70/2/3 73/2/3
f 75/2/3 72/2/3 71/2/3
f 76/2/3 72/2/3 75/2/3
f 77/3/3 75/3/3 74/3/3
f 78/3/3 75/3/3 77/3/3
f 81/2/3 80/2/3 79/2/3
f 82/2/3 80/2/3 81/2/3
f 83/4/3 82/4/3 81/4/3
f 84/2/3 80/2/3 82/2/3
f 84/4/3 82/4/3 83/4/3
f 85/2/3 80/2/3 84/2/3
f 86/4/3 83/4/3 81/4/3
f 87/3/3 84/3/3 83/3/3
f 87/4/3 83/4/3 86/4/3
f 87/3/3 85/3/3 84/3/3
f 88/3/3 85/3/3 87/3/3
f 89/3/3 85/3/3 88/3/3
f 90/2/3 89/2/3 88/2/3
f 91/2/3 89/2/3 90/2/3
f 94/3/3 93/3/3 92/3/3
f 95/3/3 94/3/3 92/3/3
f 96/3/3 94/3/3 95/3/3
f 97/2/4 98/2/4 101/2/4
f 101/2/4 98/2/4 102/2/4
f 99/2/4 100/2/4 103/2/4
f 103/2/4 100/2/4 104/2/4
f 102/3/4 103/3/4 105/3/4
f 105/3/4 103/3/4 106/3/4
f 107/2/4 108/2/4 109/2/4
f 109/2/4 108/2/4 110/2/4
f 109/4/4 110/4/4 112/4/4
f 110/2/4 108/2/4 113/2/4
f 112/4/4 110/4/4 113/4/4
f 113/2/4 108/2/4 114/2/4
f 111/4/4 112/4/4 115/4/4
f 112/3/4 113/3/4 116/3/4
f 115/4/4 112/4/4 116/4/4
f 113/3/4 114/3/4 116/3/4
f 116/3/4 114/3/4 117/3/4
f 117/3/4 114/3/4 118/3/4
f 117/2/4 118/2/4 119/2/4
f 119/2/4 118/2/4 120/2/4
f 121/2/4 122/2/4 123/2/4
f 123/2/4 122/2/4 124/2/4
f 125/2/4 126/2/4 127/2/4
f 127/2/4 126/2/4 128/2/4
f 128/2/4 126/2/4 129/2/4
f 129/2/4 126/2/4 130/2/4
f 128/3/4 129/3/4 131/3/4
f 131/3/4 129/3/4 132/3/4
f 137/2/5 136/2/5 135/2/5
f 138/2/5 136/2/5 137/2/5
f 139/2/5 134/2/5 133/2/5
f 140/2/5 134/2/5 139/2/5
f 143/2/5 142/2/5 141/2/5
f 144/2/5 142/2/5 143/2/5
f 149/3/5 145/3/5 144/3/5
f 150/3/5 145/3/5 149/3/5
f 151/2/5 149/2/5 148/2/5
f 152/2/5 149/2/5 151/2/5
f 153/3/5 147/3/5 146/3/5
f 154/3/5 147/3/5 153/3/5
f 158/2/5 156/2/5 155/2/5
f 159/4/5 157/4/5 156/4/5
f 159/2/5 156/2/5 158/2/5
f 160/4/5 157/4/5 159/4/5
f 161/4/5 157/4/5 160/4/5
f 162/4/5 157/4/5 161/4/5
f 166/3/5 164/3/5 163/3/5
f 167/2/5 165/2/5 164/2/5
f 167/3/5 164/3/5 166/3/5
f 168/2/5 165/2/5 167/2/5
f 169/3/6 170/3/6 172/3/6
f 170/3/6 171/3/6 172/3/6
f 172/3/6 171/3/6 173/3/6
f 174/2/6 175/2/6 176/2/6
f 176/2/6 175/2/6 177/2/6
f 179/2/6 180/2/6 183/2/6
f 180/3/6 181/3/6 184/3/6
f 183/2/6 180/2/6 184/2/6
f 179/2/6 183/2/6 185/2/6
f 183/1/6 184/1/6 185/1/6
f 184/3/6 181/3/6 186/3/6
f 185/1/6 184/1/6 186/1/6
f 177/3/6 178/3/6 188/3/6
f 188/3/6 178/3/6 189/3/6
f 179/2/6 185/2/6 190/2/6
f 185/2/6 186/2/6 190/2/6
f 186/3/6 181/3/6 191/3/6
f 190/2/6 186/2/6 191/2/6
f 181/2/6 182/2/6 192/2/6
f 191/3/6 181/3/6 192/3/6
f 192/2/6 182/2/6 193/2/6
f 187/2/6 188/2/6 194/2/6
f 194/2/6 188/2/6 195/2/6
f 198/2/6 199/2/6 200/2/6
f 200/2/6 199/2/6 201/2/6
f 196/2/6 197/2/6 202/2/6
f 202/2/6 197/2/6 203/2/6
