# MagicaVoxel @ Ephtracy

# group
o 

# material
mtllib Linfocito T-3.mtl
usemtl palette

# normals
vn -1 0 0
vn 1 0 0
vn 0 0 1
vn 0 0 -1
vn 0 -1 0
vn 0 1 0

# texcoords
vt 0.314453 0.5
vt 0.337891 0.5
vt 0.501953 0.5
vt 0.818359 0.5

# verts
v 0.1 1.4 0.5
v 0.1 1.4 -0.3
v 0.1 1.5 0.6
v 0.1 1.5 0.5
v 0.1 1.5 -0.3
v 0.1 1.5 -0.4
v 0.1 1.9 0.5
v 0.1 1.9 -0.3
v 0.1 2 0.6
v 0.1 2 0.5
v 0.1 2 -0.3
v 0.1 2 -0.4
v 0.2 0.9 0.3
v 0.2 0.9 0.2
v 0.2 0.9 0.1
v 0.2 0.9 5.96046e-08
v 0.2 0.9 -0.1
v 0.2 1 0.3
v 0.2 1 0.2
v 0.2 1 0.1
v 0.2 1 5.96046e-08
v 0.2 1 -0.1
v 0.2 1.1 0.2
v 0.2 1.1 5.96046e-08
v 0.3 0.9 -0.2
v 0.3 0.9 -0.3
v 0.3 1 0.3
v 0.3 1 0.2
v 0.3 1 5.96046e-08
v 0.3 1 -0.1
v 0.3 1.1 0.2
v 0.3 1.1 5.96046e-08
v 0.3 1.1 -0.2
v 0.3 1.1 -0.3
v 0.3 1.4 0.3
v 0.3 1.4 -0.1
v 0.4 0.9 0.4
v 0.4 0.9 0.3
v 0.4 0.9 -0.1
v 0.4 0.9 -0.2
v 0.4 1.1 -0.2
v 0.4 1.1 -0.3
v 0.4 1.2 -0.2
v 0.4 1.2 -0.3
v 0.4 1.5 0.4
v 0.4 1.5 0.3
v 0.4 1.5 -0.1
v 0.4 1.5 -0.2
v 0.3 1.4 0.5
v 0.3 1.4 0.3
v 0.3 1.4 -0.1
v 0.3 1.4 -0.3
v 0.3 1.5 0.6
v 0.3 1.5 0.5
v 0.3 1.5 0.4
v 0.3 1.5 0.3
v 0.3 1.5 -0.1
v 0.3 1.5 -0.2
v 0.3 1.5 -0.3
v 0.3 1.5 -0.4
v 0.3 1.6 0.6
v 0.3 1.6 0.5
v 0.3 1.6 -0.3
v 0.3 1.6 -0.4
v 0.3 1.7 0.6
v 0.3 1.7 0.5
v 0.3 1.7 -0.3
v 0.3 1.7 -0.4
v 0.3 1.9 0.5
v 0.3 1.9 0.4
v 0.3 1.9 -0.2
v 0.3 1.9 -0.3
v 0.3 2 0.6
v 0.3 2 0.5
v 0.3 2 0.4
v 0.3 2 -0.2
v 0.3 2 -0.3
v 0.3 2 -0.4
v 0.4 1.5 0.5
v 0.4 1.5 0.4
v 0.4 1.5 -0.2
v 0.4 1.5 -0.3
v 0.4 1.6 0.6
v 0.4 1.6 0.5
v 0.4 1.6 0.4
v 0.4 1.6 -0.2
v 0.4 1.6 -0.3
v 0.4 1.6 -0.4
v 0.4 1.7 0.6
v 0.4 1.7 0.5
v 0.4 1.7 -0.3
v 0.4 1.7 -0.4
v 0.4 1.8 0.5
v 0.4 1.8 0.4
v 0.4 1.8 -0.2
v 0.4 1.8 -0.3
v 0.4 1.9 0.5
v 0.4 1.9 0.4
v 0.4 1.9 0.3
v 0.4 1.9 -0.1
v 0.4 1.9 -0.2
v 0.4 1.9 -0.3
v 0.4 2 0.4
v 0.4 2 0.3
v 0.4 2 -0.1
v 0.4 2 -0.2
v 0.5 1.6 0.5
v 0.5 1.6 0.4
v 0.5 1.6 -0.2
v 0.5 1.6 -0.3
v 0.5 1.7 0.5
v 0.5 1.7 0.4
v 0.5 1.7 -0.2
v 0.5 1.7 -0.3
v 0.6 1.7 0.5
v 0.6 1.7 0.4
v 0.6 1.7 -0.2
v 0.6 1.7 -0.3
v 0.6 1.8 0.5
v 0.6 1.8 0.4
v 0.6 1.8 0.3
v 0.6 1.8 -0.1
v 0.6 1.8 -0.2
v 0.6 1.8 -0.3
v 0.6 1.9 0.4
v 0.6 1.9 0.3
v 0.6 1.9 0.2
v 0.6 1.9 5.96046e-08
v 0.6 1.9 -0.1
v 0.6 1.9 -0.2
v 0.6 2 0.3
v 0.6 2 0.2
v 0.6 2 5.96046e-08
v 0.6 2 -0.1
v 0.7 0.9 0.4
v 0.7 0.9 0.3
v 0.7 0.9 -0.1
v 0.7 0.9 -0.2
v 0.7 1.1 -0.2
v 0.7 1.1 -0.3
v 0.7 1.2 -0.2
v 0.7 1.2 -0.3
v 0.7 1.7 0.4
v 0.7 1.7 0.3
v 0.7 1.7 -0.1
v 0.7 1.7 -0.2
v 0.7 1.8 0.4
v 0.7 1.8 0.3
v 0.7 1.8 -0.1
v 0.7 1.8 -0.2
v 0.8 0.9 -0.2
v 0.8 0.9 -0.3
v 0.8 1 0.3
v 0.8 1 0.2
v 0.8 1 5.96046e-08
v 0.8 1 -0.1
v 0.8 1.1 0.2
v 0.8 1.1 5.96046e-08
v 0.8 1.1 -0.2
v 0.8 1.1 -0.3
v 0.8 1.5 0.2
v 0.8 1.5 5.96046e-08
v 0.8 1.6 0.3
v 0.8 1.6 0.2
v 0.8 1.6 5.96046e-08
v 0.8 1.6 -0.1
v 0.8 1.8 0.3
v 0.8 1.8 0.2
v 0.8 1.8 5.96046e-08
v 0.8 1.8 -0.1
v 0.8 1.9 0.3
v 0.8 1.9 0.2
v 0.8 1.9 5.96046e-08
v 0.8 1.9 -0.1
v 0.8 2 0.2
v 0.8 2 5.96046e-08
v 0.9 0.9 0.3
v 0.9 0.9 0.2
v 0.9 0.9 0.1
v 0.9 0.9 5.96046e-08
v 0.9 0.9 -0.1
v 0.9 1 0.3
v 0.9 1 0.2
v 0.9 1 0.1
v 0.9 1 5.96046e-08
v 0.9 1 -0.1
v 0.9 1.1 0.2
v 0.9 1.1 5.96046e-08
v 0.9 1.5 0.2
v 0.9 1.5 5.96046e-08
v 0.9 1.6 0.3
v 0.9 1.6 0.2
v 0.9 1.6 0.1
v 0.9 1.6 5.96046e-08
v 0.9 1.6 -0.1
v 0.9 1.7 0.2
v 0.9 1.7 0.1
v 0.9 1.7 5.96046e-08
v 0.9 1.8 0.3
v 0.9 1.8 0.2
v 0.9 1.8 0.1
v 0.9 1.8 5.96046e-08
v 0.9 1.8 -0.1
v 0.9 1.9 0.2
v 0.9 1.9 5.96046e-08
v 0.1 1.5 0.6
v 0.1 2 0.6
v 0.2 1.5 0.6
v 0.2 1.6 0.6
v 0.3 1.5 0.6
v 0.3 1.6 0.6
v 0.3 1.7 0.6
v 0.3 2 0.6
v 0.4 1.6 0.6
v 0.4 1.7 0.6
v 0.1 1.4 0.5
v 0.1 1.5 0.5
v 0.2 1.4 0.5
v 0.2 1.5 0.5
v 0.3 1.4 0.5
v 0.3 1.5 0.5
v 0.3 1.6 0.5
v 0.3 1.7 0.5
v 0.3 1.9 0.5
v 0.4 1.5 0.5
v 0.4 1.6 0.5
v 0.4 1.7 0.5
v 0.4 1.8 0.5
v 0.4 1.9 0.5
v 0.5 1.6 0.5
v 0.5 1.7 0.5
v 0.5 1.8 0.5
v 0.6 1.7 0.5
v 0.6 1.8 0.5
v 0.3 1.9 0.4
v 0.3 2 0.4
v 0.4 0.9 0.4
v 0.4 1.5 0.4
v 0.4 1.6 0.4
v 0.4 1.8 0.4
v 0.4 1.9 0.4
v 0.4 2 0.4
v 0.5 1.6 0.4
v 0.5 1.7 0.4
v 0.5 1.8 0.4
v 0.6 1.7 0.4
v 0.6 1.8 0.4
v 0.6 1.9 0.4
v 0.7 0.9 0.4
v 0.7 1.7 0.4
v 0.7 1.8 0.4
v 0.2 0.9 0.3
v 0.2 1 0.3
v 0.3 0.9 0.3
v 0.3 1 0.3
v 0.3 1.4 0.3
v 0.3 1.5 0.3
v 0.4 0.9 0.3
v 0.4 1.5 0.3
v 0.4 1.9 0.3
v 0.4 2 0.3
v 0.6 1.8 0.3
v 0.6 1.9 0.3
v 0.6 2 0.3
v 0.7 0.9 0.3
v 0.7 1.7 0.3
v 0.7 1.8 0.3
v 0.7 1.9 0.3
v 0.8 0.9 0.3
v 0.8 1 0.3
v 0.8 1.6 0.3
v 0.8 1.8 0.3
v 0.8 1.9 0.3
v 0.9 0.9 0.3
v 0.9 1 0.3
v 0.9 1.6 0.3
v 0.9 1.8 0.3
v 0.2 1 0.2
v 0.2 1.1 0.2
v 0.3 1 0.2
v 0.3 1.1 0.2
v 0.6 1.9 0.2
v 0.6 2 0.2
v 0.7 1.9 0.2
v 0.8 1 0.2
v 0.8 1.1 0.2
v 0.8 1.5 0.2
v 0.8 1.6 0.2
v 0.8 1.8 0.2
v 0.8 1.9 0.2
v 0.8 2 0.2
v 0.9 1 0.2
v 0.9 1.1 0.2
v 0.9 1.5 0.2
v 0.9 1.6 0.2
v 0.9 1.8 0.2
v 0.9 1.9 0.2
v 0.3 0.9 -0.2
v 0.3 1.1 -0.2
v 0.4 0.9 -0.2
v 0.4 1.1 -0.2
v 0.7 0.9 -0.2
v 0.7 1.1 -0.2
v 0.8 0.9 -0.2
v 0.8 1.1 -0.2
v 0.2 1 5.96046e-08
v 0.2 1.1 5.96046e-08
v 0.3 1 5.96046e-08
v 0.3 1.1 5.96046e-08
v 0.6 1.9 5.96046e-08
v 0.6 2 5.96046e-08
v 0.7 1.9 5.96046e-08
v 0.8 1 5.96046e-08
v 0.8 1.1 5.96046e-08
v 0.8 1.5 5.96046e-08
v 0.8 1.6 5.96046e-08
v 0.8 1.8 5.96046e-08
v 0.8 1.9 5.96046e-08
v 0.8 2 5.96046e-08
v 0.9 1 5.96046e-08
v 0.9 1.1 5.96046e-08
v 0.9 1.5 5.96046e-08
v 0.9 1.6 5.96046e-08
v 0.9 1.8 5.96046e-08
v 0.9 1.9 5.96046e-08
v 0.2 0.9 -0.1
v 0.2 1 -0.1
v 0.3 0.9 -0.1
v 0.3 1 -0.1
v 0.3 1.4 -0.1
v 0.3 1.5 -0.1
v 0.4 0.9 -0.1
v 0.4 1.5 -0.1
v 0.4 1.9 -0.1
v 0.4 2 -0.1
v 0.6 1.8 -0.1
v 0.6 1.9 -0.1
v 0.6 2 -0.1
v 0.7 0.9 -0.1
v 0.7 1.7 -0.1
v 0.7 1.8 -0.1
v 0.7 1.9 -0.1
v 0.8 0.9 -0.1
v 0.8 1 -0.1
v 0.8 1.6 -0.1
v 0.8 1.8 -0.1
v 0.8 1.9 -0.1
v 0.9 0.9 -0.1
v 0.9 1 -0.1
v 0.9 1.6 -0.1
v 0.9 1.8 -0.1
v 0.3 1.9 -0.2
v 0.3 2 -0.2
v 0.4 1.2 -0.2
v 0.4 1.5 -0.2
v 0.4 1.6 -0.2
v 0.4 1.8 -0.2
v 0.4 1.9 -0.2
v 0.4 2 -0.2
v 0.5 1.6 -0.2
v 0.5 1.7 -0.2
v 0.5 1.8 -0.2
v 0.6 1.7 -0.2
v 0.6 1.8 -0.2
v 0.6 1.9 -0.2
v 0.7 1.2 -0.2
v 0.7 1.7 -0.2
v 0.7 1.8 -0.2
v 0.1 1.4 -0.3
v 0.1 1.5 -0.3
v 0.2 1.4 -0.3
v 0.2 1.5 -0.3
v 0.3 0.9 -0.3
v 0.3 1.1 -0.3
v 0.3 1.4 -0.3
v 0.3 1.5 -0.3
v 0.3 1.6 -0.3
v 0.3 1.7 -0.3
v 0.3 1.9 -0.3
v 0.4 0.9 -0.3
v 0.4 1 -0.3
v 0.4 1.1 -0.3
v 0.4 1.2 -0.3
v 0.4 1.5 -0.3
v 0.4 1.6 -0.3
v 0.4 1.7 -0.3
v 0.4 1.8 -0.3
v 0.4 1.9 -0.3
v 0.5 1 -0.3
v 0.5 1.1 -0.3
v 0.5 1.6 -0.3
v 0.5 1.7 -0.3
v 0.5 1.8 -0.3
v 0.6 1 -0.3
v 0.6 1.1 -0.3
v 0.6 1.7 -0.3
v 0.6 1.8 -0.3
v 0.7 0.9 -0.3
v 0.7 1 -0.3
v 0.7 1.1 -0.3
v 0.7 1.2 -0.3
v 0.8 0.9 -0.3
v 0.8 1.1 -0.3
v 0.1 1.5 -0.4
v 0.1 2 -0.4
v 0.2 1.5 -0.4
v 0.2 1.6 -0.4
v 0.3 1.5 -0.4
v 0.3 1.6 -0.4
v 0.3 1.7 -0.4
v 0.3 2 -0.4
v 0.4 1.6 -0.4
v 0.4 1.7 -0.4
v 0.4 0.9 0.4
v 0.7 0.9 0.4
v 0.2 0.9 0.3
v 0.3 0.9 0.3
v 0.4 0.9 0.3
v 0.7 0.9 0.3
v 0.8 0.9 0.3
v 0.9 0.9 0.3
v 0.2 0.9 0.2
v 0.3 0.9 0.2
v 0.8 0.9 0.2
v 0.9 0.9 0.2
v 0.2 0.9 0.1
v 0.3 0.9 0.1
v 0.8 0.9 0.1
v 0.9 0.9 0.1
v 0.2 0.9 5.96046e-08
v 0.3 0.9 5.96046e-08
v 0.8 0.9 5.96046e-08
v 0.9 0.9 5.96046e-08
v 0.2 0.9 -0.1
v 0.3 0.9 -0.1
v 0.4 0.9 -0.1
v 0.7 0.9 -0.1
v 0.8 0.9 -0.1
v 0.9 0.9 -0.1
v 0.3 0.9 -0.2
v 0.4 0.9 -0.2
v 0.7 0.9 -0.2
v 0.8 0.9 -0.2
v 0.3 0.9 -0.3
v 0.4 0.9 -0.3
v 0.7 0.9 -0.3
v 0.8 0.9 -0.3
v 0.1 1.4 0.5
v 0.2 1.4 0.5
v 0.3 1.4 0.5
v 0.3 1.4 0.3
v 0.3 1.4 -0.1
v 0.1 1.4 -0.3
v 0.2 1.4 -0.3
v 0.3 1.4 -0.3
v 0.1 1.5 0.6
v 0.2 1.5 0.6
v 0.3 1.5 0.6
v 0.1 1.5 0.5
v 0.2 1.5 0.5
v 0.3 1.5 0.5
v 0.4 1.5 0.5
v 0.3 1.5 0.4
v 0.4 1.5 0.4
v 0.3 1.5 0.3
v 0.4 1.5 0.3
v 0.8 1.5 0.2
v 0.9 1.5 0.2
v 0.8 1.5 5.96046e-08
v 0.9 1.5 5.96046e-08
v 0.3 1.5 -0.1
v 0.4 1.5 -0.1
v 0.3 1.5 -0.2
v 0.4 1.5 -0.2
v 0.1 1.5 -0.3
v 0.2 1.5 -0.3
v 0.3 1.5 -0.3
v 0.4 1.5 -0.3
v 0.1 1.5 -0.4
v 0.2 1.5 -0.4
v 0.3 1.5 -0.4
v 0.3 1.6 0.6
v 0.4 1.6 0.6
v 0.3 1.6 0.5
v 0.4 1.6 0.5
v 0.5 1.6 0.5
v 0.4 1.6 0.4
v 0.5 1.6 0.4
v 0.8 1.6 0.3
v 0.9 1.6 0.3
v 0.8 1.6 0.2
v 0.9 1.6 0.2
v 0.8 1.6 5.96046e-08
v 0.9 1.6 5.96046e-08
v 0.8 1.6 -0.1
v 0.9 1.6 -0.1
v 0.4 1.6 -0.2
v 0.5 1.6 -0.2
v 0.3 1.6 -0.3
v 0.4 1.6 -0.3
v 0.5 1.6 -0.3
v 0.3 1.6 -0.4
v 0.4 1.6 -0.4
v 0.5 1.7 0.5
v 0.6 1.7 0.5
v 0.5 1.7 0.4
v 0.6 1.7 0.4
v 0.5 1.7 -0.2
v 0.6 1.7 -0.2
v 0.5 1.7 -0.3
v 0.6 1.7 -0.3
v 0.2 1 0.3
v 0.3 1 0.3
v 0.8 1 0.3
v 0.9 1 0.3
v 0.2 1 0.2
v 0.3 1 0.2
v 0.8 1 0.2
v 0.9 1 0.2
v 0.2 1 5.96046e-08
v 0.3 1 5.96046e-08
v 0.8 1 5.96046e-08
v 0.9 1 5.96046e-08
v 0.2 1 -0.1
v 0.3 1 -0.1
v 0.8 1 -0.1
v 0.9 1 -0.1
v 0.2 1.1 0.2
v 0.3 1.1 0.2
v 0.8 1.1 0.2
v 0.9 1.1 0.2
v 0.2 1.1 5.96046e-08
v 0.3 1.1 5.96046e-08
v 0.8 1.1 5.96046e-08
v 0.9 1.1 5.96046e-08
v 0.3 1.1 -0.2
v 0.4 1.1 -0.2
v 0.7 1.1 -0.2
v 0.8 1.1 -0.2
v 0.3 1.1 -0.3
v 0.4 1.1 -0.3
v 0.7 1.1 -0.3
v 0.8 1.1 -0.3
v 0.4 1.2 -0.2
v 0.7 1.2 -0.2
v 0.4 1.2 -0.3
v 0.7 1.2 -0.3
v 0.3 1.7 0.6
v 0.4 1.7 0.6
v 0.3 1.7 0.5
v 0.4 1.7 0.5
v 0.3 1.7 -0.3
v 0.4 1.7 -0.3
v 0.3 1.7 -0.4
v 0.4 1.7 -0.4
v 0.4 1.8 0.5
v 0.5 1.8 0.5
v 0.6 1.8 0.5
v 0.4 1.8 0.4
v 0.5 1.8 0.4
v 0.6 1.8 0.4
v 0.7 1.8 0.4
v 0.6 1.8 0.3
v 0.7 1.8 0.3
v 0.8 1.8 0.3
v 0.9 1.8 0.3
v 0.8 1.8 0.2
v 0.9 1.8 0.2
v 0.8 1.8 5.96046e-08
v 0.9 1.8 5.96046e-08
v 0.6 1.8 -0.1
v 0.7 1.8 -0.1
v 0.8 1.8 -0.1
v 0.9 1.8 -0.1
v 0.4 1.8 -0.2
v 0.5 1.8 -0.2
v 0.6 1.8 -0.2
v 0.7 1.8 -0.2
v 0.4 1.8 -0.3
v 0.5 1.8 -0.3
v 0.6 1.8 -0.3
v 0.3 1.9 0.5
v 0.4 1.9 0.5
v 0.3 1.9 0.4
v 0.4 1.9 0.4
v 0.6 1.9 0.4
v 0.4 1.9 0.3
v 0.6 1.9 0.3
v 0.7 1.9 0.3
v 0.8 1.9 0.3
v 0.6 1.9 0.2
v 0.7 1.9 0.2
v 0.8 1.9 0.2
v 0.9 1.9 0.2
v 0.6 1.9 5.96046e-08
v 0.7 1.9 5.96046e-08
v 0.8 1.9 5.96046e-08
v 0.9 1.9 5.96046e-08
v 0.4 1.9 -0.1
v 0.6 1.9 -0.1
v 0.7 1.9 -0.1
v 0.8 1.9 -0.1
v 0.3 1.9 -0.2
v 0.4 1.9 -0.2
v 0.6 1.9 -0.2
v 0.3 1.9 -0.3
v 0.4 1.9 -0.3
v 0.1 2 0.6
v 0.3 2 0.6
v 0.1 2 0.5
v 0.3 2 0.5
v 0.3 2 0.4
v 0.4 2 0.4
v 0.4 2 0.3
v 0.6 2 0.3
v 0.6 2 0.2
v 0.8 2 0.2
v 0.6 2 5.96046e-08
v 0.8 2 5.96046e-08
v 0.4 2 -0.1
v 0.6 2 -0.1
v 0.3 2 -0.2
v 0.4 2 -0.2
v 0.1 2 -0.3
v 0.3 2 -0.3
v 0.1 2 -0.4
v 0.3 2 -0.4

# faces
f 4/3/1 2/3/1 1/3/1
f 5/3/1 2/3/1 4/3/1
f 7/3/1 4/3/1 3/3/1
f 7/3/1 6/3/1 5/3/1
f 7/3/1 5/3/1 4/3/1
f 8/3/1 6/3/1 7/3/1
f 9/3/1 7/3/1 3/3/1
f 10/2/1 8/2/1 7/2/1
f 10/3/1 7/3/1 9/3/1
f 11/3/1 6/3/1 8/3/1
f 11/2/1 8/2/1 10/2/1
f 12/3/1 6/3/1 11/3/1
f 18/2/1 14/2/1 13/2/1
f 19/4/1 15/4/1 14/4/1
f 19/2/1 14/2/1 18/2/1
f 20/1/1 16/1/1 15/1/1
f 20/4/1 15/4/1 19/4/1
f 21/2/1 17/2/1 16/2/1
f 21/1/1 16/1/1 20/1/1
f 22/2/1 17/2/1 21/2/1
f 23/2/1 20/2/1 19/2/1
f 23/2/1 21/2/1 20/2/1
f 24/2/1 21/2/1 23/2/1
f 31/3/1 28/3/1 27/3/1
f 32/3/1 30/3/1 29/3/1
f 33/2/1 26/2/1 25/2/1
f 34/2/1 26/2/1 33/2/1
f 35/3/1 32/3/1 31/3/1
f 35/3/1 31/3/1 27/3/1
f 36/3/1 30/3/1 32/3/1
f 36/3/1 32/3/1 35/3/1
f 41/3/1 40/3/1 39/3/1
f 43/3/1 41/3/1 39/3/1
f 43/2/1 42/2/1 41/2/1
f 44/2/1 42/2/1 43/2/1
f 45/3/1 38/3/1 37/3/1
f 46/3/1 38/3/1 45/3/1
f 47/3/1 43/3/1 39/3/1
f 48/3/1 43/3/1 47/3/1
f 49/2/2 50/2/2 54/2/2
f 54/2/2 50/2/2 55/2/2
f 55/2/2 50/2/2 56/2/2
f 51/2/2 52/2/2 57/2/2
f 57/2/2 52/2/2 58/2/2
f 58/2/2 52/2/2 59/2/2
f 53/2/2 54/2/2 61/2/2
f 61/2/2 54/2/2 62/2/2
f 59/2/2 60/2/2 63/2/2
f 63/2/2 60/2/2 64/2/2
f 65/3/2 66/3/2 69/3/2
f 67/3/2 68/3/2 72/3/2
f 65/3/2 69/3/2 73/3/2
f 69/2/2 70/2/2 74/2/2
f 73/3/2 69/3/2 74/3/2
f 74/2/2 70/2/2 75/2/2
f 71/2/2 72/2/2 76/2/2
f 72/3/2 68/3/2 77/3/2
f 76/2/2 72/2/2 77/2/2
f 77/3/2 68/3/2 78/3/2
f 79/2/2 80/2/2 84/2/2
f 84/2/2 80/2/2 85/2/2
f 81/2/2 82/2/2 86/2/2
f 86/2/2 82/2/2 87/2/2
f 83/2/2 84/2/2 89/2/2
f 89/2/2 84/2/2 90/2/2
f 87/2/2 88/2/2 91/2/2
f 91/2/2 88/2/2 92/2/2
f 93/3/2 94/3/2 97/3/2
f 97/3/2 94/3/2 98/3/2
f 95/3/2 96/3/2 101/3/2
f 101/3/2 96/3/2 102/3/2
f 98/2/2 99/2/2 103/2/2
f 103/2/2 99/2/2 104/2/2
f 100/2/2 101/2/2 105/2/2
f 105/2/2 101/2/2 106/2/2
f 107/2/2 108/2/2 111/2/2
f 111/2/2 108/2/2 112/2/2
f 109/2/2 110/2/2 113/2/2
f 113/2/2 110/2/2 114/2/2
f 115/2/2 116/2/2 119/2/2
f 119/2/2 116/2/2 120/2/2
f 117/2/2 118/2/2 123/2/2
f 123/2/2 118/2/2 124/2/2
f 120/3/2 121/3/2 125/3/2
f 125/3/2 121/3/2 126/3/2
f 122/3/2 123/3/2 129/3/2
f 129/3/2 123/3/2 130/3/2
f 126/3/2 127/3/2 131/3/2
f 131/3/2 127/3/2 132/3/2
f 128/3/2 129/3/2 133/3/2
f 133/3/2 129/3/2 134/3/2
f 137/3/2 138/3/2 139/3/2
f 137/3/2 139/3/2 141/3/2
f 139/2/2 140/2/2 141/2/2
f 141/2/2 140/2/2 142/2/2
f 135/3/2 136/3/2 143/3/2
f 143/3/2 136/3/2 144/3/2
f 137/3/2 141/3/2 145/3/2
f 145/3/2 141/3/2 146/3/2
f 143/2/2 144/2/2 147/2/2
f 147/2/2 144/2/2 148/2/2
f 145/2/2 146/2/2 149/2/2
f 149/2/2 146/2/2 150/2/2
f 153/3/2 154/3/2 157/3/2
f 155/3/2 156/3/2 158/3/2
f 151/2/2 152/2/2 159/2/2
f 159/2/2 152/2/2 160/2/2
f 157/3/2 158/3/2 161/3/2
f 153/3/2 157/3/2 161/3/2
f 158/3/2 156/3/2 162/3/2
f 161/3/2 158/3/2 162/3/2
f 153/3/2 161/3/2 163/3/2
f 163/3/2 161/3/2 164/3/2
f 162/3/2 156/3/2 165/3/2
f 165/3/2 156/3/2 166/3/2
f 167/2/2 168/2/2 171/2/2
f 171/2/2 168/2/2 172/2/2
f 169/2/2 170/2/2 173/2/2
f 173/2/2 170/2/2 174/2/2
f 172/3/2 173/3/2 175/3/2
f 175/3/2 173/3/2 176/3/2
f 177/2/2 178/2/2 182/2/2
f 178/4/2 179/4/2 183/4/2
f 182/2/2 178/2/2 183/2/2
f 179/1/2 180/1/2 184/1/2
f 183/4/2 179/4/2 184/4/2
f 180/2/2 181/2/2 185/2/2
f 184/1/2 180/1/2 185/1/2
f 185/2/2 181/2/2 186/2/2
f 183/2/2 184/2/2 187/2/2
f 184/2/2 185/2/2 187/2/2
f 187/2/2 185/2/2 188/2/2
f 189/2/2 190/2/2 192/2/2
f 192/2/2 190/2/2 193/2/2
f 193/2/2 190/2/2 194/2/2
f 191/2/2 192/2/2 196/2/2
f 192/4/2 193/4/2 196/4/2
f 193/1/2 194/1/2 197/1/2
f 196/4/2 193/4/2 197/4/2
f 194/2/2 195/2/2 198/2/2
f 197/1/2 194/1/2 198/1/2
f 191/2/2 196/2/2 199/2/2
f 196/1/2 197/1/2 200/1/2
f 199/2/2 196/2/2 200/2/2
f 197/4/2 198/4/2 201/4/2
f 200/1/2 197/1/2 201/1/2
f 198/2/2 195/2/2 202/2/2
f 201/4/2 198/4/2 202/4/2
f 202/2/2 195/2/2 203/2/2
f 200/2/2 201/2/2 204/2/2
f 201/2/2 202/2/2 204/2/2
f 204/2/2 202/2/2 205/2/2
f 208/3/3 207/3/3 206/3/3
f 209/3/3 207/3/3 208/3/3
f 210/2/3 209/2/3 208/2/3
f 211/3/3 207/3/3 209/3/3
f 211/2/3 209/2/3 210/2/3
f 212/3/3 207/3/3 211/3/3
f 213/3/3 207/3/3 212/3/3
f 214/2/3 212/2/3 211/2/3
f 215/2/3 212/2/3 214/2/3
f 218/3/3 217/3/3 216/3/3
f 219/3/3 217/3/3 218/3/3
f 220/2/3 219/2/3 218/2/3
f 221/2/3 219/2/3 220/2/3
f 225/2/3 222/2/3 221/2/3
f 226/2/3 222/2/3 225/2/3
f 227/3/3 224/3/3 223/3/3
f 228/3/3 224/3/3 227/3/3
f 229/3/3 224/3/3 228/3/3
f 230/2/3 227/2/3 226/2/3
f 231/3/3 228/3/3 227/3/3
f 231/2/3 227/2/3 230/2/3
f 232/3/3 228/3/3 231/3/3
f 233/2/3 232/2/3 231/2/3
f 234/2/3 232/2/3 233/2/3
f 241/2/3 236/2/3 235/2/3
f 242/2/3 236/2/3 241/2/3
f 243/3/3 239/3/3 238/3/3
f 243/3/3 238/3/3 237/3/3
f 245/3/3 241/3/3 240/3/3
f 246/3/3 244/3/3 243/3/3
f 247/3/3 241/3/3 245/3/3
f 248/3/3 241/3/3 247/3/3
f 249/3/3 246/3/3 243/3/3
f 249/3/3 243/3/3 237/3/3
f 250/2/3 247/2/3 246/2/3
f 250/3/3 246/3/3 249/3/3
f 251/2/3 247/2/3 250/2/3
f 254/2/3 253/2/3 252/2/3
f 255/2/3 253/2/3 254/2/3
f 258/3/3 255/3/3 254/3/3
f 258/3/3 257/3/3 256/3/3
f 258/3/3 256/3/3 255/3/3
f 259/3/3 257/3/3 258/3/3
f 263/3/3 261/3/3 260/3/3
f 264/3/3 261/3/3 263/3/3
f 267/3/3 263/3/3 262/3/3
f 268/3/3 263/3/3 267/3/3
f 269/3/3 266/3/3 265/3/3
f 269/3/3 267/3/3 266/3/3
f 270/3/3 267/3/3 269/3/3
f 271/3/3 267/3/3 270/3/3
f 272/2/3 268/2/3 267/2/3
f 272/3/3 267/3/3 271/3/3
f 273/2/3 268/2/3 272/2/3
f 274/2/3 270/2/3 269/2/3
f 275/2/3 270/2/3 274/2/3
f 276/2/3 272/2/3 271/2/3
f 277/2/3 272/2/3 276/2/3
f 280/2/3 279/2/3 278/2/3
f 281/2/3 279/2/3 280/2/3
f 284/3/3 283/3/3 282/3/3
f 290/3/3 283/3/3 284/3/3
f 291/3/3 283/3/3 290/3/3
f 292/2/3 286/2/3 285/2/3
f 293/2/3 286/2/3 292/2/3
f 294/2/3 288/2/3 287/2/3
f 295/2/3 288/2/3 294/2/3
f 296/2/3 290/2/3 289/2/3
f 297/2/3 290/2/3 296/2/3
f 300/2/3 299/2/3 298/2/3
f 301/2/3 299/2/3 300/2/3
f 304/2/3 303/2/3 302/2/3
f 305/2/3 303/2/3 304/2/3
f 306/2/4 307/2/4 308/2/4
f 308/2/4 307/2/4 309/2/4
f 310/3/4 311/3/4 312/3/4
f 312/3/4 311/3/4 318/3/4
f 318/3/4 311/3/4 319/3/4
f 313/2/4 314/2/4 320/2/4
f 320/2/4 314/2/4 321/2/4
f 315/2/4 316/2/4 322/2/4
f 322/2/4 316/2/4 323/2/4
f 317/2/4 318/2/4 324/2/4
f 324/2/4 318/2/4 325/2/4
f 326/2/4 327/2/4 328/2/4
f 328/2/4 327/2/4 329/2/4
f 328/3/4 329/3/4 332/3/4
f 330/3/4 331/3/4 332/3/4
f 329/3/4 330/3/4 332/3/4
f 332/3/4 331/3/4 333/3/4
f 334/3/4 335/3/4 337/3/4
f 337/3/4 335/3/4 338/3/4
f 336/3/4 337/3/4 341/3/4
f 341/3/4 337/3/4 342/3/4
f 339/3/4 340/3/4 343/3/4
f 340/3/4 341/3/4 343/3/4
f 343/3/4 341/3/4 344/3/4
f 344/3/4 341/3/4 345/3/4
f 341/2/4 342/2/4 346/2/4
f 345/3/4 341/3/4 346/3/4
f 346/2/4 342/2/4 347/2/4
f 343/2/4 344/2/4 348/2/4
f 348/2/4 344/2/4 349/2/4
f 345/2/4 346/2/4 350/2/4
f 350/2/4 346/2/4 351/2/4
f 352/2/4 353/2/4 358/2/4
f 358/2/4 353/2/4 359/2/4
f 355/3/4 356/3/4 360/3/4
f 354/3/4 355/3/4 360/3/4
f 357/3/4 358/3/4 362/3/4
f 360/3/4 361/3/4 363/3/4
f 362/3/4 358/3/4 364/3/4
f 364/3/4 358/3/4 365/3/4
f 360/3/4 363/3/4 366/3/4
f 354/3/4 360/3/4 366/3/4
f 363/2/4 364/2/4 367/2/4
f 366/3/4 363/3/4 367/3/4
f 367/2/4 364/2/4 368/2/4
f 369/3/4 370/3/4 371/3/4
f 371/3/4 370/3/4 372/3/4
f 371/2/4 372/2/4 375/2/4
f 375/2/4 372/2/4 376/2/4
f 373/2/4 374/2/4 380/2/4
f 380/2/4 374/2/4 381/2/4
f 381/2/4 374/2/4 382/2/4
f 376/2/4 377/2/4 384/2/4
f 384/2/4 377/2/4 385/2/4
f 378/3/4 379/3/4 386/3/4
f 386/3/4 379/3/4 387/3/4
f 387/3/4 379/3/4 388/3/4
f 380/1/4 381/1/4 389/1/4
f 381/4/4 382/4/4 389/4/4
f 382/2/4 383/2/4 390/2/4
f 389/4/4 382/4/4 390/4/4
f 385/2/4 386/2/4 391/2/4
f 386/3/4 387/3/4 392/3/4
f 391/2/4 386/2/4 392/2/4
f 392/3/4 387/3/4 393/3/4
f 380/1/4 389/1/4 394/1/4
f 389/1/4 390/1/4 394/1/4
f 390/2/4 383/2/4 395/2/4
f 394/1/4 390/1/4 395/1/4
f 392/2/4 393/2/4 396/2/4
f 396/2/4 393/2/4 397/2/4
f 380/1/4 394/1/4 398/1/4
f 394/4/4 395/4/4 399/4/4
f 398/1/4 394/1/4 399/1/4
f 395/2/4 383/2/4 400/2/4
f 399/4/4 395/4/4 400/4/4
f 400/2/4 383/2/4 401/2/4
f 398/2/4 399/2/4 402/2/4
f 399/2/4 400/2/4 402/2/4
f 402/2/4 400/2/4 403/2/4
f 404/3/4 405/3/4 406/3/4
f 406/3/4 405/3/4 407/3/4
f 406/2/4 407/2/4 408/2/4
f 407/3/4 405/3/4 409/3/4
f 408/2/4 407/2/4 409/2/4
f 409/3/4 405/3/4 410/3/4
f 410/3/4 405/3/4 411/3/4
f 409/2/4 410/2/4 412/2/4
f 412/2/4 410/2/4 413/2/4
f 418/3/5 415/3/5 414/3/5
f 419/3/5 415/3/5 418/3/5
f 422/2/5 417/2/5 416/2/5
f 423/3/5 418/3/5 417/3/5
f 423/2/5 417/2/5 422/2/5
f 423/3/5 419/3/5 418/3/5
f 423/3/5 420/3/5 419/3/5
f 424/2/5 421/2/5 420/2/5
f 424/3/5 420/3/5 423/3/5
f 425/2/5 421/2/5 424/2/5
f 426/4/5 423/4/5 422/4/5
f 427/3/5 424/3/5 423/3/5
f 427/4/5 423/4/5 426/4/5
f 428/4/5 425/4/5 424/4/5
f 428/3/5 424/3/5 427/3/5
f 429/4/5 425/4/5 428/4/5
f 430/1/5 427/1/5 426/1/5
f 431/3/5 428/3/5 427/3/5
f 431/1/5 427/1/5 430/1/5
f 432/1/5 429/1/5 428/1/5
f 432/3/5 428/3/5 431/3/5
f 433/1/5 429/1/5 432/1/5
f 434/2/5 431/2/5 430/2/5
f 435/3/5 432/3/5 431/3/5
f 435/2/5 431/2/5 434/2/5
f 436/3/5 432/3/5 435/3/5
f 437/3/5 432/3/5 436/3/5
f 438/2/5 433/2/5 432/2/5
f 438/3/5 432/3/5 437/3/5
f 439/2/5 433/2/5 438/2/5
f 441/3/5 437/3/5 436/3/5
f 442/3/5 437/3/5 441/3/5
f 444/2/5 441/2/5 440/2/5
f 445/1/5 442/1/5 441/1/5
f 445/2/5 441/2/5 444/2/5
f 446/2/5 443/2/5 442/2/5
f 446/1/5 442/1/5 445/1/5
f 447/2/5 443/2/5 446/2/5
f 451/2/5 450/2/5 449/2/5
f 452/2/5 451/2/5 449/2/5
f 453/3/5 449/3/5 448/3/5
f 454/2/5 452/2/5 449/2/5
f 454/3/5 449/3/5 453/3/5
f 455/2/5 452/2/5 454/2/5
f 459/3/5 457/3/5 456/3/5
f 460/2/5 458/2/5 457/2/5
f 460/3/5 457/3/5 459/3/5
f 461/2/5 458/2/5 460/2/5
f 463/2/5 462/2/5 461/2/5
f 464/2/5 462/2/5 463/2/5
f 465/3/5 464/3/5 463/3/5
f 466/3/5 464/3/5 465/3/5
f 469/2/5 468/2/5 467/2/5
f 470/2/5 468/2/5 469/2/5
f 473/3/5 472/3/5 471/3/5
f 474/3/5 472/3/5 473/3/5
f 477/2/5 474/2/5 473/2/5
f 478/2/5 474/2/5 477/2/5
f 479/3/5 476/3/5 475/3/5
f 480/2/5 477/2/5 476/2/5
f 480/3/5 476/3/5 479/3/5
f 481/2/5 477/2/5 480/2/5
f 484/2/5 483/2/5 482/2/5
f 485/2/5 483/2/5 484/2/5
f 487/2/5 486/2/5 485/2/5
f 488/2/5 486/2/5 487/2/5
f 491/2/5 490/2/5 489/2/5
f 492/2/5 490/2/5 491/2/5
f 495/2/5 494/2/5 493/2/5
f 496/2/5 494/2/5 495/2/5
f 500/2/5 498/2/5 497/2/5
f 501/2/5 498/2/5 500/2/5
f 502/2/5 500/2/5 499/2/5
f 503/2/5 500/2/5 502/2/5
f 506/2/5 505/2/5 504/2/5
f 507/2/5 505/2/5 506/2/5
f 510/2/5 509/2/5 508/2/5
f 511/2/5 509/2/5 510/2/5
f 512/2/6 513/2/6 516/2/6
f 516/2/6 513/2/6 517/2/6
f 514/2/6 515/2/6 518/2/6
f 518/2/6 515/2/6 519/2/6
f 520/2/6 521/2/6 524/2/6
f 524/2/6 521/2/6 525/2/6
f 522/2/6 523/2/6 526/2/6
f 526/2/6 523/2/6 527/2/6
f 528/2/6 529/2/6 532/2/6
f 532/2/6 529/2/6 533/2/6
f 530/2/6 531/2/6 534/2/6
f 534/2/6 531/2/6 535/2/6
f 536/2/6 537/2/6 540/2/6
f 540/2/6 537/2/6 541/2/6
f 538/2/6 539/2/6 542/2/6
f 542/2/6 539/2/6 543/2/6
f 544/2/6 545/2/6 546/2/6
f 546/2/6 545/2/6 547/2/6
f 548/2/6 549/2/6 550/2/6
f 550/2/6 549/2/6 551/2/6
f 552/2/6 553/2/6 554/2/6
f 554/2/6 553/2/6 555/2/6
f 556/3/6 557/3/6 559/3/6
f 557/2/6 558/2/6 560/2/6
f 559/3/6 557/3/6 560/3/6
f 560/2/6 558/2/6 561/2/6
f 561/2/6 562/2/6 563/2/6
f 563/2/6 562/2/6 564/2/6
f 565/2/6 566/2/6 567/2/6
f 567/2/6 566/2/6 568/2/6
f 569/2/6 570/2/6 573/2/6
f 573/2/6 570/2/6 574/2/6
f 571/2/6 572/2/6 577/2/6
f 577/2/6 572/2/6 578/2/6
f 575/3/6 576/3/6 579/3/6
f 576/2/6 577/2/6 580/2/6
f 579/3/6 576/3/6 580/3/6
f 580/2/6 577/2/6 581/2/6
f 582/3/6 583/3/6 584/3/6
f 584/3/6 583/3/6 585/3/6
f 585/3/6 586/3/6 587/3/6
f 587/3/6 586/3/6 588/3/6
f 588/3/6 589/3/6 591/3/6
f 589/2/6 590/2/6 592/2/6
f 591/3/6 589/3/6 592/3/6
f 592/2/6 590/2/6 593/2/6
f 593/2/6 594/2/6 597/2/6
f 597/2/6 594/2/6 598/2/6
f 595/3/6 596/3/6 600/3/6
f 596/2/6 597/2/6 601/2/6
f 600/3/6 596/3/6 601/3/6
f 601/2/6 597/2/6 602/2/6
f 599/3/6 600/3/6 604/3/6
f 604/3/6 600/3/6 605/3/6
f 603/3/6 604/3/6 606/3/6
f 606/3/6 604/3/6 607/3/6
f 608/3/6 609/3/6 610/3/6
f 610/3/6 609/3/6 611/3/6
f 610/2/6 611/2/6 612/2/6
f 612/2/6 613/2/6 614/2/6
f 614/3/6 615/3/6 616/3/6
f 614/3/6 616/3/6 618/3/6
f 616/3/6 617/3/6 618/3/6
f 618/3/6 617/3/6 619/3/6
f 612/2/6 614/2/6 620/2/6
f 614/3/6 618/3/6 620/3/6
f 620/3/6 618/3/6 621/3/6
f 610/2/6 612/2/6 622/2/6
f 612/2/6 620/2/6 622/2/6
f 622/2/6 620/2/6 623/2/6
f 610/2/6 622/2/6 624/2/6
f 624/2/6 622/2/6 625/2/6
f 624/3/6 625/3/6 626/3/6
f 626/3/6 625/3/6 627/3/6
