# MagicaVoxel @ Ephtracy

# group
o 

# material
mtllib Linfocito T-10.mtl
usemtl palette

# normals
vn -1 0 0
vn 1 0 0
vn 0 0 1
vn 0 0 -1
vn 0 -1 0
vn 0 1 0

# texcoords
vt 0.314453 0.5
vt 0.337891 0.5
vt 0.501953 0.5
vt 0.783203 0.5
vt 0.818359 0.5

# verts
v -0.5 2.2 0.3
v -0.5 2.2 -0.1
v -0.5 2.3 0.4
v -0.5 2.3 0.3
v -0.5 2.3 -0.1
v -0.5 2.3 -0.2
v -0.5 2.4 0.5
v -0.5 2.4 0.4
v -0.5 2.4 -0.2
v -0.5 2.4 -0.3
v -0.5 3 0.5
v -0.5 3 0.4
v -0.5 3 -0.2
v -0.5 3 -0.3
v -0.5 3.1 0.4
v -0.5 3.1 0.3
v -0.5 3.1 -0.1
v -0.5 3.1 -0.2
v -0.5 3.2 0.3
v -0.5 3.2 -0.1
v -0.4 2.1 0.3
v -0.4 2.1 -0.1
v -0.4 2.2 0.4
v -0.4 2.2 0.3
v -0.4 2.2 -0.1
v -0.4 2.2 -0.2
v -0.4 2.3 0.6
v -0.4 2.3 0.5
v -0.4 2.3 0.4
v -0.4 2.3 0.3
v -0.4 2.3 -0.1
v -0.4 2.3 -0.2
v -0.4 2.3 -0.3
v -0.4 2.4 0.5
v -0.4 2.4 0.4
v -0.4 2.4 -0.2
v -0.4 2.4 -0.3
v -0.4 2.4 -0.4
v -0.4 3 0.6
v -0.4 3 0.5
v -0.4 3 0.4
v -0.4 3 -0.2
v -0.4 3 -0.3
v -0.4 3 -0.4
v -0.4 3.1 0.5
v -0.4 3.1 0.4
v -0.4 3.1 0.3
v -0.4 3.1 -0.1
v -0.4 3.1 -0.2
v -0.4 3.1 -0.3
v -0.4 3.2 0.4
v -0.4 3.2 0.3
v -0.4 3.2 -0.1
v -0.4 3.2 -0.2
v -0.4 3.3 0.3
v -0.4 3.3 -0.1
v -0.3 2 0.4
v -0.3 2 -0.1
v -0.3 2.1 0.5
v -0.3 2.1 0.4
v -0.3 2.1 0.3
v -0.3 2.1 -0.1
v -0.3 2.1 -0.2
v -0.3 2.2 0.6
v -0.3 2.2 0.5
v -0.3 2.2 0.4
v -0.3 2.2 0.3
v -0.3 2.2 -0.1
v -0.3 2.2 -0.2
v -0.3 2.2 -0.3
v -0.3 2.3 0.6
v -0.3 2.3 0.5
v -0.3 2.3 0.4
v -0.3 2.3 -0.2
v -0.3 2.3 -0.3
v -0.3 2.3 -0.4
v -0.3 2.4 -0.3
v -0.3 2.4 -0.4
v -0.3 3 0.6
v -0.3 3 0.5
v -0.3 3 -0.3
v -0.3 3 -0.4
v -0.3 3.1 0.6
v -0.3 3.1 0.5
v -0.3 3.1 0.4
v -0.3 3.1 -0.2
v -0.3 3.1 -0.3
v -0.3 3.1 -0.4
v -0.3 3.2 0.5
v -0.3 3.2 0.4
v -0.3 3.2 0.3
v -0.3 3.2 -0.1
v -0.3 3.2 -0.2
v -0.3 3.2 -0.3
v -0.3 3.3 0.4
v -0.3 3.3 0.3
v -0.3 3.3 0.2
v -0.3 3.3 5.96046e-08
v -0.3 3.3 -0.1
v -0.3 3.3 -0.2
v -0.3 3.4 0.2
v -0.3 3.4 5.96046e-08
v -0.2 2 0.5
v -0.2 2 0.4
v -0.2 2 -0.1
v -0.2 2 -0.2
v -0.2 2.1 0.6
v -0.2 2.1 0.5
v -0.2 2.1 0.4
v -0.2 2.1 -0.1
v -0.2 2.1 -0.2
v -0.2 2.1 -0.3
v -0.2 2.2 0.6
v -0.2 2.2 0.5
v -0.2 2.2 -0.2
v -0.2 2.2 -0.3
v -0.2 2.2 -0.4
v -0.2 2.3 -0.3
v -0.2 2.3 -0.4
v -0.2 2.5 -0.4
v -0.2 2.5 -0.5
v -0.2 2.9 -0.4
v -0.2 2.9 -0.5
v -0.2 3.1 0.6
v -0.2 3.1 0.5
v -0.2 3.1 -0.3
v -0.2 3.1 -0.4
v -0.2 3.2 0.6
v -0.2 3.2 0.5
v -0.2 3.2 0.4
v -0.2 3.2 -0.2
v -0.2 3.2 -0.3
v -0.2 3.2 -0.4
v -0.2 3.3 0.5
v -0.2 3.3 0.4
v -0.2 3.3 0.3
v -0.2 3.3 0.2
v -0.2 3.3 5.96046e-08
v -0.2 3.3 -0.1
v -0.2 3.3 -0.2
v -0.2 3.3 -0.3
v -0.2 3.4 0.3
v -0.2 3.4 0.2
v -0.2 3.4 5.96046e-08
v -0.2 3.4 -0.1
v -0.1 2 0.6
v -0.1 2 0.5
v -0.1 2 -0.2
v -0.1 2 -0.3
v -0.1 2 -0.4
v -0.1 2.1 0.6
v -0.1 2.1 0.5
v -0.1 2.1 -0.2
v -0.1 2.1 -0.3
v -0.1 2.2 -0.3
v -0.1 2.2 -0.4
v -0.1 2.4 -0.4
v -0.1 2.4 -0.5
v -0.1 2.5 -0.4
v -0.1 2.5 -0.5
v -0.1 2.9 -0.4
v -0.1 2.9 -0.5
v -0.1 3 -0.4
v -0.1 3 -0.5
v -0.1 3.2 0.6
v -0.1 3.2 0.5
v -0.1 3.2 -0.3
v -0.1 3.2 -0.4
v -0.1 3.3 0.6
v -0.1 3.3 0.5
v -0.1 3.3 0.4
v -0.1 3.3 0.3
v -0.1 3.3 -0.1
v -0.1 3.3 -0.2
v -0.1 3.3 -0.3
v -0.1 3.3 -0.4
v -0.1 3.4 0.4
v -0.1 3.4 0.3
v -0.1 3.4 -0.1
v -0.1 3.4 -0.2
v 0 2.3 -0.4
v 0 2.3 -0.5
v 0 2.4 -0.4
v 0 2.4 -0.5
v 0 3 -0.4
v 0 3 -0.5
v 0 3.1 -0.4
v 0 3.1 -0.5
v 0 3.3 0.5
v 0 3.3 0.4
v 0 3.4 0.5
v 0 3.4 0.4
v 0.1 3.3 0.2
v 0.1 3.3 0.1
v 0.1 3.4 0.2
v 0.1 3.4 0.1
v 0 3.3 0.2
v 0 3.3 0.1
v 0 3.4 0.2
v 0 3.4 0.1
v 0.2 2.3 -0.4
v 0.2 2.3 -0.5
v 0.2 2.4 -0.4
v 0.2 2.4 -0.5
v 0.2 3 -0.4
v 0.2 3 -0.5
v 0.2 3.1 -0.4
v 0.2 3.1 -0.5
v 0.3 2 0.6
v 0.3 2 0.5
v 0.3 2 -0.2
v 0.3 2 -0.3
v 0.3 2 -0.4
v 0.3 2.1 0.6
v 0.3 2.1 0.5
v 0.3 2.1 -0.2
v 0.3 2.1 -0.3
v 0.3 2.2 -0.3
v 0.3 2.2 -0.4
v 0.3 2.4 -0.4
v 0.3 2.4 -0.5
v 0.3 2.5 -0.4
v 0.3 2.5 -0.5
v 0.3 2.9 -0.4
v 0.3 2.9 -0.5
v 0.3 3 -0.4
v 0.3 3 -0.5
v 0.3 3.2 0.6
v 0.3 3.2 0.5
v 0.3 3.2 -0.3
v 0.3 3.2 -0.4
v 0.3 3.3 0.6
v 0.3 3.3 0.5
v 0.3 3.3 0.4
v 0.3 3.3 5.96046e-08
v 0.3 3.3 -0.2
v 0.3 3.3 -0.3
v 0.3 3.3 -0.4
v 0.3 3.4 0.5
v 0.3 3.4 0.4
v 0.3 3.4 5.96046e-08
v 0.3 3.4 -0.2
v 0.4 2 0.5
v 0.4 2 0.4
v 0.4 2 -0.1
v 0.4 2 -0.2
v 0.4 2.1 0.6
v 0.4 2.1 0.5
v 0.4 2.1 0.4
v 0.4 2.1 -0.1
v 0.4 2.1 -0.2
v 0.4 2.1 -0.3
v 0.4 2.2 0.6
v 0.4 2.2 0.5
v 0.4 2.2 -0.2
v 0.4 2.2 -0.3
v 0.4 2.2 -0.4
v 0.4 2.3 -0.3
v 0.4 2.3 -0.4
v 0.4 2.5 -0.4
v 0.4 2.5 -0.5
v 0.4 2.9 -0.4
v 0.4 2.9 -0.5
v 0.4 3.1 0.6
v 0.4 3.1 0.5
v 0.4 3.1 -0.3
v 0.4 3.1 -0.4
v 0.4 3.2 0.6
v 0.4 3.2 0.5
v 0.4 3.2 0.4
v 0.4 3.2 -0.2
v 0.4 3.2 -0.3
v 0.4 3.2 -0.4
v 0.4 3.3 0.5
v 0.4 3.3 0.4
v 0.4 3.3 0.3
v 0.4 3.3 0.1
v 0.4 3.3 5.96046e-08
v 0.4 3.3 -0.2
v 0.4 3.3 -0.3
v 0.4 3.4 0.4
v 0.4 3.4 0.3
v 0.4 3.4 0.1
v 0.4 3.4 5.96046e-08
v 0.5 2 0.4
v 0.5 2 -0.1
v 0.5 2.1 0.5
v 0.5 2.1 0.4
v 0.5 2.1 0.3
v 0.5 2.1 -0.1
v 0.5 2.1 -0.2
v 0.5 2.2 0.6
v 0.5 2.2 0.5
v 0.5 2.2 0.4
v 0.5 2.2 0.3
v 0.5 2.2 -0.1
v 0.5 2.2 -0.2
v 0.5 2.2 -0.3
v 0.5 2.3 0.6
v 0.5 2.3 0.5
v 0.5 2.3 0.4
v 0.5 2.3 -0.2
v 0.5 2.3 -0.3
v 0.5 2.3 -0.4
v 0.5 2.4 -0.3
v 0.5 2.4 -0.4
v 0.5 3 0.6
v 0.5 3 0.5
v 0.5 3 -0.3
v 0.5 3 -0.4
v 0.5 3.1 0.6
v 0.5 3.1 0.5
v 0.5 3.1 0.4
v 0.5 3.1 -0.2
v 0.5 3.1 -0.3
v 0.5 3.1 -0.4
v 0.5 3.2 0.5
v 0.5 3.2 0.4
v 0.5 3.2 0.3
v 0.5 3.2 -0.1
v 0.5 3.2 -0.2
v 0.5 3.2 -0.3
v 0.5 3.3 0.4
v 0.5 3.3 0.3
v 0.5 3.3 0.1
v 0.5 3.3 -0.1
v 0.5 3.3 -0.2
v 0.5 3.4 0.3
v 0.5 3.4 0.1
v 0.6 2.1 0.3
v 0.6 2.1 -0.1
v 0.6 2.2 0.4
v 0.6 2.2 0.3
v 0.6 2.2 -0.1
v 0.6 2.2 -0.2
v 0.6 2.3 0.6
v 0.6 2.3 0.5
v 0.6 2.3 0.4
v 0.6 2.3 0.3
v 0.6 2.3 -0.1
v 0.6 2.3 -0.2
v 0.6 2.3 -0.3
v 0.6 2.4 0.5
v 0.6 2.4 0.4
v 0.6 2.4 -0.2
v 0.6 2.4 -0.3
v 0.6 2.4 -0.4
v 0.6 3 0.6
v 0.6 3 0.5
v 0.6 3 0.4
v 0.6 3 -0.2
v 0.6 3 -0.3
v 0.6 3 -0.4
v 0.6 3.1 0.5
v 0.6 3.1 0.4
v 0.6 3.1 0.3
v 0.6 3.1 -0.1
v 0.6 3.1 -0.2
v 0.6 3.1 -0.3
v 0.6 3.2 0.4
v 0.6 3.2 0.3
v 0.6 3.2 -0.1
v 0.6 3.2 -0.2
v 0.6 3.3 0.3
v 0.6 3.3 -0.1
v 0.7 2.2 0.3
v 0.7 2.2 -0.1
v 0.7 2.3 0.4
v 0.7 2.3 0.3
v 0.7 2.3 -0.1
v 0.7 2.3 -0.2
v 0.7 2.4 0.5
v 0.7 2.4 0.4
v 0.7 2.4 -0.2
v 0.7 2.4 -0.3
v 0.7 3 0.5
v 0.7 3 0.4
v 0.7 3 -0.2
v 0.7 3 -0.3
v 0.7 3.1 0.4
v 0.7 3.1 0.3
v 0.7 3.1 -0.1
v 0.7 3.1 -0.2
v 0.7 3.2 0.3
v 0.7 3.2 -0.1
v -0.4 2.3 0.6
v -0.4 3 0.6
v -0.3 2.2 0.6
v -0.3 2.3 0.6
v -0.3 3 0.6
v -0.3 3.1 0.6
v -0.2 2.1 0.6
v -0.2 2.2 0.6
v -0.2 3.1 0.6
v -0.2 3.2 0.6
v -0.1 2 0.6
v -0.1 2.1 0.6
v -0.1 3.2 0.6
v -0.1 3.3 0.6
v 0.3 2 0.6
v 0.3 2.1 0.6
v 0.3 3.2 0.6
v 0.3 3.3 0.6
v 0.4 2.1 0.6
v 0.4 2.2 0.6
v 0.4 3.1 0.6
v 0.4 3.2 0.6
v 0.5 2.2 0.6
v 0.5 2.3 0.6
v 0.5 3 0.6
v 0.5 3.1 0.6
v 0.6 2.3 0.6
v 0.6 3 0.6
v -0.5 2.4 0.5
v -0.5 3 0.5
v -0.4 2.4 0.5
v -0.4 3 0.5
v -0.4 3.1 0.5
v -0.3 2.1 0.5
v -0.3 2.2 0.5
v -0.3 3 0.5
v -0.3 3.1 0.5
v -0.3 3.2 0.5
v -0.2 2 0.5
v -0.2 2.1 0.5
v -0.2 2.2 0.5
v -0.2 3.1 0.5
v -0.2 3.2 0.5
v -0.2 3.3 0.5
v -0.1 2 0.5
v -0.1 2.1 0.5
v -0.1 3.2 0.5
v -0.1 3.3 0.5
v 0 3.3 0.5
v 0 3.4 0.5
v 0.3 2 0.5
v 0.3 2.1 0.5
v 0.3 3.2 0.5
v 0.3 3.3 0.5
v 0.3 3.4 0.5
v 0.4 2 0.5
v 0.4 2.1 0.5
v 0.4 2.2 0.5
v 0.4 3.1 0.5
v 0.4 3.2 0.5
v 0.4 3.3 0.5
v 0.5 2.1 0.5
v 0.5 2.2 0.5
v 0.5 3 0.5
v 0.5 3.1 0.5
v 0.5 3.2 0.5
v 0.6 2.4 0.5
v 0.6 3 0.5
v 0.6 3.1 0.5
v 0.7 2.4 0.5
v 0.7 3 0.5
v -0.5 2.3 0.4
v -0.5 2.4 0.4
v -0.5 3 0.4
v -0.5 3.1 0.4
v -0.4 2.2 0.4
v -0.4 2.3 0.4
v -0.4 2.4 0.4
v -0.4 3 0.4
v -0.4 3.1 0.4
v -0.4 3.2 0.4
v -0.3 2 0.4
v -0.3 2.1 0.4
v -0.3 2.2 0.4
v -0.3 2.3 0.4
v -0.3 3.1 0.4
v -0.3 3.2 0.4
v -0.3 3.3 0.4
v -0.2 2 0.4
v -0.2 2.1 0.4
v -0.2 3.2 0.4
v -0.2 3.3 0.4
v -0.1 3.3 0.4
v -0.1 3.4 0.4
v 0 3.3 0.4
v 0 3.4 0.4
v 0.3 3.3 0.4
v 0.3 3.4 0.4
v 0.4 2 0.4
v 0.4 2.1 0.4
v 0.4 3.2 0.4
v 0.4 3.3 0.4
v 0.4 3.4 0.4
v 0.5 2 0.4
v 0.5 2.1 0.4
v 0.5 2.2 0.4
v 0.5 2.3 0.4
v 0.5 3.1 0.4
v 0.5 3.2 0.4
v 0.5 3.3 0.4
v 0.6 2.2 0.4
v 0.6 2.3 0.4
v 0.6 2.4 0.4
v 0.6 3 0.4
v 0.6 3.1 0.4
v 0.6 3.2 0.4
v 0.7 2.3 0.4
v 0.7 2.4 0.4
v 0.7 3 0.4
v 0.7 3.1 0.4
v -0.5 2.2 0.3
v -0.5 2.3 0.3
v -0.5 3.1 0.3
v -0.5 3.2 0.3
v -0.4 2.1 0.3
v -0.4 2.2 0.3
v -0.4 2.3 0.3
v -0.4 3.1 0.3
v -0.4 3.2 0.3
v -0.4 3.3 0.3
v -0.3 2.1 0.3
v -0.3 2.2 0.3
v -0.3 3.2 0.3
v -0.3 3.3 0.3
v -0.2 3.3 0.3
v -0.2 3.4 0.3
v -0.1 3.3 0.3
v -0.1 3.4 0.3
v 0.4 3.3 0.3
v 0.4 3.4 0.3
v 0.5 2.1 0.3
v 0.5 2.2 0.3
v 0.5 3.2 0.3
v 0.5 3.3 0.3
v 0.5 3.4 0.3
v 0.6 2.1 0.3
v 0.6 2.2 0.3
v 0.6 2.3 0.3
v 0.6 3.1 0.3
v 0.6 3.2 0.3
v 0.6 3.3 0.3
v 0.7 2.2 0.3
v 0.7 2.3 0.3
v 0.7 3.1 0.3
v 0.7 3.2 0.3
v -0.3 3.3 0.2
v -0.3 3.4 0.2
v -0.2 3.3 0.2
v -0.2 3.4 0.2
v 0 3.3 0.1
v 0 3.4 0.1
v 0.1 3.3 0.1
v 0.1 3.4 0.1
v 0 3.3 0.2
v 0 3.4 0.2
v 0.1 3.3 0.2
v 0.1 3.4 0.2
v 0.4 3.3 0.1
v 0.4 3.4 0.1
v 0.5 3.3 0.1
v 0.5 3.4 0.1
v -0.3 3.3 5.96046e-08
v -0.3 3.4 5.96046e-08
v -0.2 3.3 5.96046e-08
v -0.2 3.4 5.96046e-08
v 0.3 3.3 5.96046e-08
v 0.3 3.4 5.96046e-08
v 0.4 3.3 5.96046e-08
v 0.4 3.4 5.96046e-08
v -0.5 2.2 -0.1
v -0.5 2.3 -0.1
v -0.5 3.1 -0.1
v -0.5 3.2 -0.1
v -0.4 2.1 -0.1
v -0.4 2.2 -0.1
v -0.4 2.3 -0.1
v -0.4 3.1 -0.1
v -0.4 3.2 -0.1
v -0.4 3.3 -0.1
v -0.3 2 -0.1
v -0.3 2.1 -0.1
v -0.3 2.2 -0.1
v -0.3 3.2 -0.1
v -0.3 3.3 -0.1
v -0.2 2 -0.1
v -0.2 2.1 -0.1
v -0.2 3.3 -0.1
v -0.2 3.4 -0.1
v -0.1 3.3 -0.1
v -0.1 3.4 -0.1
v 0.4 2 -0.1
v 0.4 2.1 -0.1
v 0.5 2 -0.1
v 0.5 2.1 -0.1
v 0.5 2.2 -0.1
v 0.5 3.2 -0.1
v 0.5 3.3 -0.1
v 0.6 2.1 -0.1
v 0.6 2.2 -0.1
v 0.6 2.3 -0.1
v 0.6 3.1 -0.1
v 0.6 3.2 -0.1
v 0.6 3.3 -0.1
v 0.7 2.2 -0.1
v 0.7 2.3 -0.1
v 0.7 3.1 -0.1
v 0.7 3.2 -0.1
v -0.5 2.3 -0.2
v -0.5 2.4 -0.2
v -0.5 3 -0.2
v -0.5 3.1 -0.2
v -0.4 2.2 -0.2
v -0.4 2.3 -0.2
v -0.4 2.4 -0.2
v -0.4 3 -0.2
v -0.4 3.1 -0.2
v -0.4 3.2 -0.2
v -0.3 2.1 -0.2
v -0.3 2.2 -0.2
v -0.3 2.3 -0.2
v -0.3 3.1 -0.2
v -0.3 3.2 -0.2
v -0.3 3.3 -0.2
v -0.2 2 -0.2
v -0.2 2.1 -0.2
v -0.2 2.2 -0.2
v -0.2 3.2 -0.2
v -0.2 3.3 -0.2
v -0.1 2 -0.2
v -0.1 2.1 -0.2
v -0.1 3.3 -0.2
v -0.1 3.4 -0.2
v 0.3 2 -0.2
v 0.3 2.1 -0.2
v 0.3 3.3 -0.2
v 0.3 3.4 -0.2
v 0.4 2 -0.2
v 0.4 2.1 -0.2
v 0.4 2.2 -0.2
v 0.4 3.2 -0.2
v 0.4 3.3 -0.2
v 0.5 2.1 -0.2
v 0.5 2.2 -0.2
v 0.5 2.3 -0.2
v 0.5 3.1 -0.2
v 0.5 3.2 -0.2
v 0.5 3.3 -0.2
v 0.6 2.2 -0.2
v 0.6 2.3 -0.2
v 0.6 2.4 -0.2
v 0.6 3 -0.2
v 0.6 3.1 -0.2
v 0.6 3.2 -0.2
v 0.7 2.3 -0.2
v 0.7 2.4 -0.2
v 0.7 3 -0.2
v 0.7 3.1 -0.2
v -0.5 2.4 -0.3
v -0.5 3 -0.3
v -0.4 2.3 -0.3
v -0.4 2.4 -0.3
v -0.4 3 -0.3
v -0.4 3.1 -0.3
v -0.3 2.2 -0.3
v -0.3 2.3 -0.3
v -0.3 2.4 -0.3
v -0.3 3 -0.3
v -0.3 3.1 -0.3
v -0.3 3.2 -0.3
v -0.2 2.1 -0.3
v -0.2 2.2 -0.3
v -0.2 2.3 -0.3
v -0.2 3.1 -0.3
v -0.2 3.2 -0.3
v -0.2 3.3 -0.3
v -0.1 2.1 -0.3
v -0.1 2.2 -0.3
v -0.1 3.2 -0.3
v -0.1 3.3 -0.3
v 0.3 2.1 -0.3
v 0.3 2.2 -0.3
v 0.3 3.2 -0.3
v 0.3 3.3 -0.3
v 0.4 2.1 -0.3
v 0.4 2.2 -0.3
v 0.4 2.3 -0.3
v 0.4 3.1 -0.3
v 0.4 3.2 -0.3
v 0.4 3.3 -0.3
v 0.5 2.2 -0.3
v 0.5 2.3 -0.3
v 0.5 2.4 -0.3
v 0.5 3 -0.3
v 0.5 3.1 -0.3
v 0.5 3.2 -0.3
v 0.6 2.3 -0.3
v 0.6 2.4 -0.3
v 0.6 3 -0.3
v 0.6 3.1 -0.3
v 0.7 2.4 -0.3
v 0.7 3 -0.3
v -0.4 2.4 -0.4
v -0.4 3 -0.4
v -0.3 2.3 -0.4
v -0.3 2.4 -0.4
v -0.3 3 -0.4
v -0.3 3.1 -0.4
v -0.2 2.2 -0.4
v -0.2 2.3 -0.4
v -0.2 2.5 -0.4
v -0.2 2.9 -0.4
v -0.2 3.1 -0.4
v -0.2 3.2 -0.4
v -0.1 2 -0.4
v -0.1 2.2 -0.4
v -0.1 2.4 -0.4
v -0.1 2.5 -0.4
v -0.1 2.9 -0.4
v -0.1 3 -0.4
v -0.1 3.2 -0.4
v -0.1 3.3 -0.4
v 0 2.3 -0.4
v 0 2.4 -0.4
v 0 3 -0.4
v 0 3.1 -0.4
v 0.2 2.3 -0.4
v 0.2 2.4 -0.4
v 0.2 3 -0.4
v 0.2 3.1 -0.4
v 0.3 2 -0.4
v 0.3 2.2 -0.4
v 0.3 2.4 -0.4
v 0.3 2.5 -0.4
v 0.3 2.9 -0.4
v 0.3 3 -0.4
v 0.3 3.2 -0.4
v 0.3 3.3 -0.4
v 0.4 2.2 -0.4
v 0.4 2.3 -0.4
v 0.4 2.5 -0.4
v 0.4 2.9 -0.4
v 0.4 3.1 -0.4
v 0.4 3.2 -0.4
v 0.5 2.3 -0.4
v 0.5 2.4 -0.4
v 0.5 3 -0.4
v 0.5 3.1 -0.4
v 0.6 2.4 -0.4
v 0.6 3 -0.4
v -0.2 2.5 -0.5
v -0.2 2.9 -0.5
v -0.1 2.4 -0.5
v -0.1 2.5 -0.5
v -0.1 2.6 -0.5
v -0.1 2.7 -0.5
v -0.1 2.8 -0.5
v -0.1 2.9 -0.5
v -0.1 3 -0.5
v 0 2.3 -0.5
v 0 2.4 -0.5
v 0 2.5 -0.5
v 0 2.6 -0.5
v 0 2.7 -0.5
v 0 2.8 -0.5
v 0 2.9 -0.5
v 0 3 -0.5
v 0 3.1 -0.5
v 0.2 2.3 -0.5
v 0.2 2.4 -0.5
v 0.2 2.5 -0.5
v 0.2 2.6 -0.5
v 0.2 2.7 -0.5
v 0.2 2.8 -0.5
v 0.2 2.9 -0.5
v 0.2 3 -0.5
v 0.2 3.1 -0.5
v 0.3 2.4 -0.5
v 0.3 2.5 -0.5
v 0.3 2.6 -0.5
v 0.3 2.7 -0.5
v 0.3 2.8 -0.5
v 0.3 2.9 -0.5
v 0.3 3 -0.5
v 0.4 2.5 -0.5
v 0.4 2.9 -0.5
v -0.1 2 0.6
v 0.3 2 0.6
v -0.2 2 0.5
v -0.1 2 0.5
v 0.3 2 0.5
v 0.4 2 0.5
v -0.3 2 0.4
v -0.2 2 0.4
v 0.4 2 0.4
v 0.5 2 0.4
v -0.3 2 -0.1
v -0.2 2 -0.1
v 0.4 2 -0.1
v 0.5 2 -0.1
v -0.2 2 -0.2
v -0.1 2 -0.2
v 0.3 2 -0.2
v 0.4 2 -0.2
v -0.1 2 -0.3
v 0.3 2 -0.3
v -0.1 2 -0.4
v 0.3 2 -0.4
v -0.2 2.1 0.6
v -0.1 2.1 0.6
v 0.3 2.1 0.6
v 0.4 2.1 0.6
v -0.3 2.1 0.5
v -0.2 2.1 0.5
v -0.1 2.1 0.5
v 0.3 2.1 0.5
v 0.4 2.1 0.5
v 0.5 2.1 0.5
v -0.3 2.1 0.4
v -0.2 2.1 0.4
v 0.4 2.1 0.4
v 0.5 2.1 0.4
v -0.4 2.1 0.3
v -0.3 2.1 0.3
v 0.5 2.1 0.3
v 0.6 2.1 0.3
v -0.4 2.1 -0.1
v -0.3 2.1 -0.1
v -0.2 2.1 -0.1
v 0.4 2.1 -0.1
v 0.5 2.1 -0.1
v 0.6 2.1 -0.1
v -0.3 2.1 -0.2
v -0.2 2.1 -0.2
v -0.1 2.1 -0.2
v 0.3 2.1 -0.2
v 0.4 2.1 -0.2
v 0.5 2.1 -0.2
v -0.2 2.1 -0.3
v -0.1 2.1 -0.3
v 0.3 2.1 -0.3
v 0.4 2.1 -0.3
v -0.3 2.2 0.6
v -0.2 2.2 0.6
v 0.4 2.2 0.6
v 0.5 2.2 0.6
v -0.3 2.2 0.5
v -0.2 2.2 0.5
v 0.4 2.2 0.5
v 0.5 2.2 0.5
v -0.4 2.2 0.4
v -0.3 2.2 0.4
v 0.5 2.2 0.4
v 0.6 2.2 0.4
v -0.5 2.2 0.3
v -0.4 2.2 0.3
v -0.3 2.2 0.3
v 0.5 2.2 0.3
v 0.6 2.2 0.3
v 0.7 2.2 0.3
v -0.5 2.2 -0.1
v -0.4 2.2 -0.1
v -0.3 2.2 -0.1
v 0.5 2.2 -0.1
v 0.6 2.2 -0.1
v 0.7 2.2 -0.1
v -0.4 2.2 -0.2
v -0.3 2.2 -0.2
v -0.2 2.2 -0.2
v 0.4 2.2 -0.2
v 0.5 2.2 -0.2
v 0.6 2.2 -0.2
v -0.3 2.2 -0.3
v -0.2 2.2 -0.3
v -0.1 2.2 -0.3
v 0.3 2.2 -0.3
v 0.4 2.2 -0.3
v 0.5 2.2 -0.3
v -0.2 2.2 -0.4
v -0.1 2.2 -0.4
v 0.3 2.2 -0.4
v 0.4 2.2 -0.4
v -0.4 2.3 0.6
v -0.3 2.3 0.6
v 0.5 2.3 0.6
v 0.6 2.3 0.6
v -0.4 2.3 0.5
v -0.3 2.3 0.5
v 0.5 2.3 0.5
v 0.6 2.3 0.5
v -0.5 2.3 0.4
v -0.4 2.3 0.4
v -0.3 2.3 0.4
v 0.5 2.3 0.4
v 0.6 2.3 0.4
v 0.7 2.3 0.4
v -0.5 2.3 0.3
v -0.4 2.3 0.3
v 0.6 2.3 0.3
v 0.7 2.3 0.3
v -0.5 2.3 -0.1
v -0.4 2.3 -0.1
v 0.6 2.3 -0.1
v 0.7 2.3 -0.1
v -0.5 2.3 -0.2
v -0.4 2.3 -0.2
v -0.3 2.3 -0.2
v 0.5 2.3 -0.2
v 0.6 2.3 -0.2
v 0.7 2.3 -0.2
v -0.4 2.3 -0.3
v -0.3 2.3 -0.3
v -0.2 2.3 -0.3
v 0.4 2.3 -0.3
v 0.5 2.3 -0.3
v 0.6 2.3 -0.3
v -0.3 2.3 -0.4
v -0.2 2.3 -0.4
v 0 2.3 -0.4
v 0.2 2.3 -0.4
v 0.4 2.3 -0.4
v 0.5 2.3 -0.4
v 0 2.3 -0.5
v 0.2 2.3 -0.5
v -0.5 2.4 0.5
v -0.4 2.4 0.5
v 0.6 2.4 0.5
v 0.7 2.4 0.5
v -0.5 2.4 0.4
v -0.4 2.4 0.4
v 0.6 2.4 0.4
v 0.7 2.4 0.4
v -0.5 2.4 -0.2
v -0.4 2.4 -0.2
v 0.6 2.4 -0.2
v 0.7 2.4 -0.2
v -0.5 2.4 -0.3
v -0.4 2.4 -0.3
v -0.3 2.4 -0.3
v 0.5 2.4 -0.3
v 0.6 2.4 -0.3
v 0.7 2.4 -0.3
v -0.4 2.4 -0.4
v -0.3 2.4 -0.4
v -0.1 2.4 -0.4
v 0 2.4 -0.4
v 0.2 2.4 -0.4
v 0.3 2.4 -0.4
v 0.5 2.4 -0.4
v 0.6 2.4 -0.4
v -0.1 2.4 -0.5
v 0 2.4 -0.5
v 0.2 2.4 -0.5
v 0.3 2.4 -0.5
v -0.2 2.5 -0.4
v -0.1 2.5 -0.4
v 0.3 2.5 -0.4
v 0.4 2.5 -0.4
v -0.2 2.5 -0.5
v -0.1 2.5 -0.5
v 0.3 2.5 -0.5
v 0.4 2.5 -0.5
v -0.2 2.9 -0.4
v -0.1 2.9 -0.4
v 0.3 2.9 -0.4
v 0.4 2.9 -0.4
v -0.2 2.9 -0.5
v -0.1 2.9 -0.5
v 0.3 2.9 -0.5
v 0.4 2.9 -0.5
v -0.4 3 0.6
v -0.3 3 0.6
v 0.5 3 0.6
v 0.6 3 0.6
v -0.5 3 0.5
v -0.4 3 0.5
v -0.3 3 0.5
v 0.5 3 0.5
v 0.6 3 0.5
v 0.7 3 0.5
v -0.5 3 0.4
v -0.4 3 0.4
v 0.6 3 0.4
v 0.7 3 0.4
v -0.5 3 -0.2
v -0.4 3 -0.2
v 0.6 3 -0.2
v 0.7 3 -0.2
v -0.5 3 -0.3
v -0.4 3 -0.3
v -0.3 3 -0.3
v 0.5 3 -0.3
v 0.6 3 -0.3
v 0.7 3 -0.3
v -0.4 3 -0.4
v -0.3 3 -0.4
v -0.1 3 -0.4
v 0 3 -0.4
v 0.2 3 -0.4
v 0.3 3 -0.4
v 0.5 3 -0.4
v 0.6 3 -0.4
v -0.1 3 -0.5
v 0 3 -0.5
v 0.2 3 -0.5
v 0.3 3 -0.5
v -0.3 3.1 0.6
v -0.2 3.1 0.6
v 0.4 3.1 0.6
v 0.5 3.1 0.6
v -0.4 3.1 0.5
v -0.3 3.1 0.5
v -0.2 3.1 0.5
v 0.4 3.1 0.5
v 0.5 3.1 0.5
v 0.6 3.1 0.5
v -0.5 3.1 0.4
v -0.4 3.1 0.4
v -0.3 3.1 0.4
v 0.5 3.1 0.4
v 0.6 3.1 0.4
v 0.7 3.1 0.4
v -0.5 3.1 0.3
v -0.4 3.1 0.3
v 0.6 3.1 0.3
v 0.7 3.1 0.3
v -0.5 3.1 -0.1
v -0.4 3.1 -0.1
v 0.6 3.1 -0.1
v 0.7 3.1 -0.1
v -0.5 3.1 -0.2
v -0.4 3.1 -0.2
v -0.3 3.1 -0.2
v 0.5 3.1 -0.2
v 0.6 3.1 -0.2
v 0.7 3.1 -0.2
v -0.4 3.1 -0.3
v -0.3 3.1 -0.3
v -0.2 3.1 -0.3
v 0.4 3.1 -0.3
v 0.5 3.1 -0.3
v 0.6 3.1 -0.3
v -0.3 3.1 -0.4
v -0.2 3.1 -0.4
v 0 3.1 -0.4
v 0.2 3.1 -0.4
v 0.4 3.1 -0.4
v 0.5 3.1 -0.4
v 0 3.1 -0.5
v 0.2 3.1 -0.5
v -0.2 3.2 0.6
v -0.1 3.2 0.6
v 0.3 3.2 0.6
v 0.4 3.2 0.6
v -0.3 3.2 0.5
v -0.2 3.2 0.5
v -0.1 3.2 0.5
v 0.3 3.2 0.5
v 0.4 3.2 0.5
v 0.5 3.2 0.5
v -0.4 3.2 0.4
v -0.3 3.2 0.4
v -0.2 3.2 0.4
v 0.4 3.2 0.4
v 0.5 3.2 0.4
v 0.6 3.2 0.4
v -0.5 3.2 0.3
v -0.4 3.2 0.3
v -0.3 3.2 0.3
v 0.5 3.2 0.3
v 0.6 3.2 0.3
v 0.7 3.2 0.3
v -0.5 3.2 -0.1
v -0.4 3.2 -0.1
v -0.3 3.2 -0.1
v 0.5 3.2 -0.1
v 0.6 3.2 -0.1
v 0.7 3.2 -0.1
v -0.4 3.2 -0.2
v -0.3 3.2 -0.2
v -0.2 3.2 -0.2
v 0.4 3.2 -0.2
v 0.5 3.2 -0.2
v 0.6 3.2 -0.2
v -0.3 3.2 -0.3
v -0.2 3.2 -0.3
v -0.1 3.2 -0.3
v 0.3 3.2 -0.3
v 0.4 3.2 -0.3
v 0.5 3.2 -0.3
v -0.2 3.2 -0.4
v -0.1 3.2 -0.4
v 0.3 3.2 -0.4
v 0.4 3.2 -0.4
v -0.1 3.3 0.6
v 0.3 3.3 0.6
v -0.2 3.3 0.5
v -0.1 3.3 0.5
v 0 3.3 0.5
v 0.3 3.3 0.5
v 0.4 3.3 0.5
v -0.3 3.3 0.4
v -0.2 3.3 0.4
v -0.1 3.3 0.4
v 0 3.3 0.4
v 0.3 3.3 0.4
v 0.4 3.3 0.4
v 0.5 3.3 0.4
v -0.4 3.3 0.3
v -0.3 3.3 0.3
v -0.2 3.3 0.3
v -0.1 3.3 0.3
v 0.4 3.3 0.3
v 0.5 3.3 0.3
v 0.6 3.3 0.3
v -0.3 3.3 0.2
v -0.2 3.3 0.2
v 0 3.3 0.2
v 0.1 3.3 0.2
v 0 3.3 0.1
v 0.1 3.3 0.1
v 0.4 3.3 0.1
v 0.5 3.3 0.1
v -0.3 3.3 5.96046e-08
v -0.2 3.3 5.96046e-08
v 0.3 3.3 5.96046e-08
v 0.4 3.3 5.96046e-08
v -0.4 3.3 -0.1
v -0.3 3.3 -0.1
v -0.2 3.3 -0.1
v -0.1 3.3 -0.1
v 0.4 3.3 -0.1
v 0.5 3.3 -0.1
v 0.6 3.3 -0.1
v -0.3 3.3 -0.2
v -0.2 3.3 -0.2
v -0.1 3.3 -0.2
v 0.3 3.3 -0.2
v 0.4 3.3 -0.2
v 0.5 3.3 -0.2
v -0.2 3.3 -0.3
v -0.1 3.3 -0.3
v 0.3 3.3 -0.3
v 0.4 3.3 -0.3
v -0.1 3.3 -0.4
v 0.3 3.3 -0.4
v 0 3.4 0.5
v 0.3 3.4 0.5
v -0.1 3.4 0.4
v 0 3.4 0.4
v 0.3 3.4 0.4
v 0.4 3.4 0.4
v -0.2 3.4 0.3
v -0.1 3.4 0.3
v 0.4 3.4 0.3
v 0.5 3.4 0.3
v -0.3 3.4 0.2
v -0.2 3.4 0.2
v 0 3.4 0.2
v 0.1 3.4 0.2
v 0 3.4 0.1
v 0.1 3.4 0.1
v 0.4 3.4 0.1
v 0.5 3.4 0.1
v -0.3 3.4 5.96046e-08
v -0.2 3.4 5.96046e-08
v 0.3 3.4 5.96046e-08
v 0.4 3.4 5.96046e-08
v -0.2 3.4 -0.1
v -0.1 3.4 -0.1
v -0.1 3.4 -0.2
v 0.3 3.4 -0.2

# faces
f 4/3/1 2/3/1 1/3/1
f 5/3/1 2/3/1 4/3/1
f 8/3/1 4/3/1 3/3/1
f 8/3/1 6/3/1 5/3/1
f 8/3/1 5/3/1 4/3/1
f 9/3/1 6/3/1 8/3/1
f 11/3/1 8/3/1 7/3/1
f 11/3/1 10/3/1 9/3/1
f 11/3/1 9/3/1 8/3/1
f 12/3/1 10/3/1 11/3/1
f 13/3/1 10/3/1 12/3/1
f 14/3/1 10/3/1 13/3/1
f 15/3/1 13/3/1 12/3/1
f 16/3/1 13/3/1 15/3/1
f 17/3/1 13/3/1 16/3/1
f 18/3/1 13/3/1 17/3/1
f 19/3/1 17/3/1 16/3/1
f 20/3/1 17/3/1 19/3/1
f 24/2/1 22/2/1 21/2/1
f 25/2/1 22/2/1 24/2/1
f 29/2/1 24/2/1 23/2/1
f 30/2/1 24/2/1 29/2/1
f 31/2/1 26/2/1 25/2/1
f 32/2/1 26/2/1 31/2/1
f 34/3/1 28/3/1 27/3/1
f 34/2/1 29/2/1 28/2/1
f 35/2/1 29/2/1 34/2/1
f 36/2/1 33/2/1 32/2/1
f 37/2/1 33/2/1 36/2/1
f 39/3/1 34/3/1 27/3/1
f 40/3/1 34/3/1 39/3/1
f 43/3/1 38/3/1 37/3/1
f 44/3/1 38/3/1 43/3/1
f 45/3/1 41/3/1 40/3/1
f 46/3/1 41/3/1 45/3/1
f 49/3/1 43/3/1 42/3/1
f 50/3/1 43/3/1 49/3/1
f 51/3/1 47/3/1 46/3/1
f 52/3/1 47/3/1 51/3/1
f 53/3/1 49/3/1 48/3/1
f 54/3/1 49/3/1 53/3/1
f 55/3/1 53/3/1 52/3/1
f 56/3/1 53/3/1 55/3/1
f 60/2/1 58/2/1 57/2/1
f 61/2/1 58/2/1 60/2/1
f 62/2/1 58/2/1 61/2/1
f 65/2/1 60/2/1 59/2/1
f 65/2/1 61/2/1 60/2/1
f 66/2/1 61/2/1 65/2/1
f 67/2/1 61/2/1 66/2/1
f 68/2/1 63/2/1 62/2/1
f 69/2/1 63/2/1 68/2/1
f 71/3/1 65/3/1 64/3/1
f 72/2/1 66/2/1 65/2/1
f 72/3/1 65/3/1 71/3/1
f 73/2/1 66/2/1 72/2/1
f 74/2/1 70/2/1 69/2/1
f 75/2/1 70/2/1 74/2/1
f 77/3/1 76/3/1 75/3/1
f 78/3/1 76/3/1 77/3/1
f 83/3/1 80/3/1 79/3/1
f 84/3/1 80/3/1 83/3/1
f 87/3/1 82/3/1 81/3/1
f 88/3/1 82/3/1 87/3/1
f 89/3/1 85/3/1 84/3/1
f 90/3/1 85/3/1 89/3/1
f 93/3/1 87/3/1 86/3/1
f 94/3/1 87/3/1 93/3/1
f 95/3/1 91/3/1 90/3/1
f 96/3/1 91/3/1 95/3/1
f 99/3/1 93/3/1 92/3/1
f 100/3/1 93/3/1 99/3/1
f 101/2/1 98/2/1 97/2/1
f 102/2/1 98/2/1 101/2/1
f 108/2/1 104/2/1 103/2/1
f 109/2/1 104/2/1 108/2/1
f 110/2/1 106/2/1 105/2/1
f 111/2/1 106/2/1 110/2/1
f 113/3/1 108/3/1 107/3/1
f 114/3/1 108/3/1 113/3/1
f 115/2/1 112/2/1 111/2/1
f 116/2/1 112/2/1 115/2/1
f 118/3/1 117/3/1 116/3/1
f 119/3/1 117/3/1 118/3/1
f 122/2/1 121/2/1 120/2/1
f 123/2/1 121/2/1 122/2/1
f 128/3/1 125/3/1 124/3/1
f 129/3/1 125/3/1 128/3/1
f 132/3/1 127/3/1 126/3/1
f 133/3/1 127/3/1 132/3/1
f 134/3/1 130/3/1 129/3/1
f 135/3/1 130/3/1 134/3/1
f 140/3/1 132/3/1 131/3/1
f 141/3/1 132/3/1 140/3/1
f 142/2/1 137/2/1 136/2/1
f 143/2/1 137/2/1 142/2/1
f 144/2/1 139/2/1 138/2/1
f 145/2/1 139/2/1 144/2/1
f 151/3/1 147/3/1 146/3/1
f 152/3/1 147/3/1 151/3/1
f 153/2/1 149/2/1 148/2/1
f 154/3/1 150/3/1 149/3/1
f 154/2/1 149/2/1 153/2/1
f 155/3/1 150/3/1 154/3/1
f 156/3/1 150/3/1 155/3/1
f 159/2/1 158/2/1 157/2/1
f 160/2/1 158/2/1 159/2/1
f 163/2/1 162/2/1 161/2/1
f 164/2/1 162/2/1 163/2/1
f 169/3/1 166/3/1 165/3/1
f 170/3/1 166/3/1 169/3/1
f 175/3/1 168/3/1 167/3/1
f 176/3/1 168/3/1 175/3/1
f 177/2/1 172/2/1 171/2/1
f 178/2/1 172/2/1 177/2/1
f 179/2/1 174/2/1 173/2/1
f 180/2/1 174/2/1 179/2/1
f 183/2/1 182/2/1 181/2/1
f 184/2/1 182/2/1 183/2/1
f 187/2/1 186/2/1 185/2/1
f 188/2/1 186/2/1 187/2/1
f 191/2/1 190/2/1 189/2/1
f 192/2/1 190/2/1 191/2/1
f 195/2/1 194/2/1 193/2/1
f 196/2/1 194/2/1 195/2/1
f 197/2/2 198/2/2 199/2/2
f 199/2/2 198/2/2 200/2/2
f 201/2/2 202/2/2 203/2/2
f 203/2/2 202/2/2 204/2/2
f 205/2/2 206/2/2 207/2/2
f 207/2/2 206/2/2 208/2/2
f 209/3/2 210/3/2 214/3/2
f 214/3/2 210/3/2 215/3/2
f 211/2/2 212/2/2 216/2/2
f 212/3/2 213/3/2 217/3/2
f 216/2/2 212/2/2 217/2/2
f 217/3/2 213/3/2 218/3/2
f 218/3/2 213/3/2 219/3/2
f 220/2/2 221/2/2 222/2/2
f 222/2/2 221/2/2 223/2/2
f 224/2/2 225/2/2 226/2/2
f 226/2/2 225/2/2 227/2/2
f 228/3/2 229/3/2 232/3/2
f 232/3/2 229/3/2 233/3/2
f 230/3/2 231/3/2 237/3/2
f 237/3/2 231/3/2 238/3/2
f 233/2/2 234/2/2 239/2/2
f 239/2/2 234/2/2 240/2/2
f 235/2/2 236/2/2 241/2/2
f 241/2/2 236/2/2 242/2/2
f 243/2/2 244/2/2 248/2/2
f 248/2/2 244/2/2 249/2/2
f 245/2/2 246/2/2 250/2/2
f 250/2/2 246/2/2 251/2/2
f 247/3/2 248/3/2 253/3/2
f 253/3/2 248/3/2 254/3/2
f 251/2/2 252/2/2 255/2/2
f 255/2/2 252/2/2 256/2/2
f 256/3/2 257/3/2 258/3/2
f 258/3/2 257/3/2 259/3/2
f 260/2/2 261/2/2 262/2/2
f 262/2/2 261/2/2 263/2/2
f 264/3/2 265/3/2 268/3/2
f 268/3/2 265/3/2 269/3/2
f 266/3/2 267/3/2 272/3/2
f 272/3/2 267/3/2 273/3/2
f 269/3/2 270/3/2 274/3/2
f 274/3/2 270/3/2 275/3/2
f 271/3/2 272/3/2 279/3/2
f 279/3/2 272/3/2 280/3/2
f 275/2/2 276/2/2 281/2/2
f 281/2/2 276/2/2 282/2/2
f 277/2/2 278/2/2 283/2/2
f 283/2/2 278/2/2 284/2/2
f 285/2/2 286/2/2 288/2/2
f 288/2/2 286/2/2 289/2/2
f 289/2/2 286/2/2 290/2/2
f 287/2/2 288/2/2 293/2/2
f 288/2/2 289/2/2 293/2/2
f 293/2/2 289/2/2 294/2/2
f 294/2/2 289/2/2 295/2/2
f 290/2/2 291/2/2 296/2/2
f 296/2/2 291/2/2 297/2/2
f 292/3/2 293/3/2 299/3/2
f 293/2/2 294/2/2 300/2/2
f 299/3/2 293/3/2 300/3/2
f 300/2/2 294/2/2 301/2/2
f 297/2/2 298/2/2 302/2/2
f 302/2/2 298/2/2 303/2/2
f 303/3/2 304/3/2 305/3/2
f 305/3/2 304/3/2 306/3/2
f 307/3/2 308/3/2 311/3/2
f 311/3/2 308/3/2 312/3/2
f 309/3/2 310/3/2 315/3/2
f 315/3/2 310/3/2 316/3/2
f 312/3/2 313/3/2 317/3/2
f 317/3/2 313/3/2 318/3/2
f 314/3/2 315/3/2 321/3/2
f 321/3/2 315/3/2 322/3/2
f 318/3/2 319/3/2 323/3/2
f 323/3/2 319/3/2 324/3/2
f 320/3/2 321/3/2 326/3/2
f 326/3/2 321/3/2 327/3/2
f 324/2/2 325/2/2 328/2/2
f 328/2/2 325/2/2 329/2/2
f 330/2/2 331/2/2 333/2/2
f 333/2/2 331/2/2 334/2/2
f 332/2/2 333/2/2 338/2/2
f 338/2/2 333/2/2 339/2/2
f 334/2/2 335/2/2 340/2/2
f 340/2/2 335/2/2 341/2/2
f 336/3/2 337/3/2 343/3/2
f 337/2/2 338/2/2 343/2/2
f 343/2/2 338/2/2 344/2/2
f 341/2/2 342/2/2 345/2/2
f 345/2/2 342/2/2 346/2/2
f 336/3/2 343/3/2 348/3/2
f 348/3/2 343/3/2 349/3/2
f 346/3/2 347/3/2 352/3/2
f 352/3/2 347/3/2 353/3/2
f 349/3/2 350/3/2 354/3/2
f 354/3/2 350/3/2 355/3/2
f 351/3/2 352/3/2 358/3/2
f 358/3/2 352/3/2 359/3/2
f 355/3/2 356/3/2 360/3/2
f 360/3/2 356/3/2 361/3/2
f 357/3/2 358/3/2 362/3/2
f 362/3/2 358/3/2 363/3/2
f 361/3/2 362/3/2 364/3/2
f 364/3/2 362/3/2 365/3/2
f 366/3/2 367/3/2 369/3/2
f 369/3/2 367/3/2 370/3/2
f 368/3/2 369/3/2 373/3/2
f 370/3/2 371/3/2 373/3/2
f 369/3/2 370/3/2 373/3/2
f 373/3/2 371/3/2 374/3/2
f 372/3/2 373/3/2 376/3/2
f 374/3/2 375/3/2 376/3/2
f 373/3/2 374/3/2 376/3/2
f 376/3/2 375/3/2 377/3/2
f 377/3/2 375/3/2 378/3/2
f 378/3/2 375/3/2 379/3/2
f 377/3/2 378/3/2 380/3/2
f 380/3/2 378/3/2 381/3/2
f 381/3/2 378/3/2 382/3/2
f 382/3/2 378/3/2 383/3/2
f 381/3/2 382/3/2 384/3/2
f 384/3/2 382/3/2 385/3/2
f 389/3/3 387/3/3 386/3/3
f 390/3/3 387/3/3 389/3/3
f 393/3/3 389/3/3 388/3/3
f 393/3/3 391/3/3 390/3/3
f 393/3/3 390/3/3 389/3/3
f 394/3/3 391/3/3 393/3/3
f 397/3/3 393/3/3 392/3/3
f 397/3/3 395/3/3 394/3/3
f 397/3/3 394/3/3 393/3/3
f 398/3/3 395/3/3 397/3/3
f 400/3/3 397/3/3 396/3/3
f 400/3/3 399/3/3 398/3/3
f 400/3/3 398/3/3 397/3/3
f 401/3/3 399/3/3 400/3/3
f 402/3/3 399/3/3 401/3/3
f 403/3/3 399/3/3 402/3/3
f 404/3/3 402/3/3 401/3/3
f 405/3/3 402/3/3 404/3/3
f 406/3/3 402/3/3 405/3/3
f 407/3/3 402/3/3 406/3/3
f 408/3/3 406/3/3 405/3/3
f 409/3/3 406/3/3 408/3/3
f 410/3/3 406/3/3 409/3/3
f 411/3/3 406/3/3 410/3/3
f 412/3/3 410/3/3 409/3/3
f 413/3/3 410/3/3 412/3/3
f 416/3/3 415/3/3 414/3/3
f 417/3/3 415/3/3 416/3/3
f 421/3/3 418/3/3 417/3/3
f 422/3/3 418/3/3 421/3/3
f 425/2/3 420/2/3 419/2/3
f 426/2/3 420/2/3 425/2/3
f 427/3/3 423/3/3 422/3/3
f 428/3/3 423/3/3 427/3/3
f 430/2/3 425/2/3 424/2/3
f 431/2/3 425/2/3 430/2/3
f 432/3/3 429/3/3 428/3/3
f 433/3/3 429/3/3 432/3/3
f 439/2/3 435/2/3 434/2/3
f 440/2/3 435/2/3 439/2/3
f 441/2/3 437/2/3 436/2/3
f 442/2/3 437/2/3 441/2/3
f 445/3/3 439/3/3 438/3/3
f 446/3/3 439/3/3 445/3/3
f 447/2/3 443/2/3 442/2/3
f 448/2/3 443/2/3 447/2/3
f 450/3/3 445/3/3 444/3/3
f 451/3/3 445/3/3 450/3/3
f 453/3/3 450/3/3 449/3/3
f 454/3/3 450/3/3 453/3/3
f 455/3/3 453/3/3 452/3/3
f 456/3/3 453/3/3 455/3/3
f 462/3/3 458/3/3 457/3/3
f 463/3/3 458/3/3 462/3/3
f 464/3/3 460/3/3 459/3/3
f 465/3/3 460/3/3 464/3/3
f 469/2/3 462/2/3 461/2/3
f 470/2/3 462/2/3 469/2/3
f 471/3/3 466/3/3 465/3/3
f 472/3/3 466/3/3 471/3/3
f 474/2/3 468/2/3 467/2/3
f 475/2/3 468/2/3 474/2/3
f 476/3/3 473/3/3 472/3/3
f 477/3/3 473/3/3 476/3/3
f 480/2/3 479/2/3 478/2/3
f 481/2/3 479/2/3 480/2/3
f 487/2/3 483/2/3 482/2/3
f 488/2/3 483/2/3 487/2/3
f 489/2/3 485/2/3 484/2/3
f 490/2/3 485/2/3 489/2/3
f 494/3/3 487/3/3 486/3/3
f 495/3/3 487/3/3 494/3/3
f 496/2/3 492/2/3 491/2/3
f 497/2/3 492/2/3 496/2/3
f 500/3/3 494/3/3 493/3/3
f 501/3/3 494/3/3 500/3/3
f 502/3/3 498/3/3 497/3/3
f 503/3/3 498/3/3 502/3/3
f 504/3/3 500/3/3 499/3/3
f 505/3/3 500/3/3 504/3/3
f 511/3/3 507/3/3 506/3/3
f 512/3/3 507/3/3 511/3/3
f 513/3/3 509/3/3 508/3/3
f 514/3/3 509/3/3 513/3/3
f 516/2/3 511/2/3 510/2/3
f 517/2/3 511/2/3 516/2/3
f 518/3/3 515/3/3 514/3/3
f 519/3/3 515/3/3 518/3/3
f 522/2/3 521/2/3 520/2/3
f 523/2/3 521/2/3 522/2/3
f 529/2/3 525/2/3 524/2/3
f 530/2/3 525/2/3 529/2/3
f 531/2/3 527/2/3 526/2/3
f 532/2/3 527/2/3 531/2/3
f 535/3/3 529/3/3 528/3/3
f 536/3/3 529/3/3 535/3/3
f 537/3/3 533/3/3 532/3/3
f 538/3/3 533/3/3 537/3/3
f 539/3/3 535/3/3 534/3/3
f 540/3/3 535/3/3 539/3/3
f 543/2/3 542/2/3 541/2/3
f 544/2/3 542/2/3 543/2/3
f 547/2/3 546/2/3 545/2/3
f 548/2/3 546/2/3 547/2/3
f 549/2/4 550/2/4 551/2/4
f 551/2/4 550/2/4 552/2/4
f 553/2/4 554/2/4 555/2/4
f 555/2/4 554/2/4 556/2/4
f 557/2/4 558/2/4 559/2/4
f 559/2/4 558/2/4 560/2/4
f 561/2/4 562/2/4 563/2/4
f 563/2/4 562/2/4 564/2/4
f 565/3/4 566/3/4 570/3/4
f 570/3/4 566/3/4 571/3/4
f 567/3/4 568/3/4 572/3/4
f 572/3/4 568/3/4 573/3/4
f 569/2/4 570/2/4 576/2/4
f 576/2/4 570/2/4 577/2/4
f 573/3/4 574/3/4 578/3/4
f 578/3/4 574/3/4 579/3/4
f 575/2/4 576/2/4 580/2/4
f 580/2/4 576/2/4 581/2/4
f 582/2/4 583/2/4 584/2/4
f 584/2/4 583/2/4 585/2/4
f 586/2/4 587/2/4 588/2/4
f 588/2/4 587/2/4 589/2/4
f 589/2/4 590/2/4 593/2/4
f 593/2/4 590/2/4 594/2/4
f 591/3/4 592/3/4 597/3/4
f 597/3/4 592/3/4 598/3/4
f 594/3/4 595/3/4 599/3/4
f 599/3/4 595/3/4 600/3/4
f 596/3/4 597/3/4 601/3/4
f 601/3/4 597/3/4 602/3/4
f 603/3/4 604/3/4 608/3/4
f 608/3/4 604/3/4 609/3/4
f 605/3/4 606/3/4 610/3/4
f 610/3/4 606/3/4 611/3/4
f 607/2/4 608/2/4 614/2/4
f 614/2/4 608/2/4 615/2/4
f 611/3/4 612/3/4 616/3/4
f 616/3/4 612/3/4 617/3/4
f 613/2/4 614/2/4 620/2/4
f 620/2/4 614/2/4 621/2/4
f 617/3/4 618/3/4 622/3/4
f 622/3/4 618/3/4 623/3/4
f 619/2/4 620/2/4 624/2/4
f 624/2/4 620/2/4 625/2/4
f 626/2/4 627/2/4 630/2/4
f 630/2/4 627/2/4 631/2/4
f 628/2/4 629/2/4 632/2/4
f 632/2/4 629/2/4 633/2/4
f 633/2/4 634/2/4 637/2/4
f 637/2/4 634/2/4 638/2/4
f 635/3/4 636/3/4 641/3/4
f 641/3/4 636/3/4 642/3/4
f 638/2/4 639/2/4 643/2/4
f 643/2/4 639/2/4 644/2/4
f 640/3/4 641/3/4 647/3/4
f 647/3/4 641/3/4 648/3/4
f 644/3/4 645/3/4 649/3/4
f 649/3/4 645/3/4 650/3/4
f 646/3/4 647/3/4 651/3/4
f 651/3/4 647/3/4 652/3/4
f 653/3/4 654/3/4 656/3/4
f 656/3/4 654/3/4 657/3/4
f 655/2/4 656/2/4 660/2/4
f 660/2/4 656/2/4 661/2/4
f 657/3/4 658/3/4 662/3/4
f 662/3/4 658/3/4 663/3/4
f 659/2/4 660/2/4 666/2/4
f 666/2/4 660/2/4 667/2/4
f 663/3/4 664/3/4 668/3/4
f 668/3/4 664/3/4 669/3/4
f 665/2/4 666/2/4 671/2/4
f 671/2/4 666/2/4 672/2/4
f 669/3/4 670/3/4 673/3/4
f 673/3/4 670/3/4 674/3/4
f 675/2/4 676/2/4 679/2/4
f 679/2/4 676/2/4 680/2/4
f 677/3/4 678/3/4 683/3/4
f 683/3/4 678/3/4 684/3/4
f 680/2/4 681/2/4 685/2/4
f 685/2/4 681/2/4 686/2/4
f 682/3/4 683/3/4 689/3/4
f 689/3/4 683/3/4 690/3/4
f 686/2/4 687/2/4 691/2/4
f 691/2/4 687/2/4 692/2/4
f 688/3/4 689/3/4 693/3/4
f 693/3/4 689/3/4 694/3/4
f 692/3/4 693/3/4 695/3/4
f 695/3/4 693/3/4 696/3/4
f 697/3/4 698/3/4 700/3/4
f 700/3/4 698/3/4 701/3/4
f 699/3/4 700/3/4 704/3/4
f 701/3/4 702/3/4 704/3/4
f 700/3/4 701/3/4 704/3/4
f 704/3/4 702/3/4 705/3/4
f 705/3/4 702/3/4 706/3/4
f 706/3/4 702/3/4 707/3/4
f 703/3/4 704/3/4 710/3/4
f 704/3/4 705/3/4 710/3/4
f 710/3/4 705/3/4 711/3/4
f 711/3/4 705/3/4 712/3/4
f 706/3/4 707/3/4 713/3/4
f 707/3/4 708/3/4 713/3/4
f 713/3/4 708/3/4 714/3/4
f 714/3/4 708/3/4 715/3/4
f 710/3/4 711/3/4 717/3/4
f 709/3/4 710/3/4 717/3/4
f 717/3/4 711/3/4 718/3/4
f 715/3/4 716/3/4 719/3/4
f 714/3/4 715/3/4 719/3/4
f 719/3/4 716/3/4 720/3/4
f 709/3/4 717/3/4 721/3/4
f 720/3/4 716/3/4 724/3/4
f 721/3/4 722/3/4 725/3/4
f 709/3/4 721/3/4 725/3/4
f 725/3/4 722/3/4 726/3/4
f 726/3/4 722/3/4 727/3/4
f 723/3/4 724/3/4 730/3/4
f 724/3/4 716/3/4 731/3/4
f 730/3/4 724/3/4 731/3/4
f 731/3/4 716/3/4 732/3/4
f 727/3/4 728/3/4 733/3/4
f 726/3/4 727/3/4 733/3/4
f 733/3/4 728/3/4 734/3/4
f 734/3/4 728/3/4 735/3/4
f 729/3/4 730/3/4 736/3/4
f 730/3/4 731/3/4 736/3/4
f 736/3/4 731/3/4 737/3/4
f 737/3/4 731/3/4 738/3/4
f 734/3/4 735/3/4 739/3/4
f 736/3/4 737/3/4 739/3/4
f 735/3/4 736/3/4 739/3/4
f 739/3/4 737/3/4 740/3/4
f 740/3/4 737/3/4 741/3/4
f 741/3/4 737/3/4 742/3/4
f 740/3/4 741/3/4 743/3/4
f 743/3/4 741/3/4 744/3/4
f 745/2/4 746/2/4 748/2/4
f 748/2/4 746/2/4 749/2/4
f 749/2/4 746/2/4 750/2/4
f 750/2/4 746/2/4 751/2/4
f 751/2/4 746/2/4 752/2/4
f 747/2/4 748/2/4 755/2/4
f 748/5/4 749/5/4 756/5/4
f 755/2/4 748/2/4 756/2/4
f 749/1/4 750/1/4 757/1/4
f 756/5/4 749/5/4 757/5/4
f 750/4/4 751/4/4 758/4/4
f 757/1/4 750/1/4 758/1/4
f 751/5/4 752/5/4 759/5/4
f 758/4/4 751/4/4 759/4/4
f 752/2/4 753/2/4 760/2/4
f 759/5/4 752/5/4 760/5/4
f 760/2/4 753/2/4 761/2/4
f 754/2/4 755/2/4 763/2/4
f 755/5/4 756/5/4 764/5/4
f 763/2/4 755/2/4 764/2/4
f 756/1/4 757/1/4 765/1/4
f 764/5/4 756/5/4 765/5/4
f 757/4/4 758/4/4 766/4/4
f 765/1/4 757/1/4 766/1/4
f 758/1/4 759/1/4 767/1/4
f 766/4/4 758/4/4 767/4/4
f 759/4/4 760/4/4 768/4/4
f 767/1/4 759/1/4 768/1/4
f 760/1/4 761/1/4 769/1/4
f 768/4/4 760/4/4 769/4/4
f 761/2/4 762/2/4 770/2/4
f 769/1/4 761/1/4 770/1/4
f 770/2/4 762/2/4 771/2/4
f 764/2/4 765/2/4 772/2/4
f 765/5/4 766/5/4 773/5/4
f 772/2/4 765/2/4 773/2/4
f 766/1/4 767/1/4 774/1/4
f 773/5/4 766/5/4 774/5/4
f 767/4/4 768/4/4 775/4/4
f 774/1/4 767/1/4 775/1/4
f 768/5/4 769/5/4 776/5/4
f 775/4/4 768/4/4 776/4/4
f 769/2/4 770/2/4 777/2/4
f 776/5/4 769/5/4 777/5/4
f 777/2/4 770/2/4 778/2/4
f 774/2/4 775/2/4 779/2/4
f 775/2/4 776/2/4 779/2/4
f 776/2/4 777/2/4 779/2/4
f 773/2/4 774/2/4 779/2/4
f 779/2/4 777/2/4 780/2/4
f 784/3/5 782/3/5 781/3/5
f 785/3/5 782/3/5 784/3/5
f 788/2/5 784/2/5 783/2/5
f 788/2/5 786/2/5 785/2/5
f 788/2/5 785/2/5 784/2/5
f 789/2/5 786/2/5 788/2/5
f 791/2/5 788/2/5 787/2/5
f 791/2/5 790/2/5 789/2/5
f 791/2/5 789/2/5 788/2/5
f 792/2/5 790/2/5 791/2/5
f 793/2/5 790/2/5 792/2/5
f 794/2/5 790/2/5 793/2/5
f 795/2/5 793/2/5 792/2/5
f 796/2/5 793/2/5 795/2/5
f 797/2/5 793/2/5 796/2/5
f 798/2/5 793/2/5 797/2/5
f 799/2/5 797/2/5 796/2/5
f 800/2/5 797/2/5 799/2/5
f 801/3/5 800/3/5 799/3/5
f 802/3/5 800/3/5 801/3/5
f 808/3/5 804/3/5 803/3/5
f 809/3/5 804/3/5 808/3/5
f 810/3/5 806/3/5 805/3/5
f 811/3/5 806/3/5 810/3/5
f 813/2/5 808/2/5 807/2/5
f 814/2/5 808/2/5 813/2/5
f 815/2/5 812/2/5 811/2/5
f 816/2/5 812/2/5 815/2/5
f 821/2/5 818/2/5 817/2/5
f 822/2/5 818/2/5 821/2/5
f 825/2/5 820/2/5 819/2/5
f 826/2/5 820/2/5 825/2/5
f 827/2/5 823/2/5 822/2/5
f 828/2/5 823/2/5 827/2/5
f 831/2/5 825/2/5 824/2/5
f 832/2/5 825/2/5 831/2/5
f 833/2/5 829/2/5 828/2/5
f 834/2/5 829/2/5 833/2/5
f 835/2/5 831/2/5 830/2/5
f 836/2/5 831/2/5 835/2/5
f 841/3/5 838/3/5 837/3/5
f 842/3/5 838/3/5 841/3/5
f 843/3/5 840/3/5 839/3/5
f 844/3/5 840/3/5 843/3/5
f 850/2/5 846/2/5 845/2/5
f 851/2/5 846/2/5 850/2/5
f 852/2/5 848/2/5 847/2/5
f 853/2/5 848/2/5 852/2/5
f 855/3/5 850/3/5 849/3/5
f 856/3/5 850/3/5 855/3/5
f 859/3/5 854/3/5 853/3/5
f 860/3/5 854/3/5 859/3/5
f 861/2/5 857/2/5 856/2/5
f 862/2/5 857/2/5 861/2/5
f 865/2/5 859/2/5 858/2/5
f 866/2/5 859/2/5 865/2/5
f 867/2/5 863/2/5 862/2/5
f 868/2/5 863/2/5 867/2/5
f 871/2/5 865/2/5 864/2/5
f 872/2/5 865/2/5 871/2/5
f 873/3/5 869/3/5 868/3/5
f 874/3/5 869/3/5 873/3/5
f 875/3/5 871/3/5 870/3/5
f 876/3/5 871/3/5 875/3/5
f 881/3/5 878/3/5 877/3/5
f 882/3/5 878/3/5 881/3/5
f 883/3/5 880/3/5 879/3/5
f 884/3/5 880/3/5 883/3/5
f 886/2/5 882/2/5 881/2/5
f 887/2/5 882/2/5 886/2/5
f 888/2/5 884/2/5 883/2/5
f 889/2/5 884/2/5 888/2/5
f 891/3/5 886/3/5 885/3/5
f 892/3/5 886/3/5 891/3/5
f 893/3/5 890/3/5 889/3/5
f 894/3/5 890/3/5 893/3/5
f 899/3/5 896/3/5 895/3/5
f 900/3/5 896/3/5 899/3/5
f 903/3/5 898/3/5 897/3/5
f 904/3/5 898/3/5 903/3/5
f 905/2/5 901/2/5 900/2/5
f 906/2/5 901/2/5 905/2/5
f 909/2/5 903/2/5 902/2/5
f 910/2/5 903/2/5 909/2/5
f 911/3/5 907/3/5 906/3/5
f 912/3/5 907/3/5 911/3/5
f 915/3/5 909/3/5 908/3/5
f 916/3/5 909/3/5 915/3/5
f 917/2/5 914/2/5 913/2/5
f 918/2/5 914/2/5 917/2/5
f 923/3/5 920/3/5 919/3/5
f 924/3/5 920/3/5 923/3/5
f 925/3/5 922/3/5 921/3/5
f 926/3/5 922/3/5 925/3/5
f 931/3/5 928/3/5 927/3/5
f 932/3/5 928/3/5 931/3/5
f 935/3/5 930/3/5 929/3/5
f 936/3/5 930/3/5 935/3/5
f 937/3/5 933/3/5 932/3/5
f 938/3/5 933/3/5 937/3/5
f 943/3/5 935/3/5 934/3/5
f 944/3/5 935/3/5 943/3/5
f 945/2/5 940/2/5 939/2/5
f 946/2/5 940/2/5 945/2/5
f 947/2/5 942/2/5 941/2/5
f 948/2/5 942/2/5 947/2/5
f 953/2/5 950/2/5 949/2/5
f 954/2/5 950/2/5 953/2/5
f 955/2/5 952/2/5 951/2/5
f 956/2/5 952/2/5 955/2/5
f 957/2/6 958/2/6 961/2/6
f 961/2/6 958/2/6 962/2/6
f 959/2/6 960/2/6 963/2/6
f 963/2/6 960/2/6 964/2/6
f 965/3/6 966/3/6 970/3/6
f 970/3/6 966/3/6 971/3/6
f 967/3/6 968/3/6 972/3/6
f 972/3/6 968/3/6 973/3/6
f 969/3/6 970/3/6 975/3/6
f 975/3/6 970/3/6 976/3/6
f 973/3/6 974/3/6 977/3/6
f 977/3/6 974/3/6 978/3/6
f 979/3/6 980/3/6 983/3/6
f 983/3/6 980/3/6 984/3/6
f 981/3/6 982/3/6 987/3/6
f 987/3/6 982/3/6 988/3/6
f 984/3/6 985/3/6 989/3/6
f 989/3/6 985/3/6 990/3/6
f 986/3/6 987/3/6 995/3/6
f 995/3/6 987/3/6 996/3/6
f 991/2/6 992/2/6 997/2/6
f 997/2/6 992/2/6 998/2/6
f 993/2/6 994/2/6 999/2/6
f 999/2/6 994/2/6 1000/2/6
f 1001/3/6 1002/3/6 1006/3/6
f 1006/3/6 1002/3/6 1007/3/6
f 1003/3/6 1004/3/6 1008/3/6
f 1008/3/6 1004/3/6 1009/3/6
f 1005/3/6 1006/3/6 1012/3/6
f 1012/3/6 1006/3/6 1013/3/6
f 1009/3/6 1010/3/6 1014/3/6
f 1014/3/6 1010/3/6 1015/3/6
f 1011/3/6 1012/3/6 1017/3/6
f 1017/3/6 1012/3/6 1018/3/6
f 1015/3/6 1016/3/6 1019/3/6
f 1019/3/6 1016/3/6 1020/3/6
f 1021/3/6 1022/3/6 1025/3/6
f 1025/3/6 1022/3/6 1026/3/6
f 1023/3/6 1024/3/6 1029/3/6
f 1029/3/6 1024/3/6 1030/3/6
f 1026/3/6 1027/3/6 1031/3/6
f 1031/3/6 1027/3/6 1032/3/6
f 1028/3/6 1029/3/6 1035/3/6
f 1035/3/6 1029/3/6 1036/3/6
f 1032/3/6 1033/3/6 1037/3/6
f 1037/3/6 1033/3/6 1038/3/6
f 1034/3/6 1035/3/6 1041/3/6
f 1041/3/6 1035/3/6 1042/3/6
f 1039/2/6 1040/2/6 1043/2/6
f 1043/2/6 1040/2/6 1044/2/6
f 1045/3/6 1046/3/6 1050/3/6
f 1050/3/6 1046/3/6 1051/3/6
f 1047/3/6 1048/3/6 1052/3/6
f 1052/3/6 1048/3/6 1053/3/6
f 1049/3/6 1050/3/6 1056/3/6
f 1056/3/6 1050/3/6 1057/3/6
f 1053/3/6 1054/3/6 1058/3/6
f 1058/3/6 1054/3/6 1059/3/6
f 1055/3/6 1056/3/6 1062/3/6
f 1062/3/6 1056/3/6 1063/3/6
f 1059/3/6 1060/3/6 1064/3/6
f 1064/3/6 1060/3/6 1065/3/6
f 1061/3/6 1062/3/6 1067/3/6
f 1067/3/6 1062/3/6 1068/3/6
f 1065/3/6 1066/3/6 1071/3/6
f 1071/3/6 1066/3/6 1072/3/6
f 1068/3/6 1069/3/6 1073/3/6
f 1073/3/6 1069/3/6 1074/3/6
f 1070/3/6 1071/3/6 1077/3/6
f 1077/3/6 1071/3/6 1078/3/6
f 1074/3/6 1075/3/6 1079/3/6
f 1079/3/6 1075/3/6 1080/3/6
f 1076/3/6 1077/3/6 1083/3/6
f 1083/3/6 1077/3/6 1084/3/6
f 1080/3/6 1081/3/6 1085/3/6
f 1085/3/6 1081/3/6 1086/3/6
f 1082/3/6 1083/3/6 1087/3/6
f 1087/3/6 1083/3/6 1088/3/6
f 1089/3/6 1090/3/6 1092/3/6
f 1092/3/6 1090/3/6 1093/3/6
f 1093/3/6 1090/3/6 1094/3/6
f 1091/3/6 1092/3/6 1097/3/6
f 1092/2/6 1093/2/6 1098/2/6
f 1097/3/6 1092/3/6 1098/3/6
f 1098/2/6 1093/2/6 1099/2/6
f 1094/3/6 1095/3/6 1100/3/6
f 1100/3/6 1095/3/6 1101/3/6
f 1096/3/6 1097/3/6 1104/3/6
f 1097/2/6 1098/2/6 1105/2/6
f 1104/3/6 1097/3/6 1105/3/6
f 1105/2/6 1098/2/6 1106/2/6
f 1101/3/6 1102/3/6 1107/3/6
f 1107/3/6 1102/3/6 1108/3/6
f 1103/3/6 1104/3/6 1110/3/6
f 1104/2/6 1105/2/6 1110/2/6
f 1110/2/6 1105/2/6 1111/2/6
f 1112/2/6 1113/2/6 1114/2/6
f 1114/2/6 1113/2/6 1115/2/6
f 1108/3/6 1109/3/6 1117/3/6
f 1103/3/6 1110/3/6 1118/3/6
f 1116/2/6 1117/2/6 1121/2/6
f 1103/3/6 1118/3/6 1122/3/6
f 1118/2/6 1119/2/6 1123/2/6
f 1122/3/6 1118/3/6 1123/3/6
f 1123/2/6 1119/2/6 1124/2/6
f 1120/2/6 1121/2/6 1126/2/6
f 1121/2/6 1117/2/6 1126/2/6
f 1117/3/6 1109/3/6 1127/3/6
f 1126/2/6 1117/2/6 1127/2/6
f 1127/3/6 1109/3/6 1128/3/6
f 1123/3/6 1124/3/6 1129/3/6
f 1124/2/6 1125/2/6 1130/2/6
f 1129/3/6 1124/3/6 1130/3/6
f 1130/2/6 1125/2/6 1131/2/6
f 1120/2/6 1126/2/6 1132/2/6
f 1126/3/6 1127/3/6 1133/3/6
f 1132/2/6 1126/2/6 1133/2/6
f 1133/3/6 1127/3/6 1134/3/6
f 1130/3/6 1131/3/6 1135/3/6
f 1131/2/6 1132/2/6 1136/2/6
f 1135/3/6 1131/3/6 1136/3/6
f 1132/3/6 1133/3/6 1137/3/6
f 1136/2/6 1132/2/6 1137/2/6
f 1137/3/6 1133/3/6 1138/3/6
f 1136/3/6 1137/3/6 1139/3/6
f 1139/3/6 1137/3/6 1140/3/6
f 1141/2/6 1142/2/6 1144/2/6
f 1144/2/6 1142/2/6 1145/2/6
f 1143/2/6 1144/2/6 1148/2/6
f 1145/2/6 1146/2/6 1148/2/6
f 1144/2/6 1145/2/6 1148/2/6
f 1148/2/6 1146/2/6 1149/2/6
f 1147/2/6 1148/2/6 1152/2/6
f 1149/2/6 1150/2/6 1152/2/6
f 1148/2/6 1149/2/6 1152/2/6
f 1152/2/6 1150/2/6 1153/2/6
f 1153/2/6 1150/2/6 1154/2/6
f 1151/2/6 1152/2/6 1155/2/6
f 1152/2/6 1153/2/6 1155/2/6
f 1154/2/6 1150/2/6 1156/2/6
f 1156/2/6 1150/2/6 1157/2/6
f 1157/2/6 1150/2/6 1158/2/6
f 1151/2/6 1155/2/6 1159/2/6
f 1155/2/6 1156/2/6 1159/2/6
f 1156/2/6 1157/2/6 1159/2/6
f 1159/2/6 1157/2/6 1160/2/6
f 1160/2/6 1157/2/6 1161/2/6
f 1161/2/6 1157/2/6 1162/2/6
f 1160/2/6 1161/2/6 1163/2/6
f 1163/2/6 1161/2/6 1164/2/6
f 1164/2/6 1161/2/6 1165/2/6
f 1165/2/6 1161/2/6 1166/2/6
