# MagicaVoxel @ Ephtracy

# group
o 

# material
mtllib escenario ductos.mtl
usemtl palette

# normals
vn -1 0 0
vn 1 0 0
vn 0 0 1
vn 0 0 -1
vn 0 -1 0
vn 0 1 0

# texcoords
vt 0.00585938 0.5
vt 0.251953 0.5
vt 0.634766 0.5
vt 0.728516 0.5
vt 0.751953 0.5
vt 0.775391 0.5
vt 0.857422 0.5
vt 0.861328 0.5
vt 0.876953 0.5
vt 0.904297 0.5
vt 0.908203 0.5
vt 0.912109 0.5
vt 0.916016 0.5
vt 0.970703 0.5
vt 0.974609 0.5
vt 0.978516 0.5
vt 0.982422 0.5
vt 0.986328 0.5
vt 0.990234 0.5

# verts
v -4 -2 4
v -4 -2 -4
v -4 -1.3 4
v -4 -1.3 -0.8
v -4 -1.2 4
v -4 -1.2 -0.8
v -4 -1.2 -3.5
v -4 -1.2 -4
v -4 -0.4 -3.5
v -4 -0.4 -4
v -4 6 4
v -4 6 -4
v -3.3 -0.4 -3.4
v -3.3 -0.4 -3.9
v -3.3 0.4 -3.3
v -3.3 0.4 -3.4
v -3.3 0.6 -3.3
v -3.3 0.6 -3.4
v -3.3 2.2 -3.4
v -3.3 2.2 -3.9
v -3.2 0.4 -3.2
v -3.2 0.4 -3.3
v -3.2 0.6 -3.2
v -3.2 0.6 -3.3
v -2.3 -0.4 -2.1
v -2.3 -0.4 -2.4
v -2.3 -0.4 -2.5
v -2.3 -0.4 -3.9
v -2.3 -0.3 -2.1
v -2.3 -0.3 -2.4
v -2.3 -0.3 -2.5
v -2.3 -0.3 -3.9
v -2 0.3 -3.7
v -2 0.3 -3.9
v -2 4.8 -3.7
v -2 4.8 -3.9
v -1.7 0.6 -3.7
v -1.7 0.6 -3.9
v -1.7 5.1 -3.7
v -1.7 5.1 -3.9
v -1.6 -0.4 -3.7
v -1.6 -0.4 -3.9
v -1.6 0.3 -3.7
v -1.6 0.3 -3.9
v -1.5 -0.4 -2.2
v -1.5 -0.4 -2.4
v -1.5 -0.3 -2.2
v -1.5 -0.3 -2.4
v -1.4 0.9 -3.7
v -1.4 0.9 -3.9
v -1.4 5.4 -3.7
v -1.4 5.4 -3.9
v -1.3 -0.4 -3.7
v -1.3 -0.4 -3.8
v -1.3 -0.4 -3.9
v -1.3 -0.3 -3.8
v -1.3 -0.3 -3.9
v -1.3 0.6 -3.7
v -1.3 0.6 -3.9
v -1.1 -0.4 -1.7
v -1.1 -0.4 -1.8
v -1.1 -0.3 -1.8
v -1.1 -0.3 -1.9
v -1.1 -0.2 -1.7
v -1.1 -0.2 -1.9
v -1 -0.4 -3.7
v -1 -0.4 -3.8
v -1 -0.4 -3.9
v -1 -0.3 -3.8
v -1 -0.3 -3.9
v -1 0.9 -3.7
v -1 0.9 -3.9
v 0.2 -0.4 -2.9
v 0.2 -0.4 -3
v 0.2 -0.4 -3.1
v 0.2 -0.4 -3.2
v 0.2 -0.4 -3.3
v 0.2 -0.4 -3.9
v 0.2 -0.2 -3.5
v 0.2 -0.2 -3.6
v 0.2 -0.2 -3.7
v 0.2 -0.2 -3.8
v 0.2 -0.0999999 -3
v 0.2 -0.0999999 -3.1
v 0.2 -0.0999999 -3.2
v 0.2 -0.0999999 -3.3
v 0.2 2.38419e-07 -3.5
v 0.2 2.38419e-07 -3.6
v 0.2 2.38419e-07 -3.7
v 0.2 0.1 -3.6
v 0.2 0.1 -3.8
v 0.2 0.3 -2.9
v 0.2 0.3 -3.9
v 0.3 0.3 -3.6
v 0.3 0.3 -3.9
v 0.3 0.5 -3.6
v 0.3 0.5 -3.9
v 0.4 -0.4 -2.3
v 0.4 -0.4 -2.9
v 0.4 -0.3 -2.3
v 0.4 -0.3 -2.9
v 0.4 0.5 -3.7
v 0.4 0.5 -3.9
v 0.4 4 -3.7
v 0.4 4 -3.9
v 0.6 -0.4 -1.9
v 0.6 -0.4 -3
v 0.6 -0.3 -1.9
v 0.6 -0.3 -3
v 0.7 -0.3 -2.9
v 0.7 -0.3 -3
v 0.7 -0.2 -2.9
v 0.7 -0.2 -3
v 0.7 2.38419e-07 -2.9
v 0.7 2.38419e-07 -3
v 0.7 0.2 -2.9
v 0.7 0.2 -3
v 0.7 0.3 -3.6
v 0.7 0.3 -3.9
v 0.7 0.5 -3.6
v 0.7 0.5 -3.7
v 0.7 3.5 -3.7
v 0.7 3.5 -3.9
v 1.3 -0.4 -3
v 1.3 -0.4 -3.7
v 1.3 -0.0999999 -3
v 1.3 -0.0999999 -3.7
v 1.4 -0.2 -3.7
v 1.4 -0.2 -3.9
v 1.4 -0.0999999 -3.6
v 1.4 -0.0999999 -3.7
v 1.4 0.1 -3.6
v 1.4 0.1 -3.7
v 1.4 3.4 -3.7
v 1.4 3.4 -3.9
v 1.4 3.5 -3.7
v 1.4 3.5 -3.9
v 1.4 3.9 -3.7
v 1.4 3.9 -3.9
v 1.4 4 -3.7
v 1.4 4 -3.9
v 1.4 6 -3.7
v 1.4 6 -3.9
v 1.6 -1 4
v 1.6 -1 -0.8
v 1.6 -0.4 4
v 1.6 -0.4 -0.8
v 1.7 -0.4 0.7
v 1.7 -0.4 0.5
v 1.7 -0.4 0.3
v 1.7 -0.4 0.0999999
v 1.7 -0.3 0.5
v 1.7 -0.3 0.3
v 1.7 -0.2 0.5
v 1.7 -0.2 0.3
v 1.7 -0.0999999 0.6
v 1.7 -0.0999999 0.5
v 1.7 -0.0999999 0.3
v 1.7 -0.0999999 0.2
v 1.7 2.38419e-07 0.6
v 1.7 2.38419e-07 0.5
v 1.7 2.38419e-07 0.3
v 1.7 2.38419e-07 0.2
v 1.7 0.1 0.5
v 1.7 0.1 0.3
v 1.7 0.2 0.7
v 1.7 0.2 0.0999999
v 2.1 -0.4 0.7
v 2.1 -0.4 0.5
v 2.1 -0.4 0.3
v 2.1 -0.4 0.0999999
v 2.1 -0.3 0.7
v 2.1 -0.3 0.5
v 2.1 -0.3 0.3
v 2.1 -0.3 0.0999999
v 2.8 -0.4 -1.9
v 2.8 -0.4 -3.2
v 2.8 -0.3 -1.9
v 2.8 -0.3 -3.2
v 2.9 -0.4 -1.7
v 2.9 -0.4 -1.9
v 2.9 -0.3 -1.7
v 2.9 -0.3 -1.9
v 3 -0.4 -3.2
v 3 -0.4 -3.4
v 3 -0.4 -3.7
v 3 -0.4 -3.8
v 3 -0.3 -3.2
v 3 -0.3 -3.4
v 3 -0.3 -3.7
v 3 -0.3 -3.8
v 3.4 -0.4 1.8
v 3.4 -0.4 1.7
v 3.4 -0.4 -2.4
v 3.4 -0.4 -2.6
v 3.4 0.6 1.8
v 3.4 0.6 1.7
v 3.4 4.2 -2.4
v 3.4 4.2 -2.6
v 3.7 0.3 3.5
v 3.7 0.3 3.1
v 3.7 0.4 3.1
v 3.7 0.4 2.8
v 3.7 0.5 3.5
v 3.7 0.5 3.4
v 3.7 0.5 3.2
v 3.7 0.5 3
v 3.7 0.7 3.5
v 3.7 0.7 3.4
v 3.7 0.7 3.2
v 3.7 0.7 3
v 3.7 0.8 3.5
v 3.7 0.8 2.8
v 3.8 -0.4 3.4
v 3.8 -0.4 3.1
v 3.8 0.3 3.4
v 3.8 0.3 3.1
v 3.8 0.8 3.4
v 3.8 0.8 3.1
v 3.8 2.4 4
v 3.8 2.4 3.4
v 3.8 2.6 4
v 3.8 2.6 3.4
v 3.8 4.1 3.4
v 3.8 4.1 3.1
v 3.9 -0.4 4
v 3.9 -0.4 3.4
v 3.9 -0.4 3.1
v 3.9 -0.4 2.4
v 3.9 -0.4 1.8
v 3.9 -0.4 1.7
v 3.9 -0.4 -1.7
v 3.9 -0.4 -1.9
v 3.9 -0.4 -3.9
v 3.9 -0.3 -1.7
v 3.9 -0.3 -1.9
v 3.9 -0.0999999 2.4
v 3.9 -0.0999999 1.8
v 3.9 0.3 3.5
v 3.9 0.3 3.4
v 3.9 0.4 3.1
v 3.9 0.4 2.8
v 3.9 0.6 2.4
v 3.9 0.6 1.8
v 3.9 0.6 1.7
v 3.9 0.8 3.5
v 3.9 0.8 3.4
v 3.9 0.8 3.1
v 3.9 0.8 2.8
v 3.9 2.4 4
v 3.9 2.4 3.4
v 3.9 2.6 4
v 3.9 2.6 3.4
v 3.9 3.4 -3.7
v 3.9 3.4 -3.9
v 3.9 3.5 -3.7
v 3.9 3.5 -3.9
v 3.9 3.9 -3.7
v 3.9 3.9 -3.9
v 3.9 4 -2.4
v 3.9 4 -2.6
v 3.9 4 -3.7
v 3.9 4 -3.9
v 3.9 4.1 3.4
v 3.9 4.1 3.1
v 3.9 4.2 -2.4
v 3.9 4.2 -2.6
v 3.9 6 4
v 3.9 6 -3.9
v -3.9 -1 4
v -3.9 -1 -0.8
v -3.9 -0.4 -0.8
v -3.9 -0.4 -1.8
v -3.9 -0.4 -1.9
v -3.9 -0.4 -2.4
v -3.9 -0.4 -2.5
v -3.9 -0.4 -3.9
v -3.9 -0.3 -1.8
v -3.9 -0.3 -1.9
v -3.9 -0.3 -2.4
v -3.9 -0.3 -2.5
v -3.9 2.2 -3.4
v -3.9 2.2 -3.9
v -3.9 2.4 -3.4
v -3.9 2.4 -3.9
v -3.9 4.8 -3.7
v -3.9 4.8 -3.9
v -3.9 5 -3.7
v -3.9 5 -3.9
v -3.9 5.1 -3.7
v -3.9 5.1 -3.9
v -3.9 5.3 -3.7
v -3.9 5.3 -3.9
v -3.9 5.4 -3.7
v -3.9 5.4 -3.9
v -3.9 5.6 -3.7
v -3.9 5.6 -3.9
v -3.9 6 4
v -3.9 6 -3.9
v -3.1 0.4 -3.2
v -3.1 0.4 -3.3
v -3.1 0.6 -3.2
v -3.1 0.6 -3.3
v -3 -0.4 -3.4
v -3 -0.4 -3.9
v -3 0.4 -3.4
v -3 0.4 -3.9
v -3 0.6 -3.4
v -3 0.6 -3.9
v -3 2.4 -3.4
v -3 2.4 -3.9
v -2.9 0.4 -3.3
v -2.9 0.4 -3.9
v -2.9 0.6 -3.3
v -2.9 0.6 -3.9
v -2.2 -0.4 -2.2
v -2.2 -0.4 -2.4
v -2.2 -0.4 -2.5
v -2.2 -0.4 -3.9
v -2.2 -0.3 -2.2
v -2.2 -0.3 -2.4
v -2.2 -0.3 -2.5
v -2.2 -0.3 -3.9
v -1.8 0.5 -3.7
v -1.8 0.5 -3.9
v -1.8 5 -3.7
v -1.8 5 -3.9
v -1.5 0.8 -3.7
v -1.5 0.8 -3.9
v -1.5 5.3 -3.7
v -1.5 5.3 -3.9
v -1.4 -0.4 -2.1
v -1.4 -0.4 -2.2
v -1.4 -0.4 -2.3
v -1.4 -0.4 -2.5
v -1.4 -0.4 -3.7
v -1.4 -0.4 -3.9
v -1.4 -0.3 -2.1
v -1.4 -0.3 -2.2
v -1.4 -0.3 -2.3
v -1.4 -0.3 -2.5
v -1.4 0.5 -3.7
v -1.4 0.5 -3.9
v -1.3 5.4 -3.8
v -1.3 5.4 -3.9
v -1.3 5.5 -3.8
v -1.3 5.5 -3.9
v -1.2 1.1 -3.7
v -1.2 1.1 -3.9
v -1.2 5.4 -3.8
v -1.2 5.4 -3.9
v -1.2 5.5 -3.8
v -1.2 5.5 -3.9
v -1.2 5.6 -3.7
v -1.2 5.6 -3.9
v -1.1 -0.4 -3.7
v -1.1 -0.4 -3.8
v -1.1 -0.4 -3.9
v -1.1 -0.3 -3.8
v -1.1 -0.3 -3.9
v -1.1 0.8 -3.7
v -1.1 0.8 -3.9
v -0.8 -0.4 -3.7
v -0.8 -0.4 -3.8
v -0.8 -0.4 -3.9
v -0.8 -0.3 -3.8
v -0.8 -0.3 -3.9
v -0.8 1.1 -3.7
v -0.8 1.1 -3.9
v -0.7 -0.4 -1.7
v -0.7 -0.4 -1.8
v -0.7 -0.3 -1.8
v -0.7 -0.3 -1.9
v -0.7 -0.2 -1.7
v -0.7 -0.2 -1.9
v 0.4 -0.3 -2.9
v 0.4 -0.3 -3
v 0.4 -0.2 -2.9
v 0.4 -0.2 -3
v 0.4 2.38419e-07 -2.9
v 0.4 2.38419e-07 -3
v 0.4 0.2 -2.9
v 0.4 0.2 -3
v 0.5 -0.4 -2.2
v 0.5 -0.4 -3
v 0.5 -0.3 -2.2
v 0.5 -0.3 -3
v 0.5 0.3 -3.6
v 0.5 0.3 -3.9
v 0.5 0.5 -3.6
v 0.5 0.5 -3.7
v 0.5 3.9 -3.7
v 0.5 3.9 -3.9
v 0.7 -0.4 -1.8
v 0.7 -0.4 -2.9
v 0.7 -0.3 -1.8
v 0.7 -0.3 -2.9
v 0.8 0.3 -3.8
v 0.8 0.3 -3.9
v 0.8 0.5 -3.7
v 0.8 0.5 -3.8
v 0.8 3.4 -3.7
v 0.8 3.4 -3.9
v 0.9 -0.4 -2.9
v 0.9 -0.4 -3.9
v 0.9 0.3 -2.9
v 0.9 0.3 -3.6
v 0.9 0.3 -3.8
v 0.9 0.3 -3.9
v 0.9 0.5 -3.6
v 0.9 0.5 -3.8
v 1.6 -0.2 -3.7
v 1.6 -0.2 -3.9
v 1.6 -0.0999999 -3.6
v 1.6 -0.0999999 -3.7
v 1.6 0.1 -3.6
v 1.6 0.1 -3.7
v 1.6 3.4 -3.7
v 1.6 3.4 -3.9
v 1.6 3.5 -3.7
v 1.6 3.5 -3.9
v 1.6 3.9 -3.7
v 1.6 3.9 -3.9
v 1.6 4 -3.7
v 1.6 4 -3.9
v 1.6 6 -3.7
v 1.6 6 -3.9
v 1.7 -0.4 -3
v 1.7 -0.4 -3.4
v 1.7 -0.3 -3.4
v 1.7 -0.3 -3.7
v 1.7 -0.0999999 -3
v 1.7 -0.0999999 -3.7
v 1.9 -0.4 0.7
v 1.9 -0.4 0.5
v 1.9 -0.4 0.3
v 1.9 -0.4 0.0999999
v 1.9 -0.3 0.7
v 1.9 -0.3 0.5
v 1.9 -0.3 0.3
v 1.9 -0.3 0.0999999
v 2.2 -0.4 0.7
v 2.2 -0.4 0.5
v 2.2 -0.4 0.3
v 2.2 -0.4 0.0999999
v 2.2 -0.3 0.5
v 2.2 -0.3 0.3
v 2.2 0.2 0.7
v 2.2 0.2 0.0999999
v 3 -0.4 -1.9
v 3 -0.4 -3
v 3 -0.3 -1.9
v 3 -0.3 -3
v 3.1 -0.4 -3
v 3.1 -0.4 -3.8
v 3.1 -0.3 -3
v 3.1 -0.3 -3.8
v 3.6 -0.4 -2.4
v 3.6 -0.4 -2.6
v 3.6 4 -2.4
v 3.6 4 -2.6
v 4 -2 4
v 4 -2 -4
v 4 -1.2 4
v 4 -1.2 -4
v 4 -0.4 4
v 4 -0.4 2.4
v 4 -0.4 1.8
v 4 -0.4 -4
v 4 -0.0999999 2.4
v 4 -0.0999999 1.8
v 4 0.6 2.4
v 4 0.6 1.8
v 4 6 4
v 4 6 -4
v -4 -2 4
v -4 -1.3 4
v -4 -1.2 4
v -4 6 4
v -3.9 -1.2 4
v -3.9 -1 4
v -3.9 6 4
v 1.6 -1.2 4
v 1.6 -1.1 4
v 1.6 -1 4
v 1.6 -0.4 4
v 1.7 -1.3 4
v 1.7 -1.2 4
v 1.7 -1.1 4
v 3.8 2.4 4
v 3.8 2.6 4
v 3.9 -0.4 4
v 3.9 2.4 4
v 3.9 2.6 4
v 3.9 6 4
v 4 -2 4
v 4 -1.2 4
v 4 -0.4 4
v 4 6 4
v 3.7 0.3 3.5
v 3.7 0.5 3.5
v 3.7 0.7 3.5
v 3.7 0.8 3.5
v 3.8 0.5 3.5
v 3.8 0.7 3.5
v 3.9 0.3 3.5
v 3.9 0.8 3.5
v 3.8 -0.4 3.4
v 3.8 0.3 3.4
v 3.8 0.8 3.4
v 3.8 2.4 3.4
v 3.8 2.6 3.4
v 3.8 4.1 3.4
v 3.9 -0.4 3.4
v 3.9 0.3 3.4
v 3.9 0.8 3.4
v 3.9 2.4 3.4
v 3.9 2.6 3.4
v 3.9 4.1 3.4
v 3.4 -0.4 1.8
v 3.4 0.6 1.8
v 3.5 2.38419e-07 1.8
v 3.5 0.1 1.8
v 3.5 0.3 1.8
v 3.5 0.4 1.8
v 3.6 2.38419e-07 1.8
v 3.6 0.1 1.8
v 3.8 0.3 1.8
v 3.8 0.4 1.8
v 3.9 -0.4 1.8
v 3.9 -0.0999999 1.8
v 3.9 0.6 1.8
v 1.7 -0.4 0.7
v 1.7 0.2 0.7
v 1.8 -0.0999999 0.7
v 1.8 0.1 0.7
v 1.9 -0.4 0.7
v 1.9 -0.3 0.7
v 2 -0.2 0.7
v 2 -0.0999999 0.7
v 2 0.1 0.7
v 2.1 -0.4 0.7
v 2.1 -0.3 0.7
v 2.1 -0.2 0.7
v 2.1 -0.0999999 0.7
v 2.2 -0.4 0.7
v 2.2 0.2 0.7
v 1.7 -0.4 0.3
v 1.7 -0.3 0.3
v 1.9 -0.4 0.3
v 1.9 -0.3 0.3
v 2.1 -0.4 0.3
v 2.1 -0.3 0.3
v 2.2 -0.4 0.3
v 2.2 -0.3 0.3
v -3.9 -1 -0.8
v -3.9 -0.4 -0.8
v 1.6 -1 -0.8
v 1.6 -0.4 -0.8
v -1.1 -0.4 -1.7
v -1.1 -0.2 -1.7
v -0.7 -0.4 -1.7
v -0.7 -0.2 -1.7
v 2.9 -0.4 -1.7
v 2.9 -0.3 -1.7
v 3.9 -0.4 -1.7
v 3.9 -0.3 -1.7
v -3.9 -0.4 -1.8
v -3.9 -0.3 -1.8
v -1.1 -0.4 -1.8
v -1.1 -0.3 -1.8
v -0.7 -0.4 -1.8
v -0.7 -0.3 -1.8
v 0.7 -0.4 -1.8
v 0.7 -0.3 -1.8
v 2.8 -0.4 -1.9
v 2.8 -0.3 -1.9
v 2.9 -0.4 -1.9
v 2.9 -0.3 -1.9
v -2.3 -0.4 -2.1
v -2.3 -0.3 -2.1
v -1.4 -0.4 -2.1
v -1.4 -0.3 -2.1
v -1.4 -0.4 -2.2
v -1.4 -0.3 -2.2
v 0.5 -0.4 -2.2
v 0.5 -0.3 -2.2
v -3.9 -0.4 -2.4
v -3.9 -0.3 -2.4
v -2.3 -0.4 -2.4
v -2.3 -0.3 -2.4
v -2.2 -0.4 -2.4
v -2.2 -0.3 -2.4
v -1.5 -0.4 -2.4
v -1.5 -0.3 -2.4
v 3.4 -0.4 -2.4
v 3.4 4.2 -2.4
v 3.6 -0.4 -2.4
v 3.6 4 -2.4
v 3.9 4 -2.4
v 3.9 4.2 -2.4
v 0.2 -0.4 -2.9
v 0.2 0.3 -2.9
v 0.4 -0.4 -2.9
v 0.4 -0.3 -2.9
v 0.4 -0.2 -2.9
v 0.4 2.38419e-07 -2.9
v 0.4 0.2 -2.9
v 0.7 -0.4 -2.9
v 0.7 -0.3 -2.9
v 0.7 -0.2 -2.9
v 0.7 2.38419e-07 -2.9
v 0.7 0.2 -2.9
v 0.9 -0.4 -2.9
v 0.9 0.3 -2.9
v 0.4 -0.3 -3
v 0.4 -0.2 -3
v 0.4 2.38419e-07 -3
v 0.4 0.2 -3
v 0.5 -0.4 -3
v 0.5 -0.3 -3
v 0.6 -0.4 -3
v 0.6 -0.3 -3
v 0.7 -0.3 -3
v 0.7 -0.2 -3
v 0.7 2.38419e-07 -3
v 0.7 0.2 -3
v 1.3 -0.4 -3
v 1.3 -0.0999999 -3
v 1.7 -0.4 -3
v 1.7 -0.0999999 -3
v 3 -0.4 -3
v 3 -0.3 -3
v 3.1 -0.4 -3
v 3.1 -0.3 -3
v -3.2 0.4 -3.2
v -3.2 0.6 -3.2
v -3.1 0.4 -3.2
v -3.1 0.6 -3.2
v -3.3 0.4 -3.3
v -3.3 0.6 -3.3
v -3.2 0.4 -3.3
v -3.2 0.6 -3.3
v -3.1 0.4 -3.3
v -3.1 0.6 -3.3
v -2.9 0.4 -3.3
v -2.9 0.6 -3.3
v -3.9 2.2 -3.4
v -3.9 2.4 -3.4
v -3.3 -0.4 -3.4
v -3.3 0.4 -3.4
v -3.3 0.6 -3.4
v -3.3 2.2 -3.4
v -3 -0.4 -3.4
v -3 0.4 -3.4
v -3 0.6 -3.4
v -3 2.4 -3.4
v 1.7 -0.4 -3.4
v 1.7 -0.3 -3.4
v 3 -0.4 -3.4
v 3 -0.3 -3.4
v 0.3 0.3 -3.6
v 0.3 0.5 -3.6
v 0.5 0.3 -3.6
v 0.5 0.5 -3.6
v 0.7 0.3 -3.6
v 0.7 0.5 -3.6
v 0.9 0.3 -3.6
v 0.9 0.5 -3.6
v 1.4 -0.0999999 -3.6
v 1.4 0.1 -3.6
v 1.6 -0.0999999 -3.6
v 1.6 0.1 -3.6
v -3.9 4.8 -3.7
v -3.9 5 -3.7
v -3.9 5.1 -3.7
v -3.9 5.3 -3.7
v -3.9 5.4 -3.7
v -3.9 5.6 -3.7
v -2 0.3 -3.7
v -2 4.8 -3.7
v -1.8 0.5 -3.7
v -1.8 5 -3.7
v -1.7 0.6 -3.7
v -1.7 5.1 -3.7
v -1.6 -0.4 -3.7
v -1.6 0.3 -3.7
v -1.5 0.8 -3.7
v -1.5 5.3 -3.7
v -1.4 -0.4 -3.7
v -1.4 0.5 -3.7
v -1.4 0.9 -3.7
v -1.4 5.4 -3.7
v -1.3 -0.4 -3.7
v -1.3 0.6 -3.7
v -1.2 1.1 -3.7
v -1.2 5.6 -3.7
v -1.1 -0.4 -3.7
v -1.1 0.8 -3.7
v -1 -0.4 -3.7
v -1 0.9 -3.7
v -0.8 -0.4 -3.7
v -0.8 1.1 -3.7
v 0.4 0.5 -3.7
v 0.4 4 -3.7
v 0.5 0.5 -3.7
v 0.5 3.9 -3.7
v 0.7 0.5 -3.7
v 0.7 3.5 -3.7
v 0.8 0.5 -3.7
v 0.8 3.4 -3.7
v 1.4 0.1 -3.7
v 1.4 3.4 -3.7
v 1.4 3.5 -3.7
v 1.4 3.9 -3.7
v 1.4 4 -3.7
v 1.4 6 -3.7
v 1.6 0.1 -3.7
v 1.6 3.4 -3.7
v 1.6 3.5 -3.7
v 1.6 3.9 -3.7
v 1.6 4 -3.7
v 1.6 6 -3.7
v 3.9 3.4 -3.7
v 3.9 3.5 -3.7
v 3.9 3.9 -3.7
v 3.9 4 -3.7
v -3.9 -0.4 -3.9
v -3.9 2.2 -3.9
v -3.9 2.4 -3.9
v -3.9 4.8 -3.9
v -3.9 5 -3.9
v -3.9 5.1 -3.9
v -3.9 5.3 -3.9
v -3.9 5.4 -3.9
v -3.9 5.6 -3.9
v -3.9 6 -3.9
v -3.3 -0.4 -3.9
v -3.3 2.2 -3.9
v -3 -0.4 -3.9
v -3 0.4 -3.9
v -3 0.6 -3.9
v -3 2.4 -3.9
v -2.9 0.4 -3.9
v -2.9 0.6 -3.9
v -2.3 -0.4 -3.9
v -2.3 -0.3 -3.9
v -2.2 -0.4 -3.9
v -2.2 -0.3 -3.9
v -2 0.3 -3.9
v -2 4.8 -3.9
v -1.8 0.5 -3.9
v -1.8 5 -3.9
v -1.7 0.6 -3.9
v -1.7 5.1 -3.9
v -1.6 -0.4 -3.9
v -1.6 0.3 -3.9
v -1.5 0.8 -3.9
v -1.5 5.3 -3.9
v -1.4 -0.4 -3.9
v -1.4 0.5 -3.9
v -1.4 0.9 -3.9
v -1.4 5.4 -3.9
v -1.3 -0.4 -3.9
v -1.3 -0.3 -3.9
v -1.3 0.6 -3.9
v -1.3 5.4 -3.9
v -1.3 5.5 -3.9
v -1.2 1.1 -3.9
v -1.2 5.4 -3.9
v -1.2 5.5 -3.9
v -1.2 5.6 -3.9
v -1.1 -0.4 -3.9
v -1.1 -0.3 -3.9
v -1.1 0.8 -3.9
v -1 -0.4 -3.9
v -1 -0.3 -3.9
v -1 0.9 -3.9
v -0.8 -0.4 -3.9
v -0.8 -0.3 -3.9
v -0.8 1.1 -3.9
v 0.2 -0.4 -3.9
v 0.2 0.3 -3.9
v 0.3 0.3 -3.9
v 0.3 0.5 -3.9
v 0.4 0.5 -3.9
v 0.4 4 -3.9
v 0.5 0.3 -3.9
v 0.5 3.9 -3.9
v 0.7 0.3 -3.9
v 0.7 3.5 -3.9
v 0.8 0.3 -3.9
v 0.8 3.4 -3.9
v 0.9 -0.4 -3.9
v 0.9 0.3 -3.9
v 1.4 -0.2 -3.9
v 1.4 3.4 -3.9
v 1.4 3.5 -3.9
v 1.4 3.9 -3.9
v 1.4 4 -3.9
v 1.4 6 -3.9
v 1.6 -0.2 -3.9
v 1.6 3.4 -3.9
v 1.6 3.5 -3.9
v 1.6 3.9 -3.9
v 1.6 4 -3.9
v 1.6 6 -3.9
v 3.9 -0.4 -3.9
v 3.9 3.4 -3.9
v 3.9 3.5 -3.9
v 3.9 3.9 -3.9
v 3.9 4 -3.9
v 3.9 6 -3.9
v 3.7 0.3 3.1
v 3.7 0.4 3.1
v 3.8 -0.4 3.1
v 3.8 0.3 3.1
v 3.8 0.4 3.1
v 3.8 0.8 3.1
v 3.8 4.1 3.1
v 3.9 -0.4 3.1
v 3.9 0.4 3.1
v 3.9 0.8 3.1
v 3.9 4.1 3.1
v 3.7 0.4 2.8
v 3.7 0.8 2.8
v 3.9 0.4 2.8
v 3.9 0.8 2.8
v 3.4 -0.4 1.7
v 3.4 0.6 1.7
v 3.5 2.38419e-07 1.7
v 3.5 0.1 1.7
v 3.5 0.3 1.7
v 3.5 0.4 1.7
v 3.6 2.38419e-07 1.7
v 3.6 0.1 1.7
v 3.8 0.3 1.7
v 3.8 0.4 1.7
v 3.9 -0.4 1.7
v 3.9 0.6 1.7
v 1.7 -0.4 0.5
v 1.7 -0.3 0.5
v 1.9 -0.4 0.5
v 1.9 -0.3 0.5
v 2.1 -0.4 0.5
v 2.1 -0.3 0.5
v 2.2 -0.4 0.5
v 2.2 -0.3 0.5
v 1.7 -0.4 0.0999999
v 1.7 0.2 0.0999999
v 1.9 -0.4 0.0999999
v 1.9 -0.3 0.0999999
v 2.1 -0.4 0.0999999
v 2.1 -0.3 0.0999999
v 2.2 -0.4 0.0999999
v 2.2 0.2 0.0999999
v -3.9 -0.4 -1.9
v -3.9 -0.3 -1.9
v -1.1 -0.3 -1.9
v -1.1 -0.2 -1.9
v -0.7 -0.3 -1.9
v -0.7 -0.2 -1.9
v 0.6 -0.4 -1.9
v 0.6 -0.3 -1.9
v 3 -0.4 -1.9
v 3 -0.3 -1.9
v 3.9 -0.4 -1.9
v 3.9 -0.3 -1.9
v -2.2 -0.4 -2.2
v -2.2 -0.3 -2.2
v -1.5 -0.4 -2.2
v -1.5 -0.3 -2.2
v -1.4 -0.4 -2.3
v -1.4 -0.3 -2.3
v 0.4 -0.4 -2.3
v 0.4 -0.3 -2.3
v -3.9 -0.4 -2.5
v -3.9 -0.3 -2.5
v -2.3 -0.4 -2.5
v -2.3 -0.3 -2.5
v -2.2 -0.4 -2.5
v -2.2 -0.3 -2.5
v -1.4 -0.4 -2.5
v -1.4 -0.3 -2.5
v 3.4 -0.4 -2.6
v 3.4 4.2 -2.6
v 3.6 -0.4 -2.6
v 3.6 4 -2.6
v 3.9 4 -2.6
v 3.9 4.2 -2.6
v 2.8 -0.4 -3.2
v 2.8 -0.3 -3.2
v 3 -0.4 -3.2
v 3 -0.3 -3.2
v 1.3 -0.4 -3.7
v 1.3 -0.0999999 -3.7
v 1.4 -0.2 -3.7
v 1.4 -0.0999999 -3.7
v 1.6 -0.2 -3.7
v 1.6 -0.0999999 -3.7
v 1.7 -0.3 -3.7
v 1.7 -0.0999999 -3.7
v 3 -0.4 -3.7
v 3 -0.3 -3.7
v -1.3 5.4 -3.8
v -1.3 5.5 -3.8
v -1.2 5.4 -3.8
v -1.2 5.5 -3.8
v 0.8 0.3 -3.8
v 0.8 0.5 -3.8
v 0.9 0.3 -3.8
v 0.9 0.5 -3.8
v 3 -0.4 -3.8
v 3 -0.3 -3.8
v 3.1 -0.4 -3.8
v 3.1 -0.3 -3.8
v -4 -2 -4
v -4 -1.2 -4
v -4 -0.4 -4
v -4 6 -4
v 4 -2 -4
v 4 -1.2 -4
v 4 -0.4 -4
v 4 6 -4
v -4 -2 4
v 4 -2 4
v -4 -2 -4
v 4 -2 -4
v 1.9 -0.3 0.7
v 2.1 -0.3 0.7
v 1.7 -0.3 0.5
v 1.9 -0.3 0.5
v 2.1 -0.3 0.5
v 2.2 -0.3 0.5
v 1.7 -0.3 0.3
v 1.9 -0.3 0.3
v 2.1 -0.3 0.3
v 2.2 -0.3 0.3
v 1.9 -0.3 0.0999999
v 2.1 -0.3 0.0999999
v 0.4 -0.2 -2.9
v 0.7 -0.2 -2.9
v 0.4 -0.2 -3
v 0.7 -0.2 -3
v 1.4 -0.2 -3.7
v 1.6 -0.2 -3.7
v 1.4 -0.2 -3.9
v 1.6 -0.2 -3.9
v 0.4 0.2 -2.9
v 0.7 0.2 -2.9
v 0.4 0.2 -3
v 0.7 0.2 -3
v 3.7 0.3 3.5
v 3.9 0.3 3.5
v 3.8 0.3 3.4
v 3.9 0.3 3.4
v 3.7 0.3 3.1
v 3.8 0.3 3.1
v -2 0.3 -3.7
v -1.6 0.3 -3.7
v -2 0.3 -3.9
v -1.6 0.3 -3.9
v 3.7 0.4 3.1
v 3.8 0.4 3.1
v 3.9 0.4 3.1
v 3.7 0.4 2.8
v 3.9 0.4 2.8
v -3.2 0.4 -3.2
v -3.1 0.4 -3.2
v -3.3 0.4 -3.3
v -3.2 0.4 -3.3
v -3.1 0.4 -3.3
v -2.9 0.4 -3.3
v -3.3 0.4 -3.4
v -3 0.4 -3.4
v -3 0.4 -3.9
v -2.9 0.4 -3.9
v -1.7 0.6 -3.7
v -1.3 0.6 -3.7
v -1.7 0.6 -3.9
v -1.3 0.6 -3.9
v -1.4 0.9 -3.7
v -1 0.9 -3.7
v -1.4 0.9 -3.9
v -1 0.9 -3.9
v -3.9 2.2 -3.4
v -3.3 2.2 -3.4
v -3.9 2.2 -3.9
v -3.3 2.2 -3.9
v 3.8 2.4 4
v 3.9 2.4 4
v 3.8 2.4 3.4
v 3.9 2.4 3.4
v 0.8 3.4 -3.7
v 1.4 3.4 -3.7
v 1.6 3.4 -3.7
v 3.9 3.4 -3.7
v 0.8 3.4 -3.9
v 1.4 3.4 -3.9
v 1.6 3.4 -3.9
v 3.9 3.4 -3.9
v 0.5 3.9 -3.7
v 1.4 3.9 -3.7
v 1.6 3.9 -3.7
v 3.9 3.9 -3.7
v 0.5 3.9 -3.9
v 1.4 3.9 -3.9
v 1.6 3.9 -3.9
v 3.9 3.9 -3.9
v 3.6 4 -2.4
v 3.9 4 -2.4
v 3.6 4 -2.6
v 3.9 4 -2.6
v -3.9 4.8 -3.7
v -2 4.8 -3.7
v -3.9 4.8 -3.9
v -2 4.8 -3.9
v -3.9 5.1 -3.7
v -1.7 5.1 -3.7
v -3.9 5.1 -3.9
v -1.7 5.1 -3.9
v -3.9 5.4 -3.7
v -1.4 5.4 -3.7
v -3.9 5.4 -3.9
v -1.4 5.4 -3.9
v -1.3 5.5 -3.8
v -1.2 5.5 -3.8
v -1.3 5.5 -3.9
v -1.2 5.5 -3.9
v -3.9 -1 4
v 1.6 -1 4
v 0.6 -1 3.8
v 0.8 -1 3.8
v -0.6 -1 3.7
v -0.3 -1 3.7
v 0.2 -1 3.6
v 0.4 -1 3.6
v -2.9 -1 3.5
v -2.8 -1 3.5
v -3.6 -1 3.4
v -3.5 -1 3.4
v -1.7 -1 3.4
v -1.6 -1 3.4
v 0.6 -1 3.3
v 0.8 -1 3.3
v 0.2 -1 3.2
v 0.4 -1 3.2
v -3.6 -1 3.1
v -3.5 -1 3.1
v -2.9 -1 3
v -2.8 -1 3
v -0.6 -1 3
v -0.3 -1 3
v -1.7 -1 2.9
v -1.6 -1 2.9
v -2.9 -1 2.5
v -2.8 -1 2.5
v 0.5 -1 2.5
v 0.7 -1 2.5
v -3.7 -1 1.9
v -3.5 -1 1.9
v -1.5 -1 1.9
v -1.3 -1 1.9
v 0.5 -1 1.9
v 0.7 -1 1.9
v -0.3 -1 1.8
v -0.0999999 -1 1.8
v -2.2 -1 1.6
v -2 -1 1.6
v -2.9 -1 1.3
v -2.8 -1 1.3
v -1.5 -1 1.3
v -1.3 -1 1.3
v -3.7 -1 1.2
v -3.5 -1 1.2
v -2.2 -1 1
v -2 -1 1
v 1 -1 0.8
v 1.1 -1 0.8
v -0.3 -1 0.7
v -0.0999999 -1 0.7
v 1 -1 0.6
v 1.1 -1 0.6
v -3.7 -1 0.3
v -3.6 -1 0.3
v 0.5 -1 0.2
v 0.6 -1 0.2
v 0.5 -1 0.0999999
v 0.6 -1 0.0999999
v 1 -1 0.0999999
v -3.7 -1 0
v -3.6 -1 0
v -2.8 -1 0
v -2.7 -1 0
v -1.7 -1 0
v -1.5 -1 0
v -2.8 -1 -0.1
v -2.7 -1 -0.1
v 0.6 -1 -0.1
v 1 -1 -0.1
v -1.7 -1 -0.3
v -1.5 -1 -0.3
v -3.9 -1 -0.8
v 1.6 -1 -0.8
v 1.6 -0.4 4
v 3.9 -0.4 4
v 3.8 -0.4 3.4
v 3.9 -0.4 3.4
v 3.8 -0.4 3.1
v 3.9 -0.4 3.1
v 3.9 -0.4 2.4
v 3.4 -0.4 1.8
v 3.9 -0.4 1.8
v 3.4 -0.4 1.7
v 3.9 -0.4 1.7
v 1.7 -0.4 0.7
v 1.9 -0.4 0.7
v 2.1 -0.4 0.7
v 2.2 -0.4 0.7
v 1.7 -0.4 0.5
v 1.9 -0.4 0.5
v 2.1 -0.4 0.5
v 2.2 -0.4 0.5
v 1.7 -0.4 0.3
v 1.9 -0.4 0.3
v 2.1 -0.4 0.3
v 2.2 -0.4 0.3
v 1.7 -0.4 0.0999999
v 1.9 -0.4 0.0999999
v 2.1 -0.4 0.0999999
v 2.2 -0.4 0.0999999
v -3.9 -0.4 -0.8
v 1.6 -0.4 -0.8
v -1.1 -0.4 -1.7
v -0.7 -0.4 -1.7
v 2.9 -0.4 -1.7
v 3.9 -0.4 -1.7
v -3.9 -0.4 -1.8
v -1.1 -0.4 -1.8
v -0.7 -0.4 -1.8
v 0.7 -0.4 -1.8
v -3.9 -0.4 -1.9
v 0.6 -0.4 -1.9
v 2.8 -0.4 -1.9
v 2.9 -0.4 -1.9
v 3 -0.4 -1.9
v 3.9 -0.4 -1.9
v -2.3 -0.4 -2.1
v -1.4 -0.4 -2.1
v -2.2 -0.4 -2.2
v -1.5 -0.4 -2.2
v -1.4 -0.4 -2.2
v 0.5 -0.4 -2.2
v -1.4 -0.4 -2.3
v 0.4 -0.4 -2.3
v -3.9 -0.4 -2.4
v -2.3 -0.4 -2.4
v -2.2 -0.4 -2.4
v -1.5 -0.4 -2.4
v 3.4 -0.4 -2.4
v 3.6 -0.4 -2.4
v -3.9 -0.4 -2.5
v -2.3 -0.4 -2.5
v -2.2 -0.4 -2.5
v -1.4 -0.4 -2.5
v 3.4 -0.4 -2.6
v 3.6 -0.4 -2.6
v 0.2 -0.4 -2.9
v 0.4 -0.4 -2.9
v 0.7 -0.4 -2.9
v 0.9 -0.4 -2.9
v 0.2 -0.4 -3
v 0.5 -0.4 -3
v 0.6 -0.4 -3
v 1.3 -0.4 -3
v 1.7 -0.4 -3
v 3 -0.4 -3
v 3.1 -0.4 -3
v 0.2 -0.4 -3.1
v 0.2 -0.4 -3.2
v 2.8 -0.4 -3.2
v 3 -0.4 -3.2
v 0.2 -0.4 -3.3
v -3.3 -0.4 -3.4
v -3 -0.4 -3.4
v 1.7 -0.4 -3.4
v 3 -0.4 -3.4
v -1.6 -0.4 -3.7
v -1.4 -0.4 -3.7
v -1.3 -0.4 -3.7
v -1.1 -0.4 -3.7
v -1 -0.4 -3.7
v -0.8 -0.4 -3.7
v 1.3 -0.4 -3.7
v 3 -0.4 -3.7
v -1.3 -0.4 -3.8
v -1.1 -0.4 -3.8
v -1 -0.4 -3.8
v -0.8 -0.4 -3.8
v 3 -0.4 -3.8
v 3.1 -0.4 -3.8
v -3.9 -0.4 -3.9
v -3.3 -0.4 -3.9
v -3 -0.4 -3.9
v -2.3 -0.4 -3.9
v -2.2 -0.4 -3.9
v -1.6 -0.4 -3.9
v -1.4 -0.4 -3.9
v -1.3 -0.4 -3.9
v -1.1 -0.4 -3.9
v -1 -0.4 -3.9
v -0.8 -0.4 -3.9
v 0.2 -0.4 -3.9
v 0.9 -0.4 -3.9
v 3.9 -0.4 -3.9
v 2.9 -0.3 -1.7
v 3.9 -0.3 -1.7
v -3.9 -0.3 -1.8
v -1.1 -0.3 -1.8
v -0.7 -0.3 -1.8
v 0.7 -0.3 -1.8
v -3.9 -0.3 -1.9
v -1.1 -0.3 -1.9
v -0.7 -0.3 -1.9
v 0.6 -0.3 -1.9
v 2.8 -0.3 -1.9
v 2.9 -0.3 -1.9
v 3 -0.3 -1.9
v 3.9 -0.3 -1.9
v -2.3 -0.3 -2.1
v -1.4 -0.3 -2.1
v -2.2 -0.3 -2.2
v -1.5 -0.3 -2.2
v -1.4 -0.3 -2.2
v 0.5 -0.3 -2.2
v -1.4 -0.3 -2.3
v 0.4 -0.3 -2.3
v -3.9 -0.3 -2.4
v -2.3 -0.3 -2.4
v -2.2 -0.3 -2.4
v -1.5 -0.3 -2.4
v -3.9 -0.3 -2.5
v -2.3 -0.3 -2.5
v -2.2 -0.3 -2.5
v -1.4 -0.3 -2.5
v 0.4 -0.3 -2.9
v 0.7 -0.3 -2.9
v 0.4 -0.3 -3
v 0.5 -0.3 -3
v 0.6 -0.3 -3
v 0.7 -0.3 -3
v 3 -0.3 -3
v 3.1 -0.3 -3
v 2.8 -0.3 -3.2
v 3 -0.3 -3.2
v 1.7 -0.3 -3.4
v 3 -0.3 -3.4
v 1.7 -0.3 -3.7
v 3 -0.3 -3.7
v 3 -0.3 -3.8
v 3.1 -0.3 -3.8
v -2.3 -0.3 -3.9
v -2.2 -0.3 -3.9
v -1.1 -0.2 -1.7
v -0.7 -0.2 -1.7
v -1.1 -0.2 -1.9
v -0.7 -0.2 -1.9
v 1.3 -0.0999999 -3
v 1.7 -0.0999999 -3
v 1.4 -0.0999999 -3.6
v 1.6 -0.0999999 -3.6
v 1.3 -0.0999999 -3.7
v 1.4 -0.0999999 -3.7
v 1.6 -0.0999999 -3.7
v 1.7 -0.0999999 -3.7
v 0.4 2.38419e-07 -2.9
v 0.7 2.38419e-07 -2.9
v 0.4 2.38419e-07 -3
v 0.7 2.38419e-07 -3
v 1.4 0.1 -3.6
v 1.6 0.1 -3.6
v 1.4 0.1 -3.7
v 1.6 0.1 -3.7
v 1.7 0.2 0.7
v 2.2 0.2 0.7
v 1.7 0.2 0.0999999
v 2.2 0.2 0.0999999
v 0.2 0.3 -2.9
v 0.9 0.3 -2.9
v 0.3 0.3 -3.6
v 0.5 0.3 -3.6
v 0.7 0.3 -3.6
v 0.9 0.3 -3.6
v 0.8 0.3 -3.8
v 0.9 0.3 -3.8
v 0.2 0.3 -3.9
v 0.3 0.3 -3.9
v 0.5 0.3 -3.9
v 0.7 0.3 -3.9
v 0.8 0.3 -3.9
v 0.9 0.3 -3.9
v 0.3 0.5 -3.6
v 0.5 0.5 -3.6
v 0.7 0.5 -3.6
v 0.9 0.5 -3.6
v -1.8 0.5 -3.7
v -1.4 0.5 -3.7
v 0.4 0.5 -3.7
v 0.5 0.5 -3.7
v 0.7 0.5 -3.7
v 0.8 0.5 -3.7
v 0.8 0.5 -3.8
v 0.9 0.5 -3.8
v -1.8 0.5 -3.9
v -1.4 0.5 -3.9
v 0.3 0.5 -3.9
v 0.4 0.5 -3.9
v 3.4 0.6 1.8
v 3.9 0.6 1.8
v 3.4 0.6 1.7
v 3.9 0.6 1.7
v -3.2 0.6 -3.2
v -3.1 0.6 -3.2
v -3.3 0.6 -3.3
v -3.2 0.6 -3.3
v -3.1 0.6 -3.3
v -2.9 0.6 -3.3
v -3.3 0.6 -3.4
v -3 0.6 -3.4
v -3 0.6 -3.9
v -2.9 0.6 -3.9
v 3.7 0.8 3.5
v 3.9 0.8 3.5
v 3.8 0.8 3.4
v 3.9 0.8 3.4
v 3.8 0.8 3.1
v 3.9 0.8 3.1
v 3.7 0.8 2.8
v 3.9 0.8 2.8
v -1.5 0.8 -3.7
v -1.1 0.8 -3.7
v -1.5 0.8 -3.9
v -1.1 0.8 -3.9
v -1.2 1.1 -3.7
v -0.8 1.1 -3.7
v -1.2 1.1 -3.9
v -0.8 1.1 -3.9
v -3.9 2.4 -3.4
v -3 2.4 -3.4
v -3.9 2.4 -3.9
v -3 2.4 -3.9
v 3.8 2.6 4
v 3.9 2.6 4
v 3.8 2.6 3.4
v 3.9 2.6 3.4
v 0.7 3.5 -3.7
v 1.4 3.5 -3.7
v 1.6 3.5 -3.7
v 3.9 3.5 -3.7
v 0.7 3.5 -3.9
v 1.4 3.5 -3.9
v 1.6 3.5 -3.9
v 3.9 3.5 -3.9
v 0.4 4 -3.7
v 1.4 4 -3.7
v 1.6 4 -3.7
v 3.9 4 -3.7
v 0.4 4 -3.9
v 1.4 4 -3.9
v 1.6 4 -3.9
v 3.9 4 -3.9
v 3.8 4.1 3.4
v 3.9 4.1 3.4
v 3.8 4.1 3.1
v 3.9 4.1 3.1
v 3.4 4.2 -2.4
v 3.9 4.2 -2.4
v 3.4 4.2 -2.6
v 3.9 4.2 -2.6
v -3.9 5 -3.7
v -1.8 5 -3.7
v -3.9 5 -3.9
v -1.8 5 -3.9
v -3.9 5.3 -3.7
v -1.5 5.3 -3.7
v -3.9 5.3 -3.9
v -1.5 5.3 -3.9
v -1.3 5.4 -3.8
v -1.2 5.4 -3.8
v -1.3 5.4 -3.9
v -1.2 5.4 -3.9
v -3.9 5.6 -3.7
v -1.2 5.6 -3.7
v -3.9 5.6 -3.9
v -1.2 5.6 -3.9
v -4 6 4
v -3.9 6 4
v 3.9 6 4
v 4 6 4
v 1.4 6 -3.7
v 1.6 6 -3.7
v -3.9 6 -3.9
v 1.4 6 -3.9
v 1.6 6 -3.9
v 3.9 6 -3.9
v -4 6 -4
v 4 6 -4

# faces
f 3/17/1 2/17/1 1/17/1
f 4/17/1 2/17/1 3/17/1
f 5/3/1 4/3/1 3/3/1
f 6/17/1 2/17/1 4/17/1
f 6/3/1 4/3/1 5/3/1
f 7/17/1 2/17/1 6/17/1
f 8/17/1 2/17/1 7/17/1
f 9/15/1 6/15/1 5/15/1
f 9/15/1 7/15/1 6/15/1
f 9/16/1 8/16/1 7/16/1
f 10/16/1 8/16/1 9/16/1
f 11/15/1 9/15/1 5/15/1
f 11/15/1 10/15/1 9/15/1
f 12/15/1 10/15/1 11/15/1
f 16/18/1 14/18/1 13/18/1
f 17/16/1 16/16/1 15/16/1
f 18/18/1 14/18/1 16/18/1
f 18/16/1 16/16/1 17/16/1
f 19/18/1 14/18/1 18/18/1
f 20/18/1 14/18/1 19/18/1
f 23/19/1 22/19/1 21/19/1
f 24/19/1 22/19/1 23/19/1
f 29/17/1 26/17/1 25/17/1
f 30/17/1 26/17/1 29/17/1
f 31/17/1 28/17/1 27/17/1
f 32/17/1 28/17/1 31/17/1
f 35/11/1 34/11/1 33/11/1
f 36/11/1 34/11/1 35/11/1
f 39/7/1 38/7/1 37/7/1
f 40/7/1 38/7/1 39/7/1
f 43/11/1 42/11/1 41/11/1
f 44/11/1 42/11/1 43/11/1
f 47/17/1 46/17/1 45/17/1
f 48/17/1 46/17/1 47/17/1
f 51/18/1 50/18/1 49/18/1
f 52/18/1 50/18/1 51/18/1
f 56/7/1 54/7/1 53/7/1
f 56/8/1 55/8/1 54/8/1
f 57/8/1 55/8/1 56/8/1
f 58/7/1 56/7/1 53/7/1
f 58/7/1 57/7/1 56/7/1
f 59/7/1 57/7/1 58/7/1
f 62/19/1 61/19/1 60/19/1
f 64/19/1 62/19/1 60/19/1
f 64/19/1 63/19/1 62/19/1
f 65/19/1 63/19/1 64/19/1
f 69/18/1 67/18/1 66/18/1
f 69/17/1 68/17/1 67/17/1
f 70/17/1 68/17/1 69/17/1
f 71/18/1 69/18/1 66/18/1
f 71/18/1 70/18/1 69/18/1
f 72/18/1 70/18/1 71/18/1
f 79/10/1 78/10/1 77/10/1
f 80/10/1 78/10/1 79/10/1
f 81/10/1 78/10/1 80/10/1
f 82/10/1 78/10/1 81/10/1
f 83/10/1 74/10/1 73/10/1
f 83/12/1 75/12/1 74/12/1
f 84/10/1 76/10/1 75/10/1
f 84/12/1 75/12/1 83/12/1
f 85/12/1 77/12/1 76/12/1
f 85/10/1 76/10/1 84/10/1
f 86/10/1 79/10/1 77/10/1
f 86/12/1 77/12/1 85/12/1
f 87/10/1 84/10/1 83/10/1
f 87/10/1 79/10/1 86/10/1
f 87/10/1 86/10/1 85/10/1
f 87/10/1 85/10/1 84/10/1
f 87/12/1 80/12/1 79/12/1
f 88/10/1 81/10/1 80/10/1
f 88/12/1 80/12/1 87/12/1
f 89/12/1 82/12/1 81/12/1
f 89/10/1 81/10/1 88/10/1
f 90/10/1 88/10/1 87/10/1
f 90/12/1 89/12/1 88/12/1
f 91/10/1 78/10/1 82/10/1
f 91/12/1 89/12/1 90/12/1
f 91/12/1 82/12/1 89/12/1
f 92/10/1 90/10/1 87/10/1
f 92/10/1 87/10/1 83/10/1
f 92/10/1 91/10/1 90/10/1
f 92/10/1 83/10/1 73/10/1
f 93/10/1 78/10/1 91/10/1
f 93/10/1 91/10/1 92/10/1
f 96/17/1 95/17/1 94/17/1
f 97/17/1 95/17/1 96/17/1
f 100/17/1 99/17/1 98/17/1
f 101/17/1 99/17/1 100/17/1
f 104/17/1 103/17/1 102/17/1
f 105/17/1 103/17/1 104/17/1
f 108/17/1 107/17/1 106/17/1
f 109/17/1 107/17/1 108/17/1
f 112/10/1 111/10/1 110/10/1
f 113/10/1 111/10/1 112/10/1
f 116/10/1 115/10/1 114/10/1
f 117/10/1 115/10/1 116/10/1
f 120/17/1 119/17/1 118/17/1
f 121/17/1 119/17/1 120/17/1
f 122/17/1 119/17/1 121/17/1
f 123/17/1 119/17/1 122/17/1
f 126/17/1 125/17/1 124/17/1
f 127/17/1 125/17/1 126/17/1
f 131/17/1 129/17/1 128/17/1
f 132/17/1 131/17/1 130/17/1
f 133/17/1 129/17/1 131/17/1
f 133/17/1 131/17/1 132/17/1
f 134/17/1 129/17/1 133/17/1
f 135/17/1 129/17/1 134/17/1
f 138/17/1 137/17/1 136/17/1
f 139/17/1 137/17/1 138/17/1
f 142/17/1 141/17/1 140/17/1
f 143/17/1 141/17/1 142/17/1
f 146/16/1 145/16/1 144/16/1
f 147/16/1 145/16/1 146/16/1
f 152/1/1 149/1/1 148/1/1
f 153/1/1 151/1/1 150/1/1
f 154/1/1 152/1/1 148/1/1
f 154/1/1 153/1/1 152/1/1
f 155/1/1 151/1/1 153/1/1
f 155/1/1 153/1/1 154/1/1
f 156/1/1 154/1/1 148/1/1
f 157/14/1 155/14/1 154/14/1
f 157/1/1 154/1/1 156/1/1
f 158/1/1 151/1/1 155/1/1
f 158/14/1 155/14/1 157/14/1
f 159/1/1 151/1/1 158/1/1
f 160/16/1 157/16/1 156/16/1
f 160/1/1 156/1/1 148/1/1
f 161/1/1 158/1/1 157/1/1
f 161/16/1 157/16/1 160/16/1
f 162/2/1 159/2/1 158/2/1
f 162/1/1 158/1/1 161/1/1
f 163/1/1 151/1/1 159/1/1
f 163/2/1 159/2/1 162/2/1
f 164/2/1 162/2/1 161/2/1
f 164/1/1 161/1/1 160/1/1
f 165/1/1 163/1/1 162/1/1
f 165/2/1 162/2/1 164/2/1
f 166/1/1 164/1/1 160/1/1
f 166/1/1 160/1/1 148/1/1
f 166/1/1 165/1/1 164/1/1
f 167/1/1 151/1/1 163/1/1
f 167/1/1 165/1/1 166/1/1
f 167/1/1 163/1/1 165/1/1
f 172/1/1 169/1/1 168/1/1
f 173/1/1 169/1/1 172/1/1
f 174/1/1 171/1/1 170/1/1
f 175/1/1 171/1/1 174/1/1
f 178/17/1 177/17/1 176/17/1
f 179/17/1 177/17/1 178/17/1
f 182/17/1 181/17/1 180/17/1
f 183/17/1 181/17/1 182/17/1
f 188/17/1 185/17/1 184/17/1
f 189/17/1 185/17/1 188/17/1
f 190/17/1 187/17/1 186/17/1
f 191/17/1 187/17/1 190/17/1
f 196/11/1 193/11/1 192/11/1
f 197/11/1 193/11/1 196/11/1
f 198/17/1 195/17/1 194/17/1
f 199/17/1 195/17/1 198/17/1
f 202/16/1 201/16/1 200/16/1
f 204/16/1 202/16/1 200/16/1
f 204/16/1 203/16/1 202/16/1
f 205/16/1 203/16/1 204/16/1
f 206/16/1 203/16/1 205/16/1
f 207/16/1 203/16/1 206/16/1
f 208/19/1 205/19/1 204/19/1
f 209/16/1 206/16/1 205/16/1
f 209/19/1 205/19/1 208/19/1
f 210/19/1 207/19/1 206/19/1
f 210/16/1 206/16/1 209/16/1
f 211/16/1 203/16/1 207/16/1
f 211/19/1 207/19/1 210/19/1
f 212/16/1 210/16/1 209/16/1
f 212/16/1 209/16/1 208/16/1
f 212/16/1 211/16/1 210/16/1
f 213/16/1 203/16/1 211/16/1
f 213/16/1 211/16/1 212/16/1
f 216/18/1 215/18/1 214/18/1
f 217/18/1 215/18/1 216/18/1
f 221/18/1 219/18/1 218/18/1
f 222/18/1 221/18/1 220/18/1
f 223/18/1 219/18/1 221/18/1
f 223/18/1 221/18/1 222/18/1
f 224/18/1 219/18/1 223/18/1
f 225/18/1 219/18/1 224/18/1
f 235/15/1 232/15/1 231/15/1
f 236/15/1 234/15/1 233/15/1
f 237/15/1 229/15/1 228/15/1
f 237/18/1 230/18/1 229/18/1
f 238/18/1 230/18/1 237/18/1
f 239/15/1 227/15/1 226/15/1
f 240/15/1 227/15/1 239/15/1
f 241/15/1 237/15/1 228/15/1
f 242/15/1 237/15/1 241/15/1
f 243/14/1 238/14/1 237/14/1
f 243/15/1 237/15/1 242/15/1
f 244/14/1 238/14/1 243/14/1
f 245/15/1 236/15/1 235/15/1
f 245/15/1 235/15/1 231/15/1
f 246/15/1 239/15/1 226/15/1
f 249/15/1 244/15/1 243/15/1
f 249/15/1 243/15/1 242/15/1
f 249/15/1 245/15/1 244/15/1
f 250/15/1 247/15/1 246/15/1
f 250/15/1 246/15/1 226/15/1
f 251/15/1 247/15/1 250/15/1
f 254/15/1 249/15/1 248/15/1
f 254/15/1 245/15/1 249/15/1
f 254/15/1 234/15/1 236/15/1
f 254/15/1 236/15/1 245/15/1
f 255/15/1 234/15/1 254/15/1
f 256/15/1 254/15/1 248/15/1
f 258/15/1 256/15/1 248/15/1
f 258/15/1 257/15/1 256/15/1
f 259/15/1 257/15/1 258/15/1
f 260/15/1 258/15/1 248/15/1
f 261/15/1 258/15/1 260/15/1
f 262/15/1 258/15/1 261/15/1
f 264/15/1 253/15/1 252/15/1
f 265/15/1 260/15/1 248/15/1
f 266/15/1 260/15/1 265/15/1
f 266/15/1 265/15/1 264/15/1
f 267/15/1 263/15/1 262/15/1
f 267/15/1 262/15/1 261/15/1
f 268/15/1 266/15/1 264/15/1
f 268/15/1 267/15/1 266/15/1
f 268/15/1 264/15/1 252/15/1
f 269/15/1 263/15/1 267/15/1
f 269/15/1 267/15/1 268/15/1
f 270/15/2 271/15/2 272/15/2
f 272/15/2 273/15/2 278/15/2
f 274/15/2 275/15/2 279/15/2
f 279/15/2 275/15/2 280/15/2
f 276/15/2 277/15/2 281/15/2
f 279/15/2 280/15/2 282/15/2
f 280/15/2 281/15/2 282/15/2
f 281/15/2 277/15/2 282/15/2
f 278/15/2 279/15/2 282/15/2
f 282/15/2 277/15/2 283/15/2
f 278/15/2 282/15/2 284/15/2
f 284/15/2 285/15/2 286/15/2
f 286/15/2 285/15/2 287/15/2
f 284/15/2 286/15/2 288/15/2
f 284/15/2 288/15/2 290/15/2
f 288/15/2 289/15/2 290/15/2
f 290/15/2 289/15/2 291/15/2
f 284/15/2 290/15/2 292/15/2
f 284/15/2 292/15/2 294/15/2
f 292/15/2 293/15/2 294/15/2
f 294/15/2 293/15/2 295/15/2
f 284/15/2 294/15/2 296/15/2
f 270/15/2 272/15/2 298/15/2
f 296/15/2 297/15/2 298/15/2
f 284/15/2 296/15/2 298/15/2
f 272/15/2 278/15/2 298/15/2
f 278/15/2 284/15/2 298/15/2
f 298/15/2 297/15/2 299/15/2
f 300/19/2 301/19/2 302/19/2
f 302/19/2 301/19/2 303/19/2
f 304/18/2 305/18/2 306/18/2
f 306/18/2 305/18/2 307/18/2
f 308/18/2 309/18/2 310/18/2
f 310/18/2 309/18/2 311/18/2
f 312/16/2 313/16/2 314/16/2
f 314/16/2 313/16/2 315/16/2
f 316/17/2 317/17/2 320/17/2
f 320/17/2 317/17/2 321/17/2
f 318/17/2 319/17/2 322/17/2
f 322/17/2 319/17/2 323/17/2
f 324/11/2 325/11/2 326/11/2
f 326/11/2 325/11/2 327/11/2
f 328/7/2 329/7/2 330/7/2
f 330/7/2 329/7/2 331/7/2
f 332/17/2 333/17/2 338/17/2
f 338/17/2 333/17/2 339/17/2
f 334/17/2 335/17/2 340/17/2
f 340/17/2 335/17/2 341/17/2
f 336/11/2 337/11/2 342/11/2
f 342/11/2 337/11/2 343/11/2
f 344/18/2 345/18/2 346/18/2
f 346/18/2 345/18/2 347/18/2
f 348/18/2 349/18/2 350/18/2
f 350/18/2 349/18/2 351/18/2
f 348/18/2 350/18/2 352/18/2
f 348/18/2 352/18/2 354/18/2
f 352/18/2 353/18/2 354/18/2
f 354/18/2 353/18/2 355/18/2
f 356/7/2 357/7/2 359/7/2
f 357/8/2 358/8/2 359/8/2
f 359/8/2 358/8/2 360/8/2
f 356/7/2 359/7/2 361/7/2
f 359/7/2 360/7/2 361/7/2
f 361/7/2 360/7/2 362/7/2
f 363/18/2 364/18/2 366/18/2
f 364/17/2 365/17/2 366/17/2
f 366/17/2 365/17/2 367/17/2
f 363/18/2 366/18/2 368/18/2
f 366/18/2 367/18/2 368/18/2
f 368/18/2 367/18/2 369/18/2
f 370/19/2 371/19/2 372/19/2
f 370/19/2 372/19/2 374/19/2
f 372/19/2 373/19/2 374/19/2
f 374/19/2 373/19/2 375/19/2
f 376/10/2 377/10/2 378/10/2
f 378/10/2 377/10/2 379/10/2
f 380/10/2 381/10/2 382/10/2
f 382/10/2 381/10/2 383/10/2
f 384/17/2 385/17/2 386/17/2
f 386/17/2 385/17/2 387/17/2
f 388/17/2 389/17/2 390/17/2
f 390/17/2 389/17/2 391/17/2
f 391/17/2 389/17/2 392/17/2
f 392/17/2 389/17/2 393/17/2
f 394/17/2 395/17/2 396/17/2
f 396/17/2 395/17/2 397/17/2
f 398/17/2 399/17/2 401/17/2
f 400/17/2 401/17/2 402/17/2
f 401/17/2 399/17/2 403/17/2
f 402/17/2 401/17/2 403/17/2
f 404/10/2 405/10/2 406/10/2
f 406/10/2 405/10/2 407/10/2
f 407/10/2 405/10/2 408/10/2
f 408/10/2 405/10/2 409/10/2
f 407/17/2 408/17/2 410/17/2
f 410/17/2 408/17/2 411/17/2
f 412/17/2 413/17/2 415/17/2
f 414/17/2 415/17/2 416/17/2
f 415/17/2 413/17/2 417/17/2
f 416/17/2 415/17/2 417/17/2
f 417/17/2 413/17/2 418/17/2
f 418/17/2 413/17/2 419/17/2
f 420/17/2 421/17/2 422/17/2
f 422/17/2 421/17/2 423/17/2
f 424/17/2 425/17/2 426/17/2
f 426/17/2 425/17/2 427/17/2
f 428/17/2 429/17/2 430/17/2
f 428/17/2 430/17/2 432/17/2
f 430/17/2 431/17/2 432/17/2
f 432/17/2 431/17/2 433/17/2
f 434/1/2 435/1/2 438/1/2
f 438/1/2 435/1/2 439/1/2
f 436/1/2 437/1/2 440/1/2
f 440/1/2 437/1/2 441/1/2
f 442/1/2 443/1/2 446/1/2
f 444/1/2 445/1/2 447/1/2
f 442/1/2 446/1/2 448/1/2
f 446/1/2 447/1/2 448/1/2
f 447/1/2 445/1/2 449/1/2
f 448/1/2 447/1/2 449/1/2
f 450/17/2 451/17/2 452/17/2
f 452/17/2 451/17/2 453/17/2
f 454/17/2 455/17/2 456/17/2
f 456/17/2 455/17/2 457/17/2
f 458/17/2 459/17/2 460/17/2
f 460/17/2 459/17/2 461/17/2
f 462/17/2 463/17/2 464/17/2
f 464/17/2 463/17/2 465/17/2
f 464/16/2 465/16/2 466/16/2
f 466/16/2 465/16/2 467/16/2
f 467/16/2 465/16/2 468/16/2
f 468/16/2 465/16/2 469/16/2
f 466/15/2 467/15/2 470/15/2
f 467/18/2 468/18/2 470/18/2
f 468/15/2 469/15/2 471/15/2
f 470/18/2 468/18/2 471/18/2
f 466/15/2 470/15/2 472/15/2
f 470/14/2 471/14/2 472/14/2
f 471/15/2 469/15/2 473/15/2
f 472/14/2 471/14/2 473/14/2
f 466/15/2 472/15/2 474/15/2
f 472/15/2 473/15/2 474/15/2
f 473/15/2 469/15/2 475/15/2
f 474/15/2 473/15/2 475/15/2
f 480/3/3 478/3/3 477/3/3
f 480/15/3 479/15/3 478/15/3
f 481/15/3 479/15/3 480/15/3
f 482/15/3 479/15/3 481/15/3
f 483/3/3 480/3/3 477/3/3
f 483/6/3 481/6/3 480/6/3
f 484/6/3 481/6/3 483/6/3
f 485/6/3 481/6/3 484/6/3
f 487/17/3 477/17/3 476/17/3
f 487/3/3 483/3/3 477/3/3
f 487/3/3 484/3/3 483/3/3
f 488/3/3 484/3/3 487/3/3
f 489/16/3 486/16/3 485/16/3
f 489/3/3 484/3/3 488/3/3
f 489/16/3 485/16/3 484/16/3
f 492/16/3 489/16/3 488/16/3
f 492/16/3 486/16/3 489/16/3
f 493/18/3 491/18/3 490/18/3
f 494/18/3 491/18/3 493/18/3
f 496/17/3 488/17/3 487/17/3
f 496/17/3 487/17/3 476/17/3
f 497/16/3 492/16/3 488/16/3
f 497/17/3 488/17/3 496/17/3
f 498/15/3 495/15/3 494/15/3
f 498/16/3 492/16/3 497/16/3
f 498/15/3 494/15/3 493/15/3
f 498/15/3 493/15/3 492/15/3
f 499/15/3 495/15/3 498/15/3
f 504/16/3 501/16/3 500/16/3
f 504/19/3 502/19/3 501/19/3
f 505/16/3 503/16/3 502/16/3
f 505/19/3 502/19/3 504/19/3
f 506/16/3 504/16/3 500/16/3
f 506/16/3 505/16/3 504/16/3
f 507/16/3 503/16/3 505/16/3
f 507/16/3 505/16/3 506/16/3
f 514/18/3 509/18/3 508/18/3
f 515/18/3 509/18/3 514/18/3
f 516/18/3 511/18/3 510/18/3
f 517/18/3 511/18/3 516/18/3
f 518/18/3 513/18/3 512/18/3
f 519/18/3 513/18/3 518/18/3
f 522/11/3 521/11/3 520/11/3
f 523/11/3 521/11/3 522/11/3
f 524/11/3 521/11/3 523/11/3
f 525/11/3 521/11/3 524/11/3
f 526/11/3 522/11/3 520/11/3
f 526/13/3 523/13/3 522/13/3
f 527/11/3 524/11/3 523/11/3
f 527/13/3 523/13/3 526/13/3
f 528/10/3 525/10/3 524/10/3
f 528/11/3 524/11/3 527/11/3
f 528/11/3 527/11/3 526/11/3
f 529/11/3 521/11/3 525/11/3
f 529/10/3 525/10/3 528/10/3
f 530/11/3 528/11/3 526/11/3
f 530/11/3 526/11/3 520/11/3
f 530/11/3 529/11/3 528/11/3
f 531/11/3 529/11/3 530/11/3
f 532/11/3 521/11/3 529/11/3
f 532/11/3 529/11/3 531/11/3
f 535/1/3 534/1/3 533/1/3
f 536/1/3 534/1/3 535/1/3
f 537/1/3 535/1/3 533/1/3
f 538/1/3 535/1/3 537/1/3
f 539/1/3 535/1/3 538/1/3
f 540/15/3 536/15/3 535/15/3
f 540/1/3 535/1/3 539/1/3
f 541/1/3 534/1/3 536/1/3
f 541/15/3 536/15/3 540/15/3
f 543/1/3 539/1/3 538/1/3
f 544/15/3 540/15/3 539/15/3
f 544/1/3 539/1/3 543/1/3
f 545/1/3 541/1/3 540/1/3
f 545/15/3 540/15/3 544/15/3
f 546/1/3 543/1/3 542/1/3
f 546/1/3 544/1/3 543/1/3
f 546/1/3 545/1/3 544/1/3
f 547/1/3 541/1/3 545/1/3
f 547/1/3 545/1/3 546/1/3
f 547/1/3 534/1/3 541/1/3
f 550/1/3 549/1/3 548/1/3
f 551/1/3 549/1/3 550/1/3
f 554/1/3 553/1/3 552/1/3
f 555/1/3 553/1/3 554/1/3
f 558/16/3 557/16/3 556/16/3
f 559/16/3 557/16/3 558/16/3
f 562/19/3 561/19/3 560/19/3
f 563/19/3 561/19/3 562/19/3
f 566/17/3 565/17/3 564/17/3
f 567/17/3 565/17/3 566/17/3
f 570/17/3 569/17/3 568/17/3
f 571/17/3 569/17/3 570/17/3
f 574/17/3 573/17/3 572/17/3
f 575/17/3 573/17/3 574/17/3
f 578/17/3 577/17/3 576/17/3
f 579/17/3 577/17/3 578/17/3
f 582/17/3 581/17/3 580/17/3
f 583/17/3 581/17/3 582/17/3
f 586/17/3 585/17/3 584/17/3
f 587/17/3 585/17/3 586/17/3
f 590/17/3 589/17/3 588/17/3
f 591/17/3 589/17/3 590/17/3
f 594/17/3 593/17/3 592/17/3
f 595/17/3 593/17/3 594/17/3
f 598/17/3 597/17/3 596/17/3
f 599/17/3 597/17/3 598/17/3
f 600/17/3 597/17/3 599/17/3
f 601/17/3 597/17/3 600/17/3
f 604/10/3 603/10/3 602/10/3
f 605/10/3 603/10/3 604/10/3
f 606/10/3 603/10/3 605/10/3
f 607/10/3 603/10/3 606/10/3
f 608/10/3 603/10/3 607/10/3
f 611/10/3 607/10/3 606/10/3
f 612/10/3 607/10/3 611/10/3
f 613/10/3 603/10/3 608/10/3
f 614/10/3 612/10/3 611/10/3
f 614/10/3 613/10/3 612/10/3
f 614/10/3 610/10/3 609/10/3
f 614/10/3 611/10/3 610/10/3
f 615/10/3 603/10/3 613/10/3
f 615/10/3 613/10/3 614/10/3
f 621/9/3 617/9/3 616/9/3
f 622/9/3 621/9/3 620/9/3
f 623/9/3 617/9/3 621/9/3
f 623/9/3 621/9/3 622/9/3
f 624/9/3 617/9/3 623/9/3
f 625/9/3 617/9/3 624/9/3
f 626/9/3 619/9/3 618/9/3
f 627/9/3 619/9/3 626/9/3
f 630/17/3 629/17/3 628/17/3
f 631/17/3 629/17/3 630/17/3
f 634/17/3 633/17/3 632/17/3
f 635/17/3 633/17/3 634/17/3
f 638/19/3 637/19/3 636/19/3
f 639/19/3 637/19/3 638/19/3
f 642/16/3 641/16/3 640/16/3
f 643/16/3 641/16/3 642/16/3
f 646/16/3 645/16/3 644/16/3
f 647/16/3 645/16/3 646/16/3
f 653/18/3 649/18/3 648/18/3
f 654/18/3 651/18/3 650/18/3
f 655/18/3 651/18/3 654/18/3
f 656/18/3 653/18/3 652/18/3
f 657/18/3 649/18/3 653/18/3
f 657/18/3 653/18/3 656/18/3
f 660/17/3 659/17/3 658/17/3
f 661/17/3 659/17/3 660/17/3
f 664/17/3 663/17/3 662/17/3
f 665/17/3 663/17/3 664/17/3
f 668/17/3 667/17/3 666/17/3
f 669/17/3 667/17/3 668/17/3
f 672/17/3 671/17/3 670/17/3
f 673/17/3 671/17/3 672/17/3
f 681/11/3 675/11/3 674/11/3
f 682/11/3 681/11/3 680/11/3
f 683/11/3 675/11/3 681/11/3
f 683/11/3 681/11/3 682/11/3
f 685/7/3 677/7/3 676/7/3
f 687/11/3 682/11/3 680/11/3
f 688/7/3 685/7/3 684/7/3
f 689/7/3 677/7/3 685/7/3
f 689/7/3 685/7/3 688/7/3
f 690/11/3 687/11/3 686/11/3
f 691/11/3 682/11/3 687/11/3
f 691/11/3 687/11/3 690/11/3
f 693/18/3 679/18/3 678/18/3
f 695/7/3 688/7/3 684/7/3
f 696/18/3 693/18/3 692/18/3
f 697/18/3 679/18/3 693/18/3
f 697/18/3 693/18/3 696/18/3
f 698/7/3 695/7/3 694/7/3
f 699/7/3 688/7/3 695/7/3
f 699/7/3 695/7/3 698/7/3
f 701/18/3 696/18/3 692/18/3
f 702/18/3 701/18/3 700/18/3
f 703/18/3 696/18/3 701/18/3
f 703/18/3 701/18/3 702/18/3
f 706/17/3 705/17/3 704/17/3
f 707/17/3 705/17/3 706/17/3
f 710/17/3 709/17/3 708/17/3
f 711/17/3 709/17/3 710/17/3
f 713/17/3 709/17/3 711/17/3
f 714/17/3 709/17/3 713/17/3
f 715/17/3 705/17/3 707/17/3
f 716/17/3 705/17/3 715/17/3
f 718/17/3 716/17/3 715/17/3
f 718/17/3 717/17/3 716/17/3
f 718/17/3 715/17/3 714/17/3
f 718/17/3 714/17/3 713/17/3
f 718/17/3 713/17/3 712/17/3
f 719/17/3 717/17/3 718/17/3
f 720/17/3 717/17/3 719/17/3
f 721/17/3 717/17/3 720/17/3
f 722/17/3 717/17/3 721/17/3
f 723/17/3 717/17/3 722/17/3
f 724/17/3 720/17/3 719/17/3
f 725/17/3 720/17/3 724/17/3
f 726/17/3 722/17/3 721/17/3
f 727/17/3 722/17/3 726/17/3
f 738/15/3 729/15/3 728/15/3
f 739/15/3 729/15/3 738/15/3
f 743/15/3 731/15/3 730/15/3
f 744/15/3 741/15/3 740/15/3
f 745/15/3 743/15/3 742/15/3
f 746/15/3 744/15/3 740/15/3
f 746/15/3 745/15/3 744/15/3
f 747/15/3 745/15/3 746/15/3
f 749/15/3 745/15/3 747/15/3
f 750/15/3 745/15/3 749/15/3
f 750/15/3 749/15/3 748/15/3
f 751/15/3 743/15/3 745/15/3
f 751/15/3 745/15/3 750/15/3
f 751/15/3 731/15/3 743/15/3
f 753/15/3 733/15/3 732/15/3
f 754/15/3 753/15/3 752/15/3
f 755/15/3 733/15/3 753/15/3
f 755/15/3 753/15/3 754/15/3
f 756/15/3 750/15/3 748/15/3
f 757/15/3 750/15/3 756/15/3
f 759/15/3 735/15/3 734/15/3
f 761/15/3 754/15/3 752/15/3
f 762/15/3 759/15/3 758/15/3
f 763/15/3 735/15/3 759/15/3
f 763/15/3 759/15/3 762/15/3
f 764/15/3 761/15/3 760/15/3
f 765/15/3 761/15/3 764/15/3
f 766/15/3 754/15/3 761/15/3
f 766/15/3 761/15/3 765/15/3
f 770/15/3 768/15/3 767/15/3
f 771/15/3 768/15/3 770/15/3
f 772/15/3 737/15/3 736/15/3
f 775/15/3 762/15/3 758/15/3
f 776/15/3 774/15/3 773/15/3
f 776/15/3 775/15/3 774/15/3
f 777/15/3 775/15/3 776/15/3
f 778/15/3 762/15/3 775/15/3
f 778/15/3 775/15/3 777/15/3
f 781/15/3 771/15/3 770/15/3
f 781/15/3 770/15/3 769/15/3
f 781/15/3 772/15/3 771/15/3
f 782/15/3 780/15/3 779/15/3
f 782/15/3 781/15/3 780/15/3
f 783/15/3 781/15/3 782/15/3
f 784/15/3 781/15/3 783/15/3
f 785/15/3 781/15/3 784/15/3
f 786/15/3 781/15/3 785/15/3
f 787/15/3 772/15/3 781/15/3
f 787/15/3 781/15/3 786/15/3
f 790/15/3 789/15/3 788/15/3
f 791/15/3 789/15/3 790/15/3
f 795/15/3 793/15/3 792/15/3
f 796/15/3 795/15/3 794/15/3
f 797/15/3 793/15/3 795/15/3
f 797/15/3 795/15/3 796/15/3
f 798/15/3 789/15/3 791/15/3
f 799/15/3 789/15/3 798/15/3
f 800/15/3 772/15/3 787/15/3
f 801/15/3 737/15/3 772/15/3
f 801/15/3 772/15/3 800/15/3
f 802/15/3 796/15/3 794/15/3
f 808/15/3 802/15/3 794/15/3
f 808/15/3 803/15/3 802/15/3
f 809/15/3 803/15/3 808/15/3
f 810/15/3 805/15/3 804/15/3
f 811/15/3 805/15/3 810/15/3
f 812/15/3 807/15/3 806/15/3
f 813/15/3 807/15/3 812/15/3
f 814/16/4 815/16/4 817/16/4
f 817/16/4 815/16/4 818/16/4
f 816/18/4 817/18/4 821/18/4
f 817/18/4 818/18/4 821/18/4
f 821/18/4 818/18/4 822/18/4
f 819/18/4 820/18/4 823/18/4
f 823/18/4 820/18/4 824/18/4
f 825/16/4 826/16/4 827/16/4
f 827/16/4 826/16/4 828/16/4
f 829/11/4 830/11/4 831/11/4
f 831/11/4 830/11/4 832/11/4
f 832/11/4 830/11/4 833/11/4
f 833/11/4 830/11/4 834/11/4
f 829/11/4 831/11/4 835/11/4
f 831/13/4 832/13/4 835/13/4
f 832/11/4 833/11/4 836/11/4
f 835/13/4 832/13/4 836/13/4
f 833/10/4 834/10/4 837/10/4
f 836/11/4 833/11/4 837/11/4
f 835/11/4 836/11/4 837/11/4
f 834/11/4 830/11/4 838/11/4
f 837/10/4 834/10/4 838/10/4
f 835/11/4 837/11/4 839/11/4
f 829/11/4 835/11/4 839/11/4
f 837/11/4 838/11/4 839/11/4
f 838/11/4 830/11/4 840/11/4
f 839/11/4 838/11/4 840/11/4
f 841/1/4 842/1/4 843/1/4
f 843/1/4 842/1/4 844/1/4
f 845/1/4 846/1/4 847/1/4
f 847/1/4 846/1/4 848/1/4
f 849/1/4 850/1/4 851/1/4
f 851/1/4 850/1/4 852/1/4
f 852/1/4 850/1/4 854/1/4
f 853/1/4 854/1/4 855/1/4
f 854/1/4 850/1/4 856/1/4
f 855/1/4 854/1/4 856/1/4
f 857/17/4 858/17/4 859/17/4
f 857/17/4 859/17/4 861/17/4
f 859/19/4 860/19/4 861/19/4
f 861/19/4 860/19/4 862/19/4
f 857/17/4 861/17/4 863/17/4
f 863/17/4 861/17/4 864/17/4
f 865/17/4 866/17/4 867/17/4
f 867/17/4 866/17/4 868/17/4
f 869/17/4 870/17/4 871/17/4
f 871/17/4 870/17/4 872/17/4
f 873/17/4 874/17/4 875/17/4
f 875/17/4 874/17/4 876/17/4
f 877/17/4 878/17/4 879/17/4
f 879/17/4 878/17/4 880/17/4
f 881/17/4 882/17/4 883/17/4
f 883/17/4 882/17/4 884/17/4
f 885/17/4 886/17/4 887/17/4
f 887/17/4 886/17/4 888/17/4
f 888/17/4 886/17/4 889/17/4
f 889/17/4 886/17/4 890/17/4
f 891/17/4 892/17/4 893/17/4
f 893/17/4 892/17/4 894/17/4
f 895/17/4 896/17/4 897/17/4
f 897/17/4 896/17/4 898/17/4
f 895/17/4 897/17/4 899/17/4
f 895/17/4 899/17/4 901/17/4
f 899/17/4 900/17/4 901/17/4
f 901/17/4 900/17/4 902/17/4
f 895/17/4 901/17/4 903/17/4
f 903/17/4 901/17/4 904/17/4
f 905/18/4 906/18/4 907/18/4
f 907/18/4 906/18/4 908/18/4
f 909/17/4 910/17/4 911/17/4
f 911/17/4 910/17/4 912/17/4
f 913/17/4 914/17/4 915/17/4
f 915/17/4 914/17/4 916/17/4
f 917/17/4 918/17/4 921/17/4
f 918/16/4 919/16/4 922/16/4
f 921/17/4 918/17/4 922/17/4
f 919/15/4 920/15/4 923/15/4
f 922/16/4 919/16/4 923/16/4
f 923/15/4 920/15/4 924/15/4
f 927/17/5 926/17/5 925/17/5
f 928/17/5 926/17/5 927/17/5
f 932/1/5 930/1/5 929/1/5
f 933/1/5 930/1/5 932/1/5
f 935/1/5 932/1/5 931/1/5
f 935/1/5 934/1/5 933/1/5
f 935/1/5 933/1/5 932/1/5
f 936/1/5 934/1/5 935/1/5
f 937/1/5 934/1/5 936/1/5
f 938/1/5 934/1/5 937/1/5
f 939/1/5 937/1/5 936/1/5
f 940/1/5 937/1/5 939/1/5
f 943/10/5 942/10/5 941/10/5
f 944/10/5 942/10/5 943/10/5
f 947/17/5 946/17/5 945/17/5
f 948/17/5 946/17/5 947/17/5
f 951/10/5 950/10/5 949/10/5
f 952/10/5 950/10/5 951/10/5
f 955/16/5 954/16/5 953/16/5
f 956/16/5 954/16/5 955/16/5
f 957/16/5 955/16/5 953/16/5
f 958/16/5 955/16/5 957/16/5
f 961/11/5 960/11/5 959/11/5
f 962/11/5 960/11/5 961/11/5
f 966/16/5 964/16/5 963/16/5
f 966/16/5 965/16/5 964/16/5
f 967/16/5 965/16/5 966/16/5
f 971/19/5 969/19/5 968/19/5
f 972/19/5 969/19/5 971/19/5
f 974/16/5 971/16/5 970/16/5
f 974/16/5 973/16/5 972/16/5
f 974/16/5 972/16/5 971/16/5
f 975/16/5 973/16/5 974/16/5
f 976/16/5 973/16/5 975/16/5
f 977/16/5 973/16/5 976/16/5
f 980/7/5 979/7/5 978/7/5
f 981/7/5 979/7/5 980/7/5
f 984/18/5 983/18/5 982/18/5
f 985/18/5 983/18/5 984/18/5
f 988/18/5 987/18/5 986/18/5
f 989/18/5 987/18/5 988/18/5
f 992/18/5 991/18/5 990/18/5
f 993/18/5 991/18/5 992/18/5
f 998/17/5 995/17/5 994/17/5
f 999/17/5 995/17/5 998/17/5
f 1000/17/5 997/17/5 996/17/5
f 1001/17/5 997/17/5 1000/17/5
f 1006/17/5 1003/17/5 1002/17/5
f 1007/17/5 1003/17/5 1006/17/5
f 1008/17/5 1005/17/5 1004/17/5
f 1009/17/5 1005/17/5 1008/17/5
f 1012/17/5 1011/17/5 1010/17/5
f 1013/17/5 1011/17/5 1012/17/5
f 1016/11/5 1015/11/5 1014/11/5
f 1017/11/5 1015/11/5 1016/11/5
f 1020/7/5 1019/7/5 1018/7/5
f 1021/7/5 1019/7/5 1020/7/5
f 1024/18/5 1023/18/5 1022/18/5
f 1025/18/5 1023/18/5 1024/18/5
f 1028/18/5 1027/18/5 1026/18/5
f 1029/18/5 1027/18/5 1028/18/5
f 1030/6/6 1031/6/6 1032/6/6
f 1032/6/6 1031/6/6 1033/6/6
f 1030/6/6 1032/6/6 1034/6/6
f 1034/6/6 1032/6/6 1035/6/6
f 1035/6/6 1032/6/6 1036/6/6
f 1036/6/6 1032/6/6 1037/6/6
f 1030/6/6 1034/6/6 1038/6/6
f 1038/6/6 1034/6/6 1039/6/6
f 1030/6/6 1038/6/6 1040/6/6
f 1040/6/6 1038/6/6 1041/6/6
f 1039/6/6 1034/6/6 1042/6/6
f 1042/6/6 1034/6/6 1043/6/6
f 1032/5/6 1033/5/6 1044/5/6
f 1037/6/6 1032/6/6 1044/6/6
f 1033/6/6 1031/6/6 1045/6/6
f 1044/5/6 1033/5/6 1045/5/6
f 1035/6/6 1036/6/6 1046/6/6
f 1036/5/6 1037/5/6 1046/5/6
f 1037/6/6 1044/6/6 1047/6/6
f 1046/5/6 1037/5/6 1047/5/6
f 1044/6/6 1045/6/6 1047/6/6
f 1030/6/6 1040/6/6 1048/6/6
f 1040/5/6 1041/5/6 1048/5/6
f 1041/6/6 1038/6/6 1049/6/6
f 1048/5/6 1041/5/6 1049/5/6
f 1038/5/6 1039/5/6 1050/5/6
f 1049/6/6 1038/6/6 1050/6/6
f 1048/6/6 1049/6/6 1050/6/6
f 1039/6/6 1042/6/6 1051/6/6
f 1050/5/6 1039/5/6 1051/5/6
f 1043/6/6 1034/6/6 1052/6/6
f 1034/5/6 1035/5/6 1052/5/6
f 1035/6/6 1046/6/6 1053/6/6
f 1052/5/6 1035/5/6 1053/5/6
f 1046/6/6 1047/6/6 1053/6/6
f 1051/6/6 1042/6/6 1054/6/6
f 1042/5/6 1043/5/6 1054/5/6
f 1050/6/6 1051/6/6 1054/6/6
f 1043/6/6 1052/6/6 1055/6/6
f 1054/5/6 1043/5/6 1055/5/6
f 1052/6/6 1053/6/6 1055/6/6
f 1050/6/6 1054/6/6 1056/6/6
f 1048/6/6 1050/6/6 1056/6/6
f 1054/6/6 1055/6/6 1056/6/6
f 1056/6/6 1055/6/6 1057/6/6
f 1055/6/6 1053/6/6 1058/6/6
f 1057/6/6 1055/6/6 1058/6/6
f 1053/6/6 1047/6/6 1058/6/6
f 1047/6/6 1045/6/6 1058/6/6
f 1058/6/6 1045/6/6 1059/6/6
f 1048/6/6 1056/6/6 1060/6/6
f 1030/6/6 1048/6/6 1060/6/6
f 1060/6/6 1056/6/6 1061/6/6
f 1057/6/6 1058/6/6 1062/6/6
f 1062/6/6 1058/6/6 1063/6/6
f 1058/5/6 1059/5/6 1064/5/6
f 1063/6/6 1058/6/6 1064/6/6
f 1059/6/6 1045/6/6 1065/6/6
f 1064/5/6 1059/5/6 1065/5/6
f 1063/6/6 1064/6/6 1066/6/6
f 1064/6/6 1065/6/6 1066/6/6
f 1066/6/6 1065/6/6 1067/6/6
f 1057/6/6 1062/6/6 1068/6/6
f 1068/6/6 1062/6/6 1069/6/6
f 1056/5/6 1057/5/6 1070/5/6
f 1061/6/6 1056/6/6 1070/6/6
f 1057/6/6 1068/6/6 1071/6/6
f 1070/5/6 1057/5/6 1071/5/6
f 1069/6/6 1062/6/6 1072/6/6
f 1062/5/6 1063/5/6 1072/5/6
f 1063/6/6 1066/6/6 1073/6/6
f 1072/5/6 1063/5/6 1073/5/6
f 1030/6/6 1060/6/6 1074/6/6
f 1060/5/6 1061/5/6 1074/5/6
f 1070/6/6 1071/6/6 1075/6/6
f 1074/5/6 1061/5/6 1075/5/6
f 1061/6/6 1070/6/6 1075/6/6
f 1071/6/6 1068/6/6 1076/6/6
f 1075/6/6 1071/6/6 1076/6/6
f 1074/6/6 1075/6/6 1076/6/6
f 1068/5/6 1069/5/6 1076/5/6
f 1069/6/6 1072/6/6 1077/6/6
f 1076/5/6 1069/5/6 1077/5/6
f 1072/6/6 1073/6/6 1077/6/6
f 1065/6/6 1045/6/6 1078/6/6
f 1045/6/6 1031/6/6 1078/6/6
f 1067/6/6 1065/6/6 1078/6/6
f 1078/6/6 1031/6/6 1079/6/6
f 1066/5/6 1067/5/6 1080/5/6
f 1077/6/6 1073/6/6 1080/6/6
f 1076/6/6 1077/6/6 1080/6/6
f 1073/6/6 1066/6/6 1080/6/6
f 1067/6/6 1078/6/6 1081/6/6
f 1080/5/6 1067/5/6 1081/5/6
f 1078/5/6 1079/5/6 1082/5/6
f 1081/6/6 1078/6/6 1082/6/6
f 1080/6/6 1081/6/6 1082/6/6
f 1079/6/6 1031/6/6 1083/6/6
f 1082/5/6 1079/5/6 1083/5/6
f 1080/6/6 1082/6/6 1084/6/6
f 1074/6/6 1076/6/6 1084/6/6
f 1082/6/6 1083/6/6 1084/6/6
f 1076/6/6 1080/6/6 1084/6/6
f 1030/6/6 1074/6/6 1084/6/6
f 1084/6/6 1083/6/6 1085/6/6
f 1085/6/6 1083/6/6 1086/6/6
f 1086/6/6 1083/6/6 1087/6/6
f 1085/6/6 1086/6/6 1088/6/6
f 1086/5/6 1087/5/6 1088/5/6
f 1087/6/6 1083/6/6 1089/6/6
f 1088/5/6 1087/5/6 1089/5/6
f 1089/6/6 1083/6/6 1090/6/6
f 1030/6/6 1084/6/6 1091/6/6
f 1084/5/6 1085/5/6 1091/5/6
f 1085/6/6 1088/6/6 1092/6/6
f 1091/5/6 1085/5/6 1092/5/6
f 1088/6/6 1089/6/6 1092/6/6
f 1092/6/6 1089/6/6 1093/6/6
f 1093/6/6 1089/6/6 1094/6/6
f 1094/6/6 1089/6/6 1095/6/6
f 1095/6/6 1089/6/6 1096/6/6
f 1091/6/6 1092/6/6 1097/6/6
f 1092/6/6 1093/6/6 1097/6/6
f 1093/5/6 1094/5/6 1097/5/6
f 1094/6/6 1095/6/6 1098/6/6
f 1097/5/6 1094/5/6 1098/5/6
f 1089/5/6 1090/5/6 1099/5/6
f 1096/6/6 1089/6/6 1099/6/6
f 1090/6/6 1083/6/6 1100/6/6
f 1099/5/6 1090/5/6 1100/5/6
f 1098/6/6 1095/6/6 1101/6/6
f 1097/6/6 1098/6/6 1101/6/6
f 1095/5/6 1096/5/6 1101/5/6
f 1096/6/6 1099/6/6 1102/6/6
f 1101/5/6 1096/5/6 1102/5/6
f 1099/6/6 1100/6/6 1102/6/6
f 1097/6/6 1101/6/6 1103/6/6
f 1030/6/6 1091/6/6 1103/6/6
f 1101/6/6 1102/6/6 1103/6/6
f 1091/6/6 1097/6/6 1103/6/6
f 1083/6/6 1031/6/6 1104/6/6
f 1103/6/6 1102/6/6 1104/6/6
f 1102/6/6 1100/6/6 1104/6/6
f 1100/6/6 1083/6/6 1104/6/6
f 1105/16/6 1106/16/6 1107/16/6
f 1107/16/6 1106/16/6 1108/16/6
f 1105/16/6 1107/16/6 1109/16/6
f 1109/16/6 1110/16/6 1111/16/6
f 1105/16/6 1109/16/6 1112/16/6
f 1109/16/6 1111/16/6 1112/16/6
f 1112/16/6 1111/16/6 1113/16/6
f 1105/16/6 1112/16/6 1114/16/6
f 1105/16/6 1114/16/6 1116/16/6
f 1114/16/6 1115/16/6 1116/16/6
f 1116/16/6 1115/16/6 1117/16/6
f 1117/16/6 1115/16/6 1118/16/6
f 1118/16/6 1115/16/6 1119/16/6
f 1105/16/6 1116/16/6 1120/16/6
f 1117/16/6 1118/16/6 1121/16/6
f 1121/16/6 1118/16/6 1122/16/6
f 1119/16/6 1115/16/6 1123/16/6
f 1121/16/6 1122/16/6 1124/16/6
f 1122/16/6 1123/16/6 1124/16/6
f 1105/16/6 1120/16/6 1124/16/6
f 1120/16/6 1121/16/6 1124/16/6
f 1124/16/6 1123/16/6 1125/16/6
f 1125/16/6 1123/16/6 1126/16/6
f 1123/16/6 1115/16/6 1127/16/6
f 1126/16/6 1123/16/6 1127/16/6
f 1105/16/6 1124/16/6 1128/16/6
f 1125/16/6 1126/16/6 1129/16/6
f 1129/16/6 1126/16/6 1130/16/6
f 1127/16/6 1115/16/6 1131/16/6
f 1105/16/6 1128/16/6 1133/16/6
f 1130/16/6 1131/16/6 1133/16/6
f 1129/16/6 1130/16/6 1133/16/6
f 1128/16/6 1129/16/6 1133/16/6
f 1132/16/6 1133/16/6 1134/16/6
f 1134/16/6 1133/16/6 1135/16/6
f 1131/16/6 1115/16/6 1136/16/6
f 1135/16/6 1133/16/6 1136/16/6
f 1133/16/6 1131/16/6 1136/16/6
f 1136/16/6 1115/16/6 1137/16/6
f 1132/16/6 1134/16/6 1138/16/6
f 1138/16/6 1134/16/6 1139/16/6
f 1135/16/6 1136/16/6 1140/16/6
f 1140/16/6 1136/16/6 1141/16/6
f 1141/16/6 1136/16/6 1144/16/6
f 1144/16/6 1136/16/6 1145/16/6
f 1142/16/6 1143/16/6 1148/16/6
f 1148/16/6 1143/16/6 1149/16/6
f 1149/16/6 1143/16/6 1152/16/6
f 1152/16/6 1143/16/6 1153/16/6
f 1142/16/6 1148/16/6 1156/16/6
f 1156/16/6 1148/16/6 1157/16/6
f 1150/16/6 1151/16/6 1158/16/6
f 1158/16/6 1151/16/6 1159/16/6
f 1146/16/6 1147/16/6 1160/16/6
f 1160/16/6 1147/16/6 1161/16/6
f 1154/16/6 1155/16/6 1165/16/6
f 1146/16/6 1160/16/6 1166/16/6
f 1161/16/6 1147/16/6 1167/16/6
f 1164/16/6 1165/16/6 1168/16/6
f 1165/16/6 1155/16/6 1168/16/6
f 1168/16/6 1155/16/6 1169/16/6
f 1141/16/6 1144/16/6 1170/16/6
f 1170/16/6 1144/16/6 1171/16/6
f 1164/16/6 1168/16/6 1172/16/6
f 1153/16/6 1143/16/6 1173/16/6
f 1173/16/6 1143/16/6 1174/16/6
f 1171/16/6 1144/16/6 1175/16/6
f 1175/16/6 1144/16/6 1176/16/6
f 1146/16/6 1166/16/6 1177/16/6
f 1166/16/6 1167/16/6 1177/16/6
f 1177/16/6 1167/16/6 1178/16/6
f 1164/16/6 1172/16/6 1179/16/6
f 1164/16/6 1179/16/6 1180/16/6
f 1176/16/6 1144/16/6 1181/16/6
f 1164/16/6 1180/16/6 1183/16/6
f 1162/16/6 1163/16/6 1184/16/6
f 1184/16/6 1163/16/6 1185/16/6
f 1181/16/6 1182/16/6 1186/16/6
f 1176/16/6 1181/16/6 1186/16/6
f 1186/16/6 1182/16/6 1187/16/6
f 1164/16/6 1183/16/6 1188/16/6
f 1188/16/6 1183/16/6 1189/16/6
f 1189/16/6 1183/16/6 1190/16/6
f 1190/16/6 1183/16/6 1191/16/6
f 1191/16/6 1183/16/6 1192/16/6
f 1192/16/6 1183/16/6 1193/16/6
f 1171/16/6 1175/16/6 1194/16/6
f 1189/16/6 1190/16/6 1196/16/6
f 1191/16/6 1192/16/6 1197/16/6
f 1197/16/6 1192/16/6 1198/16/6
f 1193/16/6 1183/16/6 1199/16/6
f 1194/16/6 1195/16/6 1200/16/6
f 1178/16/6 1167/16/6 1201/16/6
f 1162/16/6 1184/16/6 1202/16/6
f 1202/16/6 1184/16/6 1203/16/6
f 1185/16/6 1163/16/6 1204/16/6
f 1204/16/6 1163/16/6 1205/16/6
f 1164/16/6 1188/16/6 1206/16/6
f 1206/16/6 1188/16/6 1207/16/6
f 1189/16/6 1196/16/6 1208/16/6
f 1208/16/6 1196/16/6 1209/16/6
f 1197/16/6 1198/16/6 1210/16/6
f 1210/16/6 1198/16/6 1211/16/6
f 1199/16/6 1183/16/6 1212/16/6
f 1212/16/6 1183/16/6 1213/16/6
f 1194/16/6 1200/16/6 1214/16/6
f 1200/16/6 1201/16/6 1214/16/6
f 1171/16/6 1194/16/6 1214/16/6
f 1167/16/6 1147/16/6 1215/16/6
f 1214/16/6 1201/16/6 1215/16/6
f 1201/16/6 1167/16/6 1215/16/6
f 1218/17/6 1219/17/6 1222/17/6
f 1222/17/6 1219/17/6 1223/17/6
f 1220/17/6 1221/17/6 1224/17/6
f 1224/17/6 1221/17/6 1225/17/6
f 1216/17/6 1217/17/6 1227/17/6
f 1227/17/6 1217/17/6 1228/17/6
f 1228/17/6 1217/17/6 1229/17/6
f 1230/17/6 1231/17/6 1232/17/6
f 1232/17/6 1231/17/6 1233/17/6
f 1233/17/6 1231/17/6 1234/17/6
f 1234/17/6 1235/17/6 1236/17/6
f 1233/17/6 1234/17/6 1236/17/6
f 1236/17/6 1235/17/6 1237/17/6
f 1230/17/6 1232/17/6 1239/17/6
f 1239/17/6 1232/17/6 1240/17/6
f 1233/17/6 1236/17/6 1241/17/6
f 1239/17/6 1240/17/6 1242/17/6
f 1240/17/6 1241/17/6 1242/17/6
f 1238/17/6 1239/17/6 1242/17/6
f 1242/17/6 1241/17/6 1243/17/6
f 1243/17/6 1241/17/6 1244/17/6
f 1241/17/6 1236/17/6 1245/17/6
f 1244/17/6 1241/17/6 1245/17/6
f 1237/17/6 1235/17/6 1246/17/6
f 1225/17/6 1221/17/6 1247/17/6
f 1246/17/6 1235/17/6 1248/17/6
f 1248/17/6 1235/17/6 1249/17/6
f 1225/17/6 1247/17/6 1250/17/6
f 1250/17/6 1247/17/6 1251/17/6
f 1227/17/6 1228/17/6 1252/17/6
f 1226/17/6 1227/17/6 1252/17/6
f 1252/17/6 1253/17/6 1254/17/6
f 1226/17/6 1252/17/6 1254/17/6
f 1254/17/6 1253/17/6 1255/17/6
f 1255/17/6 1253/17/6 1257/17/6
f 1256/17/6 1257/17/6 1258/17/6
f 1257/17/6 1253/17/6 1259/17/6
f 1258/17/6 1257/17/6 1259/17/6
f 1259/17/6 1253/17/6 1260/17/6
f 1260/17/6 1253/17/6 1261/17/6
f 1243/17/6 1244/17/6 1262/17/6
f 1262/17/6 1244/17/6 1263/17/6
f 1264/19/6 1265/19/6 1266/19/6
f 1266/19/6 1265/19/6 1267/19/6
f 1268/17/6 1269/17/6 1270/17/6
f 1270/17/6 1269/17/6 1271/17/6
f 1268/17/6 1270/17/6 1272/17/6
f 1272/17/6 1270/17/6 1273/17/6
f 1271/17/6 1269/17/6 1274/17/6
f 1274/17/6 1269/17/6 1275/17/6
f 1276/10/6 1277/10/6 1278/10/6
f 1278/10/6 1277/10/6 1279/10/6
f 1280/17/6 1281/17/6 1282/17/6
f 1282/17/6 1281/17/6 1283/17/6
f 1284/1/6 1285/1/6 1286/1/6
f 1286/1/6 1285/1/6 1287/1/6
f 1288/10/6 1289/10/6 1290/10/6
f 1290/10/6 1289/10/6 1291/10/6
f 1291/10/6 1289/10/6 1292/10/6
f 1292/10/6 1289/10/6 1293/10/6
f 1288/10/6 1290/10/6 1296/10/6
f 1296/10/6 1290/10/6 1297/10/6
f 1291/10/6 1292/10/6 1298/10/6
f 1298/10/6 1292/10/6 1299/10/6
f 1294/10/6 1295/10/6 1300/10/6
f 1300/10/6 1295/10/6 1301/10/6
f 1302/17/6 1303/17/6 1308/17/6
f 1308/17/6 1303/17/6 1309/17/6
f 1304/17/6 1305/17/6 1310/17/6
f 1310/17/6 1305/17/6 1311/17/6
f 1311/17/6 1305/17/6 1312/17/6
f 1312/17/6 1305/17/6 1313/17/6
f 1306/11/6 1307/11/6 1314/11/6
f 1314/11/6 1307/11/6 1315/11/6
f 1302/17/6 1308/17/6 1316/17/6
f 1316/17/6 1308/17/6 1317/17/6
f 1318/11/6 1319/11/6 1320/11/6
f 1320/11/6 1319/11/6 1321/11/6
f 1322/19/6 1323/19/6 1325/19/6
f 1325/19/6 1323/19/6 1326/19/6
f 1324/16/6 1325/16/6 1328/16/6
f 1326/16/6 1327/16/6 1328/16/6
f 1325/16/6 1326/16/6 1328/16/6
f 1328/16/6 1327/16/6 1329/16/6
f 1329/16/6 1327/16/6 1330/16/6
f 1330/16/6 1327/16/6 1331/16/6
f 1332/16/6 1333/16/6 1334/16/6
f 1334/16/6 1333/16/6 1335/16/6
f 1332/16/6 1334/16/6 1336/16/6
f 1332/16/6 1336/16/6 1338/16/6
f 1336/16/6 1337/16/6 1338/16/6
f 1338/16/6 1337/16/6 1339/16/6
f 1340/7/6 1341/7/6 1342/7/6
f 1342/7/6 1341/7/6 1343/7/6
f 1344/18/6 1345/18/6 1346/18/6
f 1346/18/6 1345/18/6 1347/18/6
f 1348/18/6 1349/18/6 1350/18/6
f 1350/18/6 1349/18/6 1351/18/6
f 1352/18/6 1353/18/6 1354/18/6
f 1354/18/6 1353/18/6 1355/18/6
f 1356/17/6 1357/17/6 1360/17/6
f 1360/17/6 1357/17/6 1361/17/6
f 1358/17/6 1359/17/6 1362/17/6
f 1362/17/6 1359/17/6 1363/17/6
f 1364/17/6 1365/17/6 1368/17/6
f 1368/17/6 1365/17/6 1369/17/6
f 1366/17/6 1367/17/6 1370/17/6
f 1370/17/6 1367/17/6 1371/17/6
f 1372/18/6 1373/18/6 1374/18/6
f 1374/18/6 1373/18/6 1375/18/6
f 1376/17/6 1377/17/6 1378/17/6
f 1378/17/6 1377/17/6 1379/17/6
f 1380/11/6 1381/11/6 1382/11/6
f 1382/11/6 1381/11/6 1383/11/6
f 1384/7/6 1385/7/6 1386/7/6
f 1386/7/6 1385/7/6 1387/7/6
f 1388/18/6 1389/18/6 1390/18/6
f 1390/18/6 1389/18/6 1391/18/6
f 1392/18/6 1393/18/6 1394/18/6
f 1394/18/6 1393/18/6 1395/18/6
f 1396/15/6 1397/15/6 1402/15/6
f 1400/17/6 1401/17/6 1403/17/6
f 1403/17/6 1401/17/6 1404/17/6
f 1398/15/6 1399/15/6 1405/15/6
f 1396/15/6 1402/15/6 1406/15/6
f 1404/15/6 1405/15/6 1406/15/6
f 1403/15/6 1404/15/6 1406/15/6
f 1402/15/6 1403/15/6 1406/15/6
f 1405/15/6 1399/15/6 1407/15/6
f 1406/15/6 1405/15/6 1407/15/6
