# MagicaVoxel @ Ephtracy

# group
o 

# material
mtllib anticuerpos.mtl
usemtl palette

# normals
vn -1 0 0
vn 1 0 0
vn 0 0 1
vn 0 0 -1
vn 0 -1 0
vn 0 1 0

# texcoords
vt 0.861328 0.5
vt 0.869141 0.5
vt 0.880859 0.5
vt 0.888672 0.5
vt 0.974609 0.5
vt 0.978516 0.5
vt 0.982422 0.5
vt 0.986328 0.5
vt 0.990234 0.5
vt 0.994141 0.5

# verts
v -1.7 2.3 1.4
v -1.7 2.3 0.5
v -1.7 2.4 1.5
v -1.7 2.4 1.4
v -1.7 2.4 1.3
v -1.7 2.4 0.5
v -1.7 2.4 0.4
v -1.7 2.5 1.3
v -1.7 2.5 1.2
v -1.7 2.5 1
v -1.7 2.5 0.9
v -1.7 2.5 0.5
v -1.7 2.5 0.4
v -1.7 2.5 0.3
v -1.7 2.6 0.5
v -1.7 2.6 0.4
v -1.7 2.6 0.3
v -1.7 2.6 0.2
v -1.7 2.7 1.5
v -1.7 2.7 1.4
v -1.7 2.7 1.3
v -1.7 2.7 1.2
v -1.7 2.7 1.1
v -1.7 2.7 0.4
v -1.7 2.7 0.3
v -1.7 2.7 0.2
v -1.7 2.8 1.4
v -1.7 2.8 1.3
v -1.7 2.8 1.2
v -1.7 2.8 1
v -1.7 2.8 0.9
v -1.7 2.8 0.8
v -1.7 2.9 0.2
v -1.7 2.9 0.1
v -1.7 3 0.8
v -1.7 3 0.7
v -1.7 3 0.3
v -1.7 3 0.2
v -1.7 3 0.1
v -1.7 3 -1.3
v -1.7 3.1 0.4
v -1.7 3.1 0.3
v -1.7 3.1 0.2
v -1.7 3.1 0.1
v -1.7 3.1 0
v -1.7 3.1 -0.1
v -1.7 3.1 -0.2
v -1.7 3.1 -0.3
v -1.7 3.1 -0.4
v -1.7 3.1 -0.5
v -1.7 3.1 -0.6
v -1.7 3.1 -0.7
v -1.7 3.1 -0.8
v -1.7 3.1 -0.9
v -1.7 3.1 -1
v -1.7 3.1 -1.1
v -1.7 3.1 -1.2
v -1.7 3.1 -1.3
v -1.7 3.1 -1.4
v -1.7 3.2 1.5
v -1.7 3.2 1.3
v -1.7 3.2 1.2
v -1.7 3.2 1.1
v -1.7 3.2 0.9
v -1.7 3.2 0.8
v -1.7 3.2 0.7
v -1.7 3.2 0.4
v -1.7 3.2 0.3
v -1.7 3.2 0.2
v -1.7 3.2 0.1
v -1.7 3.2 -1.1
v -1.7 3.2 -1.2
v -1.7 3.2 -1.4
v -1.7 3.3 1.6
v -1.7 3.3 1.5
v -1.7 3.3 0.4
v -1.7 3.3 0
v -1.7 3.3 -0.1
v -1.7 3.3 -0.2
v -1.7 3.3 -0.3
v -1.7 3.3 -0.4
v -1.7 3.3 -0.5
v -1.7 3.3 -0.6
v -1.7 3.3 -0.7
v -1.7 3.3 -0.8
v -1.7 3.3 -0.9
v -1.7 3.3 -1
v -1.7 3.3 -1.1
v -1.7 3.3 -1.2
v -1.7 3.3 -1.4
v -1.7 3.3 -1.6
v -1.7 3.4 1
v -1.7 3.4 0.4
v -1.7 3.4 0.1
v -1.7 3.4 -0.9
v -1.7 3.4 -1.2
v -1.7 3.4 -1.4
v -1.7 3.4 -1.5
v -1.7 3.4 -1.6
v -1.7 3.5 1.2
v -1.7 3.5 1.1
v -1.7 3.5 1
v -1.7 3.5 0.8
v -1.7 3.5 0.4
v -1.7 3.5 0.1
v -1.7 3.5 -0.7
v -1.7 3.5 -0.9
v -1.7 3.5 -1.2
v -1.7 3.5 -1.4
v -1.7 3.5 -1.5
v -1.7 3.5 -1.6
v -1.7 3.6 1.5
v -1.7 3.6 1.2
v -1.7 3.6 1.1
v -1.7 3.6 1
v -1.7 3.6 0.8
v -1.7 3.6 0.5
v -1.7 3.6 0.4
v -1.7 3.6 0.2
v -1.7 3.6 0.1
v -1.7 3.6 -0.1
v -1.7 3.6 -0.2
v -1.7 3.6 -0.4
v -1.7 3.6 -0.5
v -1.7 3.6 -0.7
v -1.7 3.6 -0.8
v -1.7 3.6 -1.1
v -1.7 3.6 -1.2
v -1.7 3.6 -1.4
v -1.7 3.7 1.6
v -1.7 3.7 1.5
v -1.7 3.7 0.5
v -1.7 3.7 0.4
v -1.7 3.7 0.2
v -1.7 3.7 0.1
v -1.7 3.7 -0.1
v -1.7 3.7 -0.2
v -1.7 3.7 -0.4
v -1.7 3.7 -0.5
v -1.7 3.7 -0.7
v -1.7 3.7 -0.8
v -1.7 3.7 -1.2
v -1.7 3.7 -1.3
v -1.7 3.7 -1.4
v -1.7 3.8 1.5
v -1.7 3.8 1
v -1.7 3.8 0.9
v -1.7 3.8 0.7
v -1.7 3.8 0.6
v -1.7 3.8 0.4
v -1.7 3.8 0.2
v -1.7 3.8 0.1
v -1.7 3.8 -0.1
v -1.7 3.8 -0.2
v -1.7 3.8 -0.4
v -1.7 3.8 -0.5
v -1.7 3.8 -0.7
v -1.7 3.8 -1.3
v -1.7 3.9 1.3
v -1.7 3.9 1
v -1.7 3.9 0.9
v -1.7 3.9 0.7
v -1.7 3.9 0.6
v -1.7 3.9 0.4
v -1.7 4 1.3
v -1.7 4 0.5
v -1.7 4.1 1.3
v -1.7 4.1 1.2
v -1.7 4.1 0.5
v -1.7 4.1 0.4
v -1.7 4.2 1.2
v -1.7 4.2 0.5
v -1.7 4.2 0.4
v -1.4 2.3 1.4
v -1.4 2.3 0.5
v -1.4 2.4 1.5
v -1.4 2.4 1.4
v -1.4 2.4 1.3
v -1.4 2.4 0.5
v -1.4 2.4 0.4
v -1.4 2.5 1.3
v -1.4 2.5 1.2
v -1.4 2.5 1
v -1.4 2.5 0.9
v -1.4 2.5 0.5
v -1.4 2.5 0.4
v -1.4 2.5 0.3
v -1.4 2.6 0.5
v -1.4 2.6 0.4
v -1.4 2.6 0.3
v -1.4 2.6 0.2
v -1.4 2.7 1.5
v -1.4 2.7 1.4
v -1.4 2.7 1.3
v -1.4 2.7 1.2
v -1.4 2.7 1.1
v -1.4 2.7 0.4
v -1.4 2.7 0.3
v -1.4 2.7 0.2
v -1.4 2.8 1.4
v -1.4 2.8 1.3
v -1.4 2.8 1.2
v -1.4 2.8 1
v -1.4 2.8 0.9
v -1.4 2.8 0.8
v -1.4 2.9 0.2
v -1.4 2.9 0.1
v -1.4 3 0.8
v -1.4 3 0.7
v -1.4 3 0.3
v -1.4 3 0.2
v -1.4 3 0.1
v -1.4 3 -1.3
v -1.4 3.1 0.4
v -1.4 3.1 0.3
v -1.4 3.1 0.2
v -1.4 3.1 0.1
v -1.4 3.1 0
v -1.4 3.1 -0.1
v -1.4 3.1 -0.2
v -1.4 3.1 -0.3
v -1.4 3.1 -0.4
v -1.4 3.1 -0.5
v -1.4 3.1 -0.6
v -1.4 3.1 -0.7
v -1.4 3.1 -0.8
v -1.4 3.1 -0.9
v -1.4 3.1 -1
v -1.4 3.1 -1.1
v -1.4 3.1 -1.2
v -1.4 3.1 -1.3
v -1.4 3.1 -1.4
v -1.4 3.2 1.5
v -1.4 3.2 1.3
v -1.4 3.2 1.2
v -1.4 3.2 1.1
v -1.4 3.2 0.9
v -1.4 3.2 0.8
v -1.4 3.2 0.7
v -1.4 3.2 0.4
v -1.4 3.2 0.3
v -1.4 3.2 0.2
v -1.4 3.2 0.1
v -1.4 3.2 -1.1
v -1.4 3.2 -1.2
v -1.4 3.2 -1.4
v -1.4 3.3 1.6
v -1.4 3.3 1.5
v -1.4 3.3 0.4
v -1.4 3.3 0
v -1.4 3.3 -0.1
v -1.4 3.3 -0.2
v -1.4 3.3 -0.3
v -1.4 3.3 -0.4
v -1.4 3.3 -0.5
v -1.4 3.3 -0.6
v -1.4 3.3 -0.7
v -1.4 3.3 -0.8
v -1.4 3.3 -0.9
v -1.4 3.3 -1
v -1.4 3.3 -1.1
v -1.4 3.3 -1.2
v -1.4 3.3 -1.4
v -1.4 3.3 -1.6
v -1.4 3.4 1
v -1.4 3.4 0.4
v -1.4 3.4 0.1
v -1.4 3.4 -0.9
v -1.4 3.4 -1.2
v -1.4 3.4 -1.4
v -1.4 3.4 -1.5
v -1.4 3.4 -1.6
v -1.4 3.5 1.2
v -1.4 3.5 1.1
v -1.4 3.5 1
v -1.4 3.5 0.8
v -1.4 3.5 0.4
v -1.4 3.5 0.1
v -1.4 3.5 -0.7
v -1.4 3.5 -0.9
v -1.4 3.5 -1.2
v -1.4 3.5 -1.4
v -1.4 3.5 -1.5
v -1.4 3.5 -1.6
v -1.4 3.6 1.5
v -1.4 3.6 1.2
v -1.4 3.6 1.1
v -1.4 3.6 1
v -1.4 3.6 0.8
v -1.4 3.6 0.5
v -1.4 3.6 0.4
v -1.4 3.6 0.2
v -1.4 3.6 0.1
v -1.4 3.6 -0.1
v -1.4 3.6 -0.2
v -1.4 3.6 -0.4
v -1.4 3.6 -0.5
v -1.4 3.6 -0.7
v -1.4 3.6 -0.8
v -1.4 3.6 -1.1
v -1.4 3.6 -1.2
v -1.4 3.6 -1.4
v -1.4 3.7 1.6
v -1.4 3.7 1.5
v -1.4 3.7 0.5
v -1.4 3.7 0.4
v -1.4 3.7 0.2
v -1.4 3.7 0.1
v -1.4 3.7 -0.1
v -1.4 3.7 -0.2
v -1.4 3.7 -0.4
v -1.4 3.7 -0.5
v -1.4 3.7 -0.7
v -1.4 3.7 -0.8
v -1.4 3.7 -1.2
v -1.4 3.7 -1.3
v -1.4 3.7 -1.4
v -1.4 3.8 1.5
v -1.4 3.8 1
v -1.4 3.8 0.9
v -1.4 3.8 0.7
v -1.4 3.8 0.6
v -1.4 3.8 0.4
v -1.4 3.8 0.2
v -1.4 3.8 0.1
v -1.4 3.8 -0.1
v -1.4 3.8 -0.2
v -1.4 3.8 -0.4
v -1.4 3.8 -0.5
v -1.4 3.8 -0.7
v -1.4 3.8 -1.3
v -1.4 3.9 1.3
v -1.4 3.9 1
v -1.4 3.9 0.9
v -1.4 3.9 0.7
v -1.4 3.9 0.6
v -1.4 3.9 0.4
v -1.4 4 1.3
v -1.4 4 0.5
v -1.4 4.1 1.3
v -1.4 4.1 1.2
v -1.4 4.1 0.5
v -1.4 4.1 0.4
v -1.4 4.2 1.2
v -1.4 4.2 0.5
v -1.4 4.2 0.4
v -1.7 3.3 1.6
v -1.7 3.7 1.6
v -1.4 3.3 1.6
v -1.4 3.7 1.6
v -1.7 2.4 1.5
v -1.7 2.7 1.5
v -1.7 3.2 1.5
v -1.7 3.3 1.5
v -1.7 3.7 1.5
v -1.7 3.8 1.5
v -1.4 2.4 1.5
v -1.4 2.7 1.5
v -1.4 3.2 1.5
v -1.4 3.3 1.5
v -1.4 3.7 1.5
v -1.4 3.8 1.5
v -1.7 2.3 1.4
v -1.7 2.4 1.4
v -1.7 2.7 1.4
v -1.7 2.8 1.4
v -1.4 2.3 1.4
v -1.4 2.4 1.4
v -1.4 2.7 1.4
v -1.4 2.8 1.4
v -1.7 2.8 1.3
v -1.7 3.2 1.3
v -1.7 3.9 1.3
v -1.7 4 1.3
v -1.7 4.1 1.3
v -1.4 2.8 1.3
v -1.4 3.2 1.3
v -1.4 3.9 1.3
v -1.4 4 1.3
v -1.4 4.1 1.3
v -1.7 4.1 1.2
v -1.7 4.2 1.2
v -1.4 4.1 1.2
v -1.4 4.2 1.2
v -1.7 3.8 1
v -1.7 3.9 1
v -1.4 3.8 1
v -1.4 3.9 1
v -1.7 3.8 0.7
v -1.7 3.9 0.7
v -1.4 3.8 0.7
v -1.4 3.9 0.7
v -1.7 2.5 0.5
v -1.7 2.6 0.5
v -1.4 2.5 0.5
v -1.4 2.6 0.5
v -1.7 2.6 0.4
v -1.7 2.7 0.4
v -1.7 3.1 0.4
v -1.7 3.2 0.4
v -1.4 2.6 0.4
v -1.4 2.7 0.4
v -1.4 3.1 0.4
v -1.4 3.2 0.4
v -1.7 2.7 0.3
v -1.7 3 0.3
v -1.7 3.1 0.3
v -1.4 2.7 0.3
v -1.4 3 0.3
v -1.4 3.1 0.3
v -1.7 2.5 0.9
v -1.7 2.8 0.9
v -1.7 3.8 0.9
v -1.7 3.9 0.9
v -1.4 2.5 0.9
v -1.4 2.8 0.9
v -1.4 3.8 0.9
v -1.4 3.9 0.9
v -1.7 2.8 0.8
v -1.7 3 0.8
v -1.4 2.8 0.8
v -1.4 3 0.8
v -1.7 3 0.7
v -1.7 3.2 0.7
v -1.4 3 0.7
v -1.4 3.2 0.7
v -1.7 3.8 0.6
v -1.7 3.9 0.6
v -1.4 3.8 0.6
v -1.4 3.9 0.6
v -1.7 2.3 0.5
v -1.7 2.4 0.5
v -1.4 2.3 0.5
v -1.4 2.4 0.5
v -1.7 2.4 0.4
v -1.7 2.5 0.4
v -1.7 3.9 0.4
v -1.7 4.1 0.4
v -1.7 4.2 0.4
v -1.4 2.4 0.4
v -1.4 2.5 0.4
v -1.4 3.9 0.4
v -1.4 4.1 0.4
v -1.4 4.2 0.4
v -1.7 2.5 0.3
v -1.7 2.6 0.3
v -1.4 2.5 0.3
v -1.4 2.6 0.3
v -1.7 2.6 0.2
v -1.7 2.7 0.2
v -1.7 2.9 0.2
v -1.4 2.6 0.2
v -1.4 2.7 0.2
v -1.4 2.9 0.2
v -1.7 2.9 0.1
v -1.7 3 0.1
v -1.4 2.9 0.1
v -1.4 3 0.1
v -1.7 3.2 -1.2
v -1.7 3.3 -1.2
v -1.7 3.5 -1.2
v -1.7 3.6 -1.2
v -1.4 3.2 -1.2
v -1.4 3.3 -1.2
v -1.4 3.5 -1.2
v -1.4 3.6 -1.2
v -1.7 3 -1.3
v -1.7 3.1 -1.3
v -1.7 3.7 -1.3
v -1.7 3.8 -1.3
v -1.4 3 -1.3
v -1.4 3.1 -1.3
v -1.4 3.7 -1.3
v -1.4 3.8 -1.3
v -1.7 3.1 -1.4
v -1.7 3.2 -1.4
v -1.7 3.6 -1.4
v -1.7 3.7 -1.4
v -1.4 3.1 -1.4
v -1.4 3.2 -1.4
v -1.4 3.6 -1.4
v -1.4 3.7 -1.4
v -1.7 3.3 -1.6
v -1.7 3.4 -1.6
v -1.7 3.5 -1.6
v -1.4 3.3 -1.6
v -1.4 3.4 -1.6
v -1.4 3.5 -1.6
v -1.7 2.3 1.4
v -1.4 2.3 1.4
v -1.7 2.3 0.5
v -1.4 2.3 0.5
v -1.7 2.4 1.5
v -1.4 2.4 1.5
v -1.7 2.4 1.4
v -1.4 2.4 1.4
v -1.7 2.4 0.5
v -1.4 2.4 0.5
v -1.7 2.4 0.4
v -1.4 2.4 0.4
v -1.7 2.5 0.4
v -1.4 2.5 0.4
v -1.7 2.5 0.3
v -1.4 2.5 0.3
v -1.7 2.6 0.3
v -1.4 2.6 0.3
v -1.7 2.6 0.2
v -1.4 2.6 0.2
v -1.7 2.8 0.9
v -1.4 2.8 0.9
v -1.7 2.8 0.8
v -1.4 2.8 0.8
v -1.7 2.9 0.2
v -1.4 2.9 0.2
v -1.7 2.9 0.1
v -1.4 2.9 0.1
v -1.7 3 0.8
v -1.4 3 0.8
v -1.7 3 0.7
v -1.4 3 0.7
v -1.7 3 0.1
v -1.4 3 0.1
v -1.7 3 -1.3
v -1.4 3 -1.3
v -1.7 3.1 0.4
v -1.4 3.1 0.4
v -1.7 3.1 0.3
v -1.4 3.1 0.3
v -1.7 3.1 -1.3
v -1.4 3.1 -1.3
v -1.7 3.1 -1.4
v -1.4 3.1 -1.4
v -1.7 3.2 1.5
v -1.4 3.2 1.5
v -1.7 3.2 1.3
v -1.4 3.2 1.3
v -1.7 3.2 0.7
v -1.4 3.2 0.7
v -1.7 3.2 0.4
v -1.4 3.2 0.4
v -1.7 3.3 1.6
v -1.4 3.3 1.6
v -1.7 3.3 1.5
v -1.4 3.3 1.5
v -1.7 3.3 -1.2
v -1.4 3.3 -1.2
v -1.7 3.3 -1.4
v -1.4 3.3 -1.4
v -1.7 3.3 -1.6
v -1.4 3.3 -1.6
v -1.7 3.6 -1.2
v -1.4 3.6 -1.2
v -1.7 3.6 -1.4
v -1.4 3.6 -1.4
v -1.7 3.9 1.3
v -1.4 3.9 1.3
v -1.7 3.9 1
v -1.4 3.9 1
v -1.7 3.9 0.9
v -1.4 3.9 0.9
v -1.7 3.9 0.7
v -1.4 3.9 0.7
v -1.7 3.9 0.6
v -1.4 3.9 0.6
v -1.7 3.9 0.4
v -1.4 3.9 0.4
v -1.7 2.5 0.9
v -1.4 2.5 0.9
v -1.7 2.5 0.5
v -1.4 2.5 0.5
v -1.7 2.6 0.5
v -1.4 2.6 0.5
v -1.7 2.6 0.4
v -1.4 2.6 0.4
v -1.7 2.7 1.5
v -1.4 2.7 1.5
v -1.7 2.7 1.4
v -1.4 2.7 1.4
v -1.7 2.7 0.4
v -1.4 2.7 0.4
v -1.7 2.7 0.3
v -1.4 2.7 0.3
v -1.7 2.8 1.4
v -1.4 2.8 1.4
v -1.7 2.8 1.3
v -1.4 2.8 1.3
v -1.7 3.2 -1.2
v -1.4 3.2 -1.2
v -1.7 3.2 -1.4
v -1.4 3.2 -1.4
v -1.7 3.5 -1.2
v -1.4 3.5 -1.2
v -1.7 3.5 -1.4
v -1.4 3.5 -1.4
v -1.7 3.5 -1.5
v -1.4 3.5 -1.5
v -1.7 3.5 -1.6
v -1.4 3.5 -1.6
v -1.7 3.7 1.6
v -1.4 3.7 1.6
v -1.7 3.7 1.5
v -1.4 3.7 1.5
v -1.7 3.7 -1.3
v -1.4 3.7 -1.3
v -1.7 3.7 -1.4
v -1.4 3.7 -1.4
v -1.7 3.8 1.5
v -1.4 3.8 1.5
v -1.7 3.8 1
v -1.4 3.8 1
v -1.7 3.8 0.9
v -1.4 3.8 0.9
v -1.7 3.8 0.7
v -1.4 3.8 0.7
v -1.7 3.8 0.6
v -1.4 3.8 0.6
v -1.7 3.8 0.4
v -1.4 3.8 0.4
v -1.7 3.8 0.2
v -1.4 3.8 0.2
v -1.7 3.8 0.1
v -1.4 3.8 0.1
v -1.7 3.8 -0.1
v -1.4 3.8 -0.1
v -1.7 3.8 -0.2
v -1.4 3.8 -0.2
v -1.7 3.8 -0.4
v -1.4 3.8 -0.4
v -1.7 3.8 -0.5
v -1.4 3.8 -0.5
v -1.7 3.8 -0.7
v -1.4 3.8 -0.7
v -1.7 3.8 -1.3
v -1.4 3.8 -1.3
v -1.7 4.1 1.3
v -1.4 4.1 1.3
v -1.7 4.1 1.2
v -1.4 4.1 1.2
v -1.7 4.2 1.2
v -1.4 4.2 1.2
v -1.7 4.2 0.5
v -1.4 4.2 0.5
v -1.7 4.2 0.4
v -1.4 4.2 0.4

# faces
f 4/10/1 2/10/1 1/10/1
f 5/10/1 2/10/1 4/10/1
f 6/10/1 2/10/1 5/10/1
f 8/6/1 5/6/1 4/6/1
f 8/9/1 6/9/1 5/9/1
f 9/9/1 6/9/1 8/9/1
f 10/9/1 6/9/1 9/9/1
f 11/9/1 6/9/1 10/9/1
f 12/10/1 7/10/1 6/10/1
f 12/9/1 6/9/1 11/9/1
f 13/10/1 7/10/1 12/10/1
f 15/9/1 13/9/1 12/9/1
f 16/10/1 14/10/1 13/10/1
f 16/9/1 13/9/1 15/9/1
f 17/10/1 14/10/1 16/10/1
f 19/10/1 4/10/1 3/10/1
f 20/6/1 8/6/1 4/6/1
f 20/10/1 4/10/1 19/10/1
f 20/6/1 9/6/1 8/6/1
f 21/6/1 9/6/1 20/6/1
f 22/9/1 10/9/1 9/9/1
f 22/6/1 9/6/1 21/6/1
f 23/9/1 10/9/1 22/9/1
f 24/9/1 17/9/1 16/9/1
f 25/10/1 18/10/1 17/10/1
f 25/9/1 17/9/1 24/9/1
f 26/10/1 18/10/1 25/10/1
f 27/10/1 21/10/1 20/10/1
f 28/6/1 22/6/1 21/6/1
f 28/10/1 21/10/1 27/10/1
f 28/6/1 23/6/1 22/6/1
f 29/6/1 23/6/1 28/6/1
f 30/10/1 11/10/1 10/10/1
f 30/9/1 10/9/1 23/9/1
f 31/10/1 11/10/1 30/10/1
f 33/9/1 26/9/1 25/9/1
f 35/10/1 32/10/1 31/10/1
f 37/9/1 33/9/1 25/9/1
f 38/10/1 34/10/1 33/10/1
f 38/9/1 33/9/1 37/9/1
f 39/10/1 34/10/1 38/10/1
f 42/10/1 38/10/1 37/10/1
f 42/10/1 40/10/1 39/10/1
f 42/10/1 39/10/1 38/10/1
f 43/10/1 40/10/1 42/10/1
f 44/10/1 40/10/1 43/10/1
f 45/10/1 40/10/1 44/10/1
f 46/10/1 40/10/1 45/10/1
f 47/10/1 40/10/1 46/10/1
f 48/10/1 40/10/1 47/10/1
f 49/10/1 40/10/1 48/10/1
f 50/10/1 40/10/1 49/10/1
f 51/10/1 40/10/1 50/10/1
f 52/10/1 40/10/1 51/10/1
f 53/10/1 40/10/1 52/10/1
f 54/10/1 40/10/1 53/10/1
f 55/10/1 40/10/1 54/10/1
f 56/10/1 40/10/1 55/10/1
f 57/10/1 40/10/1 56/10/1
f 58/10/1 40/10/1 57/10/1
f 61/10/1 29/10/1 28/10/1
f 62/6/1 23/6/1 29/6/1
f 62/10/1 29/10/1 61/10/1
f 63/9/1 31/9/1 30/9/1
f 63/6/1 23/6/1 62/6/1
f 63/9/1 30/9/1 23/9/1
f 64/10/1 35/10/1 31/10/1
f 64/9/1 31/9/1 63/9/1
f 65/1/1 36/1/1 35/1/1
f 65/10/1 35/10/1 64/10/1
f 66/1/1 36/1/1 65/1/1
f 67/10/1 42/10/1 41/10/1
f 68/9/1 43/9/1 42/9/1
f 68/10/1 42/10/1 67/10/1
f 69/7/1 44/7/1 43/7/1
f 69/9/1 43/9/1 68/9/1
f 70/9/1 45/9/1 44/9/1
f 70/7/1 44/7/1 69/7/1
f 71/7/1 56/7/1 55/7/1
f 71/8/1 57/8/1 56/8/1
f 72/10/1 59/10/1 58/10/1
f 72/8/1 57/8/1 71/8/1
f 72/10/1 58/10/1 57/10/1
f 73/10/1 59/10/1 72/10/1
f 75/10/1 61/10/1 60/10/1
f 75/10/1 64/10/1 63/10/1
f 75/10/1 62/10/1 61/10/1
f 75/10/1 65/10/1 64/10/1
f 75/10/1 63/10/1 62/10/1
f 75/10/1 66/10/1 65/10/1
f 75/10/1 67/10/1 66/10/1
f 76/9/1 70/9/1 69/9/1
f 76/9/1 68/9/1 67/9/1
f 76/10/1 67/10/1 75/10/1
f 76/9/1 69/9/1 68/9/1
f 77/9/1 45/9/1 70/9/1
f 77/9/1 70/9/1 76/9/1
f 77/7/1 46/7/1 45/7/1
f 78/9/1 47/9/1 46/9/1
f 78/7/1 46/7/1 77/7/1
f 79/7/1 48/7/1 47/7/1
f 79/9/1 47/9/1 78/9/1
f 80/9/1 49/9/1 48/9/1
f 80/7/1 48/7/1 79/7/1
f 81/7/1 50/7/1 49/7/1
f 81/9/1 49/9/1 80/9/1
f 82/9/1 51/9/1 50/9/1
f 82/7/1 50/7/1 81/7/1
f 83/7/1 52/7/1 51/7/1
f 83/9/1 51/9/1 82/9/1
f 84/9/1 53/9/1 52/9/1
f 84/7/1 52/7/1 83/7/1
f 85/7/1 54/7/1 53/7/1
f 85/9/1 53/9/1 84/9/1
f 86/9/1 55/9/1 54/9/1
f 86/7/1 54/7/1 85/7/1
f 87/7/1 71/7/1 55/7/1
f 87/9/1 55/9/1 86/9/1
f 88/9/1 72/9/1 71/9/1
f 88/7/1 71/7/1 87/7/1
f 89/9/1 72/9/1 88/9/1
f 92/8/1 86/8/1 85/8/1
f 92/8/1 87/8/1 86/8/1
f 92/8/1 76/8/1 75/8/1
f 92/8/1 88/8/1 87/8/1
f 92/8/1 82/8/1 81/8/1
f 92/8/1 81/8/1 80/8/1
f 92/8/1 80/8/1 79/8/1
f 92/8/1 79/8/1 78/8/1
f 92/8/1 78/8/1 77/8/1
f 92/8/1 77/8/1 76/8/1
f 92/8/1 83/8/1 82/8/1
f 92/8/1 84/8/1 83/8/1
f 92/8/1 85/8/1 84/8/1
f 93/8/1 88/8/1 92/8/1
f 94/8/1 88/8/1 93/8/1
f 95/8/1 88/8/1 94/8/1
f 96/10/1 90/10/1 89/10/1
f 96/9/1 89/9/1 88/9/1
f 97/4/1 91/4/1 90/4/1
f 97/10/1 90/10/1 96/10/1
f 98/4/1 91/4/1 97/4/1
f 99/4/1 91/4/1 98/4/1
f 100/8/1 92/8/1 75/8/1
f 101/8/1 92/8/1 100/8/1
f 102/5/1 93/5/1 92/5/1
f 102/8/1 92/8/1 101/8/1
f 103/5/1 93/5/1 102/5/1
f 104/8/1 94/8/1 93/8/1
f 104/5/1 93/5/1 103/5/1
f 105/5/1 95/5/1 94/5/1
f 105/8/1 94/8/1 104/8/1
f 106/5/1 95/5/1 105/5/1
f 107/8/1 88/8/1 95/8/1
f 107/5/1 95/5/1 106/5/1
f 108/9/1 96/9/1 88/9/1
f 108/9/1 97/9/1 96/9/1
f 109/10/1 98/10/1 97/10/1
f 109/9/1 97/9/1 108/9/1
f 110/3/1 99/3/1 98/3/1
f 110/10/1 98/10/1 109/10/1
f 111/3/1 99/3/1 110/3/1
f 112/10/1 75/10/1 74/10/1
f 112/8/1 100/8/1 75/8/1
f 113/10/1 101/10/1 100/10/1
f 113/8/1 100/8/1 112/8/1
f 114/9/1 102/9/1 101/9/1
f 114/10/1 101/10/1 113/10/1
f 115/8/1 103/8/1 102/8/1
f 115/9/1 102/9/1 114/9/1
f 116/5/1 104/5/1 103/5/1
f 116/8/1 103/8/1 115/8/1
f 117/5/1 104/5/1 116/5/1
f 118/10/1 106/10/1 105/10/1
f 118/5/1 104/5/1 117/5/1
f 118/10/1 105/10/1 104/10/1
f 119/10/1 106/10/1 118/10/1
f 120/10/1 106/10/1 119/10/1
f 121/10/1 106/10/1 120/10/1
f 122/10/1 106/10/1 121/10/1
f 123/10/1 106/10/1 122/10/1
f 124/10/1 106/10/1 123/10/1
f 125/8/1 107/8/1 106/8/1
f 125/10/1 106/10/1 124/10/1
f 126/8/1 107/8/1 125/8/1
f 127/8/1 88/8/1 107/8/1
f 127/8/1 107/8/1 126/8/1
f 127/9/1 108/9/1 88/9/1
f 128/9/1 108/9/1 127/9/1
f 130/10/1 112/10/1 74/10/1
f 131/6/1 117/6/1 116/6/1
f 131/10/1 112/10/1 130/10/1
f 131/6/1 115/6/1 114/6/1
f 131/6/1 114/6/1 113/6/1
f 131/6/1 116/6/1 115/6/1
f 131/6/1 113/6/1 112/6/1
f 132/10/1 118/10/1 117/10/1
f 132/6/1 117/6/1 131/6/1
f 133/3/1 119/3/1 118/3/1
f 133/10/1 118/10/1 132/10/1
f 134/5/1 120/5/1 119/5/1
f 134/3/1 119/3/1 133/3/1
f 135/3/1 121/3/1 120/3/1
f 135/5/1 120/5/1 134/5/1
f 136/5/1 122/5/1 121/5/1
f 136/3/1 121/3/1 135/3/1
f 137/3/1 123/3/1 122/3/1
f 137/5/1 122/5/1 136/5/1
f 138/5/1 124/5/1 123/5/1
f 138/3/1 123/3/1 137/3/1
f 139/3/1 125/3/1 124/3/1
f 139/5/1 124/5/1 138/5/1
f 140/10/1 126/10/1 125/10/1
f 140/3/1 125/3/1 139/3/1
f 141/6/1 128/6/1 127/6/1
f 141/10/1 126/10/1 140/10/1
f 141/6/1 127/6/1 126/6/1
f 142/10/1 129/10/1 128/10/1
f 142/6/1 128/6/1 141/6/1
f 143/10/1 129/10/1 142/10/1
f 144/10/1 129/10/1 143/10/1
f 145/10/1 132/10/1 131/10/1
f 145/10/1 133/10/1 132/10/1
f 146/10/1 133/10/1 145/10/1
f 147/10/1 133/10/1 146/10/1
f 148/10/1 133/10/1 147/10/1
f 149/10/1 133/10/1 148/10/1
f 150/4/1 134/4/1 133/4/1
f 150/10/1 133/10/1 149/10/1
f 151/2/1 135/2/1 134/2/1
f 151/4/1 134/4/1 150/4/1
f 152/4/1 136/4/1 135/4/1
f 152/2/1 135/2/1 151/2/1
f 153/2/1 137/2/1 136/2/1
f 153/4/1 136/4/1 152/4/1
f 154/4/1 138/4/1 137/4/1
f 154/2/1 137/2/1 153/2/1
f 155/2/1 139/2/1 138/2/1
f 155/4/1 138/4/1 154/4/1
f 156/4/1 140/4/1 139/4/1
f 156/2/1 139/2/1 155/2/1
f 157/10/1 141/10/1 140/10/1
f 157/4/1 140/4/1 156/4/1
f 157/10/1 143/10/1 142/10/1
f 157/10/1 142/10/1 141/10/1
f 158/10/1 143/10/1 157/10/1
f 160/10/1 147/10/1 146/10/1
f 161/10/1 147/10/1 160/10/1
f 162/10/1 149/10/1 148/10/1
f 163/10/1 149/10/1 162/10/1
f 165/10/1 161/10/1 160/10/1
f 165/10/1 164/10/1 163/10/1
f 165/10/1 163/10/1 162/10/1
f 165/10/1 162/10/1 161/10/1
f 165/10/1 160/10/1 159/10/1
f 166/10/1 164/10/1 165/10/1
f 167/9/1 166/9/1 165/9/1
f 168/9/1 166/9/1 167/9/1
f 169/10/1 164/10/1 166/10/1
f 169/9/1 166/9/1 168/9/1
f 170/10/1 164/10/1 169/10/1
f 171/8/1 169/8/1 168/8/1
f 172/9/1 170/9/1 169/9/1
f 172/8/1 169/8/1 171/8/1
f 173/9/1 170/9/1 172/9/1
f 174/10/2 175/10/2 177/10/2
f 177/10/2 175/10/2 178/10/2
f 178/10/2 175/10/2 179/10/2
f 177/6/2 178/6/2 181/6/2
f 178/9/2 179/9/2 181/9/2
f 181/9/2 179/9/2 182/9/2
f 182/9/2 179/9/2 183/9/2
f 183/9/2 179/9/2 184/9/2
f 179/10/2 180/10/2 185/10/2
f 184/9/2 179/9/2 185/9/2
f 185/10/2 180/10/2 186/10/2
f 185/9/2 186/9/2 188/9/2
f 186/10/2 187/10/2 189/10/2
f 188/9/2 186/9/2 189/9/2
f 189/10/2 187/10/2 190/10/2
f 176/10/2 177/10/2 192/10/2
f 177/6/2 181/6/2 193/6/2
f 192/10/2 177/10/2 193/10/2
f 181/6/2 182/6/2 193/6/2
f 193/6/2 182/6/2 194/6/2
f 182/9/2 183/9/2 195/9/2
f 194/6/2 182/6/2 195/6/2
f 195/9/2 183/9/2 196/9/2
f 189/9/2 190/9/2 197/9/2
f 190/10/2 191/10/2 198/10/2
f 197/9/2 190/9/2 198/9/2
f 198/10/2 191/10/2 199/10/2
f 193/10/2 194/10/2 200/10/2
f 194/6/2 195/6/2 201/6/2
f 200/10/2 194/10/2 201/10/2
f 195/6/2 196/6/2 201/6/2
f 201/6/2 196/6/2 202/6/2
f 183/10/2 184/10/2 203/10/2
f 196/9/2 183/9/2 203/9/2
f 203/10/2 184/10/2 204/10/2
f 198/9/2 199/9/2 206/9/2
f 204/10/2 205/10/2 208/10/2
f 198/9/2 206/9/2 210/9/2
f 206/10/2 207/10/2 211/10/2
f 210/9/2 206/9/2 211/9/2
f 211/10/2 207/10/2 212/10/2
f 210/10/2 211/10/2 215/10/2
f 212/10/2 213/10/2 215/10/2
f 211/10/2 212/10/2 215/10/2
f 215/10/2 213/10/2 216/10/2
f 216/10/2 213/10/2 217/10/2
f 217/10/2 213/10/2 218/10/2
f 218/10/2 213/10/2 219/10/2
f 219/10/2 213/10/2 220/10/2
f 220/10/2 213/10/2 221/10/2
f 221/10/2 213/10/2 222/10/2
f 222/10/2 213/10/2 223/10/2
f 223/10/2 213/10/2 224/10/2
f 224/10/2 213/10/2 225/10/2
f 225/10/2 213/10/2 226/10/2
f 226/10/2 213/10/2 227/10/2
f 227/10/2 213/10/2 228/10/2
f 228/10/2 213/10/2 229/10/2
f 229/10/2 213/10/2 230/10/2
f 230/10/2 213/10/2 231/10/2
f 201/10/2 202/10/2 234/10/2
f 202/6/2 196/6/2 235/6/2
f 234/10/2 202/10/2 235/10/2
f 203/9/2 204/9/2 236/9/2
f 235/6/2 196/6/2 236/6/2
f 196/9/2 203/9/2 236/9/2
f 204/10/2 208/10/2 237/10/2
f 236/9/2 204/9/2 237/9/2
f 208/1/2 209/1/2 238/1/2
f 237/10/2 208/10/2 238/10/2
f 238/1/2 209/1/2 239/1/2
f 214/10/2 215/10/2 240/10/2
f 215/9/2 216/9/2 241/9/2
f 240/10/2 215/10/2 241/10/2
f 216/7/2 217/7/2 242/7/2
f 241/9/2 216/9/2 242/9/2
f 217/9/2 218/9/2 243/9/2
f 242/7/2 217/7/2 243/7/2
f 228/7/2 229/7/2 244/7/2
f 229/8/2 230/8/2 244/8/2
f 231/10/2 232/10/2 245/10/2
f 244/8/2 230/8/2 245/8/2
f 230/10/2 231/10/2 245/10/2
f 245/10/2 232/10/2 246/10/2
f 233/10/2 234/10/2 248/10/2
f 236/10/2 237/10/2 248/10/2
f 234/10/2 235/10/2 248/10/2
f 237/10/2 238/10/2 248/10/2
f 235/10/2 236/10/2 248/10/2
f 238/10/2 239/10/2 248/10/2
f 239/10/2 240/10/2 248/10/2
f 242/9/2 243/9/2 249/9/2
f 240/9/2 241/9/2 249/9/2
f 248/10/2 240/10/2 249/10/2
f 241/9/2 242/9/2 249/9/2
f 243/9/2 218/9/2 250/9/2
f 249/9/2 243/9/2 250/9/2
f 218/7/2 219/7/2 250/7/2
f 219/9/2 220/9/2 251/9/2
f 250/7/2 219/7/2 251/7/2
f 220/7/2 221/7/2 252/7/2
f 251/9/2 220/9/2 252/9/2
f 221/9/2 222/9/2 253/9/2
f 252/7/2 221/7/2 253/7/2
f 222/7/2 223/7/2 254/7/2
f 253/9/2 222/9/2 254/9/2
f 223/9/2 224/9/2 255/9/2
f 254/7/2 223/7/2 255/7/2
f 224/7/2 225/7/2 256/7/2
f 255/9/2 224/9/2 256/9/2
f 225/9/2 226/9/2 257/9/2
f 256/7/2 225/7/2 257/7/2
f 226/7/2 227/7/2 258/7/2
f 257/9/2 226/9/2 258/9/2
f 227/9/2 228/9/2 259/9/2
f 258/7/2 227/7/2 259/7/2
f 228/7/2 244/7/2 260/7/2
f 259/9/2 228/9/2 260/9/2
f 244/9/2 245/9/2 261/9/2
f 260/7/2 244/7/2 261/7/2
f 261/9/2 245/9/2 262/9/2
f 258/8/2 259/8/2 265/8/2
f 259/8/2 260/8/2 265/8/2
f 248/8/2 249/8/2 265/8/2
f 260/8/2 261/8/2 265/8/2
f 254/8/2 255/8/2 265/8/2
f 253/8/2 254/8/2 265/8/2
f 252/8/2 253/8/2 265/8/2
f 251/8/2 252/8/2 265/8/2
f 250/8/2 251/8/2 265/8/2
f 249/8/2 250/8/2 265/8/2
f 255/8/2 256/8/2 265/8/2
f 256/8/2 257/8/2 265/8/2
f 257/8/2 258/8/2 265/8/2
f 265/8/2 261/8/2 266/8/2
f 266/8/2 261/8/2 267/8/2
f 267/8/2 261/8/2 268/8/2
f 262/10/2 263/10/2 269/10/2
f 261/9/2 262/9/2 269/9/2
f 263/4/2 264/4/2 270/4/2
f 269/10/2 263/10/2 270/10/2
f 270/4/2 264/4/2 271/4/2
f 271/4/2 264/4/2 272/4/2
f 248/8/2 265/8/2 273/8/2
f 273/8/2 265/8/2 274/8/2
f 265/5/2 266/5/2 275/5/2
f 274/8/2 265/8/2 275/8/2
f 275/5/2 266/5/2 276/5/2
f 266/8/2 267/8/2 277/8/2
f 276/5/2 266/5/2 277/5/2
f 267/5/2 268/5/2 278/5/2
f 277/8/2 267/8/2 278/8/2
f 278/5/2 268/5/2 279/5/2
f 268/8/2 261/8/2 280/8/2
f 279/5/2 268/5/2 280/5/2
f 261/9/2 269/9/2 281/9/2
f 269/9/2 270/9/2 281/9/2
f 270/10/2 271/10/2 282/10/2
f 281/9/2 270/9/2 282/9/2
f 271/3/2 272/3/2 283/3/2
f 282/10/2 271/10/2 283/10/2
f 283/3/2 272/3/2 284/3/2
f 247/10/2 248/10/2 285/10/2
f 248/8/2 273/8/2 285/8/2
f 273/10/2 274/10/2 286/10/2
f 285/8/2 273/8/2 286/8/2
f 274/9/2 275/9/2 287/9/2
f 286/10/2 274/10/2 287/10/2
f 275/8/2 276/8/2 288/8/2
f 287/9/2 275/9/2 288/9/2
f 276/5/2 277/5/2 289/5/2
f 288/8/2 276/8/2 289/8/2
f 289/5/2 277/5/2 290/5/2
f 278/10/2 279/10/2 291/10/2
f 290/5/2 277/5/2 291/5/2
f 277/10/2 278/10/2 291/10/2
f 291/10/2 279/10/2 292/10/2
f 292/10/2 279/10/2 293/10/2
f 293/10/2 279/10/2 294/10/2
f 294/10/2 279/10/2 295/10/2
f 295/10/2 279/10/2 296/10/2
f 296/10/2 279/10/2 297/10/2
f 279/8/2 280/8/2 298/8/2
f 297/10/2 279/10/2 298/10/2
f 298/8/2 280/8/2 299/8/2
f 280/8/2 261/8/2 300/8/2
f 299/8/2 280/8/2 300/8/2
f 261/9/2 281/9/2 300/9/2
f 300/9/2 281/9/2 301/9/2
f 247/10/2 285/10/2 303/10/2
f 289/6/2 290/6/2 304/6/2
f 303/10/2 285/10/2 304/10/2
f 287/6/2 288/6/2 304/6/2
f 286/6/2 287/6/2 304/6/2
f 288/6/2 289/6/2 304/6/2
f 285/6/2 286/6/2 304/6/2
f 290/10/2 291/10/2 305/10/2
f 304/6/2 290/6/2 305/6/2
f 291/3/2 292/3/2 306/3/2
f 305/10/2 291/10/2 306/10/2
f 292/5/2 293/5/2 307/5/2
f 306/3/2 292/3/2 307/3/2
f 293/3/2 294/3/2 308/3/2
f 307/5/2 293/5/2 308/5/2
f 294/5/2 295/5/2 309/5/2
f 308/3/2 294/3/2 309/3/2
f 295/3/2 296/3/2 310/3/2
f 309/5/2 295/5/2 310/5/2
f 296/5/2 297/5/2 311/5/2
f 310/3/2 296/3/2 311/3/2
f 297/3/2 298/3/2 312/3/2
f 311/5/2 297/5/2 312/5/2
f 298/10/2 299/10/2 313/10/2
f 312/3/2 298/3/2 313/3/2
f 300/6/2 301/6/2 314/6/2
f 313/10/2 299/10/2 314/10/2
f 299/6/2 300/6/2 314/6/2
f 301/10/2 302/10/2 315/10/2
f 314/6/2 301/6/2 315/6/2
f 315/10/2 302/10/2 316/10/2
f 316/10/2 302/10/2 317/10/2
f 304/10/2 305/10/2 318/10/2
f 305/10/2 306/10/2 318/10/2
f 318/10/2 306/10/2 319/10/2
f 319/10/2 306/10/2 320/10/2
f 320/10/2 306/10/2 321/10/2
f 321/10/2 306/10/2 322/10/2
f 306/4/2 307/4/2 323/4/2
f 322/10/2 306/10/2 323/10/2
f 307/2/2 308/2/2 324/2/2
f 323/4/2 307/4/2 324/4/2
f 308/4/2 309/4/2 325/4/2
f 324/2/2 308/2/2 325/2/2
f 309/2/2 310/2/2 326/2/2
f 325/4/2 309/4/2 326/4/2
f 310/4/2 311/4/2 327/4/2
f 326/2/2 310/2/2 327/2/2
f 311/2/2 312/2/2 328/2/2
f 327/4/2 311/4/2 328/4/2
f 312/4/2 313/4/2 329/4/2
f 328/2/2 312/2/2 329/2/2
f 313/10/2 314/10/2 330/10/2
f 329/4/2 313/4/2 330/4/2
f 315/10/2 316/10/2 330/10/2
f 314/10/2 315/10/2 330/10/2
f 330/10/2 316/10/2 331/10/2
f 319/10/2 320/10/2 333/10/2
f 333/10/2 320/10/2 334/10/2
f 321/10/2 322/10/2 335/10/2
f 335/10/2 322/10/2 336/10/2
f 333/10/2 334/10/2 338/10/2
f 336/10/2 337/10/2 338/10/2
f 335/10/2 336/10/2 338/10/2
f 334/10/2 335/10/2 338/10/2
f 332/10/2 333/10/2 338/10/2
f 338/10/2 337/10/2 339/10/2
f 338/9/2 339/9/2 340/9/2
f 340/9/2 339/9/2 341/9/2
f 339/10/2 337/10/2 342/10/2
f 341/9/2 339/9/2 342/9/2
f 342/10/2 337/10/2 343/10/2
f 341/8/2 342/8/2 344/8/2
f 342/9/2 343/9/2 345/9/2
f 344/8/2 342/8/2 345/8/2
f 345/9/2 343/9/2 346/9/2
f 349/10/3 348/10/3 347/10/3
f 350/10/3 348/10/3 349/10/3
f 357/10/3 352/10/3 351/10/3
f 358/10/3 352/10/3 357/10/3
f 359/10/3 354/10/3 353/10/3
f 360/10/3 354/10/3 359/10/3
f 361/10/3 356/10/3 355/10/3
f 362/10/3 356/10/3 361/10/3
f 367/10/3 364/10/3 363/10/3
f 368/10/3 364/10/3 367/10/3
f 369/10/3 366/10/3 365/10/3
f 370/10/3 366/10/3 369/10/3
f 376/10/3 372/10/3 371/10/3
f 377/10/3 372/10/3 376/10/3
f 378/10/3 374/10/3 373/10/3
f 379/9/3 375/9/3 374/9/3
f 379/10/3 374/10/3 378/10/3
f 380/9/3 375/9/3 379/9/3
f 383/8/3 382/8/3 381/8/3
f 384/8/3 382/8/3 383/8/3
f 387/10/3 386/10/3 385/10/3
f 388/10/3 386/10/3 387/10/3
f 391/10/3 390/10/3 389/10/3
f 392/10/3 390/10/3 391/10/3
f 395/9/3 394/9/3 393/9/3
f 396/9/3 394/9/3 395/9/3
f 401/9/3 398/9/3 397/9/3
f 402/9/3 398/9/3 401/9/3
f 403/10/3 400/10/3 399/10/3
f 404/10/3 400/10/3 403/10/3
f 408/9/3 406/9/3 405/9/3
f 409/10/3 407/10/3 406/10/3
f 409/9/3 406/9/3 408/9/3
f 410/10/3 407/10/3 409/10/3
f 411/10/4 412/10/4 415/10/4
f 415/10/4 412/10/4 416/10/4
f 413/10/4 414/10/4 417/10/4
f 417/10/4 414/10/4 418/10/4
f 419/10/4 420/10/4 421/10/4
f 421/10/4 420/10/4 422/10/4
f 423/1/4 424/1/4 425/1/4
f 425/1/4 424/1/4 426/1/4
f 427/10/4 428/10/4 429/10/4
f 429/10/4 428/10/4 430/10/4
f 431/10/4 432/10/4 433/10/4
f 433/10/4 432/10/4 434/10/4
f 435/10/4 436/10/4 440/10/4
f 440/10/4 436/10/4 441/10/4
f 437/10/4 438/10/4 442/10/4
f 438/9/4 439/9/4 443/9/4
f 442/10/4 438/10/4 443/10/4
f 443/9/4 439/9/4 444/9/4
f 445/10/4 446/10/4 447/10/4
f 447/10/4 446/10/4 448/10/4
f 449/10/4 450/10/4 452/10/4
f 450/9/4 451/9/4 453/9/4
f 452/10/4 450/10/4 453/10/4
f 453/9/4 451/9/4 454/9/4
f 455/10/4 456/10/4 457/10/4
f 457/10/4 456/10/4 458/10/4
f 459/9/4 460/9/4 463/9/4
f 463/9/4 460/9/4 464/9/4
f 461/9/4 462/9/4 465/9/4
f 465/9/4 462/9/4 466/9/4
f 467/10/4 468/10/4 471/10/4
f 471/10/4 468/10/4 472/10/4
f 469/10/4 470/10/4 473/10/4
f 473/10/4 470/10/4 474/10/4
f 475/10/4 476/10/4 479/10/4
f 479/10/4 476/10/4 480/10/4
f 477/10/4 478/10/4 481/10/4
f 481/10/4 478/10/4 482/10/4
f 483/4/4 484/4/4 486/4/4
f 484/3/4 485/3/4 487/3/4
f 486/4/4 484/4/4 487/4/4
f 487/3/4 485/3/4 488/3/4
f 491/10/5 490/10/5 489/10/5
f 492/10/5 490/10/5 491/10/5
f 495/10/5 494/10/5 493/10/5
f 496/10/5 494/10/5 495/10/5
f 499/10/5 498/10/5 497/10/5
f 500/10/5 498/10/5 499/10/5
f 503/10/5 502/10/5 501/10/5
f 504/10/5 502/10/5 503/10/5
f 507/10/5 506/10/5 505/10/5
f 508/10/5 506/10/5 507/10/5
f 511/10/5 510/10/5 509/10/5
f 512/10/5 510/10/5 511/10/5
f 515/10/5 514/10/5 513/10/5
f 516/10/5 514/10/5 515/10/5
f 519/1/5 518/1/5 517/1/5
f 520/1/5 518/1/5 519/1/5
f 523/10/5 522/10/5 521/10/5
f 524/10/5 522/10/5 523/10/5
f 527/10/5 526/10/5 525/10/5
f 528/10/5 526/10/5 527/10/5
f 531/10/5 530/10/5 529/10/5
f 532/10/5 530/10/5 531/10/5
f 535/10/5 534/10/5 533/10/5
f 536/10/5 534/10/5 535/10/5
f 539/10/5 538/10/5 537/10/5
f 540/10/5 538/10/5 539/10/5
f 543/10/5 542/10/5 541/10/5
f 544/10/5 542/10/5 543/10/5
f 547/10/5 546/10/5 545/10/5
f 548/10/5 546/10/5 547/10/5
f 549/4/5 548/4/5 547/4/5
f 550/4/5 548/4/5 549/4/5
f 553/10/5 552/10/5 551/10/5
f 554/10/5 552/10/5 553/10/5
f 557/10/5 556/10/5 555/10/5
f 558/10/5 556/10/5 557/10/5
f 561/10/5 560/10/5 559/10/5
f 562/10/5 560/10/5 561/10/5
f 565/10/5 564/10/5 563/10/5
f 566/10/5 564/10/5 565/10/5
f 567/9/6 568/9/6 569/9/6
f 569/9/6 568/9/6 570/9/6
f 571/9/6 572/9/6 573/9/6
f 573/9/6 572/9/6 574/9/6
f 575/10/6 576/10/6 577/10/6
f 577/10/6 576/10/6 578/10/6
f 579/9/6 580/9/6 581/9/6
f 581/9/6 580/9/6 582/9/6
f 583/10/6 584/10/6 585/10/6
f 585/10/6 584/10/6 586/10/6
f 587/10/6 588/10/6 589/10/6
f 589/10/6 588/10/6 590/10/6
f 591/9/6 592/9/6 593/9/6
f 593/9/6 592/9/6 594/9/6
f 593/10/6 594/10/6 595/10/6
f 595/10/6 594/10/6 596/10/6
f 595/3/6 596/3/6 597/3/6
f 597/3/6 596/3/6 598/3/6
f 599/10/6 600/10/6 601/10/6
f 601/10/6 600/10/6 602/10/6
f 603/10/6 604/10/6 605/10/6
f 605/10/6 604/10/6 606/10/6
f 607/10/6 608/10/6 609/10/6
f 609/10/6 608/10/6 610/10/6
f 611/10/6 612/10/6 613/10/6
f 613/10/6 612/10/6 614/10/6
f 615/10/6 616/10/6 617/10/6
f 617/10/6 616/10/6 618/10/6
f 617/4/6 618/4/6 619/4/6
f 619/4/6 618/4/6 620/4/6
f 619/2/6 620/2/6 621/2/6
f 621/2/6 620/2/6 622/2/6
f 621/4/6 622/4/6 623/4/6
f 623/4/6 622/4/6 624/4/6
f 623/2/6 624/2/6 625/2/6
f 625/2/6 624/2/6 626/2/6
f 625/4/6 626/4/6 627/4/6
f 627/4/6 626/4/6 628/4/6
f 627/2/6 628/2/6 629/2/6
f 629/2/6 628/2/6 630/2/6
f 629/4/6 630/4/6 631/4/6
f 631/4/6 630/4/6 632/4/6
f 631/10/6 632/10/6 633/10/6
f 633/10/6 632/10/6 634/10/6
f 635/9/6 636/9/6 637/9/6
f 637/9/6 636/9/6 638/9/6
f 639/8/6 640/8/6 641/8/6
f 641/8/6 640/8/6 642/8/6
f 641/9/6 642/9/6 643/9/6
f 643/9/6 642/9/6 644/9/6
