# MagicaVoxel @ Ephtracy

# group
o 

# material
mtllib flecha.mtl
usemtl palette

# normals
vn -1 0 0
vn 1 0 0
vn 0 0 1
vn 0 0 -1
vn 0 -1 0
vn 0 1 0

# texcoords
vt 0.880859 0.5
vt 0.904297 0.5
vt 0.908203 0.5
vt 0.986328 0.5
vt 0.994141 0.5

# verts
v -1.4 1.5 -1.8
v -1.4 1.5 -2
v -1.4 1.6 -1.8
v -1.4 1.6 -2
v -1.3 1.4 -1.8
v -1.3 1.4 -2
v -1.3 1.5 -1.8
v -1.3 1.5 -2
v -1.3 1.6 -1.8
v -1.3 1.6 -2
v -1.3 1.7 -1.8
v -1.3 1.7 -2
v -1.2 1.2 -1.8
v -1.2 1.2 -2
v -1.2 1.3 -1.8
v -1.2 1.3 -2
v -1.2 1.8 -1.8
v -1.2 1.8 -2
v -1.2 1.9 -1.8
v -1.2 1.9 -2
v -1.1 1.3 -1.8
v -1.1 1.3 -2
v -1.1 1.4 -1.8
v -1.1 1.4 -2
v -1.1 1.7 -1.8
v -1.1 1.7 -2
v -1.1 1.8 -1.8
v -1.1 1.8 -2
v 0.9 1.3 -1.8
v 0.9 1.3 -2
v 0.9 1.4 -1.8
v 0.9 1.4 -2
v 0.9 1.7 -1.8
v 0.9 1.7 -2
v 0.9 1.8 -1.8
v 0.9 1.8 -2
v -1.1 1.2 -1.8
v -1.1 1.2 -2
v -1.1 1.3 -1.8
v -1.1 1.3 -2
v -1.1 1.8 -1.8
v -1.1 1.8 -2
v -1.1 1.9 -1.8
v -1.1 1.9 -2
v -1 1.3 -1.8
v -1 1.3 -2
v -1 1.4 -1.8
v -1 1.4 -2
v -1 1.7 -1.8
v -1 1.7 -2
v -1 1.8 -1.8
v -1 1.8 -2
v 1 1.3 -1.8
v 1 1.3 -2
v 1 1.4 -1.8
v 1 1.4 -2
v 1 1.7 -1.8
v 1 1.7 -2
v 1 1.8 -1.8
v 1 1.8 -2
v 1.1 1.4 -1.8
v 1.1 1.4 -2
v 1.1 1.5 -1.8
v 1.1 1.5 -2
v 1.1 1.6 -1.8
v 1.1 1.6 -2
v 1.1 1.7 -1.8
v 1.1 1.7 -2
v 1.2 1.5 -1.8
v 1.2 1.5 -2
v 1.2 1.6 -1.8
v 1.2 1.6 -2
v -1.4 1.5 -1.8
v -1.4 1.6 -1.8
v -1.3 1.4 -1.8
v -1.3 1.5 -1.8
v -1.3 1.6 -1.8
v -1.3 1.7 -1.8
v -1.2 1.2 -1.8
v -1.2 1.3 -1.8
v -1.2 1.8 -1.8
v -1.2 1.9 -1.8
v -1.1 1.2 -1.8
v -1.1 1.3 -1.8
v -1.1 1.4 -1.8
v -1.1 1.7 -1.8
v -1.1 1.8 -1.8
v -1.1 1.9 -1.8
v -1 1.3 -1.8
v -1 1.4 -1.8
v -1 1.5 -1.8
v -1 1.6 -1.8
v -1 1.7 -1.8
v -1 1.8 -1.8
v 0.9 1.3 -1.8
v 0.9 1.4 -1.8
v 0.9 1.5 -1.8
v 0.9 1.6 -1.8
v 0.9 1.7 -1.8
v 0.9 1.8 -1.8
v 1 1.3 -1.8
v 1 1.4 -1.8
v 1 1.5 -1.8
v 1 1.6 -1.8
v 1 1.7 -1.8
v 1 1.8 -1.8
v 1.1 1.4 -1.8
v 1.1 1.5 -1.8
v 1.1 1.6 -1.8
v 1.1 1.7 -1.8
v 1.2 1.5 -1.8
v 1.2 1.6 -1.8
v -1.4 1.5 -2
v -1.4 1.6 -2
v -1.3 1.4 -2
v -1.3 1.5 -2
v -1.3 1.6 -2
v -1.3 1.7 -2
v -1.2 1.2 -2
v -1.2 1.3 -2
v -1.2 1.8 -2
v -1.2 1.9 -2
v -1.1 1.2 -2
v -1.1 1.3 -2
v -1.1 1.4 -2
v -1.1 1.7 -2
v -1.1 1.8 -2
v -1.1 1.9 -2
v -1 1.3 -2
v -1 1.4 -2
v -1 1.5 -2
v -1 1.6 -2
v -1 1.7 -2
v -1 1.8 -2
v 0.9 1.3 -2
v 0.9 1.4 -2
v 0.9 1.5 -2
v 0.9 1.6 -2
v 0.9 1.7 -2
v 0.9 1.8 -2
v 1 1.3 -2
v 1 1.4 -2
v 1 1.5 -2
v 1 1.6 -2
v 1 1.7 -2
v 1 1.8 -2
v 1.1 1.4 -2
v 1.1 1.5 -2
v 1.1 1.6 -2
v 1.1 1.7 -2
v 1.2 1.5 -2
v 1.2 1.6 -2
v -1.2 1.2 -1.8
v -1.1 1.2 -1.8
v -1.2 1.2 -2
v -1.1 1.2 -2
v -1.1 1.3 -1.8
v -1 1.3 -1.8
v 0.9 1.3 -1.8
v 1 1.3 -1.8
v -1.1 1.3 -2
v -1 1.3 -2
v 0.9 1.3 -2
v 1 1.3 -2
v -1.3 1.4 -1.8
v -1.1 1.4 -1.8
v -1 1.4 -1.8
v 0.9 1.4 -1.8
v 1 1.4 -1.8
v 1.1 1.4 -1.8
v -1.3 1.4 -2
v -1.1 1.4 -2
v -1 1.4 -2
v 0.9 1.4 -2
v 1 1.4 -2
v 1.1 1.4 -2
v -1.4 1.5 -1.8
v -1.3 1.5 -1.8
v 1.1 1.5 -1.8
v 1.2 1.5 -1.8
v -1.4 1.5 -2
v -1.3 1.5 -2
v 1.1 1.5 -2
v 1.2 1.5 -2
v -1.2 1.8 -1.8
v -1.1 1.8 -1.8
v -1.2 1.8 -2
v -1.1 1.8 -2
v -1.2 1.3 -1.8
v -1.1 1.3 -1.8
v -1.2 1.3 -2
v -1.1 1.3 -2
v -1.4 1.6 -1.8
v -1.3 1.6 -1.8
v 1.1 1.6 -1.8
v 1.2 1.6 -1.8
v -1.4 1.6 -2
v -1.3 1.6 -2
v 1.1 1.6 -2
v 1.2 1.6 -2
v -1.3 1.7 -1.8
v -1.1 1.7 -1.8
v -1 1.7 -1.8
v 0.9 1.7 -1.8
v 1 1.7 -1.8
v 1.1 1.7 -1.8
v -1.3 1.7 -2
v -1.1 1.7 -2
v -1 1.7 -2
v 0.9 1.7 -2
v 1 1.7 -2
v 1.1 1.7 -2
v -1.1 1.8 -1.8
v -1 1.8 -1.8
v 0.9 1.8 -1.8
v 1 1.8 -1.8
v -1.1 1.8 -2
v -1 1.8 -2
v 0.9 1.8 -2
v 1 1.8 -2
v -1.2 1.9 -1.8
v -1.1 1.9 -1.8
v -1.2 1.9 -2
v -1.1 1.9 -2

# faces
f 3/5/1 2/5/1 1/5/1
f 4/5/1 2/5/1 3/5/1
f 7/5/1 6/5/1 5/5/1
f 8/5/1 6/5/1 7/5/1
f 11/5/1 10/5/1 9/5/1
f 12/5/1 10/5/1 11/5/1
f 15/5/1 14/5/1 13/5/1
f 16/5/1 14/5/1 15/5/1
f 19/5/1 18/5/1 17/5/1
f 20/5/1 18/5/1 19/5/1
f 23/5/1 22/5/1 21/5/1
f 24/5/1 22/5/1 23/5/1
f 27/5/1 26/5/1 25/5/1
f 28/5/1 26/5/1 27/5/1
f 31/5/1 30/5/1 29/5/1
f 32/5/1 30/5/1 31/5/1
f 35/5/1 34/5/1 33/5/1
f 36/5/1 34/5/1 35/5/1
f 37/5/2 38/5/2 39/5/2
f 39/5/2 38/5/2 40/5/2
f 41/5/2 42/5/2 43/5/2
f 43/5/2 42/5/2 44/5/2
f 45/5/2 46/5/2 47/5/2
f 47/5/2 46/5/2 48/5/2
f 49/5/2 50/5/2 51/5/2
f 51/5/2 50/5/2 52/5/2
f 53/5/2 54/5/2 55/5/2
f 55/5/2 54/5/2 56/5/2
f 57/5/2 58/5/2 59/5/2
f 59/5/2 58/5/2 60/5/2
f 61/5/2 62/5/2 63/5/2
f 63/5/2 62/5/2 64/5/2
f 65/5/2 66/5/2 67/5/2
f 67/5/2 66/5/2 68/5/2
f 69/5/2 70/5/2 71/5/2
f 71/5/2 70/5/2 72/5/2
f 76/5/3 74/5/3 73/5/3
f 77/5/3 74/5/3 76/5/3
f 83/5/3 80/5/3 79/5/3
f 84/5/3 80/5/3 83/5/3
f 85/5/3 76/5/3 75/5/3
f 86/5/3 78/5/3 77/5/3
f 87/5/3 82/5/3 81/5/3
f 88/5/3 82/5/3 87/5/3
f 89/5/3 85/5/3 84/5/3
f 90/5/3 76/5/3 85/5/3
f 90/5/3 85/5/3 89/5/3
f 91/2/3 77/2/3 76/2/3
f 91/5/3 76/5/3 90/5/3
f 92/5/3 87/5/3 86/5/3
f 92/2/3 77/2/3 91/2/3
f 92/5/3 86/5/3 77/5/3
f 93/5/3 87/5/3 92/5/3
f 94/5/3 87/5/3 93/5/3
f 96/5/3 91/5/3 90/5/3
f 97/1/3 92/1/3 91/1/3
f 97/5/3 91/5/3 96/5/3
f 98/5/3 93/5/3 92/5/3
f 98/1/3 92/1/3 97/1/3
f 99/5/3 93/5/3 98/5/3
f 101/5/3 96/5/3 95/5/3
f 102/3/3 97/3/3 96/3/3
f 102/5/3 96/5/3 101/5/3
f 103/4/3 98/4/3 97/4/3
f 103/3/3 97/3/3 102/3/3
f 104/3/3 99/3/3 98/3/3
f 104/4/3 98/4/3 103/4/3
f 105/5/3 100/5/3 99/5/3
f 105/3/3 99/3/3 104/3/3
f 106/5/3 100/5/3 105/5/3
f 107/5/3 103/5/3 102/5/3
f 108/3/3 104/3/3 103/3/3
f 108/5/3 103/5/3 107/5/3
f 109/5/3 105/5/3 104/5/3
f 109/3/3 104/3/3 108/3/3
f 110/5/3 105/5/3 109/5/3
f 111/5/3 109/5/3 108/5/3
f 112/5/3 109/5/3 111/5/3
f 113/5/4 114/5/4 116/5/4
f 116/5/4 114/5/4 117/5/4
f 119/5/4 120/5/4 123/5/4
f 123/5/4 120/5/4 124/5/4
f 115/5/4 116/5/4 125/5/4
f 117/5/4 118/5/4 126/5/4
f 121/5/4 122/5/4 127/5/4
f 127/5/4 122/5/4 128/5/4
f 124/5/4 125/5/4 129/5/4
f 125/5/4 116/5/4 130/5/4
f 129/5/4 125/5/4 130/5/4
f 116/2/4 117/2/4 131/2/4
f 130/5/4 116/5/4 131/5/4
f 126/5/4 127/5/4 132/5/4
f 131/2/4 117/2/4 132/2/4
f 117/5/4 126/5/4 132/5/4
f 132/5/4 127/5/4 133/5/4
f 133/5/4 127/5/4 134/5/4
f 130/5/4 131/5/4 136/5/4
f 131/1/4 132/1/4 137/1/4
f 136/5/4 131/5/4 137/5/4
f 132/5/4 133/5/4 138/5/4
f 137/1/4 132/1/4 138/1/4
f 138/5/4 133/5/4 139/5/4
f 135/5/4 136/5/4 141/5/4
f 136/3/4 137/3/4 142/3/4
f 141/5/4 136/5/4 142/5/4
f 137/4/4 138/4/4 143/4/4
f 142/3/4 137/3/4 143/3/4
f 138/3/4 139/3/4 144/3/4
f 143/4/4 138/4/4 144/4/4
f 139/5/4 140/5/4 145/5/4
f 144/3/4 139/3/4 145/3/4
f 145/5/4 140/5/4 146/5/4
f 142/5/4 143/5/4 147/5/4
f 143/3/4 144/3/4 148/3/4
f 147/5/4 143/5/4 148/5/4
f 144/5/4 145/5/4 149/5/4
f 148/3/4 144/3/4 149/3/4
f 149/5/4 145/5/4 150/5/4
f 148/5/4 149/5/4 151/5/4
f 151/5/4 149/5/4 152/5/4
f 155/5/5 154/5/5 153/5/5
f 156/5/5 154/5/5 155/5/5
f 161/5/5 158/5/5 157/5/5
f 162/5/5 158/5/5 161/5/5
f 163/5/5 160/5/5 159/5/5
f 164/5/5 160/5/5 163/5/5
f 171/5/5 166/5/5 165/5/5
f 172/5/5 166/5/5 171/5/5
f 173/5/5 168/5/5 167/5/5
f 174/5/5 168/5/5 173/5/5
f 175/5/5 170/5/5 169/5/5
f 176/5/5 170/5/5 175/5/5
f 181/5/5 178/5/5 177/5/5
f 182/5/5 178/5/5 181/5/5
f 183/5/5 180/5/5 179/5/5
f 184/5/5 180/5/5 183/5/5
f 187/5/5 186/5/5 185/5/5
f 188/5/5 186/5/5 187/5/5
f 189/5/6 190/5/6 191/5/6
f 191/5/6 190/5/6 192/5/6
f 193/5/6 194/5/6 197/5/6
f 197/5/6 194/5/6 198/5/6
f 195/5/6 196/5/6 199/5/6
f 199/5/6 196/5/6 200/5/6
f 201/5/6 202/5/6 207/5/6
f 207/5/6 202/5/6 208/5/6
f 203/5/6 204/5/6 209/5/6
f 209/5/6 204/5/6 210/5/6
f 205/5/6 206/5/6 211/5/6
f 211/5/6 206/5/6 212/5/6
f 213/5/6 214/5/6 217/5/6
f 217/5/6 214/5/6 218/5/6
f 215/5/6 216/5/6 219/5/6
f 219/5/6 216/5/6 220/5/6
f 221/5/6 222/5/6 223/5/6
f 223/5/6 222/5/6 224/5/6
