# MagicaVoxel @ Ephtracy

# group
o 

# material
mtllib frutin.mtl
usemtl palette

# normals
vn -1 0 0
vn 1 0 0
vn 0 0 1
vn 0 0 -1
vn 0 -1 0
vn 0 1 0

# texcoords
vt 0.0292969 0.5
vt 0.0332031 0.5
vt 0.845703 0.5
vt 0.865234 0.5
vt 0.884766 0.5
vt 0.904297 0.5
vt 0.994141 0.5

# verts
v -1.6 2.4 -0.9
v -1.6 2.4 -1.1
v -1.6 2.6 -0.9
v -1.6 2.6 -1.1
v -1.5 1.5 -0.9
v -1.5 1.5 -1.1
v -1.5 2 -0.9
v -1.5 2 -1.1
v -1.5 2.6 -0.9
v -1.5 2.6 -1.1
v -1.5 2.7 -0.9
v -1.5 2.7 -1.1
v -1.4 1.4 -0.9
v -1.4 1.4 -1.1
v -1.4 1.5 -0.9
v -1.4 1.5 -1.1
v -1.4 2 -0.9
v -1.4 2 -1.1
v -1.4 2.1 -0.9
v -1.4 2.1 -1.1
v -1.4 2.7 -0.9
v -1.4 2.7 -1.1
v -1.4 2.8 -0.9
v -1.4 2.8 -1.1
v -1.3 1.3 -0.9
v -1.3 1.3 -1.1
v -1.3 1.4 -0.9
v -1.3 1.4 -1.1
v -1.3 2.1 -0.9
v -1.3 2.1 -1.1
v -1.3 2.2 -0.9
v -1.3 2.2 -1.1
v -1.3 2.8 -0.9
v -1.3 2.8 -1.1
v -1.3 2.9 -0.9
v -1.3 2.9 -1.1
v -1.2 1.2 -0.9
v -1.2 1.2 -1.1
v -1.2 1.3 -0.9
v -1.2 1.3 -1.1
v -1.2 2.2 -0.9
v -1.2 2.2 -1.1
v -1.2 2.4 -0.9
v -1.2 2.4 -1.1
v -1.2 2.9 -0.9
v -1.2 2.9 -1.1
v -1.2 3 -0.9
v -1.2 3 -1.1
v -0.6 2.9 -0.9
v -0.6 2.9 -1.1
v -0.6 3.1 -0.9
v -0.6 3.1 -1.1
v -0.5 2.4 -0.9
v -0.5 2.4 -1.1
v -0.5 2.6 -0.9
v -0.5 2.6 -1.1
v -0.5 3.1 -0.9
v -0.5 3.1 -1.1
v -0.5 3.2 -0.9
v -0.5 3.2 -1.1
v -0.4 2.3 -0.9
v -0.4 2.3 -1.1
v -0.4 2.4 -0.9
v -0.4 2.4 -1.1
v -0.4 3.2 -0.9
v -0.4 3.2 -1.1
v -0.4 3.3 -0.9
v -0.4 3.3 -1.1
v -0.3 1.5 -0.9
v -0.3 1.5 -1.1
v -0.3 2 -0.9
v -0.3 2 -1.1
v -0.3 2.2 -0.9
v -0.3 2.2 -1.1
v -0.3 2.3 -0.9
v -0.3 2.3 -1.1
v -0.2 1.4 -0.9
v -0.2 1.4 -1.1
v -0.2 1.5 -0.9
v -0.2 1.5 -1.1
v -0.2 2 -0.9
v -0.2 2 -1.1
v -0.2 2.2 -0.9
v -0.2 2.2 -1.1
v -0.1 1.3 -0.9
v -0.1 1.3 -1.1
v -0.1 1.4 -0.9
v -0.1 1.4 -1.1
v 0 1.2 -0.9
v 0 1.2 -1.1
v 0 1.3 -0.9
v 0 1.3 -1.1
v -0.8 2.3 -0.9
v -0.8 2.3 -1.1
v -0.8 2.4 -0.9
v -0.8 2.4 -1.1
v -0.7 1.2 -0.9
v -0.7 1.2 -1.1
v -0.7 1.3 -0.9
v -0.7 1.3 -1.1
v -0.7 2.2 -0.9
v -0.7 2.2 -1.1
v -0.7 2.3 -0.9
v -0.7 2.3 -1.1
v -0.7 2.4 -0.9
v -0.7 2.4 -1.1
v -0.7 2.5 -0.9
v -0.7 2.5 -1.1
v -0.7 2.9 -0.9
v -0.7 2.9 -1.1
v -0.7 3 -0.9
v -0.7 3 -1.1
v -0.6 1.3 -0.9
v -0.6 1.3 -1.1
v -0.6 1.4 -0.9
v -0.6 1.4 -1.1
v -0.6 2.1 -0.9
v -0.6 2.1 -1.1
v -0.6 2.2 -0.9
v -0.6 2.2 -1.1
v -0.6 2.5 -0.9
v -0.6 2.5 -1.1
v -0.6 2.6 -0.9
v -0.6 2.6 -1.1
v -0.5 1.4 -0.9
v -0.5 1.4 -1.1
v -0.5 1.5 -0.9
v -0.5 1.5 -1.1
v -0.5 2 -0.9
v -0.5 2 -1.1
v -0.5 2.1 -0.9
v -0.5 2.1 -1.1
v -0.4 1.5 -0.9
v -0.4 1.5 -1.1
v -0.4 2 -0.9
v -0.4 2 -1.1
v -0.2 2.5 -0.9
v -0.2 2.5 -1.1
v -0.2 2.9 -0.9
v -0.2 2.9 -1.1
v -0.2 3.2 -0.9
v -0.2 3.2 -1.1
v -0.2 3.3 -0.9
v -0.2 3.3 -1.1
v -0.1 2.4 -0.9
v -0.1 2.4 -1.1
v -0.1 2.5 -0.9
v -0.1 2.5 -1.1
v -0.1 2.9 -0.9
v -0.1 2.9 -1.1
v -0.1 3.2 -0.9
v -0.1 3.2 -1.1
v 0 2.3 -0.9
v 0 2.3 -1.1
v 0 2.4 -0.9
v 0 2.4 -1.1
v 0.5 1.2 -0.9
v 0.5 1.2 -1.1
v 0.5 1.3 -0.9
v 0.5 1.3 -1.1
v 0.5 2.2 -0.9
v 0.5 2.2 -1.1
v 0.5 2.3 -0.9
v 0.5 2.3 -1.1
v 0.6 1.3 -0.9
v 0.6 1.3 -1.1
v 0.6 1.4 -0.9
v 0.6 1.4 -1.1
v 0.6 2.1 -0.9
v 0.6 2.1 -1.1
v 0.6 2.2 -0.9
v 0.6 2.2 -1.1
v 0.7 1.4 -0.9
v 0.7 1.4 -1.1
v 0.7 1.5 -0.9
v 0.7 1.5 -1.1
v 0.7 2 -0.9
v 0.7 2 -1.1
v 0.7 2.1 -0.9
v 0.7 2.1 -1.1
v 0.8 1.5 -0.9
v 0.8 1.5 -1.1
v 0.8 2 -0.9
v 0.8 2 -1.1
v -1.6 2.4 -0.9
v -1.6 2.6 -0.9
v -1.5 1.5 -0.9
v -1.5 2 -0.9
v -1.5 2.5 -0.9
v -1.5 2.6 -0.9
v -1.5 2.7 -0.9
v -1.4 1.4 -0.9
v -1.4 1.5 -0.9
v -1.4 1.6 -0.9
v -1.4 2 -0.9
v -1.4 2.1 -0.9
v -1.4 2.6 -0.9
v -1.4 2.7 -0.9
v -1.4 2.8 -0.9
v -1.3 1.3 -0.9
v -1.3 1.4 -0.9
v -1.3 1.5 -0.9
v -1.3 1.6 -0.9
v -1.3 2 -0.9
v -1.3 2.1 -0.9
v -1.3 2.2 -0.9
v -1.3 2.5 -0.9
v -1.3 2.7 -0.9
v -1.3 2.8 -0.9
v -1.3 2.9 -0.9
v -1.2 1.2 -0.9
v -1.2 1.3 -0.9
v -1.2 1.4 -0.9
v -1.2 1.9 -0.9
v -1.2 2 -0.9
v -1.2 2.2 -0.9
v -1.2 2.4 -0.9
v -1.2 2.6 -0.9
v -1.2 2.7 -0.9
v -1.2 2.8 -0.9
v -1.2 2.9 -0.9
v -1.2 3 -0.9
v -1.1 2 -0.9
v -1.1 2.1 -0.9
v -1.1 2.2 -0.9
v -1.1 2.4 -0.9
v -1.1 2.6 -0.9
v -1.1 2.8 -0.9
v -1 1.8 -0.9
v -1 1.9 -0.9
v -1 2 -0.9
v -1 2.1 -0.9
v -1 2.2 -0.9
v -1 2.3 -0.9
v -1 2.4 -0.9
v -1 2.5 -0.9
v -1 2.6 -0.9
v -1 2.7 -0.9
v -1 2.8 -0.9
v -0.9 1.3 -0.9
v -0.9 1.4 -0.9
v -0.9 1.9 -0.9
v -0.9 2 -0.9
v -0.9 2.1 -0.9
v -0.9 2.2 -0.9
v -0.9 2.3 -0.9
v -0.9 2.4 -0.9
v -0.9 2.5 -0.9
v -0.9 2.6 -0.9
v -0.9 2.7 -0.9
v -0.9 2.8 -0.9
v -0.8 1.5 -0.9
v -0.8 1.6 -0.9
v -0.8 1.8 -0.9
v -0.8 2 -0.9
v -0.8 2.1 -0.9
v -0.8 2.2 -0.9
v -0.8 2.3 -0.9
v -0.8 2.4 -0.9
v -0.8 2.5 -0.9
v -0.8 2.6 -0.9
v -0.8 2.7 -0.9
v -0.8 2.8 -0.9
v -0.8 2.9 -0.9
v -0.7 1.2 -0.9
v -0.7 1.3 -0.9
v -0.7 1.4 -0.9
v -0.7 1.5 -0.9
v -0.7 1.6 -0.9
v -0.7 1.7 -0.9
v -0.7 2.1 -0.9
v -0.7 2.2 -0.9
v -0.7 2.3 -0.9
v -0.7 2.4 -0.9
v -0.7 2.5 -0.9
v -0.7 2.6 -0.9
v -0.7 2.7 -0.9
v -0.7 2.8 -0.9
v -0.7 2.9 -0.9
v -0.7 3 -0.9
v -0.6 1.3 -0.9
v -0.6 1.4 -0.9
v -0.6 1.5 -0.9
v -0.6 1.6 -0.9
v -0.6 1.7 -0.9
v -0.6 2 -0.9
v -0.6 2.1 -0.9
v -0.6 2.2 -0.9
v -0.6 2.5 -0.9
v -0.6 2.6 -0.9
v -0.6 2.7 -0.9
v -0.6 2.8 -0.9
v -0.6 2.9 -0.9
v -0.6 3.1 -0.9
v -0.5 1.4 -0.9
v -0.5 1.5 -0.9
v -0.5 1.6 -0.9
v -0.5 2 -0.9
v -0.5 2.1 -0.9
v -0.5 2.4 -0.9
v -0.5 2.6 -0.9
v -0.5 2.7 -0.9
v -0.5 2.8 -0.9
v -0.5 2.9 -0.9
v -0.5 3 -0.9
v -0.5 3.1 -0.9
v -0.5 3.2 -0.9
v -0.4 1.5 -0.9
v -0.4 2 -0.9
v -0.4 2.3 -0.9
v -0.4 2.4 -0.9
v -0.4 2.5 -0.9
v -0.4 2.8 -0.9
v -0.4 2.9 -0.9
v -0.4 3 -0.9
v -0.4 3.1 -0.9
v -0.4 3.2 -0.9
v -0.4 3.3 -0.9
v -0.3 1.5 -0.9
v -0.3 2 -0.9
v -0.3 2.2 -0.9
v -0.3 2.3 -0.9
v -0.3 2.4 -0.9
v -0.3 2.5 -0.9
v -0.3 2.9 -0.9
v -0.3 3 -0.9
v -0.2 1.4 -0.9
v -0.2 1.5 -0.9
v -0.2 1.6 -0.9
v -0.2 2 -0.9
v -0.2 2.2 -0.9
v -0.2 2.3 -0.9
v -0.2 2.4 -0.9
v -0.2 2.5 -0.9
v -0.2 2.9 -0.9
v -0.2 3 -0.9
v -0.2 3.2 -0.9
v -0.2 3.3 -0.9
v -0.1 1.3 -0.9
v -0.1 1.4 -0.9
v -0.1 1.5 -0.9
v -0.1 1.6 -0.9
v -0.1 1.9 -0.9
v -0.1 2 -0.9
v -0.1 2.1 -0.9
v -0.1 2.2 -0.9
v -0.1 2.3 -0.9
v -0.1 2.4 -0.9
v -0.1 2.5 -0.9
v -0.1 2.9 -0.9
v -0.1 3.2 -0.9
v 0 1.2 -0.9
v 0 1.3 -0.9
v 0 1.4 -0.9
v 0 1.9 -0.9
v 0 2 -0.9
v 0 2.1 -0.9
v 0 2.2 -0.9
v 0 2.3 -0.9
v 0 2.4 -0.9
v 0.1 1.9 -0.9
v 0.1 2 -0.9
v 0.1 2.1 -0.9
v 0.1 2.2 -0.9
v 0.2 1.8 -0.9
v 0.2 1.9 -0.9
v 0.2 2 -0.9
v 0.2 2.1 -0.9
v 0.2 2.2 -0.9
v 0.3 1.3 -0.9
v 0.3 1.4 -0.9
v 0.3 1.9 -0.9
v 0.3 2 -0.9
v 0.3 2.1 -0.9
v 0.4 1.5 -0.9
v 0.4 1.6 -0.9
v 0.4 1.8 -0.9
v 0.4 2 -0.9
v 0.4 2.1 -0.9
v 0.4 2.2 -0.9
v 0.5 1.2 -0.9
v 0.5 1.3 -0.9
v 0.5 1.4 -0.9
v 0.5 1.5 -0.9
v 0.5 1.6 -0.9
v 0.5 1.7 -0.9
v 0.5 2 -0.9
v 0.5 2.1 -0.9
v 0.5 2.2 -0.9
v 0.5 2.3 -0.9
v 0.6 1.3 -0.9
v 0.6 1.4 -0.9
v 0.6 1.5 -0.9
v 0.6 1.6 -0.9
v 0.6 1.7 -0.9
v 0.6 2 -0.9
v 0.6 2.1 -0.9
v 0.6 2.2 -0.9
v 0.7 1.4 -0.9
v 0.7 1.5 -0.9
v 0.7 1.6 -0.9
v 0.7 2 -0.9
v 0.7 2.1 -0.9
v 0.8 1.5 -0.9
v 0.8 2 -0.9
v -1.6 2.4 -1.1
v -1.6 2.6 -1.1
v -1.5 1.5 -1.1
v -1.5 2 -1.1
v -1.5 2.5 -1.1
v -1.5 2.6 -1.1
v -1.5 2.7 -1.1
v -1.4 1.4 -1.1
v -1.4 1.5 -1.1
v -1.4 1.6 -1.1
v -1.4 2 -1.1
v -1.4 2.1 -1.1
v -1.4 2.6 -1.1
v -1.4 2.7 -1.1
v -1.4 2.8 -1.1
v -1.3 1.3 -1.1
v -1.3 1.4 -1.1
v -1.3 1.5 -1.1
v -1.3 1.6 -1.1
v -1.3 2 -1.1
v -1.3 2.1 -1.1
v -1.3 2.2 -1.1
v -1.3 2.5 -1.1
v -1.3 2.7 -1.1
v -1.3 2.8 -1.1
v -1.3 2.9 -1.1
v -1.2 1.2 -1.1
v -1.2 1.3 -1.1
v -1.2 1.4 -1.1
v -1.2 1.9 -1.1
v -1.2 2 -1.1
v -1.2 2.2 -1.1
v -1.2 2.4 -1.1
v -1.2 2.6 -1.1
v -1.2 2.7 -1.1
v -1.2 2.8 -1.1
v -1.2 2.9 -1.1
v -1.2 3 -1.1
v -1.1 2 -1.1
v -1.1 2.1 -1.1
v -1.1 2.2 -1.1
v -1.1 2.4 -1.1
v -1.1 2.6 -1.1
v -1.1 2.8 -1.1
v -1 1.8 -1.1
v -1 1.9 -1.1
v -1 2 -1.1
v -1 2.1 -1.1
v -1 2.2 -1.1
v -1 2.3 -1.1
v -1 2.4 -1.1
v -1 2.5 -1.1
v -1 2.6 -1.1
v -1 2.7 -1.1
v -1 2.8 -1.1
v -0.9 1.3 -1.1
v -0.9 1.4 -1.1
v -0.9 1.9 -1.1
v -0.9 2 -1.1
v -0.9 2.1 -1.1
v -0.9 2.2 -1.1
v -0.9 2.3 -1.1
v -0.9 2.4 -1.1
v -0.9 2.5 -1.1
v -0.9 2.6 -1.1
v -0.9 2.7 -1.1
v -0.9 2.8 -1.1
v -0.8 1.5 -1.1
v -0.8 1.6 -1.1
v -0.8 1.8 -1.1
v -0.8 2 -1.1
v -0.8 2.1 -1.1
v -0.8 2.2 -1.1
v -0.8 2.3 -1.1
v -0.8 2.4 -1.1
v -0.8 2.5 -1.1
v -0.8 2.6 -1.1
v -0.8 2.7 -1.1
v -0.8 2.8 -1.1
v -0.8 2.9 -1.1
v -0.7 1.2 -1.1
v -0.7 1.3 -1.1
v -0.7 1.4 -1.1
v -0.7 1.5 -1.1
v -0.7 1.6 -1.1
v -0.7 1.7 -1.1
v -0.7 2.1 -1.1
v -0.7 2.2 -1.1
v -0.7 2.3 -1.1
v -0.7 2.4 -1.1
v -0.7 2.5 -1.1
v -0.7 2.6 -1.1
v -0.7 2.7 -1.1
v -0.7 2.8 -1.1
v -0.7 2.9 -1.1
v -0.7 3 -1.1
v -0.6 1.3 -1.1
v -0.6 1.4 -1.1
v -0.6 1.5 -1.1
v -0.6 1.6 -1.1
v -0.6 1.7 -1.1
v -0.6 2 -1.1
v -0.6 2.1 -1.1
v -0.6 2.2 -1.1
v -0.6 2.5 -1.1
v -0.6 2.6 -1.1
v -0.6 2.7 -1.1
v -0.6 2.8 -1.1
v -0.6 2.9 -1.1
v -0.6 3.1 -1.1
v -0.5 1.4 -1.1
v -0.5 1.5 -1.1
v -0.5 1.6 -1.1
v -0.5 2 -1.1
v -0.5 2.1 -1.1
v -0.5 2.4 -1.1
v -0.5 2.6 -1.1
v -0.5 2.7 -1.1
v -0.5 2.8 -1.1
v -0.5 2.9 -1.1
v -0.5 3 -1.1
v -0.5 3.1 -1.1
v -0.5 3.2 -1.1
v -0.4 1.5 -1.1
v -0.4 2 -1.1
v -0.4 2.3 -1.1
v -0.4 2.4 -1.1
v -0.4 2.5 -1.1
v -0.4 2.8 -1.1
v -0.4 2.9 -1.1
v -0.4 3 -1.1
v -0.4 3.1 -1.1
v -0.4 3.2 -1.1
v -0.4 3.3 -1.1
v -0.3 1.5 -1.1
v -0.3 2 -1.1
v -0.3 2.2 -1.1
v -0.3 2.3 -1.1
v -0.3 2.4 -1.1
v -0.3 2.5 -1.1
v -0.3 2.9 -1.1
v -0.3 3 -1.1
v -0.2 1.4 -1.1
v -0.2 1.5 -1.1
v -0.2 1.6 -1.1
v -0.2 2 -1.1
v -0.2 2.2 -1.1
v -0.2 2.3 -1.1
v -0.2 2.4 -1.1
v -0.2 2.5 -1.1
v -0.2 2.9 -1.1
v -0.2 3 -1.1
v -0.2 3.2 -1.1
v -0.2 3.3 -1.1
v -0.1 1.3 -1.1
v -0.1 1.4 -1.1
v -0.1 1.5 -1.1
v -0.1 1.6 -1.1
v -0.1 1.9 -1.1
v -0.1 2 -1.1
v -0.1 2.1 -1.1
v -0.1 2.2 -1.1
v -0.1 2.3 -1.1
v -0.1 2.4 -1.1
v -0.1 2.5 -1.1
v -0.1 2.9 -1.1
v -0.1 3.2 -1.1
v 0 1.2 -1.1
v 0 1.3 -1.1
v 0 1.4 -1.1
v 0 1.9 -1.1
v 0 2 -1.1
v 0 2.1 -1.1
v 0 2.2 -1.1
v 0 2.3 -1.1
v 0 2.4 -1.1
v 0.1 1.9 -1.1
v 0.1 2 -1.1
v 0.1 2.1 -1.1
v 0.1 2.2 -1.1
v 0.2 1.8 -1.1
v 0.2 1.9 -1.1
v 0.2 2 -1.1
v 0.2 2.1 -1.1
v 0.2 2.2 -1.1
v 0.3 1.3 -1.1
v 0.3 1.4 -1.1
v 0.3 1.9 -1.1
v 0.3 2 -1.1
v 0.3 2.1 -1.1
v 0.4 1.5 -1.1
v 0.4 1.6 -1.1
v 0.4 1.8 -1.1
v 0.4 2 -1.1
v 0.4 2.1 -1.1
v 0.4 2.2 -1.1
v 0.5 1.2 -1.1
v 0.5 1.3 -1.1
v 0.5 1.4 -1.1
v 0.5 1.5 -1.1
v 0.5 1.6 -1.1
v 0.5 1.7 -1.1
v 0.5 2 -1.1
v 0.5 2.1 -1.1
v 0.5 2.2 -1.1
v 0.5 2.3 -1.1
v 0.6 1.3 -1.1
v 0.6 1.4 -1.1
v 0.6 1.5 -1.1
v 0.6 1.6 -1.1
v 0.6 1.7 -1.1
v 0.6 2 -1.1
v 0.6 2.1 -1.1
v 0.6 2.2 -1.1
v 0.7 1.4 -1.1
v 0.7 1.5 -1.1
v 0.7 1.6 -1.1
v 0.7 2 -1.1
v 0.7 2.1 -1.1
v 0.8 1.5 -1.1
v 0.8 2 -1.1
v -1.2 1.2 -0.9
v -0.7 1.2 -0.9
v 0 1.2 -0.9
v 0.5 1.2 -0.9
v -1.2 1.2 -1.1
v -0.7 1.2 -1.1
v 0 1.2 -1.1
v 0.5 1.2 -1.1
v -1.3 1.3 -0.9
v -1.2 1.3 -0.9
v -0.7 1.3 -0.9
v -0.6 1.3 -0.9
v -0.1 1.3 -0.9
v 0 1.3 -0.9
v 0.5 1.3 -0.9
v 0.6 1.3 -0.9
v -1.3 1.3 -1.1
v -1.2 1.3 -1.1
v -0.7 1.3 -1.1
v -0.6 1.3 -1.1
v -0.1 1.3 -1.1
v 0 1.3 -1.1
v 0.5 1.3 -1.1
v 0.6 1.3 -1.1
v -1.4 1.4 -0.9
v -1.3 1.4 -0.9
v -0.6 1.4 -0.9
v -0.5 1.4 -0.9
v -0.2 1.4 -0.9
v -0.1 1.4 -0.9
v 0.6 1.4 -0.9
v 0.7 1.4 -0.9
v -1.4 1.4 -1.1
v -1.3 1.4 -1.1
v -0.6 1.4 -1.1
v -0.5 1.4 -1.1
v -0.2 1.4 -1.1
v -0.1 1.4 -1.1
v 0.6 1.4 -1.1
v 0.7 1.4 -1.1
v -1.5 1.5 -0.9
v -1.4 1.5 -0.9
v -0.5 1.5 -0.9
v -0.4 1.5 -0.9
v -0.3 1.5 -0.9
v -0.2 1.5 -0.9
v 0.7 1.5 -0.9
v 0.8 1.5 -0.9
v -1.5 1.5 -1.1
v -1.4 1.5 -1.1
v -0.5 1.5 -1.1
v -0.4 1.5 -1.1
v -0.3 1.5 -1.1
v -0.2 1.5 -1.1
v 0.7 1.5 -1.1
v 0.8 1.5 -1.1
v -0.3 2.2 -0.9
v -0.2 2.2 -0.9
v -0.3 2.2 -1.1
v -0.2 2.2 -1.1
v -0.4 2.3 -0.9
v -0.3 2.3 -0.9
v -0.4 2.3 -1.1
v -0.3 2.3 -1.1
v -1.6 2.4 -0.9
v -1.2 2.4 -0.9
v -0.8 2.4 -0.9
v -0.7 2.4 -0.9
v -0.5 2.4 -0.9
v -0.4 2.4 -0.9
v -1.6 2.4 -1.1
v -1.2 2.4 -1.1
v -0.8 2.4 -1.1
v -0.7 2.4 -1.1
v -0.5 2.4 -1.1
v -0.4 2.4 -1.1
v -0.7 2.5 -0.9
v -0.6 2.5 -0.9
v -0.7 2.5 -1.1
v -0.6 2.5 -1.1
v -0.6 2.6 -0.9
v -0.5 2.6 -0.9
v -0.6 2.6 -1.1
v -0.5 2.6 -1.1
v -0.2 2.9 -0.9
v -0.1 2.9 -0.9
v -0.2 2.9 -1.1
v -0.1 2.9 -1.1
v -1.5 2 -0.9
v -1.4 2 -0.9
v -0.5 2 -0.9
v -0.4 2 -0.9
v -0.3 2 -0.9
v -0.2 2 -0.9
v 0.7 2 -0.9
v 0.8 2 -0.9
v -1.5 2 -1.1
v -1.4 2 -1.1
v -0.5 2 -1.1
v -0.4 2 -1.1
v -0.3 2 -1.1
v -0.2 2 -1.1
v 0.7 2 -1.1
v 0.8 2 -1.1
v -1.4 2.1 -0.9
v -1.3 2.1 -0.9
v -0.6 2.1 -0.9
v -0.5 2.1 -0.9
v 0.6 2.1 -0.9
v 0.7 2.1 -0.9
v -1.4 2.1 -1.1
v -1.3 2.1 -1.1
v -0.6 2.1 -1.1
v -0.5 2.1 -1.1
v 0.6 2.1 -1.1
v 0.7 2.1 -1.1
v -1.3 2.2 -0.9
v -1.2 2.2 -0.9
v -0.7 2.2 -0.9
v -0.6 2.2 -0.9
v 0.5 2.2 -0.9
v 0.6 2.2 -0.9
v -1.3 2.2 -1.1
v -1.2 2.2 -1.1
v -0.7 2.2 -1.1
v -0.6 2.2 -1.1
v 0.5 2.2 -1.1
v 0.6 2.2 -1.1
v -0.8 2.3 -0.9
v -0.7 2.3 -0.9
v 0 2.3 -0.9
v 0.5 2.3 -0.9
v -0.8 2.3 -1.1
v -0.7 2.3 -1.1
v 0 2.3 -1.1
v 0.5 2.3 -1.1
v -0.1 2.4 -0.9
v 0 2.4 -0.9
v -0.1 2.4 -1.1
v 0 2.4 -1.1
v -0.2 2.5 -0.9
v -0.1 2.5 -0.9
v -0.2 2.5 -1.1
v -0.1 2.5 -1.1
v -1.6 2.6 -0.9
v -1.5 2.6 -0.9
v -1.6 2.6 -1.1
v -1.5 2.6 -1.1
v -1.5 2.7 -0.9
v -1.4 2.7 -0.9
v -1.5 2.7 -1.1
v -1.4 2.7 -1.1
v -1.4 2.8 -0.9
v -1.3 2.8 -0.9
v -1.4 2.8 -1.1
v -1.3 2.8 -1.1
v -1.3 2.9 -0.9
v -1.2 2.9 -0.9
v -0.7 2.9 -0.9
v -0.6 2.9 -0.9
v -1.3 2.9 -1.1
v -1.2 2.9 -1.1
v -0.7 2.9 -1.1
v -0.6 2.9 -1.1
v -1.2 3 -0.9
v -0.7 3 -0.9
v -1.2 3 -1.1
v -0.7 3 -1.1
v -0.6 3.1 -0.9
v -0.5 3.1 -0.9
v -0.6 3.1 -1.1
v -0.5 3.1 -1.1
v -0.5 3.2 -0.9
v -0.4 3.2 -0.9
v -0.2 3.2 -0.9
v -0.1 3.2 -0.9
v -0.5 3.2 -1.1
v -0.4 3.2 -1.1
v -0.2 3.2 -1.1
v -0.1 3.2 -1.1
v -0.4 3.3 -0.9
v -0.2 3.3 -0.9
v -0.4 3.3 -1.1
v -0.2 3.3 -1.1

# faces
f 3/7/1 2/7/1 1/7/1
f 4/7/1 2/7/1 3/7/1
f 7/7/1 6/7/1 5/7/1
f 8/7/1 6/7/1 7/7/1
f 11/7/1 10/7/1 9/7/1
f 12/7/1 10/7/1 11/7/1
f 15/7/1 14/7/1 13/7/1
f 16/7/1 14/7/1 15/7/1
f 19/7/1 18/7/1 17/7/1
f 20/7/1 18/7/1 19/7/1
f 23/7/1 22/7/1 21/7/1
f 24/7/1 22/7/1 23/7/1
f 27/7/1 26/7/1 25/7/1
f 28/7/1 26/7/1 27/7/1
f 31/7/1 30/7/1 29/7/1
f 32/7/1 30/7/1 31/7/1
f 35/7/1 34/7/1 33/7/1
f 36/7/1 34/7/1 35/7/1
f 39/7/1 38/7/1 37/7/1
f 40/7/1 38/7/1 39/7/1
f 43/7/1 42/7/1 41/7/1
f 44/7/1 42/7/1 43/7/1
f 47/7/1 46/7/1 45/7/1
f 48/7/1 46/7/1 47/7/1
f 51/7/1 50/7/1 49/7/1
f 52/7/1 50/7/1 51/7/1
f 55/7/1 54/7/1 53/7/1
f 56/7/1 54/7/1 55/7/1
f 59/7/1 58/7/1 57/7/1
f 60/7/1 58/7/1 59/7/1
f 63/7/1 62/7/1 61/7/1
f 64/7/1 62/7/1 63/7/1
f 67/7/1 66/7/1 65/7/1
f 68/7/1 66/7/1 67/7/1
f 71/7/1 70/7/1 69/7/1
f 72/7/1 70/7/1 71/7/1
f 75/7/1 74/7/1 73/7/1
f 76/7/1 74/7/1 75/7/1
f 79/7/1 78/7/1 77/7/1
f 80/7/1 78/7/1 79/7/1
f 83/7/1 82/7/1 81/7/1
f 84/7/1 82/7/1 83/7/1
f 87/7/1 86/7/1 85/7/1
f 88/7/1 86/7/1 87/7/1
f 91/7/1 90/7/1 89/7/1
f 92/7/1 90/7/1 91/7/1
f 93/7/2 94/7/2 95/7/2
f 95/7/2 94/7/2 96/7/2
f 97/7/2 98/7/2 99/7/2
f 99/7/2 98/7/2 100/7/2
f 101/7/2 102/7/2 103/7/2
f 103/7/2 102/7/2 104/7/2
f 105/7/2 106/7/2 107/7/2
f 107/7/2 106/7/2 108/7/2
f 109/7/2 110/7/2 111/7/2
f 111/7/2 110/7/2 112/7/2
f 113/7/2 114/7/2 115/7/2
f 115/7/2 114/7/2 116/7/2
f 117/7/2 118/7/2 119/7/2
f 119/7/2 118/7/2 120/7/2
f 121/7/2 122/7/2 123/7/2
f 123/7/2 122/7/2 124/7/2
f 125/7/2 126/7/2 127/7/2
f 127/7/2 126/7/2 128/7/2
f 129/7/2 130/7/2 131/7/2
f 131/7/2 130/7/2 132/7/2
f 133/7/2 134/7/2 135/7/2
f 135/7/2 134/7/2 136/7/2
f 137/7/2 138/7/2 139/7/2
f 139/7/2 138/7/2 140/7/2
f 141/7/2 142/7/2 143/7/2
f 143/7/2 142/7/2 144/7/2
f 145/7/2 146/7/2 147/7/2
f 147/7/2 146/7/2 148/7/2
f 149/7/2 150/7/2 151/7/2
f 151/7/2 150/7/2 152/7/2
f 153/7/2 154/7/2 155/7/2
f 155/7/2 154/7/2 156/7/2
f 157/7/2 158/7/2 159/7/2
f 159/7/2 158/7/2 160/7/2
f 161/7/2 162/7/2 163/7/2
f 163/7/2 162/7/2 164/7/2
f 165/7/2 166/7/2 167/7/2
f 167/7/2 166/7/2 168/7/2
f 169/7/2 170/7/2 171/7/2
f 171/7/2 170/7/2 172/7/2
f 173/7/2 174/7/2 175/7/2
f 175/7/2 174/7/2 176/7/2
f 177/7/2 178/7/2 179/7/2
f 179/7/2 178/7/2 180/7/2
f 181/7/2 182/7/2 183/7/2
f 183/7/2 182/7/2 184/7/2
f 189/7/3 186/7/3 185/7/3
f 190/7/3 186/7/3 189/7/3
f 193/7/3 188/7/3 187/7/3
f 194/7/3 188/7/3 193/7/3
f 195/7/3 188/7/3 194/7/3
f 197/7/3 191/7/3 190/7/3
f 197/5/3 190/5/3 189/5/3
f 198/7/3 191/7/3 197/7/3
f 201/7/3 193/7/3 192/7/3
f 202/4/3 194/4/3 193/4/3
f 202/7/3 193/7/3 201/7/3
f 203/3/3 195/3/3 194/3/3
f 203/4/3 194/4/3 202/4/3
f 204/7/3 196/7/3 195/7/3
f 204/3/3 195/3/3 203/3/3
f 205/7/3 196/7/3 204/7/3
f 207/7/3 189/7/3 185/7/3
f 207/5/3 197/5/3 189/5/3
f 207/5/3 198/5/3 197/5/3
f 208/7/3 199/7/3 198/7/3
f 208/5/3 198/5/3 207/5/3
f 209/7/3 199/7/3 208/7/3
f 212/7/3 201/7/3 200/7/3
f 213/4/3 202/4/3 201/4/3
f 213/7/3 201/7/3 212/7/3
f 214/3/3 203/3/3 202/3/3
f 214/3/3 204/3/3 203/3/3
f 215/4/3 205/4/3 204/4/3
f 215/3/3 204/3/3 214/3/3
f 216/7/3 206/7/3 205/7/3
f 217/7/3 207/7/3 185/7/3
f 218/6/3 208/6/3 207/6/3
f 219/5/3 209/5/3 208/5/3
f 219/6/3 208/6/3 218/6/3
f 220/7/3 210/7/3 209/7/3
f 220/5/3 209/5/3 219/5/3
f 221/7/3 210/7/3 220/7/3
f 223/4/3 205/4/3 215/4/3
f 223/4/3 215/4/3 214/4/3
f 224/7/3 216/7/3 205/7/3
f 224/4/3 205/4/3 223/4/3
f 224/7/3 217/7/3 216/7/3
f 225/7/3 217/7/3 224/7/3
f 226/7/3 207/7/3 217/7/3
f 226/7/3 217/7/3 225/7/3
f 227/5/3 219/5/3 218/5/3
f 227/5/3 220/5/3 219/5/3
f 227/6/3 218/6/3 207/6/3
f 227/5/3 221/5/3 220/5/3
f 228/5/3 221/5/3 227/5/3
f 229/3/3 214/3/3 202/3/3
f 230/4/3 223/4/3 214/4/3
f 230/3/3 214/3/3 229/3/3
f 231/7/3 224/7/3 223/7/3
f 231/4/3 223/4/3 230/4/3
f 232/6/3 225/6/3 224/6/3
f 232/7/3 224/7/3 231/7/3
f 233/5/3 226/5/3 225/5/3
f 233/6/3 225/6/3 232/6/3
f 234/5/3 226/5/3 233/5/3
f 235/7/3 207/7/3 226/7/3
f 235/5/3 226/5/3 234/5/3
f 236/6/3 227/6/3 207/6/3
f 236/7/3 207/7/3 235/7/3
f 236/6/3 228/6/3 227/6/3
f 237/6/3 228/6/3 236/6/3
f 238/6/3 228/6/3 237/6/3
f 239/5/3 221/5/3 228/5/3
f 239/6/3 228/6/3 238/6/3
f 240/7/3 212/7/3 211/7/3
f 240/4/3 213/4/3 212/4/3
f 241/4/3 202/4/3 213/4/3
f 241/4/3 213/4/3 240/4/3
f 242/2/3 230/2/3 229/2/3
f 242/1/3 231/1/3 230/1/3
f 243/4/3 232/4/3 231/4/3
f 243/1/3 231/1/3 242/1/3
f 244/7/3 233/7/3 232/7/3
f 244/4/3 232/4/3 243/4/3
f 245/6/3 234/6/3 233/6/3
f 245/7/3 233/7/3 244/7/3
f 246/5/3 235/5/3 234/5/3
f 246/6/3 234/6/3 245/6/3
f 246/5/3 236/5/3 235/5/3
f 247/5/3 236/5/3 246/5/3
f 248/7/3 237/7/3 236/7/3
f 248/5/3 236/5/3 247/5/3
f 249/6/3 238/6/3 237/6/3
f 249/7/3 237/7/3 248/7/3
f 250/5/3 239/5/3 238/5/3
f 250/6/3 238/6/3 249/6/3
f 251/5/3 221/5/3 239/5/3
f 251/5/3 239/5/3 250/5/3
f 252/3/3 229/3/3 202/3/3
f 252/4/3 202/4/3 241/4/3
f 253/3/3 229/3/3 252/3/3
f 254/2/3 242/2/3 229/2/3
f 254/3/3 229/3/3 253/3/3
f 254/2/3 243/2/3 242/2/3
f 255/3/3 244/3/3 243/3/3
f 255/2/3 243/2/3 254/2/3
f 256/4/3 245/4/3 244/4/3
f 256/3/3 244/3/3 255/3/3
f 257/7/3 247/7/3 246/7/3
f 257/4/3 245/4/3 256/4/3
f 257/7/3 246/7/3 245/7/3
f 258/7/3 247/7/3 257/7/3
f 259/6/3 248/6/3 247/6/3
f 259/7/3 247/7/3 258/7/3
f 260/5/3 249/5/3 248/5/3
f 260/6/3 248/6/3 259/6/3
f 261/7/3 250/7/3 249/7/3
f 261/5/3 249/5/3 260/5/3
f 262/6/3 251/6/3 250/6/3
f 262/7/3 250/7/3 261/7/3
f 263/5/3 221/5/3 251/5/3
f 263/6/3 251/6/3 262/6/3
f 264/7/3 222/7/3 221/7/3
f 264/5/3 221/5/3 263/5/3
f 265/7/3 240/7/3 211/7/3
f 266/3/3 241/3/3 240/3/3
f 266/7/3 240/7/3 265/7/3
f 267/4/3 253/4/3 252/4/3
f 267/3/3 241/3/3 266/3/3
f 267/4/3 252/4/3 241/4/3
f 268/4/3 253/4/3 267/4/3
f 269/3/3 254/3/3 253/3/3
f 269/4/3 253/4/3 268/4/3
f 269/3/3 255/3/3 254/3/3
f 269/3/3 257/3/3 256/3/3
f 269/3/3 256/3/3 255/3/3
f 270/3/3 257/3/3 269/3/3
f 271/3/3 257/3/3 270/3/3
f 272/7/3 258/7/3 257/7/3
f 272/3/3 257/3/3 271/3/3
f 273/7/3 258/7/3 272/7/3
f 274/7/3 260/7/3 259/7/3
f 275/6/3 261/6/3 260/6/3
f 275/7/3 260/7/3 274/7/3
f 276/5/3 262/5/3 261/5/3
f 276/6/3 261/6/3 275/6/3
f 277/7/3 263/7/3 262/7/3
f 277/5/3 262/5/3 276/5/3
f 278/6/3 264/6/3 263/6/3
f 278/7/3 263/7/3 277/7/3
f 279/7/3 222/7/3 264/7/3
f 279/6/3 264/6/3 278/6/3
f 280/7/3 222/7/3 279/7/3
f 281/7/3 267/7/3 266/7/3
f 282/3/3 268/3/3 267/3/3
f 282/7/3 267/7/3 281/7/3
f 283/4/3 270/4/3 269/4/3
f 283/3/3 268/3/3 282/3/3
f 283/4/3 269/4/3 268/4/3
f 284/4/3 270/4/3 283/4/3
f 285/3/3 271/3/3 270/3/3
f 285/4/3 270/4/3 284/4/3
f 286/3/3 271/3/3 285/3/3
f 287/7/3 272/7/3 271/7/3
f 287/3/3 271/3/3 286/3/3
f 288/7/3 272/7/3 287/7/3
f 289/7/3 276/7/3 275/7/3
f 290/6/3 277/6/3 276/6/3
f 290/7/3 276/7/3 289/7/3
f 291/5/3 278/5/3 277/5/3
f 291/6/3 277/6/3 290/6/3
f 292/7/3 279/7/3 278/7/3
f 292/5/3 278/5/3 291/5/3
f 293/7/3 279/7/3 292/7/3
f 295/7/3 283/7/3 282/7/3
f 296/3/3 284/3/3 283/3/3
f 296/7/3 283/7/3 295/7/3
f 297/4/3 286/4/3 285/4/3
f 297/3/3 284/3/3 296/3/3
f 297/4/3 285/4/3 284/4/3
f 298/7/3 287/7/3 286/7/3
f 298/4/3 286/4/3 297/4/3
f 299/7/3 287/7/3 298/7/3
f 301/7/3 291/7/3 290/7/3
f 302/6/3 292/6/3 291/6/3
f 302/7/3 291/7/3 301/7/3
f 303/5/3 293/5/3 292/5/3
f 303/6/3 292/6/3 302/6/3
f 304/7/3 294/7/3 293/7/3
f 304/5/3 293/5/3 303/5/3
f 305/7/3 294/7/3 304/7/3
f 306/7/3 294/7/3 305/7/3
f 308/7/3 297/7/3 296/7/3
f 308/7/3 298/7/3 297/7/3
f 309/7/3 298/7/3 308/7/3
f 311/7/3 303/7/3 302/7/3
f 311/7/3 301/7/3 300/7/3
f 311/7/3 302/7/3 301/7/3
f 312/7/3 303/7/3 311/7/3
f 313/6/3 304/6/3 303/6/3
f 313/7/3 303/7/3 312/7/3
f 314/5/3 305/5/3 304/5/3
f 314/6/3 304/6/3 313/6/3
f 315/6/3 306/6/3 305/6/3
f 315/5/3 305/5/3 314/5/3
f 316/7/3 307/7/3 306/7/3
f 316/6/3 306/6/3 315/6/3
f 317/7/3 307/7/3 316/7/3
f 322/7/3 311/7/3 310/7/3
f 323/6/3 312/6/3 311/6/3
f 323/7/3 311/7/3 322/7/3
f 324/5/3 315/5/3 314/5/3
f 324/6/3 312/6/3 323/6/3
f 324/5/3 314/5/3 313/5/3
f 324/5/3 313/5/3 312/5/3
f 324/5/3 317/5/3 316/5/3
f 324/5/3 316/5/3 315/5/3
f 325/5/3 317/5/3 324/5/3
f 326/5/3 317/5/3 325/5/3
f 328/7/3 320/7/3 319/7/3
f 329/7/3 320/7/3 328/7/3
f 330/7/3 320/7/3 329/7/3
f 331/7/3 322/7/3 321/7/3
f 332/6/3 323/6/3 322/6/3
f 332/7/3 322/7/3 331/7/3
f 333/5/3 324/5/3 323/5/3
f 333/6/3 323/6/3 332/6/3
f 334/7/3 325/7/3 324/7/3
f 334/5/3 324/5/3 333/5/3
f 335/6/3 326/6/3 325/6/3
f 335/7/3 325/7/3 334/7/3
f 336/5/3 317/5/3 326/5/3
f 336/6/3 326/6/3 335/6/3
f 337/7/3 318/7/3 317/7/3
f 337/5/3 317/5/3 336/5/3
f 338/7/3 318/7/3 337/7/3
f 340/7/3 328/7/3 327/7/3
f 341/4/3 329/4/3 328/4/3
f 341/7/3 328/7/3 340/7/3
f 342/3/3 330/3/3 329/3/3
f 342/4/3 329/4/3 341/4/3
f 343/3/3 330/3/3 342/3/3
f 344/7/3 331/7/3 330/7/3
f 344/3/3 330/3/3 343/3/3
f 345/7/3 331/7/3 344/7/3
f 346/6/3 332/6/3 331/6/3
f 346/7/3 331/7/3 345/7/3
f 347/5/3 333/5/3 332/5/3
f 347/6/3 332/6/3 346/6/3
f 348/7/3 334/7/3 333/7/3
f 348/5/3 333/5/3 347/5/3
f 349/7/3 334/7/3 348/7/3
f 350/7/3 336/7/3 335/7/3
f 350/7/3 337/7/3 336/7/3
f 351/7/3 337/7/3 350/7/3
f 353/7/3 340/7/3 339/7/3
f 354/4/3 341/4/3 340/4/3
f 354/7/3 340/7/3 353/7/3
f 355/3/3 343/3/3 342/3/3
f 355/3/3 342/3/3 341/3/3
f 355/4/3 344/4/3 343/4/3
f 356/7/3 345/7/3 344/7/3
f 356/4/3 344/4/3 355/4/3
f 357/6/3 346/6/3 345/6/3
f 357/7/3 345/7/3 356/7/3
f 358/5/3 347/5/3 346/5/3
f 358/6/3 346/6/3 357/6/3
f 359/7/3 348/7/3 347/7/3
f 359/5/3 347/5/3 358/5/3
f 360/7/3 348/7/3 359/7/3
f 361/3/3 355/3/3 341/3/3
f 361/7/3 356/7/3 355/7/3
f 362/6/3 357/6/3 356/6/3
f 362/7/3 356/7/3 361/7/3
f 362/6/3 358/6/3 357/6/3
f 363/6/3 358/6/3 362/6/3
f 364/7/3 359/7/3 358/7/3
f 364/6/3 358/6/3 363/6/3
f 365/3/3 361/3/3 341/3/3
f 366/4/3 362/4/3 361/4/3
f 366/3/3 361/3/3 365/3/3
f 367/7/3 363/7/3 362/7/3
f 367/4/3 362/4/3 366/4/3
f 368/4/3 364/4/3 363/4/3
f 368/7/3 363/7/3 367/7/3
f 369/7/3 359/7/3 364/7/3
f 369/4/3 364/4/3 368/4/3
f 370/7/3 353/7/3 352/7/3
f 370/4/3 354/4/3 353/4/3
f 371/4/3 341/4/3 354/4/3
f 371/4/3 354/4/3 370/4/3
f 372/2/3 366/2/3 365/2/3
f 372/1/3 367/1/3 366/1/3
f 373/4/3 368/4/3 367/4/3
f 373/1/3 367/1/3 372/1/3
f 374/3/3 369/3/3 368/3/3
f 374/4/3 368/4/3 373/4/3
f 375/4/3 341/4/3 371/4/3
f 375/3/3 365/3/3 341/3/3
f 376/3/3 365/3/3 375/3/3
f 377/2/3 372/2/3 365/2/3
f 377/3/3 365/3/3 376/3/3
f 377/2/3 373/2/3 372/2/3
f 378/3/3 374/3/3 373/3/3
f 378/2/3 373/2/3 377/2/3
f 379/3/3 369/3/3 374/3/3
f 379/3/3 374/3/3 378/3/3
f 380/7/3 359/7/3 369/7/3
f 380/3/3 369/3/3 379/3/3
f 381/7/3 370/7/3 352/7/3
f 382/3/3 371/3/3 370/3/3
f 382/7/3 370/7/3 381/7/3
f 383/4/3 376/4/3 375/4/3
f 383/3/3 371/3/3 382/3/3
f 383/4/3 375/4/3 371/4/3
f 384/4/3 376/4/3 383/4/3
f 385/3/3 379/3/3 378/3/3
f 385/4/3 376/4/3 384/4/3
f 385/3/3 378/3/3 377/3/3
f 385/3/3 377/3/3 376/3/3
f 386/3/3 379/3/3 385/3/3
f 387/3/3 379/3/3 386/3/3
f 388/4/3 380/4/3 379/4/3
f 388/3/3 379/3/3 387/3/3
f 389/7/3 359/7/3 380/7/3
f 389/4/3 380/4/3 388/4/3
f 390/7/3 359/7/3 389/7/3
f 391/7/3 383/7/3 382/7/3
f 392/3/3 384/3/3 383/3/3
f 392/7/3 383/7/3 391/7/3
f 393/4/3 385/4/3 384/4/3
f 393/3/3 384/3/3 392/3/3
f 393/4/3 386/4/3 385/4/3
f 394/4/3 386/4/3 393/4/3
f 395/3/3 387/3/3 386/3/3
f 395/4/3 386/4/3 394/4/3
f 396/4/3 388/4/3 387/4/3
f 396/3/3 387/3/3 395/3/3
f 397/7/3 389/7/3 388/7/3
f 397/4/3 388/4/3 396/4/3
f 398/7/3 389/7/3 397/7/3
f 399/7/3 393/7/3 392/7/3
f 400/3/3 394/3/3 393/3/3
f 400/7/3 393/7/3 399/7/3
f 401/4/3 395/4/3 394/4/3
f 401/3/3 394/3/3 400/3/3
f 401/4/3 396/4/3 395/4/3
f 402/7/3 397/7/3 396/7/3
f 402/4/3 396/4/3 401/4/3
f 403/7/3 397/7/3 402/7/3
f 404/7/3 401/7/3 400/7/3
f 404/7/3 402/7/3 401/7/3
f 405/7/3 402/7/3 404/7/3
f 406/7/4 407/7/4 410/7/4
f 410/7/4 407/7/4 411/7/4
f 408/7/4 409/7/4 414/7/4
f 414/7/4 409/7/4 415/7/4
f 415/7/4 409/7/4 416/7/4
f 411/7/4 412/7/4 418/7/4
f 410/5/4 411/5/4 418/5/4
f 418/7/4 412/7/4 419/7/4
f 413/7/4 414/7/4 422/7/4
f 414/4/4 415/4/4 423/4/4
f 422/7/4 414/7/4 423/7/4
f 415/3/4 416/3/4 424/3/4
f 423/4/4 415/4/4 424/4/4
f 416/7/4 417/7/4 425/7/4
f 424/3/4 416/3/4 425/3/4
f 425/7/4 417/7/4 426/7/4
f 406/7/4 410/7/4 428/7/4
f 410/5/4 418/5/4 428/5/4
f 418/5/4 419/5/4 428/5/4
f 419/7/4 420/7/4 429/7/4
f 428/5/4 419/5/4 429/5/4
f 429/7/4 420/7/4 430/7/4
f 421/7/4 422/7/4 433/7/4
f 422/4/4 423/4/4 434/4/4
f 433/7/4 422/7/4 434/7/4
f 423/3/4 424/3/4 435/3/4
f 424/3/4 425/3/4 435/3/4
f 425/4/4 426/4/4 436/4/4
f 435/3/4 425/3/4 436/3/4
f 426/7/4 427/7/4 437/7/4
f 406/7/4 428/7/4 438/7/4
f 428/6/4 429/6/4 439/6/4
f 429/5/4 430/5/4 440/5/4
f 439/6/4 429/6/4 440/6/4
f 430/7/4 431/7/4 441/7/4
f 440/5/4 430/5/4 441/5/4
f 441/7/4 431/7/4 442/7/4
f 436/4/4 426/4/4 444/4/4
f 435/4/4 436/4/4 444/4/4
f 426/7/4 437/7/4 445/7/4
f 444/4/4 426/4/4 445/4/4
f 437/7/4 438/7/4 445/7/4
f 445/7/4 438/7/4 446/7/4
f 438/7/4 428/7/4 447/7/4
f 446/7/4 438/7/4 447/7/4
f 439/5/4 440/5/4 448/5/4
f 440/5/4 441/5/4 448/5/4
f 428/6/4 439/6/4 448/6/4
f 441/5/4 442/5/4 448/5/4
f 448/5/4 442/5/4 449/5/4
f 423/3/4 435/3/4 450/3/4
f 435/4/4 444/4/4 451/4/4
f 450/3/4 435/3/4 451/3/4
f 444/7/4 445/7/4 452/7/4
f 451/4/4 444/4/4 452/4/4
f 445/6/4 446/6/4 453/6/4
f 452/7/4 445/7/4 453/7/4
f 446/5/4 447/5/4 454/5/4
f 453/6/4 446/6/4 454/6/4
f 454/5/4 447/5/4 455/5/4
f 447/7/4 428/7/4 456/7/4
f 455/5/4 447/5/4 456/5/4
f 428/6/4 448/6/4 457/6/4
f 456/7/4 428/7/4 457/7/4
f 448/6/4 449/6/4 457/6/4
f 457/6/4 449/6/4 458/6/4
f 458/6/4 449/6/4 459/6/4
f 449/5/4 442/5/4 460/5/4
f 459/6/4 449/6/4 460/6/4
f 432/7/4 433/7/4 461/7/4
f 433/4/4 434/4/4 461/4/4
f 434/4/4 423/4/4 462/4/4
f 461/4/4 434/4/4 462/4/4
f 450/2/4 451/2/4 463/2/4
f 451/1/4 452/1/4 463/1/4
f 452/4/4 453/4/4 464/4/4
f 463/1/4 452/1/4 464/1/4
f 453/7/4 454/7/4 465/7/4
f 464/4/4 453/4/4 465/4/4
f 454/6/4 455/6/4 466/6/4
f 465/7/4 454/7/4 466/7/4
f 455/5/4 456/5/4 467/5/4
f 466/6/4 455/6/4 467/6/4
f 456/5/4 457/5/4 467/5/4
f 467/5/4 457/5/4 468/5/4
f 457/7/4 458/7/4 469/7/4
f 468/5/4 457/5/4 469/5/4
f 458/6/4 459/6/4 470/6/4
f 469/7/4 458/7/4 470/7/4
f 459/5/4 460/5/4 471/5/4
f 470/6/4 459/6/4 471/6/4
f 460/5/4 442/5/4 472/5/4
f 471/5/4 460/5/4 472/5/4
f 423/3/4 450/3/4 473/3/4
f 462/4/4 423/4/4 473/4/4
f 473/3/4 450/3/4 474/3/4
f 450/2/4 463/2/4 475/2/4
f 474/3/4 450/3/4 475/3/4
f 463/2/4 464/2/4 475/2/4
f 464/3/4 465/3/4 476/3/4
f 475/2/4 464/2/4 476/2/4
f 465/4/4 466/4/4 477/4/4
f 476/3/4 465/3/4 477/3/4
f 467/7/4 468/7/4 478/7/4
f 477/4/4 466/4/4 478/4/4
f 466/7/4 467/7/4 478/7/4
f 478/7/4 468/7/4 479/7/4
f 468/6/4 469/6/4 480/6/4
f 479/7/4 468/7/4 480/7/4
f 469/5/4 470/5/4 481/5/4
f 480/6/4 469/6/4 481/6/4
f 470/7/4 471/7/4 482/7/4
f 481/5/4 470/5/4 482/5/4
f 471/6/4 472/6/4 483/6/4
f 482/7/4 471/7/4 483/7/4
f 472/5/4 442/5/4 484/5/4
f 483/6/4 472/6/4 484/6/4
f 442/7/4 443/7/4 485/7/4
f 484/5/4 442/5/4 485/5/4
f 432/7/4 461/7/4 486/7/4
f 461/3/4 462/3/4 487/3/4
f 486/7/4 461/7/4 487/7/4
f 473/4/4 474/4/4 488/4/4
f 487/3/4 462/3/4 488/3/4
f 462/4/4 473/4/4 488/4/4
f 488/4/4 474/4/4 489/4/4
f 474/3/4 475/3/4 490/3/4
f 489/4/4 474/4/4 490/4/4
f 475/3/4 476/3/4 490/3/4
f 477/3/4 478/3/4 490/3/4
f 476/3/4 477/3/4 490/3/4
f 490/3/4 478/3/4 491/3/4
f 491/3/4 478/3/4 492/3/4
f 478/7/4 479/7/4 493/7/4
f 492/3/4 478/3/4 493/3/4
f 493/7/4 479/7/4 494/7/4
f 480/7/4 481/7/4 495/7/4
f 481/6/4 482/6/4 496/6/4
f 495/7/4 481/7/4 496/7/4
f 482/5/4 483/5/4 497/5/4
f 496/6/4 482/6/4 497/6/4
f 483/7/4 484/7/4 498/7/4
f 497/5/4 483/5/4 498/5/4
f 484/6/4 485/6/4 499/6/4
f 498/7/4 484/7/4 499/7/4
f 485/7/4 443/7/4 500/7/4
f 499/6/4 485/6/4 500/6/4
f 500/7/4 443/7/4 501/7/4
f 487/7/4 488/7/4 502/7/4
f 488/3/4 489/3/4 503/3/4
f 502/7/4 488/7/4 503/7/4
f 490/4/4 491/4/4 504/4/4
f 503/3/4 489/3/4 504/3/4
f 489/4/4 490/4/4 504/4/4
f 504/4/4 491/4/4 505/4/4
f 491/3/4 492/3/4 506/3/4
f 505/4/4 491/4/4 506/4/4
f 506/3/4 492/3/4 507/3/4
f 492/7/4 493/7/4 508/7/4
f 507/3/4 492/3/4 508/3/4
f 508/7/4 493/7/4 509/7/4
f 496/7/4 497/7/4 510/7/4
f 497/6/4 498/6/4 511/6/4
f 510/7/4 497/7/4 511/7/4
f 498/5/4 499/5/4 512/5/4
f 511/6/4 498/6/4 512/6/4
f 499/7/4 500/7/4 513/7/4
f 512/5/4 499/5/4 513/5/4
f 513/7/4 500/7/4 514/7/4
f 503/7/4 504/7/4 516/7/4
f 504/3/4 505/3/4 517/3/4
f 516/7/4 504/7/4 517/7/4
f 506/4/4 507/4/4 518/4/4
f 517/3/4 505/3/4 518/3/4
f 505/4/4 506/4/4 518/4/4
f 507/7/4 508/7/4 519/7/4
f 518/4/4 507/4/4 519/4/4
f 519/7/4 508/7/4 520/7/4
f 511/7/4 512/7/4 522/7/4
f 512/6/4 513/6/4 523/6/4
f 522/7/4 512/7/4 523/7/4
f 513/5/4 514/5/4 524/5/4
f 523/6/4 513/6/4 524/6/4
f 514/7/4 515/7/4 525/7/4
f 524/5/4 514/5/4 525/5/4
f 525/7/4 515/7/4 526/7/4
f 526/7/4 515/7/4 527/7/4
f 517/7/4 518/7/4 529/7/4
f 518/7/4 519/7/4 529/7/4
f 529/7/4 519/7/4 530/7/4
f 523/7/4 524/7/4 532/7/4
f 521/7/4 522/7/4 532/7/4
f 522/7/4 523/7/4 532/7/4
f 532/7/4 524/7/4 533/7/4
f 524/6/4 525/6/4 534/6/4
f 533/7/4 524/7/4 534/7/4
f 525/5/4 526/5/4 535/5/4
f 534/6/4 525/6/4 535/6/4
f 526/6/4 527/6/4 536/6/4
f 535/5/4 526/5/4 536/5/4
f 527/7/4 528/7/4 537/7/4
f 536/6/4 527/6/4 537/6/4
f 537/7/4 528/7/4 538/7/4
f 531/7/4 532/7/4 543/7/4
f 532/6/4 533/6/4 544/6/4
f 543/7/4 532/7/4 544/7/4
f 535/5/4 536/5/4 545/5/4
f 544/6/4 533/6/4 545/6/4
f 534/5/4 535/5/4 545/5/4
f 533/5/4 534/5/4 545/5/4
f 537/5/4 538/5/4 545/5/4
f 536/5/4 537/5/4 545/5/4
f 545/5/4 538/5/4 546/5/4
f 546/5/4 538/5/4 547/5/4
f 540/7/4 541/7/4 549/7/4
f 549/7/4 541/7/4 550/7/4
f 550/7/4 541/7/4 551/7/4
f 542/7/4 543/7/4 552/7/4
f 543/6/4 544/6/4 553/6/4
f 552/7/4 543/7/4 553/7/4
f 544/5/4 545/5/4 554/5/4
f 553/6/4 544/6/4 554/6/4
f 545/7/4 546/7/4 555/7/4
f 554/5/4 545/5/4 555/5/4
f 546/6/4 547/6/4 556/6/4
f 555/7/4 546/7/4 556/7/4
f 547/5/4 538/5/4 557/5/4
f 556/6/4 547/6/4 557/6/4
f 538/7/4 539/7/4 558/7/4
f 557/5/4 538/5/4 558/5/4
f 558/7/4 539/7/4 559/7/4
f 548/7/4 549/7/4 561/7/4
f 549/4/4 550/4/4 562/4/4
f 561/7/4 549/7/4 562/7/4
f 550/3/4 551/3/4 563/3/4
f 562/4/4 550/4/4 563/4/4
f 563/3/4 551/3/4 564/3/4
f 551/7/4 552/7/4 565/7/4
f 564/3/4 551/3/4 565/3/4
f 565/7/4 552/7/4 566/7/4
f 552/6/4 553/6/4 567/6/4
f 566/7/4 552/7/4 567/7/4
f 553/5/4 554/5/4 568/5/4
f 567/6/4 553/6/4 568/6/4
f 554/7/4 555/7/4 569/7/4
f 568/5/4 554/5/4 569/5/4
f 569/7/4 555/7/4 570/7/4
f 556/7/4 557/7/4 571/7/4
f 557/7/4 558/7/4 571/7/4
f 571/7/4 558/7/4 572/7/4
f 560/7/4 561/7/4 574/7/4
f 561/4/4 562/4/4 575/4/4
f 574/7/4 561/7/4 575/7/4
f 563/3/4 564/3/4 576/3/4
f 562/3/4 563/3/4 576/3/4
f 564/4/4 565/4/4 576/4/4
f 565/7/4 566/7/4 577/7/4
f 576/4/4 565/4/4 577/4/4
f 566/6/4 567/6/4 578/6/4
f 577/7/4 566/7/4 578/7/4
f 567/5/4 568/5/4 579/5/4
f 578/6/4 567/6/4 579/6/4
f 568/7/4 569/7/4 580/7/4
f 579/5/4 568/5/4 580/5/4
f 580/7/4 569/7/4 581/7/4
f 562/3/4 576/3/4 582/3/4
f 576/7/4 577/7/4 582/7/4
f 577/6/4 578/6/4 583/6/4
f 582/7/4 577/7/4 583/7/4
f 578/6/4 579/6/4 583/6/4
f 583/6/4 579/6/4 584/6/4
f 579/7/4 580/7/4 585/7/4
f 584/6/4 579/6/4 585/6/4
f 562/3/4 582/3/4 586/3/4
f 582/4/4 583/4/4 587/4/4
f 586/3/4 582/3/4 587/3/4
f 583/7/4 584/7/4 588/7/4
f 587/4/4 583/4/4 588/4/4
f 584/4/4 585/4/4 589/4/4
f 588/7/4 584/7/4 589/7/4
f 585/7/4 580/7/4 590/7/4
f 589/4/4 585/4/4 590/4/4
f 573/7/4 574/7/4 591/7/4
f 574/4/4 575/4/4 591/4/4
f 575/4/4 562/4/4 592/4/4
f 591/4/4 575/4/4 592/4/4
f 586/2/4 587/2/4 593/2/4
f 587/1/4 588/1/4 593/1/4
f 588/4/4 589/4/4 594/4/4
f 593/1/4 588/1/4 594/1/4
f 589/3/4 590/3/4 595/3/4
f 594/4/4 589/4/4 595/4/4
f 592/4/4 562/4/4 596/4/4
f 562/3/4 586/3/4 596/3/4
f 596/3/4 586/3/4 597/3/4
f 586/2/4 593/2/4 598/2/4
f 597/3/4 586/3/4 598/3/4
f 593/2/4 594/2/4 598/2/4
f 594/3/4 595/3/4 599/3/4
f 598/2/4 594/2/4 599/2/4
f 595/3/4 590/3/4 600/3/4
f 599/3/4 595/3/4 600/3/4
f 590/7/4 580/7/4 601/7/4
f 600/3/4 590/3/4 601/3/4
f 573/7/4 591/7/4 602/7/4
f 591/3/4 592/3/4 603/3/4
f 602/7/4 591/7/4 603/7/4
f 596/4/4 597/4/4 604/4/4
f 603/3/4 592/3/4 604/3/4
f 592/4/4 596/4/4 604/4/4
f 604/4/4 597/4/4 605/4/4
f 599/3/4 600/3/4 606/3/4
f 605/4/4 597/4/4 606/4/4
f 598/3/4 599/3/4 606/3/4
f 597/3/4 598/3/4 606/3/4
f 606/3/4 600/3/4 607/3/4
f 607/3/4 600/3/4 608/3/4
f 600/4/4 601/4/4 609/4/4
f 608/3/4 600/3/4 609/3/4
f 601/7/4 580/7/4 610/7/4
f 609/4/4 601/4/4 610/4/4
f 610/7/4 580/7/4 611/7/4
f 603/7/4 604/7/4 612/7/4
f 604/3/4 605/3/4 613/3/4
f 612/7/4 604/7/4 613/7/4
f 605/4/4 606/4/4 614/4/4
f 613/3/4 605/3/4 614/3/4
f 606/4/4 607/4/4 614/4/4
f 614/4/4 607/4/4 615/4/4
f 607/3/4 608/3/4 616/3/4
f 615/4/4 607/4/4 616/4/4
f 608/4/4 609/4/4 617/4/4
f 616/3/4 608/3/4 617/3/4
f 609/7/4 610/7/4 618/7/4
f 617/4/4 609/4/4 618/4/4
f 618/7/4 610/7/4 619/7/4
f 613/7/4 614/7/4 620/7/4
f 614/3/4 615/3/4 621/3/4
f 620/7/4 614/7/4 621/7/4
f 615/4/4 616/4/4 622/4/4
f 621/3/4 615/3/4 622/3/4
f 616/4/4 617/4/4 622/4/4
f 617/7/4 618/7/4 623/7/4
f 622/4/4 617/4/4 623/4/4
f 623/7/4 618/7/4 624/7/4
f 621/7/4 622/7/4 625/7/4
f 622/7/4 623/7/4 625/7/4
f 625/7/4 623/7/4 626/7/4
f 631/7/5 628/7/5 627/7/5
f 632/7/5 628/7/5 631/7/5
f 633/7/5 630/7/5 629/7/5
f 634/7/5 630/7/5 633/7/5
f 643/7/5 636/7/5 635/7/5
f 644/7/5 636/7/5 643/7/5
f 645/7/5 638/7/5 637/7/5
f 646/7/5 638/7/5 645/7/5
f 647/7/5 640/7/5 639/7/5
f 648/7/5 640/7/5 647/7/5
f 649/7/5 642/7/5 641/7/5
f 650/7/5 642/7/5 649/7/5
f 659/7/5 652/7/5 651/7/5
f 660/7/5 652/7/5 659/7/5
f 661/7/5 654/7/5 653/7/5
f 662/7/5 654/7/5 661/7/5
f 663/7/5 656/7/5 655/7/5
f 664/7/5 656/7/5 663/7/5
f 665/7/5 658/7/5 657/7/5
f 666/7/5 658/7/5 665/7/5
f 675/7/5 668/7/5 667/7/5
f 676/7/5 668/7/5 675/7/5
f 677/7/5 670/7/5 669/7/5
f 678/7/5 670/7/5 677/7/5
f 679/7/5 672/7/5 671/7/5
f 680/7/5 672/7/5 679/7/5
f 681/7/5 674/7/5 673/7/5
f 682/7/5 674/7/5 681/7/5
f 685/7/5 684/7/5 683/7/5
f 686/7/5 684/7/5 685/7/5
f 689/7/5 688/7/5 687/7/5
f 690/7/5 688/7/5 689/7/5
f 697/7/5 692/7/5 691/7/5
f 698/7/5 692/7/5 697/7/5
f 699/7/5 694/7/5 693/7/5
f 700/7/5 694/7/5 699/7/5
f 701/7/5 696/7/5 695/7/5
f 702/7/5 696/7/5 701/7/5
f 705/7/5 704/7/5 703/7/5
f 706/7/5 704/7/5 705/7/5
f 709/7/5 708/7/5 707/7/5
f 710/7/5 708/7/5 709/7/5
f 713/7/5 712/7/5 711/7/5
f 714/7/5 712/7/5 713/7/5
f 715/7/6 716/7/6 723/7/6
f 723/7/6 716/7/6 724/7/6
f 717/7/6 718/7/6 725/7/6
f 725/7/6 718/7/6 726/7/6
f 719/7/6 720/7/6 727/7/6
f 727/7/6 720/7/6 728/7/6
f 721/7/6 722/7/6 729/7/6
f 729/7/6 722/7/6 730/7/6
f 731/7/6 732/7/6 737/7/6
f 737/7/6 732/7/6 738/7/6
f 733/7/6 734/7/6 739/7/6
f 739/7/6 734/7/6 740/7/6
f 735/7/6 736/7/6 741/7/6
f 741/7/6 736/7/6 742/7/6
f 743/7/6 744/7/6 749/7/6
f 749/7/6 744/7/6 750/7/6
f 745/7/6 746/7/6 751/7/6
f 751/7/6 746/7/6 752/7/6
f 747/7/6 748/7/6 753/7/6
f 753/7/6 748/7/6 754/7/6
f 755/7/6 756/7/6 759/7/6
f 759/7/6 756/7/6 760/7/6
f 757/7/6 758/7/6 761/7/6
f 761/7/6 758/7/6 762/7/6
f 763/7/6 764/7/6 765/7/6
f 765/7/6 764/7/6 766/7/6
f 767/7/6 768/7/6 769/7/6
f 769/7/6 768/7/6 770/7/6
f 771/7/6 772/7/6 773/7/6
f 773/7/6 772/7/6 774/7/6
f 775/7/6 776/7/6 777/7/6
f 777/7/6 776/7/6 778/7/6
f 779/7/6 780/7/6 781/7/6
f 781/7/6 780/7/6 782/7/6
f 783/7/6 784/7/6 787/7/6
f 787/7/6 784/7/6 788/7/6
f 785/7/6 786/7/6 789/7/6
f 789/7/6 786/7/6 790/7/6
f 791/7/6 792/7/6 793/7/6
f 793/7/6 792/7/6 794/7/6
f 795/7/6 796/7/6 797/7/6
f 797/7/6 796/7/6 798/7/6
f 799/7/6 800/7/6 803/7/6
f 803/7/6 800/7/6 804/7/6
f 801/7/6 802/7/6 805/7/6
f 805/7/6 802/7/6 806/7/6
f 807/7/6 808/7/6 809/7/6
f 809/7/6 808/7/6 810/7/6
